<svg width="38" height="15" viewBox="0 0 38 15" fill="none" xmlns="http://www.w3.org/2000/svg">
<path fill-rule="evenodd" clip-rule="evenodd" d="M38 0C37.4772 0.607901 37.3017 0.783359 37.2113 0.957045C35.2051 3.92743 33.3672 6.9882 31.2706 9.78313C29.4398 12.2289 26.9036 13.4518 23.7595 13.4518C23.538 13.4571 23.3165 13.4607 23.0967 13.4607C16.9982 13.4607 11.6139 11.146 6.55399 7.86195C3.93452 6.11445 1.48874 4.01782 0.61499 0.783358C0.61499 0.698288 0.349157 0.6079 0 0.524602C0.265848 3.14407 1.74749 4.89156 3.49499 6.37321C7.86195 10.1323 12.9272 12.6631 18.6092 13.8009C20.2681 14.1324 21.9908 14.4319 23.6567 14.4319C25.9359 14.4319 28.1105 13.8701 29.874 12.0534C32.8426 8.99445 35.1147 5.24071 37.6509 1.74749C37.9096 1.48165 37.8263 0.957045 38 0Z" fill="#46A292"/>
</svg>
