<svg width="24" height="32" viewBox="0 0 24 32" fill="none" xmlns="http://www.w3.org/2000/svg">
<circle cx="12" cy="30" r="2" fill="#277568"/>
<path d="M18.6758 19.7753C14.649 21.5408 8.106 21.09 5.331 19.7873C4.41525 19.3575 3.7395 18.5085 3.7395 17.4578C3.7395 15.2558 8.7375 13.4685 11.9993 13.4685C15.261 13.4685 20.259 15.2558 20.259 17.4578C20.2598 18.5025 19.5968 19.3718 18.6758 19.7753Z" stroke="#277568" stroke-width="2" stroke-linecap="round" stroke-linejoin="round"/>
<ellipse cx="12" cy="17.5" rx="8" ry="3.5" fill="#277568"/>
<path d="M12 10.5C14.0711 10.5 15.75 8.82107 15.75 6.75C15.75 4.67893 14.0711 3 12 3C9.92893 3 8.25 4.67893 8.25 6.75C8.25 8.82107 9.92893 10.5 12 10.5Z" stroke="#277568" stroke-width="2"/>
<circle cx="12" cy="6.75" r="3.75" fill="#277568"/>
</svg>
