<svg width="318" height="212" viewBox="0 0 318 212" fill="none" xmlns="http://www.w3.org/2000/svg">
<path d="M256.117 29.5445L258.615 25.5208L257.368 24.7576C257.192 24.646 257.05 24.488 256.958 24.301C256.866 24.1139 256.827 23.9051 256.846 23.6976C256.868 23.4622 256.876 23.2257 256.868 22.9895C256.863 22.7815 256.915 22.5763 257.019 22.3961C257.123 22.2159 257.275 22.0677 257.457 21.9676L258.729 21.285L256.52 17.1086L255.248 17.8082C255.064 17.9048 254.857 17.9489 254.65 17.9354C254.443 17.9219 254.243 17.8515 254.074 17.7319C253.878 17.5962 253.675 17.4732 253.471 17.3588C253.287 17.2608 253.134 17.1131 253.029 16.9326C252.924 16.752 252.872 16.5457 252.878 16.3369L252.924 14.8868L248.188 14.7427L248.146 16.197C248.137 16.4053 248.07 16.6071 247.953 16.7799C247.837 16.9527 247.674 17.0899 247.485 17.1764C247.383 17.2231 247.277 17.2782 247.175 17.3333C247.073 17.3884 246.972 17.4436 246.87 17.5072C246.693 17.6141 246.489 17.6707 246.283 17.6707C246.076 17.6707 245.872 17.6141 245.695 17.5072L244.453 16.7355L241.943 20.7762L243.177 21.5436C243.353 21.6548 243.495 21.8128 243.587 21.9999C243.679 22.187 243.718 22.396 243.698 22.6036C243.677 22.8376 243.669 23.0726 243.673 23.3075C243.679 23.5152 243.627 23.7205 243.524 23.9008C243.421 24.0811 243.27 24.2294 243.088 24.3293L241.816 25.0162L244.054 29.1884L245.326 28.5057C245.51 28.4075 245.716 28.3623 245.924 28.375C246.131 28.3877 246.331 28.4579 246.501 28.5778C246.695 28.7126 246.896 28.8371 247.103 28.9509C247.287 29.0497 247.44 29.1975 247.544 29.3779C247.649 29.5583 247.702 29.7642 247.697 29.9728L247.65 31.4228L252.382 31.5712L252.428 30.1169C252.438 29.9096 252.504 29.7089 252.62 29.5369C252.736 29.3648 252.897 29.2281 253.086 29.1417C253.192 29.0908 253.298 29.04 253.399 28.9806L253.705 28.811C253.883 28.7019 254.087 28.6442 254.296 28.6442C254.505 28.6442 254.71 28.7019 254.888 28.811L256.117 29.5445ZM252.11 26.5553C251.435 26.9163 250.667 27.0688 249.904 26.9936C249.142 26.9184 248.419 26.6188 247.826 26.1327C247.234 25.6466 246.799 24.9959 246.576 24.2627C246.354 23.5295 246.354 22.7468 246.576 22.0135C246.798 21.2801 247.232 20.6291 247.824 20.1427C248.416 19.6562 249.139 19.3562 249.902 19.2805C250.664 19.2048 251.432 19.3569 252.108 19.7174C252.784 20.078 253.338 20.6309 253.7 21.3062C253.941 21.7552 254.091 22.2472 254.141 22.7541C254.191 23.261 254.141 23.7729 253.994 24.2604C253.846 24.7479 253.604 25.2016 253.28 25.5953C252.957 25.9891 252.56 26.3153 252.11 26.5553Z" fill="#EBEBEB"/>
<path d="M53.8481 141.103L52.1818 138.224L51.3041 138.733C51.1748 138.81 51.0261 138.848 50.8757 138.843C50.7254 138.837 50.5797 138.789 50.4561 138.703C50.3195 138.613 50.178 138.531 50.0321 138.457C49.9035 138.39 49.796 138.289 49.7212 138.165C49.6464 138.041 49.6072 137.899 49.6081 137.754V136.74H46.2882V137.754C46.289 137.899 46.2499 138.041 46.1751 138.165C46.1003 138.289 45.9927 138.39 45.8642 138.457C45.7183 138.531 45.5767 138.613 45.4402 138.703C45.3165 138.789 45.1709 138.837 45.0205 138.843C44.8702 138.848 44.7215 138.81 44.5922 138.733L43.7145 138.224L42.0566 141.099L42.9386 141.608C43.0643 141.681 43.167 141.789 43.2351 141.918C43.3033 142.046 43.3342 142.192 43.3244 142.337C43.3244 142.418 43.3244 142.502 43.3244 142.583C43.3244 142.664 43.3244 142.744 43.3244 142.825C43.3347 142.97 43.304 143.116 43.2358 143.244C43.1676 143.373 43.0646 143.481 42.9386 143.554L42.0566 144.067L43.7145 146.942L44.5964 146.433C44.7257 146.356 44.8744 146.318 45.0248 146.323C45.1751 146.328 45.3208 146.377 45.4444 146.463C45.5801 146.552 45.7242 146.632 45.8684 146.708C45.9966 146.775 46.104 146.875 46.1788 146.999C46.2536 147.122 46.2929 147.264 46.2924 147.408V148.426H49.6081V147.408C49.6075 147.264 49.6468 147.122 49.7217 146.999C49.7965 146.875 49.9039 146.775 50.0321 146.708C50.1762 146.632 50.3204 146.552 50.4561 146.463C50.5774 146.381 50.7192 146.335 50.8652 146.33C51.0113 146.325 51.156 146.36 51.2829 146.433L52.1648 146.942L53.8226 144.067L52.9407 143.558C52.8161 143.484 52.7146 143.376 52.6472 143.247C52.5799 143.119 52.5494 142.974 52.5591 142.829C52.5591 142.748 52.5591 142.664 52.5591 142.583C52.5591 142.502 52.5591 142.418 52.5591 142.337C52.5493 142.192 52.5803 142.046 52.6484 141.918C52.7166 141.789 52.8193 141.681 52.945 141.608L53.8481 141.103ZM50.6766 142.587C50.6766 143.125 50.5171 143.651 50.2182 144.098C49.9194 144.545 49.4947 144.893 48.9978 145.099C48.5009 145.304 47.9543 145.358 47.4269 145.252C46.8996 145.147 46.4153 144.888 46.0354 144.507C45.6555 144.127 45.397 143.642 45.2926 143.115C45.1882 142.587 45.2426 142.041 45.449 141.544C45.6553 141.048 46.0044 140.623 46.4519 140.325C46.8994 140.027 47.4252 139.869 47.963 139.869C48.3191 139.87 48.6717 139.941 49.0004 140.078C49.3292 140.215 49.6278 140.415 49.879 140.667C50.1303 140.92 50.3293 141.219 50.4647 141.549C50.6001 141.878 50.6692 142.231 50.6681 142.587H50.6766Z" fill="#EBEBEB"/>
<path d="M40.3563 98.8306C37.8011 98.8306 35.3033 99.5883 33.1787 101.008C31.0542 102.427 29.3983 104.445 28.4204 106.806C27.4426 109.167 27.1868 111.764 27.6853 114.27C28.1838 116.776 29.4142 119.078 31.221 120.885C33.0278 122.692 35.3298 123.922 37.8359 124.421C40.342 124.919 42.9396 124.664 45.3003 123.686C47.661 122.708 49.6787 121.052 51.0983 118.927C52.5179 116.803 53.2756 114.305 53.2756 111.75C53.2761 110.053 52.9423 108.373 52.2933 106.805C51.6442 105.238 50.6926 103.813 49.4929 102.613C48.2931 101.414 46.8686 100.462 45.301 99.8129C43.7333 99.1638 42.053 98.83 40.3563 98.8306ZM40.3563 117.779C39.1628 117.779 37.9961 117.425 37.0038 116.762C36.0115 116.099 35.2382 115.156 34.7816 114.054C34.3251 112.951 34.2059 111.737 34.439 110.567C34.6722 109.396 35.2472 108.321 36.0915 107.478C36.9357 106.634 38.0111 106.06 39.1818 105.828C40.3525 105.595 41.5658 105.715 42.6682 106.173C43.7706 106.63 44.7126 107.404 45.375 108.397C46.0375 109.389 46.3907 110.556 46.3898 111.75C46.3898 112.542 46.2337 113.326 45.9305 114.058C45.6272 114.79 45.1827 115.455 44.6224 116.015C44.0621 116.575 43.3969 117.019 42.6649 117.321C41.9329 117.624 41.1484 117.78 40.3563 117.779Z" fill="#EBEBEB"/>
<path d="M42.8409 99.3646H37.8716L38.1472 95.8496H42.5653L42.8409 99.3646Z" fill="#EBEBEB"/>
<path d="M33.3815 101.039L29.8707 104.55L27.5769 101.87L30.7018 98.7456L33.3815 101.039Z" fill="#EBEBEB"/>
<path d="M27.8822 108.909V113.878L24.363 113.602V109.184L27.8822 108.909Z" fill="#EBEBEB"/>
<path d="M29.5528 118.364L33.0677 121.879L30.3881 124.173L27.2632 121.048L29.5528 118.364Z" fill="#EBEBEB"/>
<path d="M37.4265 123.868H42.3916L42.1202 127.387H37.7021L37.4265 123.868Z" fill="#EBEBEB"/>
<path d="M46.8816 122.193L50.3966 118.682L52.6862 121.362L49.5613 124.487L46.8816 122.193Z" fill="#EBEBEB"/>
<path d="M52.3853 114.323V109.354L55.9002 109.63V114.052L52.3853 114.323Z" fill="#EBEBEB"/>
<path d="M50.7104 104.868L47.1997 101.353L49.8794 99.0635L53.0043 102.184L50.7104 104.868Z" fill="#EBEBEB"/>
<path d="M278.089 35.1201C275.533 35.1201 273.034 35.8781 270.909 37.2981C268.784 38.7182 267.127 40.7366 266.149 43.098C265.171 45.4595 264.915 48.058 265.414 50.5649C265.912 53.0718 267.143 55.3746 268.951 57.1819C270.758 58.9893 273.061 60.2202 275.568 60.7188C278.074 61.2175 280.673 60.9616 283.034 59.9834C285.396 59.0053 287.414 57.3488 288.834 55.2236C290.254 53.0983 291.012 50.5997 291.012 48.0436C291.013 46.3463 290.679 44.6656 290.03 43.0974C289.38 41.5292 288.429 40.1043 287.228 38.9041C286.028 37.7039 284.603 36.752 283.035 36.1027C281.467 35.4535 279.786 35.1196 278.089 35.1201ZM278.089 54.0729C276.895 54.0721 275.729 53.7174 274.737 53.0537C273.746 52.3901 272.973 51.4472 272.517 50.3444C272.061 49.2416 271.943 48.0284 272.176 46.8582C272.41 45.6879 272.985 44.6133 273.83 43.7701C274.674 42.9268 275.75 42.353 276.92 42.121C278.091 41.889 279.304 42.0093 280.406 42.4668C281.508 42.9242 282.45 43.6982 283.112 44.6909C283.774 45.6836 284.127 46.8503 284.127 48.0436C284.127 48.8361 283.97 49.6208 283.667 50.3529C283.363 51.085 282.918 51.75 282.358 52.31C281.797 52.87 281.131 53.3139 280.399 53.6164C279.666 53.9189 278.881 54.074 278.089 54.0729Z" fill="#EBEBEB"/>
<path d="M280.574 35.6584H275.604L275.88 32.1392H280.302L280.574 35.6584Z" fill="#EBEBEB"/>
<path d="M271.118 37.3334L267.603 40.8441L265.314 38.1644L268.439 35.0396L271.118 37.3334Z" fill="#EBEBEB"/>
<path d="M265.615 45.2026V50.1719L262.1 49.8963V45.4782L265.615 45.2026Z" fill="#EBEBEB"/>
<path d="M267.29 54.6582L270.8 58.1732L268.121 60.4628L264.996 57.3421L267.29 54.6582Z" fill="#EBEBEB"/>
<path d="M275.159 60.1616H280.128L279.853 63.6808H275.435L275.159 60.1616Z" fill="#EBEBEB"/>
<path d="M284.614 58.4868L288.129 54.9761L290.423 57.6558L287.298 60.7806L284.614 58.4868Z" fill="#EBEBEB"/>
<path d="M290.118 50.6172V45.6479L293.637 45.9235V50.3416L290.118 50.6172Z" fill="#EBEBEB"/>
<path d="M288.447 41.1623L284.932 37.6474L287.612 35.3535L290.737 38.4784L288.447 41.1623Z" fill="#EBEBEB"/>
<path d="M244.067 123.884L243.647 126.445L243.202 129.197L239.106 154.294H232.416L236.507 129.197L236.957 126.445L237.372 123.884H244.067Z" fill="#EBEBEB"/>
<path d="M243.096 123.884C242.744 126.428 242.363 128.972 241.981 131.516L240.802 139.123L239.56 146.704L238.924 150.52L238.262 154.311L238.805 150.495L239.378 146.679L240.556 139.072L241.794 131.474C242.214 128.943 242.642 126.411 243.096 123.884Z" fill="#C7C7C7"/>
<path d="M243.647 126.445L243.202 129.197H236.507L236.957 126.445H243.647Z" fill="#C7C7C7"/>
<path d="M277.109 123.884L277.525 126.445L277.974 129.197L282.066 154.294H288.761L284.669 129.197L284.22 126.445L283.804 123.884H277.109Z" fill="#EBEBEB"/>
<path d="M278.102 123.884C278.453 126.428 278.831 128.972 279.217 131.516L280.395 139.123L281.633 146.704L282.269 150.499L282.935 154.289L282.392 150.473L281.82 146.657L280.641 139.072L279.416 131.47C278.992 128.943 278.568 126.411 278.102 123.884Z" fill="#C7C7C7"/>
<path d="M277.525 126.445H284.22L284.669 129.197H277.974L277.525 126.445Z" fill="#C7C7C7"/>
<path d="M243.821 116.825H238.513L239.174 111.877H243.164L243.821 116.825Z" fill="#C7C7C7"/>
<path d="M246.115 108.341C246.116 109.32 245.826 110.277 245.283 111.091C244.74 111.905 243.967 112.54 243.063 112.915C242.159 113.29 241.164 113.389 240.204 113.199C239.244 113.008 238.362 112.537 237.67 111.845C236.977 111.154 236.505 110.272 236.314 109.312C236.123 108.352 236.221 107.357 236.595 106.452C236.969 105.548 237.604 104.775 238.417 104.231C239.231 103.687 240.188 103.397 241.167 103.397C241.816 103.396 242.46 103.524 243.06 103.772C243.66 104.02 244.206 104.384 244.665 104.843C245.125 105.303 245.489 105.848 245.738 106.448C245.987 107.048 246.115 107.691 246.115 108.341Z" fill="#DBDBDB"/>
<path d="M244.928 108.341C244.929 109.085 244.709 109.812 244.296 110.431C243.883 111.05 243.296 111.533 242.609 111.818C241.922 112.104 241.166 112.179 240.436 112.034C239.706 111.889 239.035 111.532 238.509 111.006C237.983 110.48 237.624 109.81 237.479 109.08C237.333 108.35 237.407 107.594 237.692 106.907C237.976 106.219 238.458 105.632 239.077 105.218C239.696 104.805 240.423 104.584 241.167 104.584C242.164 104.584 243.12 104.98 243.825 105.684C244.53 106.388 244.927 107.344 244.928 108.341Z" fill="white"/>
<path d="M244.313 108.12C244.279 107.672 244.152 107.235 243.94 106.838C243.728 106.441 243.437 106.092 243.083 105.814C242.727 105.536 242.317 105.334 241.88 105.22C241.442 105.106 240.986 105.083 240.539 105.152C240.098 105.221 239.676 105.382 239.301 105.626C238.926 105.869 238.607 106.189 238.364 106.564C238.109 106.962 237.941 107.41 237.872 107.878C237.804 108.346 237.836 108.823 237.966 109.278C238.194 110.066 238.722 110.732 239.437 111.135C240.134 111.53 240.952 111.655 241.735 111.487C242.496 111.327 243.178 110.911 243.669 110.308C244.151 109.713 244.429 108.979 244.461 108.213C244.461 108.175 244.461 108.146 244.432 108.146C244.402 108.146 244.398 108.171 244.398 108.209C244.381 108.518 244.321 108.824 244.22 109.117C244.115 109.405 243.972 109.679 243.796 109.931C243.619 110.181 243.413 110.409 243.181 110.609C242.941 110.807 242.679 110.976 242.401 111.114C242.004 111.3 241.573 111.402 241.135 111.412C240.697 111.422 240.262 111.341 239.857 111.173C239.446 111 239.077 110.739 238.776 110.41C238.475 110.081 238.249 109.69 238.114 109.265C237.976 108.828 237.935 108.367 237.992 107.912C238.049 107.458 238.203 107.021 238.445 106.632C238.677 106.261 238.986 105.944 239.352 105.704C239.718 105.464 240.132 105.306 240.565 105.241C241.299 105.108 242.056 105.238 242.703 105.61C243.349 105.982 243.843 106.571 244.097 107.272C244.197 107.554 244.264 107.848 244.296 108.146L244.313 108.12Z" fill="#EBEBEB"/>
<path d="M243.872 108.12C243.838 107.736 243.726 107.363 243.542 107.024C243.358 106.684 243.107 106.387 242.804 106.148C242.5 105.915 242.152 105.744 241.782 105.645C241.411 105.547 241.025 105.524 240.645 105.576C240.265 105.633 239.901 105.769 239.576 105.975C239.252 106.182 238.975 106.455 238.763 106.776C238.539 107.119 238.39 107.506 238.328 107.911C238.265 108.316 238.289 108.73 238.398 109.125C238.492 109.466 238.652 109.786 238.871 110.065C239.089 110.344 239.361 110.576 239.67 110.749C240.278 111.094 240.993 111.201 241.676 111.05C242.334 110.905 242.923 110.54 243.346 110.015C243.765 109.498 244.007 108.861 244.037 108.196C244.037 108.167 244.037 108.141 244.004 108.141C243.97 108.141 243.97 108.162 243.97 108.196C243.934 108.727 243.758 109.238 243.46 109.679C243.162 110.119 242.753 110.472 242.274 110.702C241.929 110.869 241.553 110.962 241.17 110.973C240.787 110.984 240.406 110.913 240.052 110.766C239.695 110.617 239.376 110.391 239.116 110.104C238.857 109.818 238.664 109.478 238.551 109.108C238.434 108.731 238.4 108.332 238.452 107.941C238.504 107.549 238.64 107.173 238.852 106.839C239.053 106.524 239.32 106.255 239.635 106.053C239.95 105.85 240.305 105.718 240.675 105.665C241.3 105.556 241.943 105.668 242.494 105.982C243.045 106.297 243.47 106.793 243.694 107.386C243.782 107.628 243.841 107.878 243.872 108.133C243.873 108.128 243.873 108.124 243.872 108.12Z" fill="#EBEBEB"/>
<path d="M243.431 108.12C243.398 107.801 243.301 107.492 243.146 107.212C242.991 106.931 242.781 106.685 242.528 106.488C242.017 106.097 241.373 105.923 240.734 106.004C240.416 106.047 240.109 106.157 239.836 106.326C239.563 106.496 239.329 106.721 239.149 106.988C238.954 107.276 238.824 107.602 238.766 107.944C238.708 108.286 238.725 108.637 238.814 108.972C238.891 109.265 239.026 109.539 239.212 109.778C239.398 110.017 239.63 110.216 239.895 110.363C240.41 110.652 241.014 110.741 241.591 110.613C242.149 110.486 242.647 110.171 243.003 109.723C243.351 109.282 243.554 108.745 243.584 108.184C243.584 108.158 243.584 108.137 243.554 108.137C243.524 108.137 243.52 108.137 243.516 108.184C243.484 108.633 243.334 109.067 243.08 109.439C242.826 109.812 242.477 110.11 242.07 110.304C241.781 110.448 241.464 110.529 241.14 110.541C240.817 110.553 240.495 110.495 240.196 110.372C239.893 110.246 239.622 110.055 239.403 109.812C239.183 109.57 239.019 109.281 238.924 108.968C238.829 108.649 238.804 108.314 238.851 107.984C238.898 107.655 239.015 107.34 239.195 107.06C239.367 106.8 239.592 106.58 239.856 106.416C240.12 106.251 240.417 106.145 240.726 106.106C241.136 106.057 241.552 106.106 241.939 106.25C242.337 106.393 242.688 106.644 242.952 106.975C243.077 107.144 243.181 107.328 243.261 107.522C243.336 107.722 243.389 107.93 243.418 108.141C243.422 108.139 243.425 108.136 243.427 108.132C243.43 108.129 243.431 108.124 243.431 108.12Z" fill="#EBEBEB"/>
<path d="M242.99 108.12C242.924 107.608 242.657 107.143 242.248 106.827C241.841 106.522 241.334 106.381 240.828 106.433C240.569 106.463 240.321 106.548 240.097 106.681C239.874 106.814 239.68 106.992 239.53 107.204C239.367 107.438 239.256 107.704 239.204 107.984C239.153 108.264 239.161 108.552 239.229 108.828C239.289 109.072 239.399 109.301 239.551 109.5C239.704 109.699 239.896 109.864 240.115 109.986C240.548 110.226 241.055 110.294 241.536 110.177C241.993 110.066 242.399 109.805 242.689 109.435C242.972 109.069 243.136 108.625 243.16 108.163C243.16 108.158 243.16 108.154 243.159 108.149C243.158 108.145 243.156 108.141 243.153 108.137C243.15 108.134 243.147 108.131 243.143 108.129C243.139 108.126 243.134 108.125 243.13 108.125C243.12 108.125 243.111 108.13 243.104 108.137C243.097 108.144 243.093 108.153 243.092 108.163C243.057 108.522 242.93 108.866 242.725 109.163C242.519 109.46 242.241 109.699 241.917 109.859C241.683 109.98 241.426 110.049 241.162 110.062C240.899 110.074 240.636 110.03 240.391 109.931C240.143 109.829 239.922 109.673 239.743 109.473C239.565 109.273 239.434 109.035 239.361 108.777C239.287 108.519 239.271 108.247 239.312 107.981C239.354 107.716 239.453 107.462 239.602 107.238C239.743 107.032 239.926 106.859 240.14 106.731C240.354 106.603 240.593 106.523 240.84 106.496C241.164 106.468 241.489 106.51 241.794 106.619C242.102 106.733 242.374 106.926 242.583 107.179C242.683 107.31 242.767 107.452 242.833 107.603C242.898 107.761 242.945 107.926 242.973 108.095C242.973 108.095 242.994 108.141 242.99 108.12Z" fill="#EBEBEB"/>
<path d="M282.545 116.825H277.237L277.898 111.877H281.888L282.545 116.825Z" fill="#C7C7C7"/>
<path d="M284.839 108.341C284.84 109.32 284.55 110.277 284.007 111.091C283.464 111.905 282.691 112.54 281.787 112.915C280.883 113.29 279.888 113.389 278.928 113.199C277.968 113.008 277.086 112.537 276.394 111.845C275.701 111.154 275.23 110.272 275.038 109.312C274.847 108.352 274.945 107.357 275.319 106.452C275.694 105.548 276.328 104.775 277.141 104.231C277.955 103.687 278.912 103.397 279.891 103.397C281.203 103.397 282.46 103.918 283.388 104.845C284.316 105.772 284.838 107.029 284.839 108.341Z" fill="#DBDBDB"/>
<path d="M283.656 108.341C283.657 109.085 283.437 109.812 283.024 110.431C282.612 111.05 282.024 111.533 281.337 111.818C280.65 112.104 279.894 112.179 279.164 112.034C278.434 111.889 277.764 111.532 277.237 111.006C276.711 110.48 276.352 109.81 276.207 109.08C276.061 108.35 276.136 107.594 276.42 106.907C276.705 106.219 277.187 105.632 277.805 105.218C278.424 104.805 279.151 104.584 279.895 104.584C280.892 104.584 281.848 104.98 282.553 105.684C283.258 106.388 283.655 107.344 283.656 108.341Z" fill="white"/>
<path d="M283.033 108.12C283 107.672 282.874 107.235 282.663 106.837C282.452 106.44 282.161 106.092 281.807 105.814C281.451 105.536 281.041 105.334 280.604 105.22C280.166 105.106 279.71 105.083 279.263 105.152C278.822 105.221 278.4 105.382 278.025 105.626C277.65 105.869 277.331 106.189 277.088 106.564C276.833 106.962 276.665 107.41 276.596 107.878C276.528 108.346 276.559 108.823 276.69 109.278C276.918 110.066 277.446 110.732 278.161 111.135C278.858 111.53 279.676 111.655 280.459 111.487C281.219 111.327 281.902 110.911 282.392 110.308C282.875 109.713 283.153 108.979 283.185 108.213C283.185 108.175 283.185 108.146 283.156 108.146C283.126 108.146 283.122 108.171 283.122 108.209C283.105 108.518 283.045 108.824 282.944 109.117C282.837 109.404 282.694 109.678 282.52 109.931C282.343 110.181 282.137 110.409 281.905 110.609C281.665 110.807 281.403 110.976 281.125 111.114C280.725 111.303 280.29 111.406 279.848 111.417C279.406 111.427 278.967 111.344 278.559 111.173C278.148 111 277.78 110.739 277.479 110.41C277.178 110.081 276.952 109.69 276.817 109.265C276.679 108.828 276.637 108.367 276.694 107.912C276.751 107.458 276.906 107.021 277.148 106.632C277.379 106.26 277.689 105.944 278.055 105.704C278.421 105.463 278.835 105.306 279.268 105.241C280.003 105.105 280.762 105.235 281.41 105.607C282.059 105.979 282.554 106.569 282.808 107.272C282.909 107.554 282.976 107.848 283.007 108.146C283.014 108.146 283.02 108.143 283.025 108.138C283.03 108.133 283.033 108.127 283.033 108.12Z" fill="#EBEBEB"/>
<path d="M282.596 108.12C282.562 107.736 282.45 107.363 282.266 107.024C282.082 106.684 281.831 106.387 281.527 106.148C281.224 105.915 280.876 105.744 280.506 105.645C280.135 105.547 279.749 105.524 279.369 105.576C278.989 105.633 278.625 105.769 278.3 105.975C277.976 106.182 277.699 106.455 277.487 106.776C277.263 107.119 277.114 107.506 277.052 107.911C276.989 108.316 277.013 108.73 277.122 109.125C277.216 109.466 277.376 109.786 277.595 110.065C277.813 110.344 278.085 110.576 278.394 110.749C279.002 111.094 279.717 111.201 280.4 111.05C281.058 110.905 281.647 110.54 282.07 110.015C282.489 109.499 282.73 108.861 282.757 108.196C282.757 108.167 282.757 108.141 282.727 108.141C282.698 108.141 282.693 108.162 282.693 108.196C282.658 108.727 282.482 109.238 282.184 109.679C281.886 110.119 281.477 110.472 280.997 110.702C280.653 110.869 280.276 110.962 279.893 110.973C279.51 110.984 279.129 110.913 278.776 110.766C278.419 110.617 278.1 110.391 277.84 110.104C277.581 109.818 277.388 109.478 277.275 109.108C277.158 108.731 277.124 108.333 277.175 107.941C277.226 107.55 277.362 107.174 277.572 106.839C277.774 106.525 278.041 106.257 278.355 106.054C278.67 105.851 279.024 105.719 279.395 105.665C280.02 105.555 280.665 105.667 281.217 105.981C281.768 106.295 282.193 106.792 282.418 107.386C282.506 107.628 282.565 107.878 282.596 108.133C282.597 108.128 282.597 108.124 282.596 108.12Z" fill="#EBEBEB"/>
<path d="M282.155 108.12C282.122 107.801 282.025 107.493 281.87 107.212C281.715 106.932 281.504 106.685 281.252 106.488C280.741 106.096 280.097 105.921 279.458 106C279.139 106.043 278.833 106.153 278.56 106.322C278.287 106.492 278.052 106.717 277.873 106.984C277.678 107.272 277.548 107.598 277.49 107.94C277.432 108.282 277.448 108.633 277.538 108.968C277.615 109.261 277.75 109.535 277.936 109.774C278.122 110.013 278.354 110.212 278.619 110.359C279.134 110.648 279.738 110.737 280.315 110.609C280.873 110.482 281.371 110.167 281.727 109.719C282.075 109.278 282.278 108.741 282.308 108.18C282.308 108.154 282.308 108.133 282.278 108.133C282.248 108.133 282.244 108.133 282.24 108.18C282.206 108.629 282.054 109.061 281.8 109.433C281.547 109.805 281.2 110.104 280.794 110.3C280.505 110.444 280.188 110.525 279.864 110.537C279.541 110.549 279.219 110.491 278.92 110.367C278.617 110.243 278.346 110.052 278.126 109.809C277.906 109.566 277.743 109.278 277.648 108.964C277.553 108.645 277.528 108.31 277.575 107.98C277.622 107.651 277.739 107.336 277.919 107.056C278.09 106.796 278.316 106.576 278.58 106.411C278.844 106.247 279.141 106.141 279.45 106.102C279.86 106.053 280.276 106.102 280.662 106.246C281.052 106.394 281.393 106.644 281.65 106.971C281.776 107.14 281.88 107.324 281.96 107.518C282.034 107.718 282.087 107.926 282.117 108.137C282.12 108.139 282.124 108.141 282.128 108.141C282.132 108.141 282.137 108.14 282.14 108.139C282.144 108.137 282.147 108.135 282.15 108.131C282.152 108.128 282.154 108.124 282.155 108.12Z" fill="#EBEBEB"/>
<path d="M281.714 108.12C281.648 107.608 281.381 107.143 280.972 106.827C280.565 106.522 280.058 106.381 279.552 106.433C279.293 106.463 279.044 106.548 278.821 106.681C278.597 106.814 278.404 106.992 278.254 107.204C278.091 107.438 277.98 107.704 277.928 107.984C277.876 108.264 277.885 108.552 277.953 108.828C278.013 109.072 278.123 109.301 278.275 109.5C278.428 109.699 278.62 109.864 278.839 109.986C279.272 110.227 279.779 110.295 280.26 110.177C280.717 110.066 281.123 109.805 281.413 109.435C281.694 109.068 281.859 108.624 281.884 108.163C281.884 108.158 281.884 108.154 281.883 108.149C281.882 108.145 281.88 108.141 281.877 108.137C281.874 108.134 281.871 108.131 281.867 108.129C281.863 108.126 281.858 108.125 281.854 108.125C281.844 108.125 281.835 108.13 281.828 108.137C281.821 108.144 281.817 108.153 281.816 108.163C281.781 108.522 281.654 108.866 281.449 109.163C281.243 109.46 280.965 109.699 280.641 109.859C280.407 109.98 280.149 110.049 279.886 110.062C279.623 110.074 279.359 110.03 279.115 109.931C278.867 109.829 278.645 109.673 278.467 109.473C278.288 109.273 278.158 109.035 278.085 108.777C278.011 108.519 277.994 108.247 278.036 107.981C278.078 107.716 278.177 107.462 278.326 107.238C278.467 107.032 278.65 106.859 278.864 106.731C279.078 106.603 279.317 106.523 279.564 106.496C279.887 106.468 280.213 106.51 280.518 106.619C280.825 106.732 281.096 106.925 281.303 107.179C281.405 107.309 281.491 107.451 281.557 107.603C281.622 107.761 281.669 107.926 281.697 108.095C281.697 108.095 281.714 108.141 281.714 108.12Z" fill="#EBEBEB"/>
<path d="M293.938 114.302H227.243V127.06H293.938V114.302Z" fill="#DBDBDB"/>
<path d="M240.946 114.302L236.109 127.06H227.493L232.335 114.302H240.946Z" fill="#EBEBEB"/>
<path d="M258.602 114.302L253.764 127.06H245.148L249.986 114.302H258.602Z" fill="#EBEBEB"/>
<path d="M276.257 114.302L271.415 127.06H262.804L267.646 114.302H276.257Z" fill="#EBEBEB"/>
<path d="M293.913 114.302L289.071 127.06H280.455L285.297 114.302H293.913Z" fill="#EBEBEB"/>
<path d="M292.585 138.852H228.591V146.925H292.585V138.852Z" fill="#DBDBDB"/>
<path d="M241.744 138.852L237.101 146.925H228.837L233.48 138.852H241.744Z" fill="#EBEBEB"/>
<path d="M258.682 138.852L254.039 146.925H245.771L250.419 138.852H258.682Z" fill="#EBEBEB"/>
<path d="M275.621 138.852L270.978 146.925H262.715L267.357 138.852H275.621Z" fill="#EBEBEB"/>
<path d="M292.564 138.852L287.917 146.925H279.649L284.296 138.852H292.564Z" fill="#EBEBEB"/>
<path d="M208.871 194.035C251.527 194.035 286.107 191.7 286.107 188.82C286.107 185.939 251.527 183.604 208.871 183.604C166.215 183.604 131.635 185.939 131.635 188.82C131.635 191.7 166.215 194.035 208.871 194.035Z" fill="#EBEBEB"/>
<path d="M24.0662 154.285L57.7996 154.183L91.5331 154.145L159 154.077L226.467 154.145L260.2 154.183L293.934 154.285L260.2 154.391L226.467 154.429L159 154.497L91.5331 154.429L57.7996 154.391L24.0662 154.285Z" fill="#263238"/>
<path d="M240.421 46.5977H77.5793V155.527H240.421V46.5977Z" fill="#DBDBDB"/>
<path d="M239.238 47.9292H78.7622V154.201H239.238V47.9292Z" fill="#263238"/>
<path d="M261.629 163.694H56.3708V171.169H261.629V163.694Z" fill="#C7C7C7"/>
<path d="M56.3708 163.694L77.5793 155.527H240.421L261.629 163.694H56.3708Z" fill="#DBDBDB"/>
<path d="M79.4746 160.798L93.1613 155.527H224.839L238.525 160.798H79.4746Z" fill="#263238"/>
<path d="M230.291 55.9639H87.7129V146.161H230.291V55.9639Z" fill="white"/>
<path d="M230.291 55.9639H87.7129V59.4364H230.291V55.9639Z" fill="#455A64"/>
<path d="M90.4689 57.6981C90.4689 57.8658 90.4192 58.0298 90.326 58.1692C90.2329 58.3087 90.1004 58.4174 89.9455 58.4815C89.7905 58.5457 89.62 58.5625 89.4555 58.5298C89.291 58.4971 89.1399 58.4163 89.0213 58.2977C88.9027 58.1791 88.822 58.028 88.7892 57.8635C88.7565 57.699 88.7733 57.5285 88.8375 57.3736C88.9017 57.2186 89.0104 57.0862 89.1498 56.993C89.2893 56.8998 89.4532 56.8501 89.6209 56.8501C89.8458 56.8501 90.0615 56.9394 90.2206 57.0985C90.3796 57.2575 90.4689 57.4732 90.4689 57.6981Z" fill="#46A192"/>
<path d="M93.9838 57.6981C93.9838 57.8658 93.9341 58.0298 93.8409 58.1692C93.7477 58.3087 93.6153 58.4174 93.4604 58.4815C93.3054 58.5457 93.1349 58.5625 92.9704 58.5298C92.8059 58.4971 92.6548 58.4163 92.5362 58.2977C92.4176 58.1791 92.3369 58.028 92.3041 57.8635C92.2714 57.699 92.2882 57.5285 92.3524 57.3736C92.4166 57.2186 92.5253 57.0862 92.6647 56.993C92.8042 56.8998 92.9681 56.8501 93.1358 56.8501C93.3607 56.8501 93.5764 56.9394 93.7355 57.0985C93.8945 57.2575 93.9838 57.4732 93.9838 57.6981Z" fill="#EBEBEB"/>
<path d="M97.52 57.6981C97.52 57.8658 97.4702 58.0298 97.3771 58.1692C97.2839 58.3087 97.1514 58.4174 96.9965 58.4815C96.8415 58.5457 96.671 58.5625 96.5065 58.5298C96.342 58.4971 96.1909 58.4163 96.0723 58.2977C95.9538 58.1791 95.873 58.028 95.8403 57.8635C95.8076 57.699 95.8243 57.5285 95.8885 57.3736C95.9527 57.2186 96.0614 57.0862 96.2008 56.993C96.3403 56.8998 96.5043 56.8501 96.672 56.8501C96.8969 56.8501 97.1126 56.9394 97.2716 57.0985C97.4306 57.2575 97.52 57.4732 97.52 57.6981Z" fill="white"/>
<path d="M155.892 118.271H181.871V98.3383H155.892V118.271Z" fill="#EBEBEB"/>
<path d="M158.474 102.701C158.375 103.198 158.438 103.714 158.654 104.173C158.871 104.631 159.229 105.008 159.676 105.247C160.123 105.486 160.635 105.575 161.136 105.501C161.637 105.426 162.102 105.193 162.46 104.834C162.819 104.476 163.052 104.012 163.126 103.51C163.201 103.009 163.112 102.497 162.872 102.05C162.633 101.603 162.257 101.245 161.798 101.029C161.34 100.812 160.824 100.749 160.327 100.849C159.87 100.94 159.45 101.165 159.12 101.494C158.79 101.824 158.566 102.244 158.474 102.701Z" fill="white"/>
<path d="M164.461 113.98H181.866L173.162 103.252L164.461 113.98Z" fill="#C7C7C7"/>
<path d="M155.888 113.988H171.326L163.609 107L155.888 113.988Z" fill="#DBDBDB"/>
<path d="M181.866 113.98H155.888V118.275H181.866V113.98Z" fill="#DBDBDB"/>
<path d="M114.264 98.3428H94.7512V99.9837H114.264V98.3428Z" fill="#DBDBDB"/>
<path d="M151.22 102.15H94.7512V103.791H151.22V102.15Z" fill="#DBDBDB"/>
<path d="M151.22 105.763H94.7512V107.404H151.22V105.763Z" fill="#DBDBDB"/>
<path d="M151.22 109.375H94.7512V111.016H151.22V109.375Z" fill="#DBDBDB"/>
<path d="M151.22 112.988H94.7512V114.629H151.22V112.988Z" fill="#DBDBDB"/>
<path d="M151.22 116.596H94.7512V118.237H151.22V116.596Z" fill="#DBDBDB"/>
<path d="M161.29 66.1143H141.777V70.5069H161.29V66.1143Z" fill="#DBDBDB"/>
<path d="M181.866 73.5342H141.777V75.1751H181.866V73.5342Z" fill="#DBDBDB"/>
<path d="M181.866 77.147H141.777V78.7879H181.866V77.147Z" fill="#DBDBDB"/>
<path d="M181.866 80.7593H141.777V82.4002H181.866V80.7593Z" fill="#DBDBDB"/>
<path d="M181.866 84.3716H141.777V86.0125H181.866V84.3716Z" fill="#DBDBDB"/>
<path d="M181.866 89.1758H141.777V90.8167H181.866V89.1758Z" fill="#DBDBDB"/>
<path d="M181.866 92.7881H141.777V94.429H181.866V92.7881Z" fill="#DBDBDB"/>
<path d="M223.245 66.1143H187.561V70.5832H223.245V66.1143Z" fill="#46A192"/>
<path d="M223.151 70.6216H187.658V140.722H223.151V70.6216Z" fill="white"/>
<path d="M223.249 140.836H187.561V70.5068H223.249V140.836ZM187.756 140.607H223.05V70.7358H187.756V140.607Z" fill="#DBDBDB"/>
<path d="M187.752 140.764L187.565 140.679L223.058 70.5791L223.24 70.6639L187.752 140.764Z" fill="#DBDBDB"/>
<path d="M223.058 140.764L187.565 70.6639L187.752 70.5791L223.24 140.679L223.058 140.764Z" fill="#DBDBDB"/>
<path d="M137.355 66.1909H94.8276V94.3488H137.355V66.1909Z" fill="white"/>
<path d="M94.7598 94.429V94.3569V66.127H94.8318H137.427V94.429H137.376H94.7598ZM94.8954 66.2669V94.2848H137.295V66.2711L94.8954 66.2669Z" fill="#DBDBDB"/>
<path d="M94.8955 66.2671C98.4698 68.5355 102.027 70.8378 105.576 73.1444L116.197 80.1064L126.776 87.1449L132.046 90.6895L137.291 94.2723L131.936 90.8549L126.611 87.3993L115.985 80.4372L105.411 73.3945C101.896 71.0371 98.3681 68.6881 94.8955 66.2671Z" fill="#DBDBDB"/>
<path d="M137.287 66.2671C133.798 68.6712 130.287 71.0371 126.772 73.3945L116.197 80.4372L105.576 87.3993L100.246 90.8549L94.8955 94.2723L100.14 90.6895L105.406 87.1449L115.981 80.1064L126.606 73.1444C130.168 70.8378 133.708 68.5355 137.287 66.2671Z" fill="#DBDBDB"/>
<path d="M94.8955 120.98V140.781H181.667V120.98H94.8955Z" fill="white"/>
<path d="M181.811 120.925V140.853H94.7512V120.925H181.811ZM181.523 140.726V121.035H95.0268V140.726H181.523Z" fill="#DBDBDB"/>
<path d="M181.722 140.73L181.616 140.832L94.8403 121.031L94.9463 120.929L181.722 140.73Z" fill="#DBDBDB"/>
<path d="M181.722 121.031L94.9463 140.832L94.8403 140.73L181.616 120.929L181.722 121.031Z" fill="#DBDBDB"/>
<path d="M59.9698 48.9278L50.9114 58.5337L51.8461 59.4151L60.9045 49.8092L59.9698 48.9278Z" fill="#263238"/>
<path d="M60.6575 58.7368H51.3804V60.0215H60.6575V58.7368Z" fill="#455A64"/>
<path d="M60.6575 48.7261H51.3804V50.0108H60.6575V48.7261Z" fill="#455A64"/>
<path d="M51.8467 48.9244L50.9119 49.8057L59.9686 59.4131L60.9035 58.5319L51.8467 48.9244Z" fill="#455A64"/>
<path d="M59.9686 58.9381L50.9102 68.5439L51.8448 69.4254L60.9033 59.8195L59.9686 58.9381Z" fill="#263238"/>
<path d="M60.6575 68.7476H51.3804V70.0323H60.6575V68.7476Z" fill="#455A64"/>
<path d="M60.6575 58.7368H51.3804V60.0215H60.6575V58.7368Z" fill="#455A64"/>
<path d="M51.8447 58.9352L50.9099 59.8164L59.9667 69.4239L60.9015 68.5426L51.8447 58.9352Z" fill="#455A64"/>
<path d="M59.9674 68.9478L50.9089 78.5537L51.8436 79.4351L60.9021 69.8292L59.9674 68.9478Z" fill="#263238"/>
<path d="M60.6575 78.7578H51.3804V80.0425H60.6575V78.7578Z" fill="#455A64"/>
<path d="M60.6575 68.7476H51.3804V70.0323H60.6575V68.7476Z" fill="#455A64"/>
<path d="M51.8469 68.9459L50.9121 69.8271L59.9689 79.4346L60.9037 78.5534L51.8469 68.9459Z" fill="#455A64"/>
<path d="M59.9706 78.9576L50.9121 88.5635L51.8468 89.4449L60.9052 79.839L59.9706 78.9576Z" fill="#263238"/>
<path d="M60.6575 88.7686H51.3804V90.0533H60.6575V88.7686Z" fill="#455A64"/>
<path d="M60.6575 78.7578H51.3804V80.0425H60.6575V78.7578Z" fill="#455A64"/>
<path d="M51.8491 78.9562L50.9143 79.8374L59.9711 89.4449L60.9059 88.5636L51.8491 78.9562Z" fill="#455A64"/>
<path d="M59.9691 88.9718L50.9106 98.5776L51.8453 99.459L60.9038 89.8532L59.9691 88.9718Z" fill="#263238"/>
<path d="M60.6575 98.7793H51.3804V100.064H60.6575V98.7793Z" fill="#455A64"/>
<path d="M60.6575 88.7686H51.3804V90.0533H60.6575V88.7686Z" fill="#455A64"/>
<path d="M51.8484 88.964L50.9136 89.8452L59.9704 99.4527L60.9052 98.5714L51.8484 88.964Z" fill="#455A64"/>
<path d="M59.9723 98.9815L50.9138 108.587L51.8485 109.469L60.907 99.8629L59.9723 98.9815Z" fill="#263238"/>
<path d="M60.6575 108.786H51.3804V110.07H60.6575V108.786Z" fill="#455A64"/>
<path d="M60.6575 98.7793H51.3804V100.064H60.6575V98.7793Z" fill="#455A64"/>
<path d="M51.8462 98.9742L50.9114 99.8555L59.9682 109.463L60.903 108.582L51.8462 98.9742Z" fill="#455A64"/>
<path d="M59.9679 108.988L50.9094 118.594L51.8441 119.476L60.9026 109.87L59.9679 108.988Z" fill="#263238"/>
<path d="M60.6575 118.796H51.3804V120.081H60.6575V118.796Z" fill="#455A64"/>
<path d="M60.6575 108.786H51.3804V110.07H60.6575V108.786Z" fill="#455A64"/>
<path d="M51.8484 108.981L50.9136 109.862L59.9704 119.469L60.9052 118.588L51.8484 108.981Z" fill="#455A64"/>
<path d="M59.9708 118.994L50.9124 128.6L51.847 129.482L60.9055 119.876L59.9708 118.994Z" fill="#263238"/>
<path d="M60.6575 128.807H51.3804V130.092H60.6575V128.807Z" fill="#455A64"/>
<path d="M60.6575 118.796H51.3804V120.081H60.6575V118.796Z" fill="#455A64"/>
<path d="M51.8506 118.991L50.9158 119.873L59.9726 129.48L60.9074 128.599L51.8506 118.991Z" fill="#455A64"/>
<path d="M59.9737 129L50.9153 138.605L51.85 139.487L60.9084 129.881L59.9737 129Z" fill="#263238"/>
<path d="M60.6575 138.817H51.3804V140.102H60.6575V138.817Z" fill="#455A64"/>
<path d="M60.6575 128.807H51.3804V130.092H60.6575V128.807Z" fill="#455A64"/>
<path d="M51.8486 129.002L50.9138 129.883L59.9706 139.491L60.9054 138.61L51.8486 129.002Z" fill="#455A64"/>
<path d="M59.9699 139.017L50.9148 148.626L51.8498 149.508L60.9049 139.899L59.9699 139.017Z" fill="#263238"/>
<path d="M60.6575 148.828H51.3804V150.113H60.6575V148.828Z" fill="#455A64"/>
<path d="M60.6575 138.817H51.3804V140.102H60.6575V138.817Z" fill="#455A64"/>
<path d="M51.8508 139.017L50.916 139.898L59.9728 149.505L60.9076 148.624L51.8508 139.017Z" fill="#455A64"/>
<path d="M59.9667 149.025L50.9116 158.634L51.8466 159.515L60.9017 149.906L59.9667 149.025Z" fill="#263238"/>
<path d="M60.6575 158.839H51.3804V160.124H60.6575V158.839Z" fill="#455A64"/>
<path d="M60.6575 148.828H51.3804V150.113H60.6575V148.828Z" fill="#455A64"/>
<path d="M51.8501 149.02L50.9153 149.901L59.9721 159.509L60.9069 158.628L51.8501 149.02Z" fill="#455A64"/>
<path d="M62.5144 164.533V158.703H49.133V164.533H62.5144Z" fill="#455A64"/>
<path d="M52.4827 159.068L52.4827 49.252H49.1288L49.1288 159.068H52.4827Z" fill="#455A64"/>
<path d="M62.5144 159.068L62.5144 49.252H59.1606L59.1606 159.068H62.5144Z" fill="#455A64"/>
<path d="M150.66 48.4676L140.636 38.5884L56.0315 22.8241L30.3202 38.6647L29.646 37.5666L55.7814 21.4673L141.256 37.397L151.563 47.5475L150.66 48.4676Z" fill="#455A64"/>
<path d="M66.233 39.9748L55.9298 25.6521L46.0675 39.9536L43.9475 38.4908L55.8831 21.1831L68.3233 38.4696L66.233 39.9748Z" fill="#263238"/>
<path d="M131.202 39.737L130.321 40.6719L139.929 49.7287L140.81 48.7938L131.202 39.737Z" fill="#263238"/>
<path d="M141.408 39.9746H140.124V49.2517H141.408V39.9746Z" fill="#455A64"/>
<path d="M131.398 39.9746H130.113V49.2517H131.398V39.9746Z" fill="#455A64"/>
<path d="M139.927 39.7357L130.319 48.7925L131.2 49.7273L140.808 40.6705L139.927 39.7357Z" fill="#455A64"/>
<path d="M121.189 39.737L120.308 40.6719L129.916 49.7287L130.797 48.7938L121.189 39.737Z" fill="#263238"/>
<path d="M131.398 39.9746H130.113V49.2517H131.398V39.9746Z" fill="#455A64"/>
<path d="M121.387 39.9746H120.102V49.2517H121.387V39.9746Z" fill="#455A64"/>
<path d="M129.906 39.716L120.3 48.7744L121.181 49.7091L130.787 40.6506L129.906 39.716Z" fill="#455A64"/>
<path d="M111.177 39.737L110.295 40.6719L119.903 49.7287L120.784 48.7938L111.177 39.737Z" fill="#263238"/>
<path d="M121.387 39.9746H120.102V49.2517H121.387V39.9746Z" fill="#455A64"/>
<path d="M111.376 39.9746H110.092V49.2517H111.376V39.9746Z" fill="#455A64"/>
<path d="M119.896 39.715L110.291 48.7734L111.172 49.7081L120.778 40.6496L119.896 39.715Z" fill="#455A64"/>
<path d="M101.168 39.737L100.287 40.6719L109.894 49.7287L110.776 48.7938L101.168 39.737Z" fill="#263238"/>
<path d="M111.376 39.9746H110.092V49.2517H111.376V39.9746Z" fill="#455A64"/>
<path d="M101.366 39.9746H100.081V49.2517H101.366V39.9746Z" fill="#455A64"/>
<path d="M109.887 39.7184L100.281 48.7769L101.162 49.7115L110.768 40.6531L109.887 39.7184Z" fill="#455A64"/>
<path d="M91.1581 39.7336L90.2769 40.6685L99.8843 49.7252L100.766 48.7904L91.1581 39.7336Z" fill="#263238"/>
<path d="M101.366 39.9746H100.081V49.2517H101.366V39.9746Z" fill="#455A64"/>
<path d="M91.3592 39.9746H90.0745V49.2517H91.3592V39.9746Z" fill="#455A64"/>
<path d="M99.8776 39.7218L90.2717 48.7803L91.1531 49.7149L100.759 40.6565L99.8776 39.7218Z" fill="#455A64"/>
<path d="M81.1496 39.7336L80.2683 40.6685L89.8758 49.7252L90.757 48.7904L81.1496 39.7336Z" fill="#263238"/>
<path d="M91.3592 39.9746H90.0745V49.2517H91.3592V39.9746Z" fill="#455A64"/>
<path d="M81.3487 39.9746H80.064V49.2517H81.3487V39.9746Z" fill="#455A64"/>
<path d="M89.8681 39.7213L80.2622 48.7798L81.1436 49.7145L90.7495 40.656L89.8681 39.7213Z" fill="#455A64"/>
<path d="M71.1366 39.7336L70.2554 40.6685L79.8628 49.7252L80.7441 48.7904L71.1366 39.7336Z" fill="#263238"/>
<path d="M81.3487 39.9746H80.064V49.2517H81.3487V39.9746Z" fill="#455A64"/>
<path d="M71.3379 39.9746H70.0532V49.2517H71.3379V39.9746Z" fill="#455A64"/>
<path d="M79.8617 39.7218L70.2559 48.7803L71.1373 49.7149L80.7432 40.6565L79.8617 39.7218Z" fill="#455A64"/>
<path d="M61.1281 39.7336L60.2468 40.6685L69.8543 49.7252L70.7355 48.7904L61.1281 39.7336Z" fill="#263238"/>
<path d="M71.3379 39.9746H70.0532V49.2517H71.3379V39.9746Z" fill="#455A64"/>
<path d="M61.3272 39.9746H60.0425V49.2517H61.3272V39.9746Z" fill="#455A64"/>
<path d="M69.8525 39.7208L60.2466 48.7793L61.128 49.714L70.7339 40.6555L69.8525 39.7208Z" fill="#455A64"/>
<path d="M51.1151 39.7336L50.2339 40.6685L59.8414 49.7252L60.7226 48.7904L51.1151 39.7336Z" fill="#263238"/>
<path d="M61.3272 39.9746H60.0425V49.2517H61.3272V39.9746Z" fill="#455A64"/>
<path d="M51.3167 39.9746H50.032V49.2517H51.3167V39.9746Z" fill="#455A64"/>
<path d="M59.8388 39.7203L50.2329 48.7788L51.1143 49.7135L60.7202 40.655L59.8388 39.7203Z" fill="#455A64"/>
<path d="M41.1066 39.7336L40.2253 40.6685L49.8328 49.7252L50.7141 48.7904L41.1066 39.7336Z" fill="#263238"/>
<path d="M51.3167 39.9746H50.032V49.2517H51.3167V39.9746Z" fill="#455A64"/>
<path d="M41.306 39.9746H40.0212V49.2517H41.306V39.9746Z" fill="#455A64"/>
<path d="M49.8295 39.7194L40.2236 48.7778L41.105 49.7125L50.7109 40.654L49.8295 39.7194Z" fill="#455A64"/>
<path d="M31.3296 39.8034L30.4431 40.7412L40.0816 49.8515L40.968 48.9137L31.3296 39.8034Z" fill="#263238"/>
<path d="M41.306 39.9746H40.0212V49.2517H41.306V39.9746Z" fill="#455A64"/>
<path d="M31.2955 39.9746H30.0107V49.2517H31.2955V39.9746Z" fill="#455A64"/>
<path d="M39.82 39.7228L30.2141 48.7812L31.0955 49.7159L40.7014 40.6575L39.82 39.7228Z" fill="#455A64"/>
<path d="M29.6333 37.5454H23.8118V50.9268H29.6333V37.5454Z" fill="#263238"/>
<path d="M35.4633 37.5454H29.6333V50.9268H35.4633V37.5454Z" fill="#455A64"/>
<path d="M43.1588 50.9268H31.9822V57.6005H43.1588V50.9268Z" fill="#455A64"/>
<path d="M151.563 47.5728H29.6333V50.9266H151.563V47.5728Z" fill="#455A64"/>
<path d="M144.605 40.8992H29.6333V37.5454H141.328L144.605 40.8992Z" fill="#455A64"/>
<path d="M143.6 39.9746H142.315V49.2517H143.6V39.9746Z" fill="#455A64"/>
<path d="M96.6379 87.399L104.694 86.11L112.75 84.8634L128.879 82.4339L128.921 82.4297L128.964 82.4382L155.803 89.4002L169.218 92.9152L182.617 96.4768L169.163 93.123L155.722 89.7182L128.858 82.8452L128.942 82.8494L112.797 85.1772L104.724 86.3093L96.6379 87.399Z" fill="#263238"/>
<path d="M123.982 52.2959H122.697V71.2911H123.982V52.2959Z" fill="#263238"/>
<path d="M134.866 52.7202H133.581V71.7154H134.866V52.7202Z" fill="#263238"/>
<path d="M137.355 50.9268H120.39V53.6616H137.355V50.9268Z" fill="#455A64"/>
<path d="M129.515 74.4839L129.371 77.3374L128.947 76.8456C129.406 76.9637 129.843 77.1526 130.244 77.4052C130.658 77.6538 131.006 77.9967 131.262 78.4059C131.508 78.8185 131.632 79.2923 131.62 79.7725C131.608 80.2527 131.46 80.7197 131.194 81.1195C130.945 81.4969 130.603 81.8042 130.202 82.012C129.8 82.2199 129.352 82.3213 128.9 82.3067C128.473 82.2718 128.059 82.1389 127.692 81.9183C127.324 81.6977 127.012 81.3954 126.78 81.0347C127.032 81.3553 127.354 81.6138 127.722 81.7902C128.089 81.9666 128.493 82.0563 128.9 82.0523C129.288 82.0283 129.663 81.9059 129.99 81.6967C130.317 81.4875 130.586 81.1984 130.77 80.8566C130.942 80.5389 131.021 80.1792 130.999 79.8187C130.976 79.4581 130.853 79.1111 130.643 78.8172C130.162 78.2694 129.497 77.9178 128.773 77.8292L128.383 77.7614L128.362 77.3374L128.222 74.4839H129.515Z" fill="#263238"/>
<path d="M137.355 68.6328V73.2883L128.87 75.3023L120.39 73.2883V68.6328H137.355Z" fill="#455A64"/>
<path d="M124.283 71.3636C124.284 71.5591 124.226 71.7506 124.118 71.9136C124.01 72.0766 123.856 72.2039 123.676 72.2793C123.495 72.3547 123.297 72.3749 123.105 72.3373C122.913 72.2996 122.736 72.2059 122.598 72.0679C122.459 71.9299 122.365 71.7539 122.326 71.5621C122.288 71.3704 122.307 71.1715 122.382 70.9907C122.456 70.81 122.583 70.6554 122.745 70.5467C122.908 70.4379 123.099 70.3799 123.295 70.3799C123.424 70.3793 123.553 70.4044 123.673 70.4535C123.792 70.5027 123.901 70.5751 123.993 70.6665C124.085 70.7579 124.158 70.8665 124.207 70.9862C124.257 71.1058 124.283 71.234 124.283 71.3636Z" fill="#263238"/>
<path d="M135.43 71.3636C135.43 71.5581 135.372 71.7483 135.264 71.9101C135.156 72.0718 135.002 72.1979 134.823 72.2724C134.643 72.3468 134.445 72.3663 134.254 72.3283C134.063 72.2904 133.888 72.1967 133.751 72.0591C133.613 71.9216 133.519 71.7463 133.481 71.5555C133.443 71.3646 133.463 71.1669 133.537 70.9871C133.612 70.8074 133.738 70.6538 133.9 70.5457C134.061 70.4376 134.252 70.3799 134.446 70.3799C134.707 70.3799 134.957 70.4835 135.142 70.668C135.326 70.8525 135.43 71.1027 135.43 71.3636Z" fill="#263238"/>
<path d="M94.0008 106.792L180.515 116.099L182.626 96.4747L96.1118 87.1679L94.0008 106.792Z" fill="#46A192"/>
<path d="M141.294 107.607L180.963 111.877L162.273 99.0718L141.294 107.607Z" fill="#46A192"/>
<path opacity="0.2" d="M141.294 107.607L180.963 111.877L162.273 99.0718L141.294 107.607Z" fill="black"/>
<path d="M121.76 105.516L156.939 109.303L140.098 100.462L121.76 105.516Z" fill="#46A192"/>
<path opacity="0.1" d="M121.76 105.516L156.939 109.303L140.098 100.462L121.76 105.516Z" fill="black"/>
<path d="M180.957 111.883L94.4431 102.576L93.9883 106.805L180.502 116.111L180.957 111.883Z" fill="#46A192"/>
<path opacity="0.1" d="M180.957 111.883L94.4431 102.576L93.9883 106.805L180.502 116.111L180.957 111.883Z" fill="black"/>
<path opacity="0.6" d="M106.772 94.8278C106.713 95.3548 106.498 95.8525 106.157 96.258C105.815 96.6635 105.361 96.9587 104.851 97.1062C104.342 97.2537 103.8 97.247 103.294 97.0869C102.789 96.9268 102.342 96.6205 102.01 96.2066C101.679 95.7928 101.477 95.2899 101.431 94.7616C101.385 94.2333 101.496 93.7031 101.751 93.238C102.006 92.773 102.393 92.3939 102.863 92.1486C103.333 91.9033 103.866 91.8028 104.393 91.8598C104.745 91.8972 105.085 92.0039 105.396 92.1736C105.706 92.3433 105.979 92.5727 106.2 92.8486C106.421 93.1245 106.586 93.4414 106.684 93.7811C106.782 94.1208 106.812 94.4765 106.772 94.8278Z" fill="white"/>
<path d="M58.0879 22.1455C58.0879 22.5748 57.9605 22.9946 57.722 23.3516C57.4835 23.7086 57.1444 23.9868 56.7477 24.1511C56.3511 24.3154 55.9146 24.3584 55.4935 24.2747C55.0723 24.1909 54.6855 23.9841 54.3819 23.6805C54.0783 23.3769 53.8716 22.9901 53.7878 22.569C53.704 22.1479 53.747 21.7114 53.9113 21.3147C54.0756 20.9181 54.3539 20.579 54.7109 20.3405C55.0679 20.1019 55.4876 19.9746 55.917 19.9746C56.4927 19.9746 57.0449 20.2033 57.452 20.6104C57.8591 21.0176 58.0879 21.5697 58.0879 22.1455Z" fill="#A6A6A6"/>
<path d="M56.9219 22.1457C56.9227 22.3473 56.8637 22.5446 56.7522 22.7126C56.6407 22.8806 56.4818 23.0117 56.2957 23.0893C56.1096 23.1668 55.9046 23.1873 55.7068 23.1482C55.509 23.109 55.3273 23.012 55.1848 22.8695C55.0422 22.7269 54.9452 22.5452 54.9061 22.3474C54.8669 22.1496 54.8874 21.9447 54.965 21.7586C55.0425 21.5724 55.1736 21.4136 55.3416 21.3021C55.5096 21.1906 55.7069 21.1315 55.9086 21.1323C56.1773 21.1323 56.4351 21.2391 56.6251 21.4291C56.8151 21.6192 56.9219 21.8769 56.9219 22.1457Z" fill="#455A64"/>
<path d="M65.1898 164.533H46.4575V168.96H65.1898V164.533Z" fill="#263238"/>
<path d="M69.2519 168.96H42.3958V177.643H69.2519V168.96Z" fill="#455A64"/>
<path d="M66.7164 58.6687H46.6697V36.4639H59.784C60.8922 36.4635 61.9629 36.8657 62.7966 37.5958C63.6304 38.3258 64.1706 39.3339 64.3166 40.4325L66.7164 58.6687Z" fill="#46A192"/>
<path d="M61.2595 51.9273H51.8636C51.7613 51.9294 51.6594 51.9136 51.5626 51.8807C51.3447 51.8151 51.1536 51.6812 51.0177 51.4987C50.8818 51.3162 50.8082 51.0948 50.8079 50.8673V39.008H57.4901C57.715 39.0054 57.9396 39.0268 58.16 39.0716C58.662 39.1574 59.1402 39.3481 59.5635 39.6313C59.8573 39.8272 60.1202 40.0659 60.3436 40.3394C60.8022 40.88 61.0964 41.5406 61.1916 42.2431L62.3195 50.7231C62.3387 50.8737 62.3257 51.0266 62.2813 51.1718C62.2368 51.3169 62.1619 51.4509 62.0616 51.5648C61.9613 51.6787 61.8379 51.77 61.6996 51.8325C61.5613 51.895 61.4112 51.9273 61.2595 51.9273Z" fill="#263238"/>
<g opacity="0.4">
<path d="M60.2503 45.7409C60.2508 45.879 60.2237 46.0158 60.1705 46.1432C60.1174 46.2706 60.0392 46.3861 59.9407 46.4829L54.5008 51.9271H51.8635C51.7612 51.9292 51.6594 51.9134 51.5625 51.8804L58.4525 44.9947C58.6004 44.8486 58.7881 44.7494 58.9921 44.7095C59.1961 44.6697 59.4073 44.6909 59.5993 44.7706C59.7912 44.8503 59.9554 44.9849 60.0712 45.1575C60.187 45.3301 60.2493 45.5331 60.2503 45.7409Z" fill="white"/>
<path d="M60.3436 40.3433L50.8079 49.8749V48.3909L59.5635 39.6353C59.8573 39.8312 60.1202 40.0698 60.3436 40.3433Z" fill="white"/>
<path d="M58.1601 39.0757L52.7456 44.4902C52.6347 44.6007 52.4936 44.6759 52.3401 44.7063C52.1865 44.7367 52.0274 44.721 51.8828 44.6612C51.7381 44.6013 51.6145 44.5 51.5273 44.37C51.4402 44.24 51.3934 44.087 51.3931 43.9305C51.3937 43.8278 51.4147 43.7262 51.4547 43.6316C51.4947 43.5371 51.553 43.4513 51.6263 43.3793L55.9935 39.0079H57.4902C57.7153 39.0067 57.9398 39.0294 58.1601 39.0757Z" fill="white"/>
</g>
<path d="M45.2535 151.083L44.8507 153.967L44.414 157.066L40.4284 185.309H33.9158L37.9014 157.066L38.3381 153.967L38.7409 151.083H45.2535Z" fill="#46A192"/>
<path opacity="0.1" d="M44.3121 151.083C43.9687 153.945 43.5998 156.803 43.2267 159.657L42.0776 168.222L40.8735 176.769L40.2544 181.048L39.6057 185.313L40.1357 181.026L40.7039 176.735L41.8529 168.175L43.0571 159.623C43.4556 156.774 43.8712 153.912 44.3121 151.083Z" fill="black"/>
<path opacity="0.1" d="M44.8507 153.967L44.414 157.066H37.9014L38.3381 153.967H44.8507Z" fill="black"/>
<path d="M77.4055 151.083L77.8083 153.967L78.245 157.066L82.2264 185.309H88.739L84.7577 157.066L84.321 153.967L83.9182 151.083H77.4055Z" fill="#46A192"/>
<path opacity="0.1" d="M78.3679 151.083C78.7114 153.945 79.0802 156.803 79.4534 159.657L80.6024 168.222L81.8066 176.769L82.4256 181.048L83.0743 185.313L82.5443 181.026L81.9889 176.74L80.8398 168.179L79.6357 159.627C79.2244 156.774 78.8089 153.912 78.3679 151.083Z" fill="black"/>
<path opacity="0.1" d="M77.8081 153.967H84.3207L84.7575 157.066H78.2448L77.8081 153.967Z" fill="black"/>
<path d="M45.0161 145.161H39.8518L40.4963 140.348H44.3759L45.0161 145.161Z" fill="#46A192"/>
<path opacity="0.1" d="M45.0161 145.161H39.8518L40.4963 140.348H44.3759L45.0161 145.161Z" fill="black"/>
<path d="M47.2464 136.905C47.2464 137.857 46.9641 138.787 46.4353 139.579C45.9066 140.37 45.155 140.987 44.2756 141.351C43.3963 141.715 42.4286 141.811 41.4951 141.625C40.5616 141.439 39.7041 140.981 39.0311 140.308C38.3581 139.635 37.8997 138.778 37.7141 137.844C37.5284 136.911 37.6237 135.943 37.9879 135.064C38.3521 134.184 38.969 133.433 39.7604 132.904C40.5518 132.375 41.4822 132.093 42.434 132.093C43.066 132.093 43.6917 132.217 44.2756 132.459C44.8595 132.701 45.39 133.055 45.8369 133.502C46.2837 133.949 46.6382 134.48 46.8801 135.064C47.1219 135.647 47.2464 136.273 47.2464 136.905Z" fill="#46A192"/>
<path d="M46.0929 136.905C46.0937 137.629 45.8798 138.337 45.4783 138.939C45.0767 139.542 44.5055 140.011 43.837 140.289C43.1685 140.567 42.4326 140.64 41.7225 140.499C41.0124 140.358 40.3601 140.01 39.8479 139.498C39.3357 138.987 38.9868 138.335 38.8453 137.625C38.7037 136.915 38.776 136.179 39.0528 135.51C39.3296 134.841 39.7986 134.27 40.4004 133.867C41.0023 133.465 41.7099 133.25 42.4338 133.25C43.4035 133.25 44.3336 133.635 45.0197 134.321C45.7058 135.006 46.0918 135.936 46.0929 136.905Z" fill="white"/>
<path d="M45.4909 136.693C45.4579 136.257 45.3349 135.833 45.1299 135.447C44.9248 135.061 44.6421 134.721 44.2995 134.45C43.9535 134.182 43.5569 133.987 43.1336 133.876C42.7102 133.766 42.2689 133.741 41.836 133.805C41.4057 133.872 40.9943 134.028 40.6289 134.265C40.2634 134.502 39.9523 134.814 39.716 135.179C39.4671 135.566 39.3038 136.001 39.2373 136.456C39.1707 136.911 39.2024 137.375 39.3302 137.817C39.5477 138.586 40.0616 139.237 40.7591 139.627C41.4375 140.014 42.2347 140.136 42.9978 139.97C43.7374 139.815 44.4008 139.409 44.8761 138.821C45.3446 138.241 45.615 137.527 45.6478 136.782C45.6478 136.748 45.6478 136.718 45.6181 136.718C45.5884 136.718 45.5842 136.744 45.5842 136.782C45.5663 137.082 45.5093 137.379 45.4146 137.664C45.2134 138.227 44.8667 138.728 44.4097 139.114C44.1771 139.307 43.9224 139.473 43.6508 139.606C43.2622 139.791 42.8388 139.892 42.4084 139.903C41.978 139.913 41.5503 139.832 41.1534 139.665C40.7531 139.497 40.3941 139.244 40.1012 138.923C39.8084 138.602 39.5887 138.222 39.4574 137.808C39.3262 137.386 39.2871 136.94 39.3427 136.501C39.3983 136.062 39.5473 135.64 39.7797 135.264C40.0057 134.903 40.3068 134.596 40.6623 134.361C41.0179 134.127 41.4196 133.972 41.8403 133.907C42.407 133.816 42.9878 133.881 43.5208 134.093C44.0539 134.306 44.5193 134.659 44.8677 135.116C45.0419 135.349 45.1845 135.604 45.2917 135.875C45.3868 136.149 45.4508 136.434 45.4824 136.723C45.4869 136.719 45.4902 136.715 45.4917 136.709C45.4932 136.704 45.493 136.698 45.4909 136.693Z" fill="#46A192"/>
<path d="M45.0627 136.697C45.0302 136.324 44.9217 135.962 44.7437 135.632C44.5658 135.302 44.3223 135.013 44.0281 134.781C43.7299 134.551 43.3886 134.383 43.0245 134.288C42.6603 134.193 42.2807 134.171 41.9081 134.225C41.5385 134.28 41.1845 134.412 40.8695 134.613C40.5545 134.814 40.2857 135.079 40.0807 135.391C39.8613 135.725 39.7161 136.101 39.6546 136.495C39.5932 136.89 39.617 137.293 39.7245 137.677C39.8165 138.009 39.9733 138.32 40.1857 138.591C40.3982 138.863 40.6622 139.089 40.9626 139.258C41.5569 139.59 42.2518 139.694 42.9172 139.551C43.5586 139.412 44.1322 139.055 44.5412 138.542C44.9459 138.038 45.1805 137.419 45.2111 136.774C45.2111 136.744 45.2111 136.719 45.1814 136.719C45.1517 136.719 45.1475 136.74 45.1475 136.774C45.1109 137.292 44.9369 137.791 44.6432 138.22C44.3496 138.648 43.947 138.991 43.4769 139.212C43.1423 139.375 42.7768 139.465 42.4047 139.476C42.0326 139.487 41.6624 139.418 41.3188 139.275C40.9722 139.128 40.6618 138.908 40.4092 138.629C40.1566 138.35 39.9678 138.019 39.856 137.66C39.7437 137.293 39.7118 136.906 39.7623 136.526C39.8128 136.145 39.9445 135.78 40.1485 135.455C40.3453 135.148 40.6058 134.887 40.9123 134.689C41.2188 134.492 41.5642 134.363 41.9251 134.31C42.4078 134.237 42.9014 134.293 43.3552 134.473C43.809 134.654 44.2066 134.952 44.5072 135.336C44.6529 135.537 44.7726 135.755 44.8634 135.985C44.9476 136.22 45.0059 136.463 45.0372 136.71L45.0627 136.697Z" fill="#46A192"/>
<path d="M44.6344 136.702C44.6037 136.392 44.51 136.091 44.3591 135.818C44.2082 135.546 44.0032 135.307 43.7567 135.116C43.261 134.735 42.6343 134.565 42.014 134.645C41.7041 134.687 41.4063 134.793 41.1403 134.957C40.8743 135.122 40.6461 135.341 40.4707 135.599C40.2812 135.88 40.154 136.197 40.0977 136.531C40.0414 136.864 40.0573 137.206 40.1442 137.533C40.219 137.818 40.3508 138.084 40.5315 138.317C40.7122 138.549 40.9382 138.743 41.1957 138.885C41.7014 139.171 42.2959 139.258 42.862 139.127C43.4035 139.01 43.8884 138.711 44.2358 138.279C44.5744 137.851 44.7715 137.328 44.7997 136.782C44.7997 136.757 44.7997 136.736 44.77 136.736C44.7404 136.736 44.7361 136.736 44.7361 136.782C44.701 137.218 44.5525 137.636 44.3056 137.996C44.0586 138.356 43.7218 138.645 43.3284 138.835C43.0467 138.975 42.7382 139.053 42.4237 139.064C42.1093 139.075 41.7961 139.018 41.5052 138.898C41.2111 138.773 40.9485 138.584 40.7365 138.345C40.5246 138.106 40.3686 137.823 40.2799 137.516C40.1878 137.206 40.1639 136.88 40.2101 136.56C40.2562 136.24 40.3711 135.934 40.547 135.663C40.714 135.41 40.9333 135.196 41.19 135.035C41.4467 134.874 41.7349 134.77 42.0352 134.73C42.4337 134.683 42.8376 134.731 43.214 134.87C43.5919 135.012 43.9234 135.256 44.1722 135.574C44.2953 135.738 44.3965 135.918 44.4732 136.108C44.5473 136.303 44.5999 136.504 44.6301 136.71C44.6301 136.71 44.6386 136.71 44.6344 136.702Z" fill="#46A192"/>
<path d="M44.2062 136.706C44.1778 136.456 44.0994 136.215 43.9756 135.996C43.8517 135.778 43.685 135.587 43.4854 135.434C43.0896 135.136 42.596 134.998 42.1031 135.048C41.85 135.076 41.6058 135.157 41.3865 135.287C41.1672 135.416 40.9779 135.591 40.8311 135.799C40.6712 136.026 40.562 136.284 40.5108 136.557C40.4596 136.83 40.4676 137.111 40.5343 137.38C40.5917 137.615 40.6965 137.836 40.8423 138.03C40.9881 138.223 41.1719 138.384 41.3823 138.504C41.8014 138.738 42.2939 138.805 42.7603 138.69C43.2075 138.586 43.6045 138.33 43.8839 137.965C44.1569 137.614 44.3166 137.188 44.3418 136.744C44.3418 136.723 44.3418 136.706 44.3122 136.706C44.3028 136.707 44.2941 136.712 44.2879 136.719C44.2816 136.726 44.2782 136.735 44.2782 136.744C44.246 137.096 44.1237 137.434 43.9232 137.725C43.7228 138.016 43.4508 138.251 43.1334 138.406C42.9062 138.525 42.6557 138.594 42.3994 138.606C42.1431 138.619 41.8871 138.575 41.6494 138.478C41.416 138.377 41.2076 138.226 41.0391 138.036C40.8706 137.845 40.746 137.62 40.6742 137.376C40.6024 137.123 40.5864 136.858 40.6274 136.599C40.6684 136.34 40.7654 136.093 40.9117 135.875C41.0485 135.675 41.2271 135.508 41.435 135.384C41.6429 135.261 41.8752 135.183 42.1158 135.158C42.4303 135.13 42.7471 135.171 43.0444 135.277C43.3438 135.387 43.6077 135.576 43.8076 135.824C43.9084 135.954 43.9925 136.097 44.0578 136.248C44.1169 136.405 44.1623 136.567 44.1934 136.731C44.1934 136.731 44.2104 136.71 44.2062 136.706Z" fill="#46A192"/>
<path d="M82.6926 145.161H77.5283L78.1728 140.348H82.0524L82.6926 145.161Z" fill="#46A192"/>
<path opacity="0.1" d="M82.6926 145.161H77.5283L78.1728 140.348H82.0524L82.6926 145.161Z" fill="black"/>
<path d="M84.9229 136.905C84.9229 137.857 84.6407 138.787 84.1119 139.579C83.5831 140.37 82.8315 140.987 81.9521 141.351C81.0728 141.715 80.1052 141.811 79.1716 141.625C78.2381 141.439 77.3806 140.981 76.7076 140.308C76.0346 139.635 75.5763 138.778 75.3906 137.844C75.2049 136.911 75.3002 135.943 75.6644 135.064C76.0287 134.184 76.6455 133.433 77.4369 132.904C78.2283 132.375 79.1587 132.093 80.1105 132.093C80.7425 132.093 81.3683 132.217 81.9521 132.459C82.536 132.701 83.0665 133.055 83.5134 133.502C83.9603 133.949 84.3147 134.48 84.5566 135.064C84.7984 135.647 84.9229 136.273 84.9229 136.905Z" fill="#46A192"/>
<path d="M83.7697 136.905C83.7705 137.629 83.5566 138.337 83.155 138.939C82.7535 139.542 82.1823 140.011 81.5138 140.289C80.8452 140.567 80.1094 140.64 79.3993 140.499C78.6892 140.358 78.0368 140.01 77.5247 139.498C77.0125 138.987 76.6636 138.335 76.522 137.625C76.3805 136.915 76.4527 136.179 76.7295 135.51C77.0064 134.841 77.4754 134.27 78.0772 133.867C78.679 133.465 79.3866 133.25 80.1105 133.25C81.0803 133.25 82.0103 133.635 82.6964 134.321C83.3825 135.006 83.7685 135.936 83.7697 136.905Z" fill="white"/>
<path d="M83.1677 136.693C83.1346 136.257 83.0117 135.833 82.8066 135.447C82.6016 135.061 82.3189 134.721 81.9762 134.45C81.6302 134.182 81.2336 133.987 80.8103 133.876C80.387 133.766 79.9457 133.741 79.5128 133.805C79.0825 133.872 78.671 134.028 78.3056 134.265C77.9402 134.502 77.6291 134.814 77.3928 135.179C77.1438 135.566 76.9806 136.001 76.914 136.456C76.8475 136.911 76.8792 137.375 77.007 137.817C77.2244 138.586 77.7384 139.237 78.4359 139.627C79.1143 140.014 79.9115 140.136 80.6746 139.97C81.4142 139.815 82.0776 139.409 82.5529 138.821C83.0232 138.243 83.2939 137.527 83.3246 136.782C83.3246 136.748 83.3246 136.718 83.2949 136.718C83.2652 136.718 83.261 136.744 83.261 136.782C83.2451 137.082 83.1881 137.379 83.0914 137.664C82.8902 138.227 82.5435 138.728 82.0865 139.114C81.8539 139.307 81.5991 139.473 81.3275 139.606C80.939 139.791 80.5156 139.892 80.0852 139.903C79.6548 139.913 79.2271 139.832 78.8302 139.665C78.4298 139.497 78.0708 139.244 77.778 138.923C77.4852 138.602 77.2655 138.222 77.1342 137.808C77.003 137.386 76.9639 136.94 77.0194 136.501C77.075 136.062 77.224 135.64 77.4564 135.264C77.6825 134.903 77.9835 134.596 78.3391 134.361C78.6946 134.127 79.0964 133.972 79.517 133.907C80.0838 133.816 80.6645 133.881 81.1976 134.093C81.7307 134.306 82.1961 134.659 82.5444 135.116C82.7187 135.349 82.8613 135.604 82.9684 135.875C83.0636 136.149 83.1276 136.434 83.1592 136.723C83.1653 136.714 83.1683 136.704 83.1677 136.693Z" fill="#46A192"/>
<path d="M82.7394 136.697C82.707 136.324 82.5984 135.962 82.4205 135.632C82.2426 135.302 81.999 135.013 81.7049 134.781C81.4067 134.551 81.0654 134.383 80.7012 134.288C80.3371 134.193 79.9574 134.171 79.5849 134.225C79.2152 134.28 78.8612 134.412 78.5463 134.613C78.2313 134.814 77.9624 135.079 77.7574 135.391C77.5381 135.725 77.3928 136.101 77.3314 136.495C77.2699 136.89 77.2938 137.293 77.4013 137.677C77.4933 138.009 77.65 138.32 77.8625 138.591C78.075 138.863 78.339 139.089 78.6394 139.258C79.2336 139.59 79.9286 139.694 80.594 139.551C81.2354 139.412 81.809 139.055 82.2179 138.542C82.6227 138.038 82.8573 137.419 82.8878 136.774C82.8878 136.744 82.8878 136.719 82.8582 136.719C82.8285 136.719 82.8242 136.74 82.8242 136.774C82.7877 137.292 82.6136 137.791 82.32 138.22C82.0264 138.648 81.6237 138.991 81.1537 139.212C80.819 139.375 80.4535 139.465 80.0814 139.476C79.7093 139.487 79.3392 139.418 78.9955 139.275C78.6482 139.129 78.337 138.909 78.0836 138.63C77.8302 138.351 77.6408 138.02 77.5285 137.66C77.4163 137.293 77.3843 136.906 77.4348 136.526C77.4853 136.145 77.617 135.78 77.821 135.455C78.0178 135.148 78.2783 134.887 78.5848 134.689C78.8913 134.492 79.2367 134.363 79.5976 134.31C80.0803 134.237 80.5739 134.293 81.0277 134.473C81.4815 134.654 81.8791 134.952 82.1798 135.336C82.3254 135.537 82.4451 135.755 82.5359 135.985C82.6202 136.22 82.6785 136.463 82.7098 136.71C82.7098 136.71 82.7437 136.706 82.7394 136.697Z" fill="#46A192"/>
<path d="M82.3111 136.702C82.2805 136.392 82.1868 136.091 82.0359 135.818C81.885 135.546 81.68 135.307 81.4334 135.116C80.9378 134.735 80.3111 134.565 79.6908 134.645C79.3808 134.687 79.0831 134.793 78.8171 134.957C78.5511 135.122 78.3229 135.341 78.1474 135.599C77.958 135.88 77.8308 136.197 77.7745 136.531C77.7182 136.864 77.734 137.206 77.821 137.533C77.8958 137.818 78.0275 138.084 78.2083 138.317C78.389 138.549 78.6149 138.743 78.8725 138.885C79.3782 139.171 79.9727 139.258 80.5388 139.127C81.0803 139.01 81.5652 138.711 81.9126 138.279C82.2529 137.852 82.4502 137.328 82.4765 136.782C82.4765 136.757 82.4765 136.736 82.4468 136.736C82.4171 136.736 82.4129 136.736 82.4129 136.782C82.3777 137.218 82.2293 137.636 81.9823 137.996C81.7354 138.356 81.3985 138.645 81.0052 138.835C80.7235 138.975 80.415 139.053 80.1005 139.064C79.786 139.075 79.4728 139.018 79.182 138.898C78.8881 138.776 78.625 138.59 78.4116 138.354C78.1982 138.118 78.04 137.838 77.9482 137.533C77.856 137.223 77.8322 136.897 77.8783 136.577C77.9244 136.257 78.0394 135.951 78.2153 135.68C78.3823 135.427 78.6015 135.213 78.8583 135.052C79.115 134.891 79.4032 134.787 79.7035 134.747C80.102 134.7 80.5059 134.748 80.8822 134.887C81.1703 134.991 81.4329 135.155 81.6523 135.368C81.8717 135.582 82.0428 135.84 82.1542 136.125C82.2283 136.32 82.2809 136.521 82.3111 136.727C82.3111 136.727 82.3154 136.71 82.3111 136.702Z" fill="#46A192"/>
<path d="M81.8829 136.706C81.8546 136.456 81.7761 136.215 81.6523 135.997C81.5284 135.778 81.3617 135.587 81.1621 135.434C80.7665 135.136 80.2728 134.998 79.7798 135.048C79.5268 135.076 79.2825 135.158 79.0632 135.287C78.8439 135.416 78.6546 135.591 78.5078 135.799C78.3487 136.026 78.2399 136.285 78.1887 136.557C78.1376 136.83 78.1452 137.111 78.211 137.38C78.2684 137.615 78.3732 137.836 78.519 138.03C78.6648 138.223 78.8486 138.384 79.059 138.504C79.4781 138.738 79.9707 138.805 80.437 138.69C80.8842 138.586 81.2813 138.33 81.5606 137.965C81.8336 137.614 81.9933 137.188 82.0186 136.744C82.0186 136.723 82.0186 136.706 81.9889 136.706C81.9795 136.707 81.9709 136.712 81.9646 136.719C81.9583 136.726 81.9549 136.735 81.955 136.744C81.9227 137.096 81.8004 137.434 81.6 137.725C81.3995 138.016 81.1275 138.251 80.8102 138.406C80.5829 138.526 80.3324 138.594 80.0761 138.606C79.8198 138.619 79.5639 138.575 79.3262 138.478C79.0849 138.379 78.8692 138.226 78.6952 138.032C78.5213 137.837 78.3934 137.606 78.3213 137.355C78.2494 137.102 78.2335 136.837 78.2745 136.578C78.3155 136.319 78.4125 136.072 78.5587 135.854C78.6956 135.654 78.8741 135.487 79.082 135.363C79.2899 135.24 79.5222 135.162 79.7629 135.137C80.0773 135.109 80.3941 135.15 80.6914 135.256C80.9909 135.365 81.2548 135.555 81.4546 135.803C81.5554 135.933 81.6395 136.076 81.7048 136.227C81.7639 136.384 81.8093 136.546 81.8405 136.71C81.8405 136.71 81.8871 136.71 81.8829 136.706Z" fill="#46A192"/>
<path d="M93.7718 142.706H28.8828V155.116H93.7718V142.706Z" fill="white"/>
<path d="M93.882 155.222H28.7769V142.6H93.882V155.222ZM29.0101 155.01H93.6701V142.812H28.9889L29.0101 155.01Z" fill="#263238"/>
<path d="M42.2219 142.706L37.5113 155.12H29.1331L33.8395 142.706H42.2219Z" fill="#46A192"/>
<path d="M59.3981 142.706L54.6917 155.12H46.3049L51.0156 142.706H59.3981Z" fill="#46A192"/>
<path d="M76.5745 142.706L71.8638 155.12H63.4856L68.1962 142.706H76.5745Z" fill="#46A192"/>
<path d="M93.7547 142.706L89.0441 155.12H80.6616L85.368 142.706H93.7547Z" fill="#46A192"/>
<path d="M92.4617 170.287H30.1973V178.143H92.4617V170.287Z" fill="white"/>
<path d="M92.5677 178.249H30.104V170.193H92.5677V178.249ZM30.3033 178.037H92.3557V170.405H30.3033V178.037Z" fill="#263238"/>
<path d="M42.9937 170.287L38.4739 178.143H30.4348L34.9547 170.287H42.9937Z" fill="#46A192"/>
<path d="M59.4786 170.287L54.9588 178.143H46.9155L51.4354 170.287H59.4786Z" fill="#46A192"/>
<path d="M75.9554 170.287L71.4398 178.143H63.3965L67.9163 170.287H75.9554Z" fill="#46A192"/>
<path d="M92.4406 170.287L87.9207 178.143H79.8774L84.3973 170.287H92.4406Z" fill="#46A192"/>
<path d="M71.151 151.253C72.4456 145.827 69.0967 140.379 63.6711 139.085C58.2455 137.79 52.7977 141.139 51.5032 146.565C50.2086 151.99 53.5575 157.438 58.9831 158.733C64.4087 160.027 69.8564 156.678 71.151 151.253Z" fill="white"/>
<path d="M61.3273 159.114C59.3086 159.114 57.3353 158.516 55.6569 157.394C53.9784 156.273 52.6704 154.678 51.898 152.813C51.1257 150.948 50.9239 148.896 51.318 146.916C51.7121 144.936 52.6845 143.118 54.1123 141.691C55.54 140.264 57.3588 139.292 59.3388 138.899C61.3188 138.505 63.371 138.708 65.2357 139.481C67.1005 140.254 68.6941 141.563 69.815 143.242C70.9359 144.921 71.5338 146.894 71.5329 148.913C71.5307 151.619 70.4546 154.213 68.541 156.126C66.6275 158.038 64.0329 159.113 61.3273 159.114ZM61.3273 138.919C59.3507 138.919 57.4185 139.505 55.7751 140.604C54.1316 141.702 52.8507 143.263 52.0943 145.089C51.3379 146.915 51.14 148.924 51.5256 150.863C51.9112 152.801 52.863 154.582 54.2607 155.98C55.6583 157.377 57.439 158.329 59.3776 158.715C61.3162 159.1 63.3256 158.902 65.1517 158.146C66.9778 157.39 68.5386 156.109 69.6367 154.465C70.7348 152.822 71.3209 150.89 71.3209 148.913C71.3187 146.263 70.2651 143.723 68.3914 141.849C66.5177 139.975 63.9771 138.922 61.3273 138.919Z" fill="#263238"/>
<path d="M69.6584 150.897C70.7541 146.297 67.914 141.681 63.3148 140.585C58.7157 139.49 54.0991 142.33 53.0034 146.929C51.9078 151.528 54.7479 156.145 59.347 157.24C63.9462 158.336 68.5628 155.496 69.6584 150.897Z" fill="#46A192"/>
<path d="M66.6952 147.917H55.9595V149.905H66.6952V147.917Z" fill="white"/>
<path d="M202.621 186.348L204.767 171.584L205.39 171.864L206.382 172.314L210.69 174.264L214.544 176.003L217.088 177.152L220.951 178.898L223.071 179.852C223.437 180.051 223.733 180.358 223.92 180.73C224.107 181.103 224.175 181.524 224.115 181.936C224.056 182.349 223.871 182.733 223.587 183.037C223.302 183.342 222.931 183.552 222.524 183.639L221.629 183.762L220.221 183.953L216.028 184.521L213.263 184.898L209.066 185.47L207.311 185.712L202.621 186.348Z" fill="#46A192"/>
<g style="mix-blend-mode:multiply" opacity="0.1">
<path d="M205.496 171.996C205.284 172.551 205.02 173.084 204.707 173.59C203.397 175.634 202.452 179.814 203.164 184.614C203.205 185.133 203.312 185.644 203.482 186.136L204.381 186.077C204.381 186.077 208.566 176.893 222.248 179.445L220.976 178.86L217.118 177.122L214.574 175.973L210.715 174.226L205.496 171.996Z" fill="black"/>
</g>
<path d="M216.024 184.521L217.092 177.152L220.955 178.899L220.217 183.953L216.024 184.521Z" fill="#EBEBEB"/>
<path d="M209.062 185.47L210.69 174.26L214.553 176.007L213.259 184.898L209.062 185.47Z" fill="#EBEBEB"/>
<path d="M164.936 185.984H150.562L150.741 185.348L151.033 184.338L152.305 179.963L153.433 176.041L154.175 173.459L155.303 169.537L155.922 167.387C156.06 167.01 156.31 166.684 156.639 166.453C156.968 166.223 157.36 166.1 157.762 166.1C158.164 166.1 158.556 166.223 158.885 166.453C159.214 166.684 159.464 167.01 159.602 167.387L159.844 168.235L160.221 169.545L161.349 173.467L162.091 176.049L163.219 179.971L163.69 181.612L164.936 185.984Z" fill="#46A192"/>
<path d="M165.466 189.711H146.577L149.587 182.252H168.477L165.466 189.711Z" fill="#46A192"/>
<path d="M161.353 173.459H154.179L155.307 169.541H160.225L161.353 173.459Z" fill="#EBEBEB"/>
<path d="M163.223 179.963H152.309L153.437 176.041H162.095L163.223 179.963Z" fill="#EBEBEB"/>
<path d="M150.376 184.983C151.54 185.505 152.765 185.877 154.022 186.09C155.267 186.306 156.529 186.403 157.792 186.378C158.423 186.335 159.064 186.331 159.683 186.234C159.997 186.191 160.315 186.17 160.624 186.115C160.934 186.06 161.247 185.996 161.561 185.945C161.718 185.916 161.875 185.89 162.032 185.856L162.494 185.742L163.422 185.517C164.037 185.352 164.644 185.144 165.271 184.983C164.69 185.259 164.105 185.534 163.507 185.772L162.587 186.085L162.129 186.238C161.972 186.285 161.815 186.319 161.659 186.361L160.709 186.586C160.395 186.658 160.069 186.692 159.751 186.747C159.105 186.84 158.456 186.9 157.804 186.925C156.501 186.947 155.201 186.805 153.933 186.501C152.664 186.218 151.458 185.703 150.376 184.983Z" fill="#263238"/>
<g style="mix-blend-mode:multiply" opacity="0.1">
<path d="M150.872 185.229C151.43 185.355 151.975 185.532 152.5 185.759C154.62 186.726 158.746 187.031 163.244 185.7C163.732 185.588 164.204 185.416 164.648 185.187L164.466 184.339C164.466 184.339 155.138 181.625 155.672 168.227L155.294 169.537L154.167 173.459L153.425 176.041L152.297 179.963L150.872 185.229Z" fill="black"/>
</g>
<path d="M198.712 186.323L201.532 166.912L208.748 171.122L205.924 190.529L198.712 186.323Z" fill="#46A192"/>
<path d="M205.899 179.153C205.496 182.74 204.203 185.538 202.998 185.403C201.794 185.267 201.154 182.252 201.557 178.665C201.96 175.078 203.253 172.284 204.461 172.42C205.67 172.555 206.301 175.57 205.899 179.153Z" fill="#263238"/>
<path d="M238.241 189.685C239.089 189.948 263.041 189.435 263.94 188.837C264.283 188.612 264.411 185.114 264.449 180.891C264.449 179.979 264.449 179.038 264.449 178.08C264.449 176.944 264.449 175.799 264.428 174.688C264.364 169.685 264.211 165.279 264.211 165.279L248.617 165.568L248.799 174.976L248.863 178.368L248.998 181.175C248.998 181.175 239.912 185.479 238.996 186.238C238.08 186.997 237.398 189.426 238.241 189.685Z" fill="#D3766A"/>
<path d="M238.241 189.685C239.089 189.948 263.041 189.435 263.94 188.837C264.283 188.612 264.411 185.114 264.449 180.891C264.449 179.98 264.449 179.038 264.449 178.08C264.449 176.944 264.449 175.799 264.428 174.688L248.799 174.976L248.863 178.368L248.998 181.175C248.998 181.175 239.912 185.479 238.996 186.238C238.08 186.997 237.398 189.426 238.241 189.685Z" fill="white"/>
<path d="M238.169 189.723C238.716 189.893 248.922 189.723 256.35 189.448C258.046 189.38 259.641 189.303 260.908 189.223C262.655 189.113 263.826 188.994 264.012 188.871C264.436 188.591 264.538 183.465 264.529 178.055L248.841 178.347L248.973 181.171C248.973 181.171 239.84 185.492 238.916 186.259C237.991 187.027 237.326 189.456 238.169 189.723Z" fill="#46A192"/>
<path d="M238.492 188.752C242.528 188.565 258.844 188.197 262.829 188.328C262.863 188.328 262.863 188.328 262.829 188.328C258.831 188.599 242.537 188.837 238.496 188.803C238.411 188.816 238.407 188.756 238.492 188.752Z" fill="#263238"/>
<path d="M248.4 180.285C249.986 179.954 251.932 180.157 253.17 181.264C253.221 181.307 253.17 181.374 253.107 181.357C251.578 180.901 250.004 180.608 248.413 180.484C248.39 180.481 248.368 180.47 248.352 180.453C248.336 180.435 248.326 180.413 248.325 180.39C248.323 180.366 248.33 180.343 248.344 180.324C248.358 180.304 248.378 180.291 248.4 180.285Z" fill="#263238"/>
<path d="M247.268 181.001C248.854 180.671 250.8 180.874 252.038 181.981C252.089 182.023 252.038 182.091 251.975 182.074C250.446 181.616 248.872 181.323 247.281 181.201C247.258 181.198 247.236 181.187 247.22 181.169C247.204 181.152 247.194 181.13 247.193 181.106C247.191 181.083 247.198 181.059 247.212 181.04C247.226 181.021 247.246 181.008 247.268 181.001Z" fill="#263238"/>
<path d="M246.136 181.718C247.718 181.387 249.668 181.591 250.906 182.693C250.953 182.74 250.906 182.803 250.843 182.791C249.314 182.333 247.74 182.04 246.149 181.917C246.126 181.914 246.104 181.903 246.088 181.886C246.072 181.869 246.062 181.846 246.061 181.823C246.059 181.799 246.066 181.776 246.08 181.757C246.094 181.738 246.114 181.724 246.136 181.718Z" fill="#263238"/>
<path d="M245.004 182.434C246.586 182.104 248.536 182.303 249.774 183.41C249.821 183.452 249.774 183.52 249.711 183.507C248.182 183.049 246.608 182.756 245.017 182.634C244.994 182.631 244.972 182.62 244.956 182.602C244.94 182.585 244.93 182.563 244.929 182.539C244.927 182.516 244.934 182.492 244.948 182.473C244.961 182.454 244.981 182.44 245.004 182.434Z" fill="#263238"/>
<path d="M246.149 178.928C247.29 179.776 248.761 180.107 250.084 180.565C250.219 180.611 250.325 180.48 250.33 180.361C250.355 180.361 250.376 180.336 250.364 180.302C249.848 178.902 248.97 177.664 247.82 176.715C247.145 176.172 245.971 175.808 245.369 176.681C244.767 177.554 245.496 178.424 246.149 178.928ZM245.725 177.656C245.407 175.918 247.298 176.808 247.781 177.232C248.085 177.508 248.369 177.806 248.629 178.123C249.193 178.771 249.656 179.488 250.152 180.187C249.516 179.92 248.88 179.713 248.218 179.471C247.451 179.166 245.89 178.61 245.717 177.656H245.725Z" fill="#263238"/>
<path d="M255.617 177.758C255.193 176.774 253.993 176.88 253.217 177.266C251.897 177.954 250.781 178.978 249.982 180.234C249.979 180.24 249.976 180.246 249.976 180.253C249.975 180.259 249.976 180.266 249.979 180.272C249.981 180.278 249.985 180.284 249.99 180.288C249.995 180.293 250.001 180.296 250.008 180.298C249.982 180.416 250.058 180.569 250.203 180.552C251.593 180.387 253.098 180.382 254.396 179.797C255.155 179.45 256.003 178.686 255.617 177.758ZM252.259 179.878C251.576 179.975 250.894 180.039 250.215 180.162C250.827 179.564 251.47 178.998 252.14 178.466C252.469 178.213 252.815 177.982 253.175 177.775C253.734 177.469 255.77 177.016 255.087 178.648C254.714 179.543 253.069 179.751 252.28 179.865L252.259 179.878Z" fill="#263238"/>
<path opacity="0.2" d="M250.427 189.638C252.445 189.583 254.485 189.52 256.363 189.448C258.059 189.38 259.653 189.303 260.921 189.223C262.664 189.113 263.838 188.994 264.025 188.867C264.39 188.625 264.521 184.665 264.538 180.052C260.972 182.426 253.976 187.205 250.427 189.638Z" fill="black"/>
<path d="M247.464 180.988H265.272C265.272 180.988 264.296 140.925 264.487 139.992C264.945 137.762 275.087 102.442 275.087 102.442L261.032 102.684L256.232 102.765C256.232 102.765 256.656 108.65 256.478 109.273C254.129 117.842 249.545 132.474 248.608 137.897C246.959 147.314 247.464 180.988 247.464 180.988Z" fill="#263238"/>
<path d="M248.04 178.012C250.813 177.94 260.65 177.648 264.351 177.927C264.377 177.927 264.377 177.974 264.351 177.978C263.079 178.186 250.817 178.127 248.04 178.089C248.03 178.089 248.02 178.085 248.013 178.077C248.006 178.07 248.002 178.061 248.002 178.05C248.002 178.04 248.006 178.031 248.013 178.023C248.02 178.016 248.03 178.012 248.04 178.012Z" fill="#37474F"/>
<path d="M263.079 139.123C263.609 136.956 267.574 123.465 268.786 119.195C269.999 114.925 271.135 110.655 272.178 106.352C272.31 105.805 272.445 105.262 272.602 104.719C272.602 104.673 272.683 104.694 272.674 104.741C272.276 106.907 271.746 109.053 271.237 111.198C270.728 113.344 270.181 115.476 269.613 117.605C268.463 121.884 267.209 126.133 265.852 130.35C265.174 132.449 264.055 136.765 263.457 138.89C262.859 141.014 263.834 175.905 263.775 176.473C263.775 176.507 263.761 176.539 263.737 176.563C263.714 176.587 263.681 176.6 263.647 176.6C263.614 176.6 263.581 176.587 263.558 176.563C263.534 176.539 263.52 176.507 263.52 176.473C263.435 172.369 262.554 141.264 263.079 139.123Z" fill="#37474F"/>
<path d="M260.998 102.697C260.998 102.697 264.436 140.187 264.474 140.009C264.898 137.855 274.434 104.639 275.032 102.561L275.057 102.464L260.998 102.697Z" fill="#37474F"/>
<path d="M256.698 191.737C257.546 192 281.498 191.487 282.401 190.889C282.74 190.664 282.872 187.171 282.906 182.943C282.906 182.032 282.906 181.09 282.906 180.132C282.906 179 282.906 177.851 282.88 176.74C282.817 171.737 282.668 167.332 282.668 167.332L267.069 167.62L267.252 177.028L267.319 180.42L267.451 183.232C267.451 183.232 258.369 187.531 257.453 188.29C256.537 189.049 255.859 191.478 256.698 191.737Z" fill="#D3766A"/>
<path d="M256.698 191.737C257.546 192 281.498 191.487 282.401 190.889C282.74 190.664 282.872 187.171 282.906 182.943C282.906 182.032 282.906 181.09 282.906 180.132C282.906 179 282.906 177.851 282.88 176.74L267.252 177.029L267.319 180.421L267.451 183.232C267.451 183.232 258.369 187.531 257.453 188.29C256.537 189.049 255.859 191.478 256.698 191.737Z" fill="white"/>
<path d="M256.626 191.775C257.177 191.945 267.383 191.775 274.807 191.5C276.529 191.432 278.098 191.356 279.365 191.279C281.112 191.165 282.282 191.046 282.473 190.923C282.897 190.643 282.995 185.517 282.991 180.107L267.303 180.399L267.438 183.223C267.438 183.223 258.305 187.548 257.381 188.311C256.457 189.075 255.782 191.508 256.626 191.775Z" fill="#46A192"/>
<path d="M256.944 190.8C260.981 190.613 277.296 190.249 281.278 190.376C281.311 190.376 281.311 190.397 281.278 190.401C277.283 190.673 260.985 190.906 256.944 190.872C256.868 190.872 256.868 190.8 256.944 190.8Z" fill="#263238"/>
<path d="M266.862 182.32C268.443 181.989 270.393 182.193 271.632 183.299C271.678 183.342 271.632 183.41 271.564 183.397C270.035 182.937 268.462 182.644 266.87 182.523C266.843 182.524 266.817 182.515 266.797 182.497C266.777 182.478 266.765 182.453 266.764 182.426C266.763 182.399 266.773 182.373 266.791 182.353C266.809 182.333 266.835 182.321 266.862 182.32Z" fill="#263238"/>
<path d="M265.729 183.054C267.311 182.723 269.261 182.927 270.499 184.033C270.546 184.076 270.499 184.143 270.432 184.126C268.903 183.67 267.329 183.378 265.738 183.257C265.711 183.258 265.685 183.249 265.665 183.23C265.645 183.212 265.633 183.187 265.632 183.16C265.631 183.133 265.64 183.106 265.659 183.087C265.677 183.067 265.702 183.055 265.729 183.054Z" fill="#263238"/>
<path d="M264.597 183.77C266.179 183.439 268.129 183.643 269.367 184.749C269.414 184.792 269.367 184.86 269.3 184.843C267.77 184.387 266.197 184.094 264.606 183.969C264.583 183.966 264.561 183.954 264.546 183.937C264.53 183.919 264.521 183.897 264.52 183.873C264.519 183.85 264.526 183.827 264.54 183.808C264.554 183.789 264.575 183.776 264.597 183.77Z" fill="#263238"/>
<path d="M263.465 184.486C265.047 184.156 266.997 184.359 268.235 185.462C268.282 185.508 268.235 185.576 268.167 185.559C266.639 185.101 265.065 184.808 263.474 184.686C263.451 184.682 263.429 184.67 263.414 184.653C263.398 184.635 263.389 184.613 263.388 184.59C263.387 184.566 263.394 184.543 263.408 184.524C263.422 184.505 263.442 184.492 263.465 184.486Z" fill="#263238"/>
<path d="M264.606 180.976C265.751 181.824 267.222 182.15 268.545 182.608C268.681 182.655 268.787 182.523 268.787 182.405C268.794 182.405 268.8 182.403 268.806 182.399C268.813 182.396 268.818 182.391 268.821 182.385C268.825 182.379 268.828 182.373 268.828 182.366C268.829 182.359 268.827 182.352 268.825 182.345C268.307 180.947 267.429 179.709 266.281 178.758C265.607 178.216 264.436 177.855 263.83 178.729C263.224 179.602 263.94 180.48 264.606 180.976ZM264.182 179.704C263.864 177.965 265.755 178.856 266.234 179.28C266.536 179.558 266.819 179.855 267.082 180.17C267.623 180.832 268.13 181.521 268.6 182.235C267.964 181.968 267.328 181.76 266.667 181.523C265.912 181.217 264.351 180.662 264.178 179.704H264.182Z" fill="#263238"/>
<path d="M274.078 179.81C273.654 178.83 272.45 178.932 271.674 179.318C270.355 180.007 269.241 181.03 268.443 182.286C268.438 182.29 268.433 182.295 268.431 182.301C268.428 182.307 268.426 182.313 268.426 182.32C268.426 182.326 268.428 182.333 268.431 182.339C268.433 182.345 268.438 182.35 268.443 182.354C268.443 182.472 268.494 182.621 268.638 182.604C270.029 182.438 271.534 182.434 272.831 181.849C273.612 181.501 274.46 180.742 274.078 179.81ZM270.716 181.93C270.033 182.027 269.355 182.091 268.676 182.214C269.289 181.616 269.931 181.05 270.601 180.518C270.929 180.266 271.273 180.036 271.631 179.831C272.195 179.521 274.231 179.072 273.548 180.7C273.171 181.595 271.53 181.802 270.716 181.917V181.93Z" fill="#263238"/>
<path d="M266.412 182.799L283.682 182.481C283.682 182.481 278.831 120.196 279.442 116.893C280.43 111.491 279.59 105.326 276.991 102.4L260.162 102.71C260.162 102.71 259.912 107.438 261.697 110.24C261.697 110.24 263.296 111.207 264.067 111.635L266.412 182.799Z" fill="#263238"/>
<path d="M266.887 179.734C269.507 179.619 268.753 179.615 271.373 179.526C272.645 179.483 281.078 179.208 282.282 179.382C282.308 179.382 282.308 179.428 282.282 179.433C281.091 179.662 272.662 179.789 271.381 179.806C268.757 179.844 269.512 179.806 266.891 179.806C266.884 179.804 266.877 179.799 266.872 179.793C266.867 179.787 266.864 179.779 266.863 179.771C266.863 179.763 266.865 179.755 266.869 179.749C266.873 179.742 266.88 179.737 266.887 179.734Z" fill="#37474F"/>
<path d="M260.633 109.49C262.301 110.257 263.901 111.165 265.416 112.203C265.429 112.21 265.438 112.223 265.442 112.237C265.446 112.251 265.444 112.267 265.437 112.279C265.43 112.292 265.417 112.302 265.403 112.306C265.389 112.31 265.373 112.308 265.361 112.301C263.745 111.453 262.092 110.605 260.523 109.676C260.503 109.659 260.491 109.636 260.486 109.611C260.482 109.585 260.487 109.559 260.5 109.537C260.514 109.515 260.534 109.498 260.558 109.489C260.582 109.481 260.609 109.481 260.633 109.49Z" fill="#37474F"/>
<path d="M262.77 109.205C262.876 109.53 262.96 109.861 263.02 110.197C263.092 110.458 263.113 110.73 263.084 110.999C263.084 111.05 263.003 111.045 262.978 110.999C262.843 110.748 262.75 110.478 262.702 110.197C262.617 109.892 262.524 109.587 262.448 109.277C262.441 109.236 262.45 109.193 262.474 109.158C262.497 109.123 262.533 109.098 262.575 109.089C262.616 109.08 262.659 109.087 262.695 109.108C262.732 109.13 262.758 109.165 262.77 109.205Z" fill="#37474F"/>
<path d="M262.88 107.582C262.829 107.302 262.778 107.022 262.723 106.734C262.668 106.445 262.587 106.153 262.554 105.86C262.554 105.818 262.473 105.831 262.481 105.86C262.532 106.14 262.541 106.433 262.571 106.708C262.6 106.984 262.63 107.276 262.664 107.556C262.727 108.086 262.825 108.616 262.939 109.138C262.661 109.097 262.395 108.992 262.163 108.832C261.942 108.616 261.793 108.336 261.739 108.031C261.65 107.709 261.578 107.387 261.485 107.069C261.363 106.72 261.273 106.361 261.218 105.996C261.218 105.949 261.137 105.966 261.146 105.996C261.227 106.762 261.384 107.517 261.617 108.252C261.718 108.544 261.786 108.837 262.041 108.994C262.334 109.146 262.656 109.236 262.986 109.256C263.024 109.278 263.079 109.256 263.075 109.21C263.05 108.71 262.99 108.12 262.88 107.582Z" fill="#37474F"/>
<path d="M276.698 116.727C276.796 115.489 276.974 114.26 277.088 113.021C277.295 110.54 277.097 108.041 276.503 105.623C276.503 105.576 276.563 105.559 276.571 105.601C277.088 107.727 277.35 109.906 277.351 112.093C277.288 114.276 276.927 116.435 276.927 118.622C276.927 120.81 277.148 123.045 277.351 125.25C277.555 127.454 277.72 129.689 277.907 131.906C278.644 140.81 279.34 149.744 280.048 158.665C280.247 161.154 280.434 163.647 280.624 166.136C280.815 168.625 281.112 174.921 281.252 177.461C281.252 177.681 280.938 177.669 280.913 177.461C280.451 172.992 280.065 164.779 279.713 160.297C279.361 155.816 279.005 151.423 278.649 146.984C278.292 142.545 277.949 138.11 277.601 133.674C277.427 131.457 277.262 129.235 277.093 127.018C276.923 124.8 276.719 122.595 276.669 120.382C276.61 119.164 276.62 117.944 276.698 116.727Z" fill="#37474F"/>
<path d="M270.533 105.576C270.536 105.569 270.54 105.564 270.546 105.56C270.551 105.556 270.558 105.554 270.565 105.554C270.572 105.554 270.579 105.556 270.585 105.56C270.59 105.564 270.595 105.569 270.597 105.576C270.704 105.865 270.765 106.17 270.775 106.479C270.831 106.809 270.913 107.133 271.021 107.45C271.219 108.095 271.578 108.679 272.064 109.146C273.141 110.117 274.566 110.456 275.939 110.766C275.99 110.766 275.973 110.846 275.939 110.85C275.13 110.899 274.319 110.788 273.552 110.524C272.868 110.329 272.233 109.989 271.691 109.528C271.174 109.052 270.816 108.429 270.665 107.742C270.588 107.385 270.542 107.022 270.529 106.657C270.529 106.483 270.529 106.305 270.529 106.131C270.491 105.948 270.493 105.759 270.533 105.576Z" fill="#37474F"/>
<path d="M263.923 79.7331C256.889 84.9525 245.441 85.4232 244.165 84.8211C241.464 83.5788 237.538 71.9145 236.588 67.6618C236.317 66.4322 245.216 66.7375 246.107 67.7466C246.921 68.6667 248.88 76.7269 249.698 76.8457C253.79 76.9749 257.886 76.8616 261.964 76.5065C267.866 75.8959 266.005 78.1897 263.923 79.7331Z" fill="#D3766A"/>
<path d="M255.248 76.2436L256.304 84.4819C256.304 84.4819 262.566 82.0312 265.293 79.5169C268.019 77.0026 266.463 76.0783 263.741 75.9383C261.019 75.7984 255.248 76.2436 255.248 76.2436Z" fill="#EBEBEB"/>
<path d="M256.601 76.5022C256.601 76.447 256.63 76.4258 256.639 76.481C257.078 78.7641 257.375 81.0723 257.529 83.3922C257.529 83.3922 257.504 83.3922 257.499 83.3922C257.211 82.2813 256.694 77.0958 256.601 76.5022Z" fill="#263238"/>
<path d="M280.366 107.832C280.307 107.9 255.392 108.43 255.163 108.18C254.837 107.823 258.856 82.8371 262.795 77.3844C263.779 76.0234 267.315 75.0864 268.787 76.4644C273.06 80.4542 273.959 83.8208 275.079 86.564C276.166 89.5314 277.079 92.5596 277.813 95.6334C279.323 101.502 280.565 107.594 280.366 107.832Z" fill="#EBEBEB"/>
<path d="M269.24 76.5234C269.24 76.5234 265.573 84.8932 264.97 87.0302C264.144 89.9558 262.935 109.239 262.935 109.239L280.743 108.196C280.743 108.196 277.351 88.917 273.472 82.0736C270.427 76.6888 269.24 76.5234 269.24 76.5234Z" fill="#46A192"/>
<path d="M263.444 76.9263C263.444 76.9263 261.375 84.5583 260.968 85.7115C260.561 86.8648 256.944 109.252 256.944 109.252L254.748 108.434C254.748 108.434 257.22 92.9323 259.412 85.0374C261.604 77.1425 263.444 76.9263 263.444 76.9263Z" fill="#46A192"/>
<path d="M263.44 101.697L279.391 101.663C279.255 101.065 279.115 100.437 278.967 99.7886L263.588 99.8183C263.529 100.454 263.486 101.082 263.44 101.697Z" fill="#EBEBEB"/>
<path d="M255.901 101.709H258.182C258.28 101.098 258.386 100.471 258.492 99.835H256.24C256.122 100.488 256.007 101.107 255.901 101.709Z" fill="#EBEBEB"/>
<path d="M263.202 104.987L280.095 104.953C279.976 104.385 279.844 103.757 279.7 103.083L263.338 103.117C263.304 103.778 263.245 104.406 263.202 104.987Z" fill="#EBEBEB"/>
<path d="M255.324 105.003H257.644C257.737 104.414 257.839 103.787 257.945 103.129H255.647C255.532 103.804 255.422 104.431 255.324 105.003Z" fill="#EBEBEB"/>
<path d="M271.971 81.9465C272.921 88.934 271.585 98.6563 269.995 99.7884C265.458 103.015 257.652 104.732 254.332 105.118C252.399 105.343 251.598 95.7901 253.306 95.4975C256.003 95.0481 262.456 93.6786 263.372 93.2673C264.288 92.856 266.06 86.4833 267.731 81.8575C269.546 76.8331 271.513 78.563 271.971 81.9465Z" fill="#D3766A"/>
<path d="M255.443 95.8239C253.964 94.8288 252.639 93.6232 251.508 92.2453C250.236 90.5493 248.502 87.9035 247.565 88.5607C245.649 89.9133 249.944 96.5319 249.944 96.5319C249.944 96.5319 252.306 99.148 254.328 97.9735C254.694 97.7524 254.991 97.4347 255.188 97.0555C255.385 96.6762 255.473 96.2501 255.443 95.8239Z" fill="#D3766A"/>
<path d="M242.172 96.0614C242.087 96.3522 242.093 96.6621 242.189 96.9493C242.286 97.2366 242.467 97.4875 242.71 97.6684C242.314 97.9973 242.045 98.455 241.952 98.9616C241.824 99.8605 243.181 100.45 243.181 100.45C242.84 100.875 242.636 101.394 242.596 101.938C242.562 102.812 243.843 103.6 243.843 103.6C243.747 104.166 243.859 104.747 244.156 105.237C245.004 106.509 247.336 106.449 248.82 106.428C250.304 106.407 254.498 104.948 255.324 104.732L255.248 95.2134C255.248 95.2134 248.557 93.4242 246.815 93.6998C245.356 93.933 242.528 94.976 242.172 96.0614Z" fill="#D3766A"/>
<path d="M242.774 97.5202C244.275 96.8969 245.878 96.757 247.472 96.5195C247.506 96.5195 247.514 96.5704 247.472 96.5747C245.886 96.7909 244.36 97.3166 242.808 97.5965C242.798 97.5989 242.788 97.5978 242.779 97.5934C242.77 97.5891 242.763 97.5817 242.759 97.5726C242.755 97.5635 242.754 97.5532 242.757 97.5436C242.76 97.534 242.766 97.5257 242.774 97.5202Z" fill="#263238"/>
<path d="M243.211 100.323C243.565 100.217 243.931 100.157 244.3 100.145C244.695 100.106 245.085 100.072 245.475 100.051C246.259 100 247.048 99.9665 247.832 99.958C247.866 99.958 247.875 100.013 247.832 100.013C247.048 100.064 246.268 100.128 245.487 100.212C245.102 100.255 244.712 100.297 244.321 100.348C243.957 100.414 243.586 100.443 243.215 100.433C243.204 100.429 243.194 100.422 243.187 100.412C243.18 100.403 243.176 100.391 243.175 100.379C243.175 100.367 243.178 100.356 243.184 100.346C243.191 100.335 243.2 100.327 243.211 100.323Z" fill="#263238"/>
<path d="M243.876 103.6C244.198 103.506 244.534 103.469 244.869 103.49L245.941 103.435C246.658 103.397 247.374 103.359 248.087 103.295C248.121 103.295 248.129 103.35 248.087 103.35C247.362 103.418 246.637 103.498 245.912 103.558L244.843 103.643C244.521 103.7 244.19 103.7 243.868 103.643C243.868 103.643 243.864 103.604 243.876 103.6Z" fill="#263238"/>
<path d="M265.102 88.5396L273.158 90.6596C273.158 90.6596 273.23 83.935 271.92 80.4836C270.61 77.0323 269.172 78.1135 268.023 80.5854C266.874 83.0573 265.102 88.5396 265.102 88.5396Z" fill="#EBEBEB"/>
<path d="M265.848 87.3866C265.793 87.3866 265.784 87.3357 265.848 87.3442C268.129 87.7934 270.381 88.3825 272.59 89.1081C272.59 89.1081 272.59 89.142 272.59 89.1377C271.432 88.9893 266.429 87.5265 265.848 87.3866Z" fill="#263238"/>
<path d="M281.443 63.2778C283.245 63.3413 284.994 63.9069 286.492 64.9107C287.99 65.9145 289.178 67.3167 289.923 68.9594L281.994 68.6881L280.298 72.9493L281.676 77.3165L289.609 77.6006C288.785 79.1183 287.571 80.3884 286.092 81.2795C284.613 82.1706 282.922 82.6503 281.196 82.6691C279.469 82.6879 277.768 82.2451 276.27 81.3864C274.772 80.5277 273.53 79.2843 272.674 77.7849C271.817 76.2855 271.377 74.5844 271.398 72.8577C271.419 71.131 271.902 69.4414 272.795 67.9635C273.688 66.4856 274.96 65.2732 276.479 64.4516C277.998 63.6301 279.708 63.2292 281.434 63.2906L281.443 63.2778Z" fill="#455A64"/>
<path d="M225.085 80.6531C223.282 80.5896 221.534 80.0241 220.035 79.0202C218.537 78.0164 217.349 76.6142 216.605 74.9715L224.534 75.2556L226.23 71.0156L224.852 66.6441L216.919 66.36C217.742 64.8422 218.957 63.572 220.436 62.6809C221.915 61.7898 223.606 61.3102 225.333 61.2916C227.06 61.273 228.76 61.7161 230.259 62.5752C231.757 63.4342 232.998 64.678 233.855 66.1777C234.711 67.6775 235.151 69.3788 235.129 71.1057C235.107 72.8325 234.625 74.5222 233.731 76C232.837 77.4777 231.565 78.6898 230.045 79.5108C228.526 80.3319 226.815 80.7321 225.089 80.67L225.085 80.6531Z" fill="#455A64"/>
<path d="M230.954 66.8421L230.645 75.4692L277.751 77.1554L278.059 68.5283L230.954 66.8421Z" fill="#455A64"/>
<path d="M244.755 69.8844L244.627 73.4395L264.025 74.1372L264.153 70.5821L244.755 69.8844Z" fill="#37474F"/>
<path d="M264.373 79.9238C265.403 80.1273 267.854 78.5034 268.939 76.9897C269.011 76.8879 268.986 75.6922 269.02 74.2422C269.045 73.3645 269.092 72.385 269.202 71.4946L263.452 72.1688C263.633 73.3214 263.675 74.4916 263.575 75.6541C263.557 75.7763 263.529 75.8969 263.491 76.0145C263.491 76.0145 263.491 76.0526 263.491 76.0738C263.279 76.7438 262.757 79.61 264.373 79.9238Z" fill="#D3766A"/>
<path d="M263.491 76.0145C263.494 76.0342 263.494 76.0543 263.491 76.0739C263.679 76.123 263.87 76.1571 264.063 76.1757C267.307 76.4979 268.6 72.6141 268.893 71.5371L263.465 72.1689C263.649 73.3212 263.691 74.4915 263.593 75.6541C263.567 75.7764 263.533 75.8968 263.491 76.0145Z" fill="#263238"/>
<path d="M270.224 63.9606C270.83 65.9577 269.774 71.7156 268.354 73.0003C266.298 74.8617 262.931 75.0397 261.349 72.5763C259.815 70.1765 261.324 62.6929 262.91 61.5269C265.246 59.7842 269.325 61.0138 270.224 63.9606Z" fill="#D3766A"/>
<path d="M265.424 67.5093C265.424 67.5093 265.45 67.5347 265.424 67.5474C265.322 67.929 265.276 68.3954 265.598 68.5905C265.195 68.459 265.263 67.84 265.424 67.5093Z" fill="#263238"/>
<path d="M265.848 67.183C266.476 67.2763 266.247 68.5271 265.666 68.455C265.085 68.3829 265.322 67.1067 265.848 67.183Z" fill="#263238"/>
<path d="M262.995 67.0342C262.995 67.0342 262.961 67.0342 262.961 67.0596C262.901 67.4497 262.766 67.9076 262.393 67.9543C262.834 67.9924 263.003 67.4158 262.995 67.0342Z" fill="#263238"/>
<path d="M262.723 66.5681C262.109 66.407 261.829 67.6493 262.401 67.7977C262.973 67.9461 263.241 66.6995 262.723 66.5681Z" fill="#263238"/>
<path d="M266.45 66.6993C266.294 66.6214 266.143 66.535 265.997 66.4407C265.823 66.3389 265.674 66.2753 265.573 66.0887C265.552 66.0326 265.551 65.9712 265.569 65.9143C265.588 65.8574 265.625 65.8083 265.674 65.775C265.781 65.7235 265.9 65.7015 266.019 65.7112C266.137 65.7209 266.251 65.7619 266.348 65.8301C266.567 65.9374 266.737 66.1217 266.828 66.3474C266.843 66.3988 266.843 66.4534 266.829 66.5051C266.815 66.5568 266.787 66.6035 266.748 66.6401C266.709 66.6766 266.66 66.7015 266.607 66.712C266.555 66.7224 266.5 66.7181 266.45 66.6993Z" fill="#263238"/>
<path d="M262.376 65.9958C262.55 65.9936 262.724 65.9809 262.897 65.9576C263.083 65.97 263.268 65.9208 263.423 65.8177C263.465 65.7759 263.493 65.721 263.5 65.6618C263.508 65.6026 263.496 65.5426 263.465 65.4912C263.391 65.3982 263.293 65.3267 263.182 65.2842C263.071 65.2417 262.951 65.2297 262.833 65.2496C262.59 65.2494 262.355 65.3418 262.176 65.5082C262.138 65.5484 262.112 65.599 262.101 65.6538C262.091 65.7085 262.097 65.7651 262.118 65.8167C262.139 65.8683 262.174 65.9127 262.22 65.9444C262.266 65.9762 262.32 65.9941 262.376 65.9958Z" fill="#263238"/>
<path d="M264.784 71.1639C264.685 71.262 264.554 71.3221 264.415 71.3335C264.271 71.3051 264.135 71.2458 264.016 71.1597C263.991 71.1597 264.016 71.1597 264.016 71.1597C264.059 71.246 264.124 71.3193 264.205 71.3722C264.285 71.4251 264.378 71.4557 264.474 71.4607C264.557 71.4534 264.635 71.4222 264.7 71.371C264.764 71.3198 264.813 71.2507 264.839 71.1724C264.831 71.1681 264.801 71.1554 264.784 71.1639Z" fill="#263238"/>
<path d="M264.576 69.9305C264.449 70.0653 264.296 70.1726 264.126 70.2456C263.956 70.3185 263.773 70.3556 263.588 70.3545C263.426 70.3563 263.265 70.3348 263.109 70.2909L263.02 70.2654L262.935 70.2358C262.916 70.2271 262.9 70.2126 262.889 70.1944C262.879 70.1761 262.874 70.155 262.876 70.134C262.874 70.1214 262.874 70.1085 262.876 70.0958V70.0619C262.923 69.7651 263.037 69.3157 263.037 69.3157C262.914 69.3496 262.312 69.498 262.35 69.3411C262.632 68.0004 263.049 66.6919 263.597 65.4361C263.602 65.4298 263.609 65.4253 263.616 65.4232C263.624 65.4211 263.632 65.4215 263.64 65.4243C263.647 65.4271 263.654 65.4322 263.658 65.4389C263.663 65.4456 263.665 65.4535 263.665 65.4615C263.41 66.6996 262.944 67.8868 262.668 69.1291C262.883 69.0737 263.104 69.0494 263.325 69.057C263.368 69.057 263.096 69.905 263.084 70.0577C263.324 70.1271 263.576 70.1475 263.824 70.1177C264.073 70.0878 264.312 70.0083 264.529 69.8838C264.576 69.8711 264.619 69.9008 264.576 69.9305Z" fill="#263238"/>
<path d="M263.325 70.1719C263.45 70.4156 263.635 70.623 263.864 70.774C263.991 70.8514 264.139 70.887 264.288 70.8757C264.61 70.8757 264.674 70.5704 264.661 70.316C264.651 70.181 264.627 70.0474 264.589 69.9175C264.205 70.1338 263.763 70.2229 263.325 70.1719Z" fill="#263238"/>
<path d="M263.864 70.774C263.991 70.8514 264.139 70.887 264.288 70.8758C264.61 70.8758 264.674 70.5705 264.661 70.3161C264.496 70.2917 264.327 70.3236 264.183 70.4067C264.038 70.4898 263.926 70.6192 263.864 70.774Z" fill="#FF9BBC"/>
<path d="M261.952 62.9807C262.036 62.8154 262.27 62.4126 262.494 62.4253C262.719 62.438 262.918 62.9298 263.448 63.1206C264.178 63.4005 265.568 62.6966 266.577 63.0698C267.587 63.4429 268.112 64.4859 268.146 66.343C268.18 68.2002 269.495 69.8156 270.016 68.6454C270.016 68.603 270.063 68.5266 270.114 68.4164C270.427 66.6695 270.512 64.8972 270.224 63.9602C269.325 61.0134 265.242 59.7965 262.91 61.5179C262.476 61.9202 262.147 62.4224 261.952 62.9807Z" fill="#263238"/>
<path d="M268.99 68.6538C268.99 68.6538 270.33 66.8179 271.165 67.3013C272 67.7846 270.966 70.4643 269.965 70.812C269.84 70.8661 269.706 70.8942 269.57 70.8948C269.433 70.8953 269.299 70.8682 269.173 70.815C269.048 70.7619 268.935 70.6839 268.841 70.5857C268.746 70.4875 268.673 70.3712 268.625 70.2438L268.99 68.6538Z" fill="#D3766A"/>
<path d="M270.851 68.0649C270.851 68.0649 270.851 68.0861 270.851 68.0904C270.528 68.2424 270.241 68.4606 270.008 68.7309C269.775 69.0012 269.602 69.3174 269.499 69.6592C269.54 69.5882 269.597 69.5274 269.665 69.481C269.732 69.4346 269.81 69.4038 269.891 69.3908C269.972 69.3778 270.055 69.383 270.134 69.4059C270.212 69.4289 270.285 69.469 270.347 69.5235C270.347 69.5235 270.347 69.5659 270.347 69.5617C270.226 69.5204 270.095 69.5173 269.972 69.553C269.849 69.5886 269.74 69.6612 269.66 69.7609C269.529 69.9313 269.415 70.1146 269.321 70.3079C269.287 70.3715 269.172 70.3333 269.198 70.2655C269.181 69.3581 269.897 68.1328 270.851 68.0649Z" fill="#263238"/>
<path d="M261.116 63.757C261.116 63.757 262.812 58.2153 267.777 59.7035C272.742 61.1918 271.11 66.7547 271.11 66.7547L261.116 63.757Z" fill="#46A192"/>
<path d="M271.59 66.4837L260.852 63.2622L260.616 64.0501L271.354 67.2715L271.59 66.4837Z" fill="#46A192"/>
<path d="M266.149 64.8381L263.915 64.1681L266.073 58.8809L268.307 59.5508L266.149 64.8381Z" fill="#46A192"/>
<path opacity="0.1" d="M266.149 64.8381L263.915 64.1681L266.073 58.8809L268.307 59.5508L266.149 64.8381Z" fill="black"/>
<path d="M236.202 72.9659C237.283 73.6952 237.525 71.9992 237.525 71.9992C237.525 71.9992 237.767 74.5432 239.179 74.8442C240.59 75.1453 240.756 73.0889 240.773 72.9447C240.773 73.0762 241.07 75.3912 242.52 75.5693C243.97 75.7474 243.889 73.6443 243.881 73.5086C243.936 73.6316 244.661 75.2301 245.793 75.1156C247.735 74.9121 246.047 70.1675 246.709 68.7302L249.584 68.073C248.847 67.8889 248.18 67.4957 247.663 66.9409C246.891 66.1607 246.391 65.6392 245.734 65.423C245.444 65.3169 245.128 65.307 244.832 65.3949C244.537 65.4827 244.277 65.6636 244.093 65.9106C244.093 65.9106 243.724 64.5707 242.588 64.3969C242.002 64.3079 241.341 65.1643 241.341 65.1643C241.242 64.8676 241.063 64.604 240.823 64.4027C240.584 64.2014 240.293 64.0703 239.984 64.0238C239.17 63.9474 238.632 64.8209 238.632 64.8209C238.632 64.8209 237.834 63.9729 236.978 64.1467C235.248 64.5156 233.879 71.3971 236.202 72.9659Z" fill="#D3766A"/>
<path d="M247.345 68.4759L249.524 68.0773L249.753 67.9756C252.297 66.7375 253.111 63.2013 251.106 63.5236C249.579 63.7695 248.528 66.1736 246.929 66.199L247.345 68.4759Z" fill="#D3766A"/>
<path d="M238.526 64.9312H238.492C237.448 67.1596 237.104 69.6518 237.504 72.0798C237.504 72.1561 237.648 72.1688 237.648 72.0798C237.594 69.6671 237.89 67.2592 238.526 64.9312Z" fill="#263238"/>
<path d="M241.337 65.1266C241.337 65.1012 241.299 65.0885 241.286 65.1266C240.156 67.6027 239.946 70.4001 240.692 73.0173C240.722 73.1105 240.841 73.1614 240.815 73.0554C240.408 71.2322 240.705 67.306 241.337 65.1266Z" fill="#263238"/>
<path d="M244.004 73.6743C243.295 71.1303 243.478 68.5863 244.042 65.9999C244.042 65.966 244.004 65.9575 243.987 65.9999C243.368 67.1871 243.181 68.8661 243.139 70.1848C243.082 71.4089 243.347 72.6265 243.906 73.7167C243.936 73.7421 244.021 73.7294 244.004 73.6743Z" fill="#263238"/>
</svg>
