<svg width="53" height="22" viewBox="0 0 53 22" fill="none" xmlns="http://www.w3.org/2000/svg">
<path fill-rule="evenodd" clip-rule="evenodd" d="M0.0904904 0C0.0904904 0.782569 0 1.04875 0 1.30783C1.31492 6.64563 3.93768 11.2789 8.39531 14.6009C15.442 19.9262 23.4558 21.6493 31.8227 21.6493C33.2157 21.6493 34.6211 21.6014 36.0319 21.5144C40.4966 21.2483 44.1699 18.9751 46.7927 15.3018C49.6763 11.2789 51.6904 6.99521 52.7409 2.27318C52.9148 1.65742 52.9148 0.958249 53 0.349584C52.2991 1.04875 52.1251 1.74792 51.9495 2.35658C50.9007 7.08039 48.8014 11.3694 45.9178 15.2166C43.9037 17.9246 41.2792 19.8482 37.7816 20.4639C35.645 20.8117 33.5192 20.9803 31.4128 20.9803C25.5852 20.9803 19.8907 19.6902 14.4341 17.3159C7.26139 14.1679 2.53934 8.92058 0.789667 1.22443C0.699161 0.873072 0.523484 0.699166 0.0904904 0Z" fill="#46A292"/>
</svg>
