<svg width="30" height="30" viewBox="0 0 30 30" fill="none" xmlns="http://www.w3.org/2000/svg">
<path d="M15 30C6.71572 30 0 23.2842 0 15C0 6.71572 6.71572 0 15 0C23.2842 0 30 6.71572 30 15C30 23.2842 23.2842 30 15 30ZM12.9328 9.62189C12.8343 9.55617 12.7185 9.52112 12.6 9.52112C12.2686 9.52112 12 9.78973 12 10.1211V19.8789C12 19.9974 12.0351 20.1132 12.1008 20.2118C12.2845 20.4874 12.6571 20.562 12.9328 20.3781L20.2512 15.4992C20.3171 15.4552 20.3736 15.3987 20.4175 15.3328C20.6014 15.0571 20.5269 14.6846 20.2512 14.5008L12.9328 9.62189Z" fill="white"/>
</svg>
