<svg width="45" height="45" viewBox="0 0 45 45" fill="none" xmlns="http://www.w3.org/2000/svg">
<path d="M20.5519 38.75H14.8162C13.8825 38.75 13.0262 38.2294 12.5962 37.4C12.1662 36.5713 12.235 35.5713 12.7737 34.8088L15.7269 30.625H14.8162C13.4356 30.625 12.3162 29.5056 12.3162 28.125C12.3162 26.7444 13.4356 25.625 14.8162 25.625H20.5519C21.4856 25.625 22.3419 26.1456 22.7719 26.975C23.2019 27.8037 23.1331 28.8037 22.5944 29.5662L19.6412 33.75H20.5519C21.9325 33.75 23.0519 34.8694 23.0519 36.25C23.0519 37.6306 21.9325 38.75 20.5519 38.75ZM34.1912 28.75H27.1325C26.1987 28.75 25.3425 28.2294 24.9125 27.4C24.4825 26.5713 24.5512 25.5713 25.09 24.8088L29.3662 18.75H27.1325C25.7519 18.75 24.6325 17.6306 24.6325 16.25C24.6325 14.8694 25.7519 13.75 27.1325 13.75H34.1912C35.125 13.75 35.9812 14.2706 36.4112 15.1C36.8412 15.9288 36.7725 16.9288 36.2337 17.6912L31.9575 23.75H34.1912C35.5719 23.75 36.6912 24.8694 36.6912 26.25C36.6912 27.6306 35.5719 28.75 34.1912 28.75ZM20.8825 23.75H12.0587C11.125 23.75 10.2687 23.2294 9.83874 22.4C9.40874 21.5712 9.47749 20.5712 10.0162 19.8088L16.0575 11.25H12.0587C10.6781 11.25 9.55874 10.1306 9.55874 8.75C9.55874 7.36937 10.6781 6.25 12.0587 6.25H20.8825C21.8162 6.25 22.6725 6.77062 23.1025 7.6C23.5325 8.42875 23.4637 9.42875 22.925 10.1912L16.8837 18.75H20.8825C22.2631 18.75 23.3825 19.8694 23.3825 21.25C23.3825 22.6306 22.2631 23.75 20.8825 23.75Z" fill="white"/>
</svg>
