<svg width="151" height="68" viewBox="0 0 151 68" fill="none" xmlns="http://www.w3.org/2000/svg">
<path fill-rule="evenodd" clip-rule="evenodd" d="M0.6117 1.67526e-06C0.172772 0.347278 0 0.60465 0 0.869074C0.520045 4.2537 0.869081 7.64537 1.56363 10.9471C3.39168 20.1561 7.04073 28.5807 14.1643 35.0996C25.4587 45.5249 37.8796 54.124 51.9557 60.3785C60.8174 64.292 70.0264 66.982 79.7572 67.5937C81.1657 67.6678 82.5689 67.7048 83.9704 67.7048C92.4214 67.7048 100.726 66.3509 108.775 63.5974C124.762 58.1203 136.494 47.7849 142.138 31.7079C145.704 21.7198 148.046 11.2944 150.917 1.04183C151 0.777405 151 0.430128 151 0.172756C150.827 0.0828519 150.743 0.0828519 150.57 0.0828519C150.395 0.520032 150.223 0.951924 150.131 1.3891L143.355 26.148C138.837 42.745 128.501 54.644 112.863 61.2476C103.71 65.0605 94.2847 67.0649 84.6931 67.0649C78.9869 67.0649 73.2224 66.3562 67.4192 64.8966C54.0394 61.5948 42.0504 55.4302 30.8459 47.5205C25.7161 43.8714 20.7678 39.7922 15.9024 35.7042C6.42903 27.5371 2.77998 16.5899 1.21635 4.69088C1.04184 3.12725 0.869081 1.56363 0.6117 1.67526e-06Z" fill="#46A292"/>
</svg>
