<svg width="165" height="79" viewBox="0 0 165 79" fill="none" xmlns="http://www.w3.org/2000/svg">
<path fill-rule="evenodd" clip-rule="evenodd" d="M164.397 2.62522e-06C164.223 0.435967 164.051 0.8649 163.961 1.30262C162.574 6.75745 161.278 12.3019 159.891 17.8464C158.069 25.2982 155.906 32.6657 151.831 39.3335C150.362 41.7594 149.321 44.3594 148.018 46.875C146.549 49.9039 145.336 53.1964 143.43 56.1427C137.019 65.8464 128.008 72.0835 116.745 75.2021C110.947 76.9002 105.034 78.0798 99.0059 78.0798C97.647 78.0798 96.2829 78.02 94.9117 77.8917C89.1932 77.3714 83.4747 76.8528 77.7561 76.4151C72.732 76.0688 67.7061 75.6398 62.9386 73.8169C52.3683 69.9213 43.5312 63.3361 35.8227 55.2761C29.6682 48.9546 23.3468 42.8001 15.9793 37.7742C11.0431 34.3093 6.53927 29.9761 4.88858 23.9112C3.32931 17.8464 2.38003 11.5249 1.16706 5.37045C0.903378 3.6389 0.729338 1.90559 0.557062 0.172276H0.0367221C0.0367221 0.69262 -0.0459027 1.30262 0.0367221 1.82121C0.820753 6.58341 1.51338 11.3527 2.29037 16.1149C3.32931 22.0953 4.63193 28.0705 9.2201 32.576C11.7374 35.002 14.246 37.5175 17.0182 39.4231C23.0831 43.4927 28.2812 48.3446 33.2245 53.7168C38.3313 59.3509 44.0498 64.2854 50.4609 68.362C58.6634 73.6833 67.3528 77.0321 77.1866 77.0321C77.4344 77.0321 77.6823 77.0303 77.9302 77.0251C78.1833 77.018 78.4347 77.0128 78.6861 77.0128C81.1911 77.0128 83.6382 77.396 86.1573 77.628C90.4888 77.9761 94.9117 78.7584 99.2432 78.7584C99.4102 78.7601 99.5755 78.7619 99.7425 78.7619C107.103 78.7619 114.302 76.9706 121.251 74.5095C132.25 70.6139 140.484 63.3361 146.029 53.2861C149.667 46.7853 152.614 39.8538 155.906 33.0964C156.163 32.4934 156.427 31.8834 156.599 31.2804C158.506 24.4316 160.494 17.5898 162.317 10.7427C163.267 7.27779 164.133 3.72855 165 0.172276C164.743 0.172276 164.569 0.0896566 164.397 2.62522e-06Z" fill="#46A292"/>
</svg>
