<svg width="34" height="45" viewBox="0 0 34 45" fill="none" xmlns="http://www.w3.org/2000/svg">
<path d="M30.6605 16.658C30.8384 15.8654 31.5355 15.3751 32.0708 15.4072C32.5928 15.5741 32.9531 16.2634 32.6404 17.0427C32.4573 17.8349 31.7602 18.3252 31.2301 18.2934C30.7026 18.1314 30.4774 17.4502 30.6605 16.658ZM33.1302 20.0086C33.5252 20.0323 33.9572 19.5261 33.997 18.8609C34.0369 18.1957 33.6685 17.6415 33.2735 17.6179C32.8733 17.5939 32.4414 18.1 32.4015 18.7652C32.3616 19.4305 32.73 19.9846 33.1302 20.0086ZM29.1631 17.1002C29.8284 17.1401 30.4061 16.3767 30.47 15.3113C30.5339 14.2458 30.0514 13.4189 29.3862 13.379C28.721 13.3391 28.1432 14.1025 28.0793 15.1679C28.0154 16.2334 28.4979 17.0603 29.1631 17.1002ZM24.0102 18.3978C22.5498 18.3103 19.8652 18.5457 19.6816 21.6069C19.4103 26.1337 24.8703 26.3254 24.5671 31.3823C24.3278 35.3738 20.0395 35.6487 19.9113 40.0485C19.8976 42.4522 20.7005 44.6336 24.562 44.8651C27.223 45.0247 28.97 42.5945 29.1055 40.3337C29.4804 34.0814 33.7188 32.463 33.9504 26.3377C34.0605 20.0644 26.6712 18.5573 24.0102 18.3978ZM21.3153 16.6297C22.5184 16.5715 23.2793 15.0158 23.1261 13.1341C22.9648 11.3875 21.844 9.98507 20.6325 10.1837C19.416 10.3767 18.6632 11.7973 18.8297 13.5442C18.9829 15.4259 20.1066 16.6929 21.3153 16.6297ZM25.8687 16.3707C26.6771 16.2835 27.4059 15.2632 27.3428 14.0545C27.2793 12.8511 26.5399 11.8731 25.7395 11.8251C24.8015 11.8993 24.0723 12.9248 24.1277 14.2634C24.186 15.4666 24.9303 16.45 25.8687 16.3707Z" fill="white"/>
<path d="M3.14222 7.35851C2.89336 6.58526 2.15486 6.16007 1.62464 6.24044C1.11986 6.45387 0.823357 7.17286 1.20528 7.92068C1.45928 8.69315 2.19779 9.11834 2.72286 9.03875C3.23357 8.82969 3.39623 8.13098 3.14222 7.35851ZM0.98567 10.9187C0.594439 10.978 0.118471 10.5131 0.0185931 9.85415C-0.0812847 9.19523 0.235503 8.61008 0.626734 8.55078C1.02311 8.49069 1.49908 8.95568 1.59896 9.6146C1.69883 10.2735 1.38205 10.8587 0.98567 10.9187ZM4.67348 7.66354C4.01457 7.76341 3.37011 7.0554 3.21015 6.0001C3.05019 4.94481 3.45588 4.07762 4.11479 3.97774C4.77371 3.87786 5.41816 4.58588 5.57812 5.64117C5.73808 6.69646 5.3324 7.56366 4.67348 7.66354ZM9.92259 8.48982C11.3691 8.27056 14.0641 8.26228 14.5237 11.2943C15.2033 15.778 9.78301 16.4627 10.5422 21.4715C11.1415 25.425 15.4371 25.311 15.9626 29.6811C16.1936 32.0737 15.5913 34.3189 11.7665 34.8986C9.13089 35.2981 7.1713 33.0359 6.83187 30.7966C5.89318 24.6038 1.52572 23.3753 0.741159 17.2961C0.0642197 11.0584 7.28693 8.88933 9.92259 8.48982ZM12.4466 6.48529C11.2431 6.53606 10.3447 5.05558 10.3271 3.16774C10.3298 1.41374 11.3191 -0.0843409 12.5437 0.00387623C13.7726 0.0861633 14.6508 1.43281 14.643 3.18759C14.6605 5.07543 13.656 6.43889 12.4466 6.48529ZM7.88846 6.63908C7.07542 6.6254 6.25732 5.67513 6.21092 4.46571C6.16529 3.26144 6.81323 2.2206 7.60598 2.10044C8.54694 2.08946 9.36581 3.04487 9.43173 4.38299C9.4825 5.58648 8.8302 6.63325 7.88846 6.63908Z" fill="white"/>
</svg>
