<svg width="114" height="53" viewBox="0 0 114 53" fill="none" xmlns="http://www.w3.org/2000/svg">
<path fill-rule="evenodd" clip-rule="evenodd" d="M0.431193 4.77863e-07C0.346707 0.0897578 0.174233 0.0897578 0 0.0897578C0.0844709 0.608942 0.0844709 1.12989 0.256945 1.65083C2.68568 8.24359 5.11441 14.8346 7.63289 21.4274C9.02149 24.9807 11.5329 27.7561 14.5724 30.1021C20.125 34.6111 26.5435 37.5608 33.1345 40.1638C42.3303 43.8069 51.5242 47.6224 60.9751 50.829C64.6957 52.0557 68.4338 52.7403 72.1578 52.7403C76.8569 52.7403 81.5349 51.6509 86.1301 49.1835C94.9773 44.4105 101.139 37.1243 105.65 28.2771C109.986 19.7765 112.153 10.5808 113.978 1.21436C114.06 0.957412 113.886 0.608942 113.886 0.262233C113.367 0.783177 113.193 1.30412 113.11 1.90778C111.375 8.32631 109.986 14.8346 107.906 21.1634C104.61 30.5316 99.4053 38.8579 91.3342 44.9297C86.2198 48.747 80.7517 51.5225 74.2504 51.8692C73.594 51.9026 72.941 51.9202 72.2881 51.9202C67.7597 51.9202 63.3124 51.1194 59.0674 49.532C49.3524 45.9716 39.81 42.0715 30.2693 38.0817C26.1053 36.3464 22.1155 34.1747 18.2154 31.8357C13.2682 28.8878 9.45091 24.7237 7.37066 19.1729C6.24605 16.049 4.85745 13.101 3.72756 9.97714C2.60296 6.68076 1.56108 3.38614 0.431193 4.77863e-07Z" fill="#46A292"/>
</svg>
