<svg width="131" height="59" viewBox="0 0 131 59" fill="none" xmlns="http://www.w3.org/2000/svg">
<path fill-rule="evenodd" clip-rule="evenodd" d="M0.0157453 0C-0.0668482 1.03863 0.189727 1.99467 0.453342 2.94367C1.83818 8.05775 3.13516 13.2544 4.60963 18.3615C5.38641 20.8763 6.07882 23.4756 7.63766 25.4632C14.3106 34.2151 22.189 41.4908 32.4102 45.9951C41.9389 50.3253 51.986 52.9246 62.0332 55.3498C69.0523 56.9912 75.9818 58.8137 83.2575 58.9876C83.5545 58.9964 83.848 58.9999 84.1415 58.9999C89.7458 58.9999 94.6596 57.4165 99.1041 53.8736C101.273 52.2321 103.434 50.5819 105.603 48.8509C112.879 43.0496 119.198 36.5507 122.318 27.5422C124.223 22.089 126.128 16.6287 127.861 11.0858C128.899 7.53755 129.509 3.81008 130.286 0.261855C130.112 0.172227 129.94 0.0896284 129.766 0.0896284C129.509 0.608066 129.246 1.21262 129.163 1.82068C127.604 11.0858 124.659 19.9203 121.195 28.5826C119.116 33.6967 116.17 38.2835 112.186 41.9214C108.285 45.5592 104.044 48.7665 100.06 52.2321C95.1376 56.5835 89.6158 58.4077 83.6986 58.4077C81.493 58.4077 79.2347 58.1546 76.9308 57.6854C68.0963 55.87 59.2617 53.8736 50.4272 51.6223C34.3152 47.5539 19.9378 40.3626 9.46008 26.8498C7.38282 24.2506 5.9066 21.4791 5.12982 18.1875C3.82758 12.4724 2.1844 6.84513 0.709918 1.21262C0.535936 0.78205 0.27936 0.435839 0.0157453 0Z" fill="#46A292"/>
</svg>
