<svg width="24" height="24" viewBox="0 0 24 24" fill="none" xmlns="http://www.w3.org/2000/svg">
<path d="M12 2.25C10.5625 2.25 9.38892 2.81607 8.62646 3.67383C7.86401 4.53159 7.5 5.64583 7.5 6.75C7.5 7.85417 7.86401 8.96841 8.62646 9.82617C9.38892 10.6839 10.5625 11.25 12 11.25C14.4764 11.25 16.5 9.2264 16.5 6.75C16.5 4.2736 14.4764 2.25 12 2.25ZM12 3.75C13.6657 3.75 15 5.08426 15 6.75C15 8.41574 13.6657 9.75 12 9.75C10.9375 9.75 10.2361 9.37857 9.74854 8.83008C9.26099 8.28159 9 7.52083 9 6.75C9 5.97917 9.26099 5.21841 9.74854 4.66992C10.2361 4.12143 10.9375 3.75 12 3.75ZM11.9985 12.7178C10.2307 12.7178 8.10967 13.1818 6.34717 13.9497C5.46592 14.3337 4.67436 14.7919 4.06348 15.353C3.45259 15.9142 2.98975 16.6238 2.98975 17.458C2.98975 18.8303 3.8815 19.9359 5.0127 20.4668C6.57533 21.2004 8.95432 21.6246 11.5181 21.6812C14.0818 21.7377 16.8054 21.4146 18.9771 20.4624C20.1392 19.9533 21.0098 18.8204 21.0088 17.458C21.0088 16.6238 20.5459 15.9142 19.9351 15.353C19.3242 14.7919 18.5326 14.3337 17.6514 13.9497C15.8889 13.1818 13.7664 12.7178 11.9985 12.7178ZM11.9985 14.2178C13.4924 14.2178 15.5003 14.649 17.0522 15.3252C17.8282 15.6633 18.4918 16.0642 18.9199 16.4575C19.3481 16.8508 19.5088 17.1912 19.5088 17.458V17.4595C19.5093 18.1866 19.0549 18.7905 18.375 19.0884C16.5199 19.9017 13.9585 20.2357 11.5503 20.1826C9.1421 20.1295 6.86226 19.678 5.6499 19.1089C4.9496 18.7802 4.48975 18.1872 4.48975 17.458C4.48975 17.1912 4.65044 16.8508 5.07861 16.4575C5.50678 16.0642 6.17032 15.6633 6.94629 15.3252C8.49823 14.649 10.5046 14.2178 11.9985 14.2178Z" fill="#787D7D"/>
</svg>
