<svg width="305" height="199" viewBox="0 0 305 199" fill="none" xmlns="http://www.w3.org/2000/svg">
<rect width="6" height="199" rx="3" fill="#3C8AF0"/>
<rect x="8" y="177" width="6" height="22" rx="3" fill="#4FB1A5"/>
<rect x="50" y="117" width="6" height="82" rx="3" fill="#3C8AF0"/>
<rect x="58" y="160" width="6" height="39" rx="3" fill="#4FB1A5"/>
<rect x="99" y="65" width="6" height="134" rx="3" fill="#3C8AF0"/>
<rect x="107" y="169" width="6" height="30" rx="3" fill="#4FB1A5"/>
<rect x="148" y="65" width="6" height="134" rx="3" fill="#3C8AF0"/>
<rect x="156" y="88" width="6" height="111" rx="3" fill="#4FB1A5"/>
<rect x="200" width="6" height="199" rx="3" fill="#3C8AF0"/>
<rect x="208" y="108" width="6" height="91" rx="3" fill="#4FB1A5"/>
<rect x="248" y="177" width="6" height="22" rx="3" fill="#3C8AF0"/>
<rect x="256" y="99" width="6" height="100" rx="3" fill="#4FB1A5"/>
<rect x="291" y="83" width="6" height="116" rx="3" fill="#3C8AF0"/>
<rect x="299" y="131" width="6" height="68" rx="3" fill="#4FB1A5"/>
</svg>
