<svg width="284" height="284" viewBox="0 0 284 284" fill="none" xmlns="http://www.w3.org/2000/svg">
<path d="M249.454 77.3957C236.555 57.8167 212.034 46.1898 188.337 48.4277C164.64 50.6656 142.829 66.6037 133.963 88.2501C129.419 99.2977 127.999 111.692 121.228 121.575C114.287 131.708 102.717 137.751 91.3685 142.801C80.0198 147.85 68.0805 152.502 59.1458 160.977C50.2112 169.451 44.9458 183.083 50.2112 194.125C55.5958 205.349 69.1937 209.836 79.0145 217.675C88.8352 225.513 95.0775 237.043 105.103 244.621C114.367 251.624 126.312 254.703 138.024 254.68C149.736 254.657 161.255 251.704 172.195 247.62C206.122 234.959 238.083 211.398 251.618 178.42C276.673 117.349 249.454 77.3957 249.454 77.3957Z" fill="#277568"/>
<g opacity="0.7">
<path d="M249.454 77.3957C236.555 57.8167 212.034 46.1898 188.337 48.4277C164.64 50.6656 142.829 66.6037 133.963 88.2501C129.419 99.2977 127.999 111.692 121.228 121.575C114.287 131.708 102.717 137.751 91.3685 142.801C80.0198 147.85 68.0805 152.502 59.1458 160.977C50.2112 169.451 44.9458 183.083 50.2112 194.125C55.5958 205.349 69.1937 209.836 79.0145 217.675C88.8352 225.513 95.0775 237.043 105.103 244.621C114.367 251.624 126.312 254.703 138.024 254.68C149.736 254.657 161.255 251.704 172.195 247.62C206.122 234.959 238.083 211.398 251.618 178.42C276.673 117.349 249.454 77.3957 249.454 77.3957Z" fill="white"/>
</g>
<path d="M203.872 231.057C203.872 231.057 212.108 231.011 221.242 218.288C229.222 207.161 214.074 172.712 205.582 164.788C197.09 156.865 180.562 200.141 182.481 211.103C185.213 226.723 196.988 230.659 203.872 231.057Z" fill="#277568"/>
<path d="M217.237 209.655L204.56 222.259L205.838 254.373H201.64C201.589 254.152 201.748 232.028 201.884 206.224L192.166 196.903C192.904 196.903 191.598 195.642 191.45 195.517L201.93 202.776C202.015 186.651 202.094 173.666 202.094 173.666L203.043 172.479L203.571 189.723L212.534 183.271C212.404 183.396 211.08 184.657 211.819 184.657L203.662 192.768L204.423 217.612L218.26 207.655C218.072 207.848 216.175 209.655 217.237 209.655Z" stroke="#263238" stroke-miterlimit="10"/>
<path d="M241.553 241.514C241.553 241.514 251.573 240.792 256.571 231.29C261.967 221.015 248.807 196.642 242.082 194.836C234.698 192.842 223.042 212.319 225.428 227.45C227.064 237.776 236.924 241.252 241.553 241.514Z" fill="#277568"/>
<path d="M249.074 222.883L242.087 228.433C241.871 215.403 241.69 204.997 241.69 204.997L240.832 204.02L240.514 217.328V217.618L234.584 212.966C234.584 212.966 235.533 213.932 235.044 213.937L240.44 219.805L240.077 235.107L231.119 228.058C231.119 228.058 232.46 229.427 231.772 229.432L239.991 238.373L239.946 240.139L239.895 242.042L239.616 254.112L242.513 254.078C242.445 250.198 242.383 246.126 242.32 242.059C242.263 238.594 242.195 235.124 242.15 231.79C242.15 231.54 242.15 231.307 242.15 231.062L248.568 224.036C247.977 224.042 249.074 222.883 249.074 222.883Z" stroke="#263238" stroke-miterlimit="10"/>
<path d="M229.074 248.983C228.143 248.233 226.467 248.25 224.996 248.313C225.104 247.375 225.496 246.45 225.61 245.507C225.7 245.02 225.651 244.518 225.469 244.058C225.287 243.598 224.98 243.199 224.582 242.905C222.968 241.769 220.128 242.212 217.902 242.86C218.209 240.656 215.863 238.509 212.722 238.168C209.581 237.827 206.087 239.361 205.167 241.514C203.895 240.298 201.356 239.81 199.237 240.378C197.119 240.946 195.614 242.53 195.721 244.058C194.097 243.95 192.285 243.877 190.939 244.575C188.962 245.609 189.099 247.699 187.576 249.051C187.085 248.957 186.577 248.998 186.106 249.17C185.636 249.342 185.222 249.639 184.907 250.028C184.39 250.704 184.299 251.476 183.987 252.203C183.35 253.658 181.237 253.839 179.221 254.475L229.682 254.896C230.778 254.544 231.716 253.794 231.67 252.982C231.625 252.169 230.267 251.511 229.216 251.914C229.58 251.931 230.159 249.846 229.074 248.983Z" fill="#277568"/>
<path d="M251.76 251.192C251.192 250.738 250.159 250.744 249.261 250.783C249.324 250.215 249.562 249.647 249.636 249.079C249.692 248.781 249.662 248.473 249.551 248.191C249.439 247.908 249.25 247.663 249.006 247.483C248.017 246.79 246.273 247.057 244.91 247.455C245.098 246.103 243.661 244.785 241.735 244.581C239.81 244.376 237.668 245.308 237.106 246.626C236.328 245.882 234.766 245.586 233.471 245.938C232.176 246.291 231.25 247.256 231.318 248.21C230.318 248.142 229.211 248.091 228.387 248.523C227.172 249.159 227.251 250.437 226.325 251.266C226.023 251.209 225.71 251.235 225.421 251.341C225.132 251.447 224.878 251.629 224.684 251.868C224.439 252.286 224.249 252.732 224.116 253.197C223.73 254.089 222.412 254.197 221.196 254.589L252.124 254.845C252.794 254.629 253.368 254.169 253.345 253.675C253.322 253.18 252.482 252.771 251.84 253.021C252.067 253.004 252.425 251.726 251.76 251.192Z" fill="#277568"/>
<path d="M126.84 153.07C125.446 152.114 123.817 151.557 122.129 151.461C120.441 151.364 118.759 151.73 117.264 152.52C115.77 153.311 114.52 154.495 113.65 155.944C112.78 157.394 112.322 159.053 112.328 160.744V160.801C112.046 160.439 111.69 160.141 111.285 159.927C110.879 159.713 110.433 159.587 109.975 159.557C109.518 159.528 109.059 159.595 108.629 159.756C108.2 159.916 107.809 160.166 107.483 160.488C107.288 158.632 106.389 156.921 104.971 155.707C103.553 154.494 101.724 153.87 99.8595 153.965C97.9954 154.059 96.2386 154.865 94.9506 156.216C93.6627 157.567 92.9417 159.36 92.9361 161.227C92.632 161.012 92.2783 160.878 91.9082 160.838C91.5382 160.797 91.1639 160.851 90.8204 160.995C90.4769 161.138 90.1755 161.367 89.9446 161.659C89.7136 161.951 89.5605 162.297 89.4998 162.664H141.114C141.114 161.418 140.756 160.199 140.084 159.15C139.412 158.101 138.454 157.267 137.322 156.747C136.191 156.226 134.934 156.041 133.7 156.213C132.466 156.385 131.308 156.906 130.362 157.717C130.049 156.821 129.603 155.979 129.038 155.217" stroke="#263238" stroke-linecap="round" stroke-linejoin="round"/>
<path d="M215.539 85.1375C217.236 84.5446 219.051 84.3665 220.831 84.6183C222.611 84.8701 224.305 85.5443 225.771 86.5847C227.238 87.625 228.434 89.0013 229.259 90.5983C230.085 92.1954 230.516 93.9669 230.517 95.7648V95.833C230.86 95.3949 231.291 95.0342 231.783 94.7745C232.275 94.5148 232.816 94.3619 233.371 94.326C233.926 94.2901 234.483 94.3718 235.004 94.566C235.525 94.7601 236 95.0622 236.396 95.4524C236.65 93.2131 237.747 91.1548 239.466 89.6968C241.184 88.2388 243.394 87.4908 245.644 87.6052C247.895 87.7196 250.017 88.6878 251.579 90.3126C253.141 91.9374 254.024 94.0964 254.049 96.3498C254.496 96.0286 255.033 95.8576 255.583 95.8614C256.216 95.8597 256.829 96.0835 257.311 96.4925C257.794 96.9015 258.116 97.4691 258.218 98.0936H195.585C195.581 96.5782 196.012 95.0935 196.828 93.8165C197.644 92.5395 198.81 91.524 200.187 90.8912C201.564 90.2584 203.094 90.035 204.594 90.2475C206.094 90.46 207.502 91.0995 208.649 92.0898C209.217 90.4525 210.154 88.9677 211.387 87.7503" stroke="#263238" stroke-linecap="round" stroke-linejoin="round"/>
<path d="M23.3164 72.0622H85.9498C85.9542 70.5468 85.5228 69.0621 84.7069 67.7851C83.891 66.5081 82.7251 65.4926 81.3482 64.8598C79.9712 64.227 78.4413 64.0036 76.9409 64.2161C75.4405 64.4286 74.0328 65.0682 72.8858 66.0585C72.0155 63.5447 70.2828 61.4205 67.9952 60.0629C65.7075 58.7053 63.0129 58.2022 60.3894 58.6427C57.766 59.0832 55.3835 60.439 53.6647 62.4693C51.946 64.4996 51.0021 67.0733 51.0007 69.7334V69.8016C50.658 69.3635 50.2266 69.0028 49.7347 68.7431C49.2428 68.4834 48.7016 68.3305 48.1466 68.2946C47.5915 68.2587 47.0351 68.3405 46.5139 68.5346C45.9926 68.7287 45.5183 69.0308 45.1219 69.421C44.8683 67.1817 43.7705 65.1234 42.0521 63.6654C40.3338 62.2074 38.1241 61.4594 35.8735 61.5738C33.6228 61.6882 31.5004 62.6564 29.9388 64.2812C28.3771 65.906 27.4937 68.065 27.4685 70.3185C27.022 69.9973 26.4849 69.8262 25.9349 69.83C25.305 69.8324 24.6963 70.058 24.2169 70.4666C23.7375 70.8753 23.4185 71.4406 23.3164 72.0622Z" fill="white" stroke="#263238" stroke-miterlimit="10"/>
<path d="M106.79 94.2029L108.732 106.347" stroke="#277568" stroke-miterlimit="10"/>
<path d="M99.4455 98.5027L107.528 108.289" stroke="#277568" stroke-miterlimit="10"/>
<path d="M98.1675 106.812L105.733 109.772" stroke="#277568" stroke-miterlimit="10"/>
<path d="M59.782 127.948V118.593" stroke="#263238" stroke-linecap="round" stroke-linejoin="round"/>
<path d="M37.755 127.948H59.782V121.047H37.755V127.948Z" fill="white" stroke="#263238" stroke-linecap="round" stroke-linejoin="round"/>
<path d="M37.755 127.948V118.593" stroke="#263238" stroke-linecap="round" stroke-linejoin="round"/>
<path d="M115.264 254.51H159.784V176.989H115.264V254.51Z" fill="white" stroke="#263238" stroke-linecap="round" stroke-linejoin="round"/>
<path d="M70.8864 254.51H115.406L115.406 148.248H70.8864L70.8864 254.51Z" fill="white" stroke="#263238" stroke-linecap="round" stroke-linejoin="round"/>
<path d="M26.1621 254.515H70.6819L70.6819 127.76H26.1621L26.1621 254.515Z" fill="white" stroke="#263238" stroke-linecap="round" stroke-linejoin="round"/>
<path d="M62.3948 135.752V249.71" stroke="#277568" stroke-linecap="round" stroke-linejoin="round"/>
<path d="M52.6593 135.752V249.71" stroke="#277568" stroke-linecap="round" stroke-linejoin="round"/>
<path d="M42.9238 135.752V249.71" stroke="#277568" stroke-linecap="round" stroke-linejoin="round"/>
<path d="M33.194 135.752V249.71" stroke="#277568" stroke-linecap="round" stroke-linejoin="round"/>
<path d="M108.017 153.735V164.339V174.938V185.543V196.142V206.752V217.357V227.955V238.56V249.165V249.369" stroke="#277568" stroke-linecap="round" stroke-linejoin="round"/>
<path d="M98.2811 153.735V164.339V174.938V185.543V196.142V206.752V217.357V227.955V238.56V249.165V249.369" stroke="#277568" stroke-linecap="round" stroke-linejoin="round"/>
<path d="M88.5399 153.735V164.339V174.938V185.543V196.142V206.752V217.357V227.955V238.56V249.165V249.369" stroke="#277568" stroke-linecap="round" stroke-linejoin="round"/>
<path d="M78.8101 153.735V164.339V174.938V185.543V196.142V206.752V217.357V227.955V238.56V249.165V249.369" stroke="#277568" stroke-linecap="round" stroke-linejoin="round"/>
<path d="M108.017 153.735H106.108H97.0088H87.9037H78.8101" stroke="#277568" stroke-linecap="round" stroke-linejoin="round"/>
<path d="M108.017 164.34H106.108H97.0088H87.9037H78.8101" stroke="#277568" stroke-linecap="round" stroke-linejoin="round"/>
<path d="M108.017 174.938H106.108H97.0088H87.9037H78.8101" stroke="#277568" stroke-linecap="round" stroke-linejoin="round"/>
<path d="M108.017 185.543H106.108H97.0088H87.9037H78.8101" stroke="#277568" stroke-linecap="round" stroke-linejoin="round"/>
<path d="M108.017 196.142H106.108H97.0088H87.9037H78.8101" stroke="#277568" stroke-linecap="round" stroke-linejoin="round"/>
<path d="M108.017 206.752H106.108H97.0088H87.9037H78.8101" stroke="#277568" stroke-linecap="round" stroke-linejoin="round"/>
<path d="M108.017 217.357H106.108H97.0088H87.9037H78.8101" stroke="#277568" stroke-linecap="round" stroke-linejoin="round"/>
<path d="M108.017 227.956H106.108H97.0088H87.9037H78.8101" stroke="#277568" stroke-linecap="round" stroke-linejoin="round"/>
<path d="M108.017 238.56H106.108H97.0088H87.9037H78.8101" stroke="#277568" stroke-linecap="round" stroke-linejoin="round"/>
<path d="M108.017 249.165H106.108H97.0088H87.9037H78.8101" stroke="#277568" stroke-linecap="round" stroke-linejoin="round"/>
<path d="M155.428 183.385H121.774" stroke="#277568" stroke-linecap="round" stroke-linejoin="round"/>
<path d="M155.428 193.989H121.774" stroke="#277568" stroke-linecap="round" stroke-linejoin="round"/>
<path d="M155.428 204.588H121.774" stroke="#277568" stroke-linecap="round" stroke-linejoin="round"/>
<path d="M155.428 215.193H121.774" stroke="#277568" stroke-linecap="round" stroke-linejoin="round"/>
<path d="M155.428 225.797H121.774" stroke="#277568" stroke-linecap="round" stroke-linejoin="round"/>
<path d="M155.428 236.402H121.774" stroke="#277568" stroke-linecap="round" stroke-linejoin="round"/>
<path d="M155.428 247H121.774" stroke="#277568" stroke-linecap="round" stroke-linejoin="round"/>
<path d="M258.218 254.845H237.861H235.493H23.3164" stroke="#263238" stroke-linecap="round" stroke-linejoin="round"/>
<path d="M100.661 254.186C100.36 254.328 98.1731 254.407 95.3843 254.453C89.7043 254.549 81.5308 254.504 81.5308 254.504C81.5308 254.504 81.0877 254.504 80.9173 252.289C80.7469 250.073 81.8375 248.313 81.9624 247.387C82.5304 243.138 81.082 241.366 81.0593 241.053C81.0366 240.741 89.0113 240.565 89.0113 240.565L91.6241 240.389L91.0561 244.126C91.0206 244.338 91.0016 244.553 90.9993 244.768C90.9453 246.09 91.3595 247.388 92.1689 248.435C92.9784 249.481 94.1311 250.208 95.424 250.488H95.5433C95.7308 250.312 98.9513 248.824 100.269 250.88C100.99 251.999 100.661 254.186 100.661 254.186Z" fill="#263238"/>
<mask id="mask0_1_3765" style="mask-type:luminance" maskUnits="userSpaceOnUse" x="80" y="240" width="21" height="15">
<path d="M100.661 254.186C100.36 254.328 98.1731 254.407 95.3843 254.453C89.7043 254.549 81.5308 254.504 81.5308 254.504C81.5308 254.504 81.0877 254.504 80.9173 252.289C80.7469 250.073 81.8375 248.313 81.9624 247.387C82.5304 243.138 81.082 241.366 81.0593 241.053C81.0366 240.741 89.0113 240.565 89.0113 240.565L91.6241 240.389L91.0561 244.126C91.0206 244.338 91.0016 244.553 90.9993 244.768C90.9453 246.09 91.3595 247.388 92.1689 248.435C92.9784 249.481 94.1311 250.208 95.424 250.488H95.5433C95.7308 250.312 98.9513 248.824 100.269 250.88C100.99 251.999 100.661 254.186 100.661 254.186Z" fill="white"/>
</mask>
<g mask="url(#mask0_1_3765)">
<path opacity="0.2" d="M100.661 254.186C100.36 254.328 98.1731 254.407 95.3843 254.453C89.7043 254.549 81.5308 254.504 81.5308 254.504C81.5308 254.504 81.0877 254.504 80.9173 252.289C80.7469 250.073 81.8375 248.313 81.9624 247.387C82.5304 243.138 81.082 241.366 81.0593 241.053C81.0366 240.741 89.0113 240.565 89.0113 240.565L91.6241 240.389L91.0561 244.126C91.0206 244.338 91.0016 244.553 90.9993 244.768C90.9453 246.09 91.3595 247.388 92.1689 248.435C92.9784 249.481 94.1311 250.208 95.424 250.488H95.5433C95.7308 250.312 98.9513 248.824 100.269 250.88C100.99 251.999 100.661 254.186 100.661 254.186Z" fill="white"/>
<path opacity="0.3" d="M95.3843 254.464C89.7043 254.561 81.5308 254.515 81.5308 254.515C81.5308 254.515 81.0877 254.515 80.9173 252.3C80.7469 250.085 81.8375 248.324 81.9624 247.398C82.5304 243.149 81.082 241.377 81.0593 241.065C81.0366 240.752 89.0113 240.576 89.0113 240.576L91.6241 240.4L91.0561 244.138C91.0206 244.35 91.0016 244.564 90.9993 244.78C89.1988 246.268 87.7674 247.466 87.7674 247.466C87.7674 247.466 95.0662 249.875 95.3843 254.464Z" fill="black"/>
</g>
<path d="M100.661 254.186C100.36 254.328 98.1732 254.407 95.3843 254.453C89.7043 254.549 81.5308 254.504 81.5308 254.504C81.5308 254.504 81.0877 254.504 80.9173 252.289C80.7469 250.073 81.8375 248.313 81.9624 247.387C82.5304 243.138 81.082 241.366 81.0593 241.053C81.0366 240.741 89.0113 240.565 89.0113 240.565L91.6241 240.389L91.0561 244.126C91.0206 244.338 91.0016 244.553 90.9993 244.768C90.9453 246.09 91.3595 247.388 92.1689 248.435C92.9784 249.481 94.1311 250.208 95.424 250.488H95.5433C95.7308 250.312 98.9513 248.824 100.269 250.88C100.99 251.999 100.661 254.186 100.661 254.186Z" stroke="#263238" stroke-linecap="round" stroke-linejoin="round"/>
<path d="M93.3508 235.504C93.6178 236.93 94.2823 237.333 93.8507 238.003C93.7882 238.105 93.7257 238.225 93.6632 238.35C93.3281 239.043 92.9703 240.02 91.6525 240.389C90.1019 240.826 82.6781 241.229 81.0763 241.031C79.4746 240.832 78.5658 239.327 78.4749 238.054C78.384 236.782 79.077 235.987 78.9691 234.561C78.8611 233.135 77.7479 232.721 77.674 231.772C77.6002 230.824 78.5203 229.443 78.509 228.495C78.509 226.495 78.5431 228.677 78.9407 217.311C79.1622 210.83 80.7299 209.421 78.9407 202.071C78.2931 199.419 71.3408 151.395 71.3408 151.395L92.7828 152.678C92.7828 152.678 93.1236 160.857 93.5099 170.519C93.9983 182.811 94.5607 197.499 94.5777 200.805C94.6118 207.519 94.0097 216.925 93.5042 225.274C93.294 228.836 92.9362 231.289 93.5042 232.658C93.5716 232.801 93.612 232.955 93.6235 233.113C93.72 234.016 93.0782 234.078 93.3508 235.504Z" fill="#277568"/>
<mask id="mask1_1_3765" style="mask-type:luminance" maskUnits="userSpaceOnUse" x="71" y="151" width="24" height="91">
<path d="M93.3508 235.504C93.6178 236.93 94.2823 237.333 93.8507 238.003C93.7882 238.105 93.7257 238.225 93.6632 238.35C93.3281 239.043 92.9703 240.02 91.6525 240.389C90.1019 240.826 82.6781 241.229 81.0763 241.031C79.4746 240.832 78.5658 239.327 78.4749 238.054C78.384 236.782 79.077 235.987 78.9691 234.561C78.8611 233.135 77.7479 232.721 77.674 231.772C77.6002 230.824 78.5203 229.443 78.509 228.495C78.509 226.495 78.5431 228.677 78.9407 217.311C79.1622 210.83 80.7299 209.421 78.9407 202.071C78.2931 199.419 71.3408 151.395 71.3408 151.395L92.7828 152.678C92.7828 152.678 93.1236 160.857 93.5099 170.519C93.9983 182.811 94.5607 197.499 94.5777 200.805C94.6118 207.519 94.0097 216.925 93.5042 225.274C93.294 228.836 92.9362 231.289 93.5042 232.658C93.5716 232.801 93.612 232.955 93.6235 233.113C93.72 234.016 93.0782 234.078 93.3508 235.504Z" fill="white"/>
</mask>
<g mask="url(#mask1_1_3765)">
<path opacity="0.3" d="M93.6632 238.35C93.3281 239.043 92.9703 240.02 91.6525 240.389C90.1019 240.826 82.6781 241.229 81.0763 241.031C79.4746 240.832 78.5658 239.327 78.4749 238.054C78.384 236.782 79.077 235.987 78.9691 234.561C78.8611 233.135 77.7479 232.721 77.674 231.772C77.6002 230.824 78.5203 229.443 78.509 228.495C78.509 226.495 78.5431 228.677 78.9407 217.311C79.1622 210.83 80.7299 209.421 78.9407 202.071C78.2931 199.419 71.3408 151.395 71.3408 151.395L92.7828 152.678C92.7828 152.678 93.1236 160.857 93.5099 170.519C90.9255 181.266 87.9264 193.091 86.8018 195.079L88.5739 198.175C88.5739 198.175 84.3367 208.007 84.3367 209.194C84.3367 210.381 85.768 221.486 86.2622 223.792C86.7563 226.098 84.3367 224.456 84.3367 226.399C84.3367 228.188 84.1435 236.896 93.6632 238.35Z" fill="black"/>
</g>
<path d="M93.3508 235.504C93.6178 236.93 94.2823 237.333 93.8507 238.003C93.7882 238.105 93.7257 238.225 93.6632 238.35C93.3281 239.043 92.9703 240.02 91.6525 240.389C90.1019 240.826 82.6781 241.229 81.0763 241.031C79.4746 240.832 78.5658 239.327 78.4749 238.054C78.384 236.782 79.077 235.987 78.9691 234.561C78.8611 233.135 77.7479 232.721 77.674 231.772C77.6002 230.824 78.5203 229.443 78.509 228.495C78.509 226.495 78.5431 228.677 78.9407 217.311C79.1622 210.83 80.7299 209.421 78.9407 202.071C78.2931 199.419 71.3408 151.395 71.3408 151.395L92.7828 152.678C92.7828 152.678 93.1236 160.857 93.5099 170.519C93.9983 182.811 94.5607 197.499 94.5777 200.805C94.6118 207.519 94.0097 216.925 93.5042 225.274C93.294 228.836 92.9362 231.289 93.5042 232.658C93.5716 232.801 93.612 232.955 93.6235 233.113C93.72 234.016 93.0782 234.078 93.3508 235.504Z" stroke="#263238" stroke-linecap="round" stroke-linejoin="round"/>
<path d="M91.7093 168.202C91.7093 168.202 89.0795 170.474 86.8359 170.065" stroke="#263238" stroke-linecap="round" stroke-linejoin="round"/>
<path d="M91.448 172.496C91.448 172.496 87.0176 171.428 86.5121 170.531" stroke="#263238" stroke-linecap="round" stroke-linejoin="round"/>
<path d="M85.768 192.734C85.768 192.734 88.1593 198.982 90.8175 200.493" stroke="#263238" stroke-linecap="round" stroke-linejoin="round"/>
<path d="M90.9368 234.203C90.9368 234.203 85.626 235.845 82.9848 234.646C80.3436 233.448 85.0694 237.39 90.0337 237.043" stroke="#263238" stroke-linecap="round" stroke-linejoin="round"/>
<path d="M83.4165 205.877C83.4165 205.877 83.4619 222.491 87.7958 225.797" stroke="#263238" stroke-linecap="round" stroke-linejoin="round"/>
<path d="M87.8696 243.132C88.8944 242.724 89.982 242.495 91.0845 242.456" stroke="#263238" stroke-linecap="round" stroke-linejoin="round"/>
<path d="M87.9662 245.285C87.9662 245.285 89.5055 244.717 90.6187 244.49" stroke="#263238" stroke-linecap="round" stroke-linejoin="round"/>
<path d="M88.2559 247.347L90.738 246.603" stroke="#263238" stroke-linecap="round" stroke-linejoin="round"/>
<path d="M89.4657 249.034L91.5048 248.233" stroke="#263238" stroke-linecap="round" stroke-linejoin="round"/>
<path d="M91.7775 250.482L92.9646 249.568" stroke="#263238" stroke-linecap="round" stroke-linejoin="round"/>
<path d="M88.3808 241.082C88.3808 241.082 88.182 246.762 89.9769 248.631C91.7718 250.499 93.6746 250.539 93.5098 251.255" stroke="#263238" stroke-linecap="round" stroke-linejoin="round"/>
<path d="M72.0054 240.417C72.0054 240.417 63.9738 240.582 63.9454 240.9C63.917 241.218 65.0814 242.985 63.758 247.228C63.474 248.153 62.054 249.909 61.8722 252.118C61.6905 254.328 62.1051 254.328 62.1051 254.328C62.1051 254.328 80.2811 254.43 81.2865 254.015C81.2865 254.015 81.9908 251.834 81.4739 250.749C80.4515 248.596 76.6971 250.335 76.8163 250.357H76.697C73.8968 249.738 72.4882 246.949 73.4424 243.996L74.6522 240.264L72.0054 240.417Z" fill="#263238"/>
<mask id="mask2_1_3765" style="mask-type:luminance" maskUnits="userSpaceOnUse" x="61" y="240" width="21" height="15">
<path d="M72.0054 240.417C72.0054 240.417 63.9738 240.582 63.9454 240.9C63.917 241.218 65.0814 242.985 63.758 247.228C63.474 248.153 62.054 249.909 61.8722 252.118C61.6905 254.328 62.1051 254.328 62.1051 254.328C62.1051 254.328 80.2811 254.43 81.2865 254.015C81.2865 254.015 81.9908 251.834 81.4739 250.749C80.4515 248.596 76.6971 250.335 76.8163 250.357H76.697C73.8968 249.738 72.4882 246.949 73.4424 243.996L74.6522 240.264L72.0054 240.417Z" fill="white"/>
</mask>
<g mask="url(#mask2_1_3765)">
<path opacity="0.25" d="M72.0054 240.417C72.0054 240.417 63.9738 240.582 63.9454 240.9C63.917 241.218 65.0814 242.985 63.758 247.228C63.474 248.153 62.054 249.909 61.8722 252.118C61.6905 254.328 62.1051 254.328 62.1051 254.328C62.1051 254.328 80.2811 254.43 81.2865 254.015C81.2865 254.015 81.9908 251.834 81.4739 250.749C80.4515 248.596 76.6971 250.335 76.8163 250.357H76.697C73.8968 249.738 72.4882 246.949 73.4424 243.996L74.6522 240.264L72.0054 240.417Z" fill="white"/>
</g>
<path d="M72.0054 240.417C72.0054 240.417 63.9738 240.582 63.9454 240.9C63.917 241.218 65.0814 242.985 63.758 247.228C63.474 248.153 62.054 249.909 61.8722 252.118C61.6905 254.328 62.1051 254.328 62.1051 254.328C62.1051 254.328 80.2811 254.43 81.2865 254.015C81.2865 254.015 81.9908 251.834 81.4739 250.749C80.4515 248.596 76.6971 250.335 76.8163 250.357H76.697C73.8968 249.738 72.4882 246.949 73.4424 243.996L74.6522 240.264L72.0054 240.417Z" stroke="#263238" stroke-linecap="round" stroke-linejoin="round"/>
<path d="M90.88 152.678L69.6596 151.395C69.6596 151.395 68.3588 199.339 68.5236 201.986C69.0518 209.325 67.2456 210.728 65.9051 217.203C63.5536 228.563 63.8716 226.371 63.5536 228.364C63.4002 229.313 62.2415 230.693 62.1506 231.642C62.0597 232.59 63.1048 233.005 62.9685 234.425C62.8322 235.845 61.9916 236.651 61.8723 237.912C61.753 239.173 62.3948 240.684 63.9625 240.883C65.5302 241.082 73.0505 240.678 74.6523 240.241C76.254 239.804 76.7141 238.537 77.2594 237.861C77.8047 237.185 77.214 236.788 77.1856 235.362C77.1572 233.936 77.799 233.897 77.8842 232.965C77.8997 232.812 77.8862 232.658 77.8444 232.511C77.498 231.153 78.2818 228.705 79.0997 225.127C81.0309 216.794 83.2632 207.399 84.3764 200.703C84.9444 197.363 86.9381 182.402 88.574 170.031C88.574 170.031 90.1416 167.503 90.9368 162.607" fill="#277568"/>
<mask id="mask3_1_3765" style="mask-type:luminance" maskUnits="userSpaceOnUse" x="61" y="151" width="30" height="90">
<path d="M90.88 152.678L69.6596 151.395C69.6596 151.395 68.3588 199.339 68.5236 201.986C69.0518 209.325 67.2456 210.728 65.9051 217.203C63.5536 228.563 63.8716 226.371 63.5536 228.364C63.4002 229.313 62.2415 230.693 62.1506 231.642C62.0597 232.59 63.1048 233.005 62.9685 234.425C62.8322 235.845 61.9916 236.651 61.8723 237.912C61.753 239.173 62.3948 240.684 63.9625 240.883C65.5302 241.082 73.0505 240.678 74.6523 240.241C76.254 239.804 76.7141 238.537 77.2594 237.861C77.8047 237.185 77.214 236.788 77.1856 235.362C77.1572 233.936 77.799 233.897 77.8842 232.965C77.8997 232.812 77.8862 232.658 77.8444 232.511C77.498 231.153 78.2818 228.705 79.0997 225.127C81.0309 216.794 83.2632 207.399 84.3764 200.703C84.9444 197.363 86.9381 182.402 88.574 170.031C88.574 170.031 90.1416 167.503 90.9368 162.607" fill="white"/>
</mask>
<g mask="url(#mask3_1_3765)">
<path opacity="0.3" d="M69.5914 153.059L69.4039 160.221C72.9954 160.513 76.6045 160.513 80.1959 160.221C87.2051 159.596 91.4707 156.49 91.4707 156.49L90.9027 152.678C90.9027 152.678 82.9507 154.82 79.0372 154.519C75.1237 154.218 71.3749 153.746 69.5914 153.059Z" fill="black"/>
</g>
<path d="M90.88 152.678L69.6596 151.395C69.6596 151.395 68.3588 199.339 68.5236 201.986C69.0518 209.325 67.2456 210.728 65.9051 217.203C63.5536 228.563 63.8716 226.371 63.5536 228.364C63.4002 229.313 62.2415 230.693 62.1506 231.642C62.0597 232.59 63.1048 233.005 62.9685 234.425C62.8322 235.845 61.9916 236.651 61.8723 237.912C61.753 239.173 62.3948 240.684 63.9625 240.883C65.5302 241.082 73.0505 240.678 74.6523 240.241C76.254 239.804 76.7141 238.537 77.2594 237.861C77.8047 237.185 77.214 236.788 77.1856 235.362C77.1572 233.936 77.799 233.897 77.8842 232.965C77.8997 232.812 77.8863 232.658 77.8444 232.511C77.498 231.153 78.2818 228.705 79.0997 225.127C81.0309 216.794 83.2632 207.399 84.3764 200.703C84.9444 197.363 86.9381 182.402 88.574 170.031C88.574 170.031 90.1416 167.503 90.9368 162.607" stroke="#263238" stroke-linecap="round" stroke-linejoin="round"/>
<path d="M80.3947 210.665C80.3947 210.665 73.0561 223.161 65.8141 227.245" stroke="#263238" stroke-linecap="round" stroke-linejoin="round"/>
<path d="M65.6892 234.203L73.5674 235.197C74.1354 235.271 74.8681 235.498 74.8113 236.101C74.7545 236.703 74.1467 236.975 73.6242 237.163C71.8701 237.817 69.9632 237.945 68.1373 237.532" stroke="#263238" stroke-linecap="round" stroke-linejoin="round"/>
<path d="M65.9221 230.415C68.7521 232.037 71.9471 232.917 75.2089 232.971" stroke="#263238" stroke-linecap="round" stroke-linejoin="round"/>
<path d="M70.8637 207.672C70.8637 207.672 74.8397 207.825 76.8845 207.644C75.3679 209.723 72.9085 210.626 70.5342 210.745" stroke="#263238" stroke-linecap="round" stroke-linejoin="round"/>
<path d="M73.84 157.336C73.84 157.336 73.272 177.75 73.0675 186.241C72.863 194.733 72.4995 204.633 72.4995 204.633C72.3067 204.936 72.1758 205.275 72.1144 205.628C72.053 205.982 72.0623 206.345 72.1417 206.695L72.4598 207.74L72.2894 210.688C72.0611 210.956 71.8954 211.271 71.804 211.611C71.7126 211.951 71.698 212.307 71.7611 212.653C72.0337 213.727 69.8299 221.208 69.8299 221.208L69.4494 221.702C69.0601 222.168 68.7997 222.728 68.6941 223.325C68.5884 223.923 68.6412 224.539 68.8473 225.11L68.0578 231.517C67.6333 231.864 67.3489 232.353 67.257 232.894C67.1651 233.435 67.272 233.991 67.5579 234.459L66.8195 237.799C66.4449 238.116 66.1944 238.556 66.1123 239.04C66.0302 239.525 66.1218 240.022 66.3708 240.446L66.4958 240.633" stroke="#263238" stroke-linecap="round" stroke-linejoin="round"/>
<path d="M110.595 119.689C110.027 120.933 105.188 124.233 105.188 124.233C105.184 123.688 105.3 123.149 105.529 122.654C105.875 122.12 106.097 121.609 106.318 121.291C106.375 120.428 106.092 119.578 105.529 118.922C104.87 118.189 104.353 120.018 104.063 121.234C103.774 122.449 101.876 124.301 101.962 125.21C102.126 126.255 102.337 127.283 102.604 128.305C102.604 128.305 94.5095 131.145 93.6178 129.441C91.7295 125.781 89.6438 122.226 87.3698 118.791C85.467 121.45 86.9665 125.119 88.04 129.629C89.1135 134.139 92.4193 140.455 92.4193 140.455C98.3378 137.615 105.063 130.231 105.063 130.231C105.063 130.231 106.642 129.527 108.596 128.856C110.55 128.186 110.266 127.613 110.578 125.693C110.891 123.773 112.532 121.149 112.436 120.16C112.339 119.172 111.175 118.451 110.595 119.689Z" fill="white" stroke="#263238" stroke-linecap="round" stroke-linejoin="round"/>
<path d="M91.448 129.282C91.3741 133.395 92.1864 147.339 93.0668 152.871L68.9779 152.264V151.86C70.7444 145.317 69.597 138.228 66.8081 132.077C65.3313 128.811 64.6725 124.636 63.9113 120.683C61.9745 110.618 66.8365 107.5 70.8977 107.113C72.4654 107.04 72.6018 105.977 73.7378 106.063C74.5218 106.158 75.3173 106.06 76.0552 105.779C76.5607 107.84 79.3609 113.895 80.3209 114.588C80.7871 114.956 81.3531 115.176 81.9456 115.218C82.5381 115.261 83.1296 115.124 83.6437 114.827C84.6093 114.151 84.8762 112.862 85.0977 111.703C85.1975 111.075 85.3769 110.462 85.6317 109.88C87.0517 110.59 89.5281 111.43 91.3685 114.742C93.6405 122.052 92.3909 117.366 94.1403 128.09C94.4413 129.731 91.448 129.282 91.448 129.282Z" fill="white" stroke="#263238" stroke-linecap="round" stroke-linejoin="round"/>
<path d="M87.6594 110.254L85.3306 109.442C86.9097 114.867 85.5408 121.029 81.5478 118.593C77.5547 116.156 75.97 109.153 74.7772 106.097C74.1524 105.904 71.6134 105.813 70.2957 106.824C71.6702 109.34 75.4077 114.338 74.9703 118.4C74.4705 122.944 70.8978 126.976 64.2238 122.41C65.1326 129.294 68.018 134.258 68.5746 136.61C70.6081 145.13 69.2506 146.294 68.302 154.7C77.958 159.625 89.6418 157.177 94.7594 155.677C93.1974 147.112 93.8847 125.528 87.6594 110.254Z" fill="#277568"/>
<mask id="mask4_1_3765" style="mask-type:luminance" maskUnits="userSpaceOnUse" x="64" y="105" width="31" height="53">
<path d="M87.6594 110.254L85.3306 109.442C86.9097 114.867 85.5408 121.029 81.5478 118.593C77.5547 116.156 75.97 109.153 74.7772 106.097C74.1524 105.904 71.6134 105.813 70.2957 106.824C71.6702 109.34 75.4077 114.338 74.9703 118.4C74.4705 122.944 70.8978 126.976 64.2238 122.41C65.1326 129.294 68.018 134.258 68.5746 136.61C70.6081 145.13 69.2506 146.294 68.302 154.7C77.958 159.625 89.6418 157.177 94.7594 155.677C93.1974 147.112 93.8847 125.528 87.6594 110.254Z" fill="white"/>
</mask>
<g mask="url(#mask4_1_3765)">
<path opacity="0.3" d="M72.9426 146.413C72.9426 146.413 88.6932 153.286 90.9368 146.612C86.8025 147.51 82.5439 147.685 78.3499 147.129L72.9426 146.413Z" fill="black"/>
<path opacity="0.3" d="M67.3591 131.543L78.8043 122.455C78.8043 122.455 81.0763 128.703 74.9874 132.287C70.8694 134.713 67.3591 131.543 67.3591 131.543Z" fill="black"/>
</g>
<path d="M87.6594 110.254L85.3306 109.442C86.9097 114.867 85.5408 121.029 81.5478 118.593C77.5547 116.156 75.97 109.153 74.7772 106.097C74.1524 105.904 71.6134 105.813 70.2957 106.824C71.6702 109.34 75.4077 114.338 74.9703 118.4C74.4705 122.944 70.8978 126.976 64.2238 122.41C65.1326 129.294 68.018 134.258 68.5746 136.61C70.6081 145.13 69.2506 146.294 68.302 154.7C77.958 159.625 89.6418 157.177 94.7594 155.677C93.1974 147.112 93.8847 125.528 87.6594 110.254Z" stroke="#263238" stroke-linecap="round" stroke-linejoin="round"/>
<path d="M90.9368 146.391C90.8384 146.818 90.6435 147.218 90.3668 147.558C90.0901 147.899 89.7391 148.172 89.3407 148.356" stroke="#263238" stroke-linecap="round" stroke-linejoin="round"/>
<path d="M86.8018 148.969C82.0112 149.406 77.1968 148.443 72.9426 146.198" stroke="#263238" stroke-linecap="round" stroke-linejoin="round"/>
<path d="M108.874 110.476L103.944 123.625C103.857 123.86 103.824 124.111 103.849 124.36C103.873 124.609 103.954 124.849 104.086 125.062L105.001 126.528C105.449 127.249 107.034 127.465 107.716 126.999C107.965 126.832 108.162 126.597 108.284 126.323L113.146 113.185C113.272 112.885 113.305 112.554 113.243 112.234C113.18 111.915 113.024 111.621 112.793 111.39L111.26 109.908C111.121 109.769 110.955 109.66 110.772 109.589C110.589 109.517 110.394 109.484 110.197 109.491C110.001 109.499 109.809 109.547 109.632 109.632C109.455 109.717 109.298 109.838 109.17 109.988C109.042 110.131 108.942 110.296 108.874 110.476Z" fill="#263238"/>
<path d="M64.2124 114.015C64.33 115.977 64.8035 117.902 65.6097 119.695C67.9782 125.329 77.0208 139.353 79.0031 140.302C80.9854 141.25 101.246 130.345 102.711 128.851C103.128 128.386 103.409 127.815 103.523 127.201C103.637 126.587 103.58 125.953 103.359 125.369C103.359 125.369 103.331 126.766 104.523 126.505C105.273 126.34 104.654 124.023 104.654 124.023C104.654 124.023 106.029 123.052 104.716 121.257C104.716 121.257 106.568 121.257 106.42 119.859C106.369 119.291 100.917 119.218 100.082 120.791C99.0649 122.699 98.0538 127.675 98.0538 127.675C98.0538 127.675 84.8535 131.083 82.1158 131.589L74.976 115.929" fill="white"/>
<path d="M64.2124 114.015C64.33 115.977 64.8035 117.902 65.6097 119.695C67.9782 125.329 77.0208 139.353 79.0031 140.302C80.9854 141.25 101.246 130.345 102.711 128.851C103.128 128.386 103.409 127.815 103.523 127.201C103.637 126.587 103.58 125.953 103.359 125.369C103.359 125.369 103.331 126.766 104.523 126.505C105.273 126.34 104.654 124.023 104.654 124.023C104.654 124.023 106.029 123.052 104.716 121.257C104.716 121.257 106.568 121.257 106.42 119.859C106.369 119.291 100.917 119.218 100.082 120.791C99.0649 122.699 98.0538 127.675 98.0538 127.675C98.0538 127.675 84.8535 131.083 82.1158 131.589L74.976 115.929" stroke="#263238" stroke-linecap="round" stroke-linejoin="round"/>
<path d="M102.922 129.697C103.333 128.66 104.043 127.769 104.961 127.135C106.029 126.63 107.5 126.471 108.664 126.249C108.664 126.249 109.573 122.398 110.067 122.506C111.572 122.819 110.397 126.357 110.397 126.357" fill="white"/>
<path d="M102.922 129.697C103.333 128.66 104.043 127.769 104.961 127.135C106.029 126.63 107.5 126.471 108.664 126.249C108.664 126.249 109.573 122.398 110.067 122.506C111.572 122.819 110.397 126.357 110.397 126.357" stroke="#263238" stroke-linecap="round" stroke-linejoin="round"/>
<path d="M112.208 121.12C112.014 120.926 111.754 120.812 111.479 120.8C111.205 120.788 110.936 120.88 110.726 121.058C109.993 121.722 108.88 123.602 107.693 124.608" stroke="#263238" stroke-linecap="round" stroke-linejoin="round"/>
<path d="M101.672 125.164C101.996 124.449 104.296 123.239 104.751 124.79" stroke="#263238" stroke-linecap="round" stroke-linejoin="round"/>
<path d="M101.672 123.256C101.672 123.256 104.336 121.802 104.87 123.602" stroke="#263238" stroke-linecap="round" stroke-linejoin="round"/>
<path d="M102.007 121.552C102.007 121.552 103.115 121.336 103.359 121.313C104.239 121.228 105.199 121.115 105.676 121.115" stroke="#263238" stroke-linecap="round" stroke-linejoin="round"/>
<path d="M88.5739 170.065C88.5739 170.065 85.0239 166.935 82.9621 166.339L88.5739 170.065Z" fill="#277568"/>
<path d="M88.5739 170.065C88.5739 170.065 85.0239 166.935 82.9621 166.339" stroke="#263238" stroke-linecap="round" stroke-linejoin="round"/>
<path d="M70.6478 243.166C71.6943 242.756 72.802 242.524 73.9252 242.479" stroke="#263238" stroke-linecap="round" stroke-linejoin="round"/>
<path d="M70.5684 245.376C70.5684 245.376 72.1531 244.808 73.2834 244.564" stroke="#263238" stroke-linecap="round" stroke-linejoin="round"/>
<path d="M70.6763 247.449L73.2209 246.699" stroke="#263238" stroke-linecap="round" stroke-linejoin="round"/>
<path d="M71.7384 249.164L73.8514 248.352" stroke="#263238" stroke-linecap="round" stroke-linejoin="round"/>
<path d="M73.9252 250.636L75.1919 249.71" stroke="#263238" stroke-linecap="round" stroke-linejoin="round"/>
<path d="M71.3408 241.082C71.3408 241.082 70.6478 246.875 72.2893 248.755C73.9309 250.636 75.8166 250.692 75.5951 251.425" stroke="#263238" stroke-linecap="round" stroke-linejoin="round"/>
<path d="M85.1091 109.209C85.1091 109.209 87.5061 118.553 83.6607 119.263C78.4181 120.228 74.7772 106.079 74.7772 106.079C75.5781 106.028 75.6747 105.693 76.3733 105.296C76.3733 105.296 82.2294 117.008 85.1091 109.209Z" fill="#263238"/>
<path d="M69.1654 107.437C69.1654 107.437 63.6842 108.522 63.6671 116.673C63.6501 124.824 67.2626 131.611 67.2626 131.611C67.2626 131.611 71.5396 131.265 74.2433 129.282C79.9233 125.136 79.0031 122.807 79.0031 122.807L76.0268 116.911C76.0268 116.911 75.0498 113.134 70.8012 107.113L69.1654 107.437Z" fill="#263238"/>
<path d="M87.9946 110.578C90.9822 119.058 91.1186 122.233 91.6582 126.147C91.6582 126.147 94.5834 125.579 95.0321 124.931C95.0321 124.931 93.6121 117.991 92.0785 114.401C91.1015 112.123 89.8178 111.328 87.9946 110.578Z" fill="#263238"/>
<path d="M85.1034 100.95C85.1034 100.95 84.6775 108.721 84.7059 109.345C84.757 110.521 85.609 112.083 84.8251 112.964C84.3929 113.371 83.8483 113.639 83.262 113.733C82.6756 113.827 82.0744 113.743 81.5364 113.492C80.4709 112.962 79.5492 112.183 78.8498 111.22C77.5026 109.57 76.3336 107.782 75.3622 105.886C76.0122 105.261 76.4895 104.478 76.7482 103.614C76.7482 103.614 76.9015 102.955 76.9072 102.921C77.1051 101.32 77.0841 99.7 76.8447 98.1048C76.5729 96.1309 76.1146 94.1872 75.4759 92.2998L85.1034 100.95Z" fill="white" stroke="#263238" stroke-linecap="round" stroke-linejoin="round"/>
<path d="M77.0265 108.369C78.3709 108.808 79.6746 109.363 80.923 110.027L77.0265 108.369Z" fill="#263238"/>
<path d="M77.0265 108.369C78.3709 108.808 79.6746 109.363 80.923 110.027" stroke="#263238" stroke-linecap="round" stroke-linejoin="round"/>
<path d="M75.8394 82.1553C75.8394 82.1553 71 84.9215 73.5049 92.1408C76.0098 99.36 81.5932 107.426 86.6541 106.341C91.715 105.256 93.027 95.2023 90.3518 88.4999C87.6765 81.7975 80.8605 78.0884 75.8394 82.1553Z" fill="white" stroke="#263238" stroke-linecap="round" stroke-linejoin="round"/>
<path d="M90.2723 95.4807C90.3064 96.0487 90.0735 96.5713 89.7554 96.6167C89.4373 96.6621 89.1476 96.1623 89.1136 95.5716C89.0795 94.9808 89.301 94.4867 89.6304 94.464C89.9599 94.4413 90.2382 94.8843 90.2723 95.4807Z" fill="#263238"/>
<path d="M85.3364 95.2479C85.3704 95.8159 85.1432 96.3328 84.8308 96.3555C84.5184 96.3782 84.2174 95.9011 84.1833 95.3161C84.1492 94.731 84.3764 94.2255 84.7002 94.1801C85.0239 94.1346 85.2966 94.6458 85.3364 95.2479Z" fill="#263238"/>
<path d="M87.1937 83.3994C83.9504 80.2413 79.5371 79.2643 76.0041 82.1214C76.0041 82.1214 71.1704 84.8875 73.6753 92.1125C74.2824 93.8348 75.0171 95.5093 75.8735 97.1223L75.9643 97.2018C75.9643 97.2018 74.3739 95.617 80.6844 92.1295C82.7576 90.9594 85.8191 83.6606 87.1937 83.3994Z" fill="#263238" stroke="#263238" stroke-linecap="round" stroke-linejoin="round"/>
<path d="M82.1271 85.768C82.1271 85.768 82.5702 80.7412 86.0691 80.5708C87.8923 80.4799 90.3007 82.928 90.6131 84.2174C90.809 85.0904 91.2541 85.8879 91.8943 86.513C92.5345 87.138 93.3424 87.5639 94.2199 87.739C94.2199 87.739 93.2088 91.147 91.2379 91.3969C87.9832 91.7945 86.2963 91.0334 84.1947 88.165C83.6078 87.3321 82.9462 86.5545 82.218 85.8419L82.1271 85.768Z" fill="#263238" stroke="#263238" stroke-linecap="round" stroke-linejoin="round"/>
<path d="M76.9186 95.424C76.9186 95.424 75.0044 91.4821 73.3004 95.8216C72.2383 98.5253 76.4869 100.689 77.941 99.9737" fill="white"/>
<path d="M76.9186 95.424C76.9186 95.424 75.0044 91.4821 73.3004 95.8216C72.2383 98.5253 76.4869 100.689 77.941 99.9737" stroke="#263238" stroke-linecap="round" stroke-linejoin="round"/>
<path d="M88.3127 93.0327C87.9904 93.3892 87.7575 93.8171 87.6331 94.2813C87.5087 94.7454 87.4963 95.2325 87.597 95.7023C87.744 96.7337 88.0934 97.7259 88.6251 98.6218L86.194 99.4" stroke="#263238" stroke-linecap="round" stroke-linejoin="round"/>
<path d="M84.064 101.178C84.4462 101.559 84.9291 101.824 85.4563 101.94C85.9834 102.057 86.5329 102.021 87.0403 101.837" stroke="#263238" stroke-linecap="round" stroke-linejoin="round"/>
<path d="M81.3433 92.9645C81.3433 92.9645 83.0473 91.0788 85.1035 91.9876" stroke="#263238" stroke-linecap="round" stroke-linejoin="round"/>
<path d="M89.2499 92.4647C89.2499 92.4647 91.4821 91.7661 91.1981 93.737" stroke="#263238" stroke-linecap="round" stroke-linejoin="round"/>
<path d="M76.8788 97.5822C76.6813 97.5888 76.4867 97.5323 76.3233 97.421C76.1599 97.3097 76.0362 97.1494 75.97 96.9631C75.8053 96.6052 75.7599 96.1963 75.5951 95.8271C75.5272 95.6408 75.4022 95.4808 75.238 95.3696C75.0739 95.2585 74.8788 95.2019 74.6807 95.208" fill="#263238"/>
<path d="M76.8788 97.5822C76.6813 97.5888 76.4867 97.5323 76.3233 97.421C76.1599 97.3097 76.0362 97.1494 75.97 96.9631C75.8053 96.6052 75.7599 96.1963 75.5951 95.8271C75.5272 95.6408 75.4022 95.4808 75.238 95.3696C75.0739 95.2585 74.8788 95.2019 74.6807 95.208" stroke="#263238" stroke-linecap="round" stroke-linejoin="round"/>
<path d="M83.9618 82.0021C83.7206 80.9862 83.3382 80.0092 82.8258 79.0996C82.8258 79.0996 83.7516 78.8667 84.2628 78.7588C84.1492 79.7528 84.064 81.0024 83.9618 82.0021Z" fill="#263238" stroke="#263238" stroke-linecap="round" stroke-linejoin="round"/>
<path d="M84.933 106.125L84.9728 107.829C84.5984 107.994 84.1846 108.049 83.78 107.988C81.5989 107.732 79.4007 102.876 79.2644 102.598L79.3098 102.649C81.8886 105.494 83.8027 106.108 84.933 106.125Z" fill="#263238"/>
<path d="M158.62 122.472H172.973" stroke="#263238" stroke-linecap="round" stroke-linejoin="round"/>
<path d="M142.153 122.472H156.728" stroke="#263238" stroke-linecap="round" stroke-linejoin="round"/>
<path d="M134.389 122.472H138.87" stroke="#263238" stroke-linecap="round" stroke-linejoin="round"/>
<path d="M146.175 130.265H172.916" stroke="#263238" stroke-linecap="round" stroke-linejoin="round"/>
<path d="M138.87 130.265H142.153" stroke="#263238" stroke-linecap="round" stroke-linejoin="round"/>
<path d="M158.143 138.064H172.859" stroke="#263238" stroke-linecap="round" stroke-linejoin="round"/>
<path d="M143.352 138.064H155.967" stroke="#263238" stroke-linecap="round" stroke-linejoin="round"/>
<path d="M156.126 145.857H172.803" stroke="#263238" stroke-linecap="round" stroke-linejoin="round"/>
<path d="M147.833 145.857H153.758" stroke="#263238" stroke-linecap="round" stroke-linejoin="round"/>
<path d="M205.167 146.141H163.374L165.47 122.177H207.263L205.167 146.141Z" fill="white" stroke="#263238" stroke-linecap="round" stroke-linejoin="round"/>
<path d="M207.263 122.182H165.47" stroke="#263238" stroke-linecap="round" stroke-linejoin="round"/>
<path d="M205.167 146.141H163.374L177.659 132.577L184.918 138.762L193.415 132.458L205.167 146.141Z" fill="white" stroke="#263238" stroke-linecap="round" stroke-linejoin="round"/>
<path d="M207.263 122.177L193.415 132.458L184.918 138.762L177.659 132.577L165.47 122.177H207.263Z" fill="white" stroke="#263238" stroke-linecap="round" stroke-linejoin="round"/>
<path d="M130.39 122.472H119.899" stroke="#263238" stroke-linecap="round" stroke-linejoin="round"/>
<path d="M170.587 95.0207C162.215 101.837 146.76 106 146.76 106L154.547 97.6562C150.748 96.4331 147.47 93.9698 145.239 90.6613C143.007 87.3527 141.951 83.3907 142.241 79.4104C142.53 75.4301 144.147 71.6622 146.833 68.7109C149.52 65.7596 153.119 63.7959 157.055 63.1347C160.991 62.4734 165.034 63.153 168.537 65.0643C172.041 66.9757 174.801 70.0081 176.375 73.6754C177.949 77.3426 178.246 81.4322 177.218 85.2884C176.19 89.1445 173.897 92.5438 170.707 94.9412" fill="white"/>
<path d="M170.587 95.0207C162.215 101.837 146.76 106 146.76 106L154.547 97.6562C150.748 96.4331 147.47 93.9698 145.239 90.6613C143.007 87.3527 141.951 83.3907 142.241 79.4104C142.53 75.4301 144.147 71.6622 146.833 68.7109C149.52 65.7596 153.119 63.7959 157.055 63.1347C160.991 62.4734 165.034 63.153 168.537 65.0643C172.041 66.9757 174.801 70.0081 176.375 73.6754C177.949 77.3426 178.246 81.4322 177.218 85.2884C176.19 89.1445 173.897 92.5438 170.707 94.9412" stroke="#263238" stroke-linecap="round" stroke-linejoin="round"/>
<path d="M171.013 73.0278C173.909 73.0278 176.256 70.6805 176.256 67.7851C176.256 64.8897 173.909 62.5425 171.013 62.5425C168.118 62.5425 165.771 64.8897 165.771 67.7851C165.771 70.6805 168.118 73.0278 171.013 73.0278Z" fill="#277568" stroke="#263238" stroke-linecap="round" stroke-linejoin="round"/>
<path d="M167.975 66.615L171.013 70.0344L177.926 61.8552L177.682 61.5996L171.013 67.3364L169.247 65.4109L167.975 66.615Z" fill="#263238" stroke="#263238" stroke-linecap="round" stroke-linejoin="round"/>
<path d="M150.793 76.3904H170.372" stroke="#263238" stroke-linecap="round" stroke-linejoin="round"/>
<path d="M150.35 81.4456H169.929" stroke="#263238" stroke-linecap="round" stroke-linejoin="round"/>
<path d="M149.912 86.5007H169.486" stroke="#263238" stroke-linecap="round" stroke-linejoin="round"/>
<path d="M211.569 31.7796V40.7426L236.089 21.8396L211.569 31.7796Z" fill="#277568" stroke="#263238" stroke-linecap="round" stroke-linejoin="round"/>
<path d="M211.569 31.7797L236.651 21.533L202.401 25.083L211.569 31.7797Z" fill="#277568" stroke="#263238" stroke-linecap="round" stroke-linejoin="round"/>
<path d="M214.517 33.637L226.325 42.3729L236.651 21.533L214.517 33.637Z" fill="#277568" stroke="#263238" stroke-linecap="round" stroke-linejoin="round"/>
<path d="M214.517 33.637L211.569 40.7426L217.851 36.1021L214.517 33.637Z" fill="#277568" stroke="#263238" stroke-linecap="round" stroke-linejoin="round"/>
<path d="M117.604 108.755C117.667 108.573 117.735 108.397 117.797 108.221" stroke="#263238" stroke-linecap="round" stroke-linejoin="round"/>
<path d="M118.542 106.074C123.824 90.3008 122.875 80.8209 131.452 65.5417C133.156 62.4517 141.784 47.8314 154.042 42.6172C160.415 39.9078 164.47 43.952 162.829 46.8147C159.165 53.1877 145.709 45.5481 159.165 38.005C171.615 31.03 198.118 44.6677 210.541 40.7541" stroke="#263238" stroke-linecap="round" stroke-linejoin="round" stroke-dasharray="2 4"/>
<path d="M211.603 40.3621C211.779 40.2883 211.949 40.2087 212.12 40.1235" stroke="#263238" stroke-linecap="round" stroke-linejoin="round"/>
</svg>
