<svg width="24" height="24" viewBox="0 0 24 24" fill="none" xmlns="http://www.w3.org/2000/svg">
<path d="M12.0791 1.90143C11.737 1.89874 11.3954 1.98235 11.0933 2.15338C9.15309 3.24696 7.01869 4.56083 4.79735 5.84039L4.79296 5.84332C3.70057 6.48326 2.81529 7.48836 2.66308 8.69977V8.70123C2.30275 11.607 2.46146 14.519 3.13768 17.42C3.1391 17.4249 3.14056 17.4298 3.14208 17.4346C3.34392 18.2312 3.83048 18.9586 4.43407 19.5718C5.03767 20.1851 5.75934 20.6843 6.55663 20.8975C6.5615 20.899 6.56638 20.9005 6.57128 20.9019C10.1843 21.7922 13.8157 21.7922 17.4287 20.9019C17.4336 20.9005 17.4385 20.899 17.4433 20.8975C18.2406 20.6843 18.9624 20.1852 19.5659 19.5718C20.1695 18.9585 20.6565 18.2303 20.8579 17.4332C20.8589 17.4288 20.8599 17.4244 20.8608 17.42C21.5386 14.5143 21.6981 11.5984 21.3354 8.68805L21.334 8.68659C21.1818 7.48495 20.308 6.48546 19.2261 5.84332L19.2217 5.84039C17.0496 4.57205 14.9633 3.26666 13.0635 2.16657C12.7635 1.99256 12.4212 1.90412 12.0791 1.90143ZM12.0688 3.38239C12.1428 3.38309 12.2175 3.41042 12.3105 3.46442C14.1772 4.54533 16.2684 5.85216 18.4658 7.13532C19.2257 7.58812 19.7796 8.35929 19.8457 8.87409C20.1861 11.6059 20.0388 14.3306 19.4018 17.067C19.2953 17.487 18.9517 18.0576 18.4966 18.5201C18.0415 18.9826 17.4779 19.3346 17.0581 19.4473C16.4979 19.585 15.94 19.5618 15.3808 19.6539C15.7089 17.7626 15.7185 15.7998 15.3164 13.9278C15.3167 13.8701 15.3103 13.8126 15.2974 13.7564C15.2928 13.7362 15.2874 13.7161 15.2812 13.6964C15.2803 13.6924 15.2793 13.6885 15.2783 13.6846C15.2764 13.6788 15.2745 13.6729 15.2724 13.6671C15.2705 13.6622 15.2686 13.6573 15.2666 13.6524C15.2595 13.634 15.2517 13.616 15.2432 13.5982C15.2325 13.5757 15.2208 13.5537 15.208 13.5323C15.1399 13.4166 15.042 13.3213 14.9245 13.2564C14.807 13.1915 14.6742 13.1593 14.54 13.1631C12.9185 12.4576 11.1108 12.4628 9.48925 13.1661C9.30901 13.1532 9.1302 13.2059 8.98568 13.3143C8.84116 13.4228 8.74065 13.5798 8.70263 13.7564C8.70173 13.7602 8.70206 13.7643 8.70116 13.7681C8.68991 13.8191 8.68402 13.8712 8.68358 13.9234V13.9263C8.2812 15.7987 8.29096 17.7621 8.61913 19.6539C8.05995 19.5618 7.50204 19.585 6.94188 19.4473C6.52206 19.3346 5.95865 18.9826 5.50341 18.5201C5.04903 18.0585 4.70568 17.4895 4.59813 17.0699C3.9625 14.3378 3.81334 11.6146 4.15136 8.88727V8.88581C4.21726 8.36625 4.78314 7.58705 5.55175 7.13678C7.79608 5.84382 9.92936 4.52984 11.8301 3.45856H11.8315C11.9216 3.40759 11.9949 3.38168 12.0688 3.38239ZM12 14.0582C12.6441 14.057 13.2731 14.2512 13.8794 14.5049C14.2178 16.2536 14.2215 18.1009 13.8589 19.8414C12.6205 19.9535 11.3795 19.9535 10.1411 19.8414C9.77906 18.1038 9.78244 16.2598 10.1191 14.5137C10.7249 14.2568 11.3549 14.0593 12 14.0582Z" fill="#787D7D"/>
</svg>
