<svg width="24" height="32" viewBox="0 0 24 32" fill="none" xmlns="http://www.w3.org/2000/svg">
<path d="M12.0791 1.90143C11.737 1.89874 11.3955 1.98235 11.0933 2.15339C9.15311 3.24696 7.01871 4.56083 4.79737 5.8404C4.7959 5.84137 4.79443 5.84235 4.79297 5.84333C3.70059 6.48327 2.8153 7.48837 2.66309 8.69977V8.70124C2.30277 11.607 2.46147 14.519 3.1377 17.42C3.13912 17.4249 3.14058 17.4298 3.14209 17.4346C3.34393 18.2312 3.83049 18.9586 4.43409 19.5718C5.03768 20.185 5.75935 20.6843 6.55665 20.8975C6.56152 20.899 6.5664 20.9005 6.5713 20.9019C10.1843 21.7922 13.8157 21.7922 17.4287 20.9019C17.4336 20.9005 17.4385 20.899 17.4434 20.8975C18.2407 20.6843 18.9624 20.1852 19.5659 19.5718C20.1695 18.9585 20.6566 18.2303 20.8579 17.4332C20.8589 17.4288 20.8599 17.4244 20.8609 17.42C21.5386 14.5143 21.6981 11.5984 21.3355 8.68805L21.334 8.68659C21.1819 7.48495 20.308 6.48546 19.2261 5.84332C19.2246 5.84234 19.2232 5.84137 19.2217 5.84039C17.0497 4.57205 14.9633 3.26665 13.0635 2.16656C12.7636 1.99256 12.4212 1.90412 12.0791 1.90143ZM12 14.0582C12.6441 14.057 13.2731 14.2512 13.8794 14.5049C14.2178 16.2535 14.2215 18.1009 13.8589 19.8414C12.6205 19.9535 11.3795 19.9535 10.1411 19.8414C9.77908 18.1037 9.78245 16.2598 10.1191 14.5137C10.7249 14.2568 11.3549 14.0593 12 14.0582Z" fill="#277568"/>
<circle cx="12" cy="30" r="2" fill="#277568"/>
</svg>
