<svg width="186" height="87" viewBox="0 0 186 87" fill="none" xmlns="http://www.w3.org/2000/svg">
<path fill-rule="evenodd" clip-rule="evenodd" d="M184.986 0C184.902 0.346096 184.73 0.692192 184.64 0.955716C183.864 5.02278 183.428 9.17769 182.305 13.0779C179.963 20.3511 177.367 27.5348 174.686 34.6342C172.434 40.6952 170.183 46.7563 167.413 52.5609C164.032 59.662 158.061 64.8569 152.52 70.1345C149.401 73.0789 145.849 75.7668 142.039 77.6713C131.267 83.1684 119.903 86.3746 107.831 86.3746C106.031 86.3746 104.214 86.3026 102.382 86.1567C93.6397 85.375 84.8924 85.201 76.3226 83.2123C62.8161 80.0957 50.52 74.6372 40.304 64.8569C34.3255 59.2245 28.008 53.8574 21.5112 48.8346C15.1937 43.9858 10.4274 38.1882 7.31076 30.915C3.32802 21.8198 1.51322 12.2961 0.819269 2.42443C0.819269 1.64791 0.6471 0.86612 0.473176 0.0896003C0.383573 0.0896003 0.209648 0.173928 0.0374796 0.173928C0.0374796 0.86612 -0.0468495 1.47574 0.0374796 2.07833C0.819269 10.7378 2.11581 19.3128 5.14986 27.5348C8.43865 36.456 13.544 43.9032 21.3373 49.7008C27.488 54.2931 33.549 59.3985 39.0918 64.7673C49.8278 75.2468 62.8161 81.1357 77.1887 84.0784C84.2898 85.4646 91.6457 85.8107 98.919 86.5872C101.848 86.8507 104.762 87 107.673 87C111.475 87 115.273 86.7453 119.096 86.1567C139.012 83.1227 154.25 72.8224 165.763 56.6279C169.491 51.3487 171.741 45.3719 173.902 39.3109C177.021 30.3053 180.309 21.2998 183.254 12.2117C184.466 8.31333 184.902 4.15666 185.678 0.173929C185.506 0.173929 185.25 0.0895984 184.986 0Z" fill="#46A292"/>
</svg>
