<svg width="45" height="45" viewBox="0 0 45 45" fill="none" xmlns="http://www.w3.org/2000/svg">
<path d="M31.1295 7.03125C25.8792 7.03125 22.5 10.8281 22.5 10.8281C22.5 10.8281 19.1208 7.03125 13.8705 7.03125C8.15203 7.03125 3.51562 11.6677 3.51562 17.3862C3.51562 19.3085 4.36219 21.7624 5.63344 23.8859L10.7782 23.2031C10.8183 23.1546 10.8591 23.1019 10.8956 23.0569C11.437 22.3812 12.4439 21.1226 14.3381 21.0938C14.3634 21.0938 14.388 21.093 14.4127 21.093C16.6141 21.093 17.5472 22.5879 18.168 23.5814C18.2918 23.779 18.3945 23.94 18.4852 24.0701C22.0317 14.7663 22.4613 14.7656 23.2031 14.7656C23.9449 14.7656 24.5988 15.5173 25.0073 18.3143C25.212 19.7177 25.4651 21.5782 25.7147 23.4028C25.842 24.3345 26.043 25.9214 26.1731 26.8615C26.6372 26.0747 27.6469 24.0145 28.2459 22.7777C28.537 22.1759 29.1452 21.7969 29.8139 21.7969H31.4852C31.9472 21.2836 32.6496 20.9918 33.4216 21.1268C34.2738 21.2759 34.9755 21.9727 35.1232 22.8248C35.3545 24.1566 34.3357 25.3125 33.0469 25.3125C32.4246 25.3125 31.8713 25.0383 31.4852 24.6094H30.3455C26.8594 31.7025 25.9903 31.6406 25.3125 31.6406C24.6347 31.6406 23.9287 30.8855 23.5666 28.383C23.3866 27.142 23.1595 25.4777 22.9289 23.7832C22.822 22.9992 22.7039 22.133 22.5865 21.2822C21.9558 22.8867 20.2177 27.4219 20.2177 27.4219H19.2487C17.2505 27.4219 16.3666 26.0072 15.7823 25.0706C15.1875 24.1186 15.0103 23.8788 14.3803 23.9062C13.8656 23.914 13.5921 24.1889 13.0915 24.8147C12.6858 25.3216 12.1303 26.0156 11.1755 26.0156H7.08539C12.5838 33.2958 22.5 39.375 22.5 39.375C22.5 39.375 41.4844 27.7411 41.4844 17.3862C41.4844 11.6677 36.848 7.03125 31.1295 7.03125Z" fill="white"/>
</svg>
