<svg width="24" height="32" viewBox="0 0 24 32" fill="none" xmlns="http://www.w3.org/2000/svg">
<circle cx="12" cy="30" r="2" fill="#277568"/>
<path d="M13.5 12C13.5 11.1716 12.8284 10.5 12 10.5C11.1716 10.5 10.5 11.1716 10.5 12C10.5 12.8284 11.1716 13.5 12 13.5C12.8284 13.5 13.5 12.8284 13.5 12Z" stroke="#277568" stroke-width="2" stroke-miterlimit="10"/>
<path d="M13 12C13 11.4477 12.5523 11 12 11C11.4477 11 11 11.4477 11 12C11 12.5523 11.4477 13 12 13C12.5523 13 13 12.5523 13 12Z" stroke="#277568" stroke-width="2" stroke-miterlimit="10"/>
<path d="M7.5 12C7.5 11.1716 6.82843 10.5 6 10.5C5.17157 10.5 4.5 11.1716 4.5 12C4.5 12.8284 5.17157 13.5 6 13.5C6.82843 13.5 7.5 12.8284 7.5 12Z" stroke="#277568" stroke-width="2" stroke-miterlimit="10"/>
<path d="M7 12C7 11.4477 6.55228 11 6 11C5.44772 11 5 11.4477 5 12C5 12.5523 5.44772 13 6 13C6.55228 13 7 12.5523 7 12Z" stroke="#277568" stroke-width="2" stroke-miterlimit="10"/>
<path d="M19.5 12C19.5 11.1716 18.8284 10.5 18 10.5C17.1716 10.5 16.5 11.1716 16.5 12C16.5 12.8284 17.1716 13.5 18 13.5C18.8284 13.5 19.5 12.8284 19.5 12Z" stroke="#277568" stroke-width="2" stroke-miterlimit="10"/>
<path d="M19 12C19 11.4477 18.5523 11 18 11C17.4477 11 17 11.4477 17 12C17 12.5523 17.4477 13 18 13C18.5523 13 19 12.5523 19 12Z" stroke="#277568" stroke-width="2" stroke-miterlimit="10"/>
</svg>
