<svg width="30" height="30" viewBox="0 0 30 30" fill="none" xmlns="http://www.w3.org/2000/svg">
<path d="M3.75 4.99175C3.75 4.30595 4.30619 3.75 4.99175 3.75H25.0082C25.694 3.75 26.25 4.30619 26.25 4.99175V25.0082C26.25 25.694 25.6939 26.25 25.0082 26.25H4.99175C4.30595 26.25 3.75 25.6939 3.75 25.0082V4.99175ZM6.25 6.25V23.75H23.75V6.25H6.25ZM13.2774 10.5182L19.376 14.584C19.6058 14.7371 19.6679 15.0476 19.5146 15.2774C19.478 15.3322 19.4309 15.3794 19.376 15.416L13.2774 19.4817C13.0476 19.635 12.7371 19.5729 12.584 19.3431C12.5292 19.261 12.5 19.1645 12.5 19.0658V10.9343C12.5 10.6581 12.7239 10.4343 13 10.4343C13.0987 10.4343 13.1952 10.4635 13.2774 10.5182Z" fill="white"/>
</svg>
