<svg width="186" height="88" viewBox="0 0 186 88" fill="none" xmlns="http://www.w3.org/2000/svg">
<path fill-rule="evenodd" clip-rule="evenodd" d="M185.307 0.603811C185.222 0.950506 185.05 1.2972 184.96 1.56118C184.182 5.63529 183.746 9.7974 182.621 13.7043C180.275 20.9902 177.674 28.1863 174.988 35.298C172.732 41.3696 170.478 47.4411 167.703 53.2558C164.317 60.3692 158.335 65.5731 152.784 70.8598C149.66 73.8093 146.102 76.5019 142.285 78.4096C131.495 83.9163 120.11 87.1281 108.018 87.1281C106.214 87.1281 104.395 87.0559 102.559 86.9098C93.8019 86.1267 85.0395 85.9525 76.4548 83.9603C62.9249 80.8383 50.6076 75.3703 40.3739 65.5731C34.385 59.931 28.0565 54.5545 21.5485 49.5231C15.22 44.6658 10.4454 38.8582 7.32343 31.5723C3.33379 22.4615 1.51584 12.9212 0.820688 3.03244C0.820688 2.25458 0.648221 1.47143 0.473995 0.693566C0.384237 0.693566 0.210012 0.77804 0.0375445 0.77804C0.0375445 1.47143 -0.0469306 2.08211 0.0375445 2.68574C0.820688 11.3602 2.11948 19.9501 5.15878 28.1863C8.45327 37.123 13.5675 44.5831 21.3743 50.3907C27.5356 54.991 33.6072 60.1052 39.1596 65.4834C49.9142 75.981 62.9249 81.8801 77.3225 84.8279C84.4359 86.2164 91.8045 86.5631 99.0903 87.341C102.024 87.605 104.944 87.7546 107.86 87.7546C111.668 87.7546 115.473 87.4994 119.303 86.9098C139.252 83.8705 154.518 73.5524 166.05 57.3299C169.785 52.0414 172.039 46.0543 174.204 39.9828C177.327 30.9617 180.622 21.9405 183.571 12.8367C184.786 8.93154 185.222 4.76768 186 0.778042C185.828 0.778042 185.571 0.693565 185.307 0.603811Z" fill="#8EA8CA"/>
<path fill-rule="evenodd" clip-rule="evenodd" d="M172.907 0.431086C172.732 0.867535 172.56 1.29694 172.47 1.73515C171.082 7.19605 169.785 12.7467 168.396 18.2973C166.571 25.7574 164.406 33.1331 160.327 39.8083C158.856 42.2369 157.814 44.8398 156.51 47.3581C155.039 50.3904 153.824 53.6867 151.916 56.6362C145.498 66.3507 136.477 72.5948 125.202 75.7168C119.398 77.4168 113.477 78.5977 107.443 78.5977C106.082 78.5977 104.717 78.5379 103.344 78.4094C97.6191 77.8885 91.8942 77.3693 86.1693 76.9311C81.1396 76.5844 76.1081 76.155 71.3354 74.33C60.7532 70.4301 51.9063 63.8376 44.1893 55.7686C38.028 49.4401 31.6994 43.2788 24.3238 38.2473C19.3821 34.7786 14.8733 30.4405 13.2208 24.3689C11.6598 18.2973 10.7094 11.9688 9.4951 5.8075C9.23113 4.07402 9.05689 2.33879 8.88442 0.603551H8.36351C8.36351 1.12447 8.28079 1.73515 8.36351 2.25431C9.14841 7.02181 9.8418 11.7964 10.6197 16.5639C11.6598 22.551 12.9638 28.5328 17.5571 33.0433C20.0772 35.472 22.5886 37.9903 25.3639 39.898C31.4355 43.9721 36.6394 48.8294 41.5882 54.2076C46.7006 59.848 52.4255 64.788 58.8438 68.8691C67.0553 74.1962 75.7544 77.5488 85.5991 77.5488C85.8473 77.5488 86.0954 77.547 86.3436 77.5418C86.597 77.5347 86.8486 77.5294 87.1003 77.5294C89.6081 77.5294 92.0579 77.9131 94.5798 78.1454C98.9161 78.4939 103.344 79.277 107.68 79.277C107.847 79.2788 108.013 79.2805 108.18 79.2805C115.549 79.2805 122.755 77.4872 129.712 75.0234C140.724 71.1235 148.967 63.8376 154.518 53.7764C158.161 47.2684 161.11 40.3292 164.406 33.5642C164.663 32.9606 164.927 32.3499 165.1 31.7463C167.009 24.8898 169 18.0404 170.825 11.1857C171.775 7.71697 172.643 4.16378 173.51 0.603551C173.253 0.603551 173.079 0.52084 172.907 0.431086Z" fill="#8EA8CA"/>
<path fill-rule="evenodd" clip-rule="evenodd" d="M14.0057 0.52063C13.5675 0.867325 13.395 1.12427 13.395 1.38825C13.9142 4.76721 14.2627 8.15321 14.956 11.4495C16.781 20.643 20.424 29.0535 27.5356 35.5615C38.8112 45.9694 51.2112 54.5541 65.2638 60.7981C74.1107 64.705 83.3043 67.3906 93.0188 68.0013C94.425 68.0752 95.8258 68.1121 97.2249 68.1121C105.662 68.1121 113.953 66.7606 121.988 64.0116C137.948 58.5437 149.66 48.2256 155.296 32.1755C158.856 22.204 161.193 11.7961 164.06 1.56071C164.142 1.29673 164.142 0.950037 164.142 0.693095C163.97 0.603341 163.885 0.603341 163.713 0.603341C163.539 1.03979 163.366 1.47096 163.275 1.90741L156.51 26.6249C151.999 43.1941 141.681 55.0732 126.069 61.6657C116.932 65.4723 107.522 67.4733 97.9465 67.4733C92.2498 67.4733 86.495 66.7658 80.7015 65.3087C67.344 62.0124 55.3751 55.8581 44.1893 47.9616C39.0681 44.3186 34.1281 40.2463 29.2709 36.1651C19.8133 28.0116 16.1704 17.0828 14.6094 5.20366C14.4351 3.64265 14.2627 2.08164 14.0057 0.52063Z" fill="#8EA8CA"/>
<path fill-rule="evenodd" clip-rule="evenodd" d="M25.7106 0.431084C25.6279 1.47117 25.8849 2.42854 26.1488 3.37887C27.5356 8.50011 28.8344 13.7041 30.3109 18.8183C31.0888 21.3366 31.7822 23.9395 33.3432 25.9299C40.0255 34.6941 47.915 41.98 58.1504 46.4905C67.6925 50.8269 77.7537 53.4297 87.8149 55.8583C94.8438 57.5021 101.783 59.3271 109.069 59.5013C109.366 59.5101 109.66 59.5136 109.954 59.5136C115.566 59.5136 120.487 57.928 124.938 54.3801C127.109 52.7363 129.274 51.0838 131.446 49.3503C138.732 43.541 145.06 37.033 148.184 28.0118C150.092 22.551 151.999 17.083 153.734 11.5324C154.775 7.97919 155.385 4.24649 156.163 0.693305C155.989 0.603552 155.816 0.520838 155.642 0.520838C155.385 1.04 155.121 1.6454 155.039 2.25431C153.478 11.5324 150.528 20.3793 147.059 29.0537C144.977 34.1749 142.028 38.7682 138.038 42.4111C134.131 46.0541 129.885 49.2659 125.895 52.7363C120.966 57.0938 115.436 58.9205 109.511 58.9205C107.302 58.9205 105.041 58.6671 102.733 58.1972C93.8864 56.3793 85.0395 54.3801 76.1926 52.1256C60.0581 48.0515 45.6606 40.8501 35.1682 27.3185C33.088 24.7156 31.6097 21.9403 30.8319 18.644C29.5278 12.9209 27.8823 7.2858 26.4058 1.6454C26.2316 1.21423 25.9746 0.867533 25.7106 0.431084Z" fill="#8EA8CA"/>
<path fill-rule="evenodd" clip-rule="evenodd" d="M36.467 0.431084C36.3825 0.520838 36.21 0.520838 36.0358 0.520838C36.1203 1.04 36.1203 1.56092 36.2927 2.08185C38.7214 8.67434 41.15 15.2651 43.6684 21.8576C45.0569 25.4107 47.5683 28.1861 50.6076 30.532C56.16 35.0408 62.5782 37.9903 69.169 40.5932C78.3643 44.2361 87.5579 48.0515 97.0084 51.258C100.729 52.4847 104.467 53.1693 108.191 53.1693C112.89 53.1693 117.567 52.0799 122.162 49.6126C131.009 44.8398 137.171 37.5539 141.681 28.707C146.017 20.2068 148.184 11.0115 150.009 1.6454C150.092 1.38846 149.917 1.04 149.917 0.693306C149.398 1.21423 149.224 1.73515 149.141 2.33879C147.406 8.75705 146.017 15.2651 143.937 21.5936C140.641 30.9614 135.437 39.2874 127.366 45.3589C122.252 49.1761 116.784 51.9514 110.283 52.2981C109.627 52.3316 108.974 52.3492 108.321 52.3492C103.793 52.3492 99.3455 51.5484 95.1007 49.961C85.3862 46.4008 75.8442 42.5009 66.3039 38.5113C62.14 36.776 58.1504 34.6043 54.2505 32.2655C49.3035 29.3177 45.4863 25.1538 43.4062 19.6032C42.2816 16.4794 40.8931 13.5316 39.7632 10.4078C38.6387 7.11157 37.5968 3.81708 36.467 0.431084Z" fill="#8EA8CA"/>
<path fill-rule="evenodd" clip-rule="evenodd" d="M44.272 0.520628C44.0996 0.603342 43.8426 0.603342 43.6684 0.693096C44.0996 2.2541 44.4463 3.89959 44.8827 5.55035C46.7007 13.6141 50.1711 20.9 57.1103 25.9297C71.3354 36.3394 87.2939 41.8073 104.988 41.8073C111.754 41.8073 117.652 39.5511 122.509 34.9508C125.374 32.2653 128.151 29.4002 130.488 26.3679C136.387 18.9078 142.112 11.2752 143.499 1.47096C143.589 1.21402 143.499 0.867324 143.416 0.520628C142.806 1.38825 142.723 2.25411 142.374 3.12172C141.417 6.07127 140.813 9.27777 139.335 11.9686C134.916 19.9496 129.712 27.3182 122.945 33.6538C119.13 37.207 114.794 40.1548 109.416 40.6757C107.115 40.8939 104.794 41.0241 102.475 41.0241C100.153 41.0241 97.8338 40.8939 95.5372 40.593C84.6928 39.2872 74.4574 35.5615 64.8327 30.3576C55.3751 25.2363 48.4359 17.8677 46.0073 7.02161C45.5779 4.85696 44.8827 2.68527 44.272 0.520628Z" fill="#8EA8CA"/>
<path fill-rule="evenodd" clip-rule="evenodd" d="M52.4255 0.431084C52.2531 0.520837 52.1686 0.603551 51.9961 0.603551C52.2531 1.21423 52.3428 1.90762 52.6895 2.51126C55.2009 7.02182 57.6295 11.5324 60.2323 16.0429C62.661 20.2966 66.1297 23.5013 70.4678 25.7574C78.5368 29.7471 86.8645 33.1331 95.7941 34.4301C97.3868 34.6624 98.9689 34.7926 100.53 34.7926C105.428 34.7926 110.104 33.515 114.183 30.0938C116.355 28.2758 118.437 26.4508 120.427 24.3689C127.109 17.6937 131.356 9.27798 136.13 1.21423C136.213 1.04 136.13 0.693306 136.213 0.431084C133.438 4.42072 131.099 8.41036 128.67 12.4897C125.112 18.2146 120.948 23.3288 115.917 27.8394C111.13 32.1053 105.796 34.0869 99.9527 34.0869C98.0714 34.0869 96.1355 33.881 94.1504 33.4798C86.5161 31.9188 79.2302 29.1434 72.2012 25.8472C67.9547 23.7653 64.1393 20.9899 61.7106 16.9106C58.5886 11.7964 55.896 6.50265 52.9465 1.38846C52.7722 1.04 52.5998 0.777779 52.4255 0.431084Z" fill="#8EA8CA"/>
<path fill-rule="evenodd" clip-rule="evenodd" d="M59.1922 0.431085C58.8438 0.950248 58.9353 1.29694 59.018 1.6454C61.7933 10.7545 66.9146 17.7782 76.3651 20.3793C83.3941 22.3785 90.5902 23.5013 97.7933 24.8071C99.2382 25.0676 100.653 25.196 102.035 25.196C107.532 25.196 112.522 23.1722 116.958 19.4289C122.773 14.4819 126.588 8.06366 129.448 1.12447C129.538 0.950246 129.448 0.777779 129.366 0.603551C129.191 0.603551 129.017 0.603551 129.017 0.693305C128.67 1.21423 128.406 1.73515 128.234 2.25431C125.548 8.23613 122.162 13.7041 117.305 18.1249C113.273 21.7713 108.685 24.3055 103.36 24.3055C102.73 24.3055 102.087 24.2703 101.436 24.1964C94.3229 23.5013 87.2112 22.2043 80.1823 20.8175C69.5157 18.7355 62.8352 11.9688 59.8029 1.6454C59.6287 1.21423 59.3647 0.867533 59.1922 0.431085Z" fill="#8EA8CA"/>
<path fill-rule="evenodd" clip-rule="evenodd" d="M68.9965 0.174195C68.9965 0.9503 68.9067 1.21428 68.9067 1.47122C70.2108 6.76493 72.8119 11.36 77.2327 14.6544C84.2212 19.9358 92.1688 21.6447 100.467 21.6447C101.848 21.6447 103.242 21.5972 104.641 21.5109C109.069 21.2469 112.712 18.9925 115.313 15.3496C118.173 11.36 120.17 7.11162 121.212 2.4286C121.384 1.81792 121.384 1.12453 121.469 0.520892C120.774 1.21428 120.601 1.90767 120.427 2.51131C119.387 7.1961 117.305 11.4497 114.445 15.2651C112.448 17.9507 109.845 19.8584 106.376 20.4691C104.257 20.814 102.149 20.9812 100.06 20.9812C94.2806 20.9812 88.6332 19.7018 83.2216 17.3471C76.1081 14.225 71.4251 9.02109 69.6899 1.38851C69.6001 1.04005 69.4259 0.867586 68.9965 0.174195Z" fill="#8EA8CA"/>
<path fill-rule="evenodd" clip-rule="evenodd" d="M114.099 0C113.579 0.603637 113.405 0.777865 113.315 0.950332C111.323 3.89988 109.498 6.93919 107.416 9.71451C105.598 12.1431 103.08 13.3574 99.958 13.3574C99.738 13.3627 99.518 13.3662 99.2998 13.3662C93.244 13.3662 87.8975 11.0679 82.8731 7.8068C80.272 6.07157 77.8434 3.98964 76.9758 0.777864C76.9758 0.69339 76.7118 0.603636 76.3651 0.520922C76.6291 3.12202 78.1003 4.85725 79.8356 6.32851C84.1719 10.0612 89.2016 12.5743 94.8438 13.7041C96.491 14.0332 98.2016 14.3307 99.8559 14.3307C102.119 14.3307 104.278 13.7728 106.03 11.9689C108.977 8.93136 111.233 5.20395 113.752 1.73524C114.009 1.47126 113.926 0.950332 114.099 0Z" fill="#8EA8CA"/>
<path fill-rule="evenodd" clip-rule="evenodd" d="M85.1293 0.174195C85.1293 4.19903 90.6306 7.89125 96.037 7.89125C96.1021 7.89125 96.1672 7.89125 96.2305 7.88949C100.651 7.88949 104.469 4.51053 104.294 0.431137C102.934 4.36446 100.606 7.25417 96.4206 7.25417C96.081 7.25417 95.729 7.23481 95.3647 7.1961C91.0266 6.76493 87.2112 5.03145 85.1293 0.174195Z" fill="#8EA8CA"/>
</svg>
