<svg width="85" height="35" viewBox="0 0 85 35" fill="none" xmlns="http://www.w3.org/2000/svg">
<path fill-rule="evenodd" clip-rule="evenodd" d="M0.433409 0C0.259339 0.090588 0.174071 0.174071 0 0.174071C0.259339 0.790425 0.349916 1.49026 0.699847 2.09951C3.23453 6.652 5.68574 11.2045 8.31279 15.757C10.764 20.0502 14.265 23.2847 18.6434 25.5618C26.7874 29.5885 35.1926 33.006 44.2052 34.3151C45.8127 34.5496 47.4095 34.681 48.985 34.681C53.9283 34.681 58.6478 33.3915 62.7651 29.9385C64.9569 28.1036 67.0582 26.2616 69.0672 24.1604C75.8115 17.4231 80.0976 8.92914 84.9165 0.790425C85 0.614578 84.9165 0.264659 85 4.82286e-07C82.1989 4.02673 79.8383 8.05345 77.387 12.1708C73.7955 17.9489 69.5929 23.1106 64.5147 27.6631C59.6833 31.9687 54.2995 33.9687 48.4024 33.9687C46.5036 33.9687 44.5498 33.7609 42.5462 33.3559C34.8409 31.7804 27.4872 28.9793 20.393 25.6524C16.1069 23.5511 12.256 20.75 9.80482 16.6327C6.65379 11.4709 3.93615 6.12801 0.95917 0.966273C0.783325 0.614578 0.609255 0.349918 0.433409 0Z" fill="#46A292"/>
</svg>
