<svg width="71" height="25" viewBox="0 0 71 25" fill="none" xmlns="http://www.w3.org/2000/svg">
<path fill-rule="evenodd" clip-rule="evenodd" d="M0.251958 7.21402e-07C-0.0987469 0.522522 -0.00663833 0.87146 0.0766057 1.22217C2.86989 10.3902 8.02425 17.4593 17.5359 20.0772C24.6103 22.0894 31.853 23.2194 39.1028 24.5337C40.557 24.7959 41.9811 24.9252 43.3715 24.9252C48.9049 24.9252 53.9264 22.8882 58.3918 19.1207C64.244 14.1417 68.0841 7.68195 70.9624 0.697875C71.0527 0.522521 70.9624 0.348937 70.8792 0.173583C70.7038 0.173583 70.5284 0.173583 70.5284 0.263917C70.1795 0.78821 69.9138 1.3125 69.7402 1.83502C67.0373 7.85553 63.6294 13.3588 58.7407 17.8082C54.6828 21.4783 50.0651 24.0289 44.7053 24.0289C44.0711 24.0289 43.4246 23.9935 42.7693 23.9191C35.6098 23.2194 28.4522 21.914 21.3778 20.5183C10.6422 18.4229 3.91847 11.6124 0.866585 1.22217C0.691233 0.78821 0.425541 0.439273 0.251958 7.21402e-07Z" fill="#46A292"/>
</svg>
