<svg width="100" height="42" viewBox="0 0 100 42" fill="none" xmlns="http://www.w3.org/2000/svg">
<path fill-rule="evenodd" clip-rule="evenodd" d="M0.60444 0C0.431745 0.0828233 0.174456 0.0828233 0 0.172696C0.431745 1.73577 0.778896 3.38343 1.21592 5.03637C3.03627 13.1108 6.51134 20.4063 13.4597 25.4427C27.7036 35.8661 43.6832 41.3412 61.4004 41.3412C68.176 41.3412 74.0812 39.0821 78.9448 34.4757C81.8137 31.7866 84.5944 28.9177 86.9347 25.8814C92.8416 18.4115 98.574 10.7688 99.9626 0.951589C100.052 0.694307 99.9626 0.347154 99.8798 4.78475e-07C99.2683 0.868766 99.1855 1.73577 98.8365 2.60453C97.8779 5.55798 97.2735 8.76871 95.7932 11.4631C91.3684 19.4547 86.1575 26.833 79.3819 33.177C75.5614 36.7348 71.2193 39.6865 65.8341 40.2081C63.5309 40.4266 61.2065 40.5571 58.8839 40.5571C56.5596 40.5571 54.237 40.4266 51.9373 40.1253C41.0787 38.8178 30.8297 35.0872 21.1922 29.8764C11.7222 24.7484 4.7738 17.37 2.34196 6.50957C1.91199 4.34206 1.21592 2.16751 0.60444 0Z" fill="#46A292"/>
</svg>
