<svg width="36" height="36" viewBox="0 0 36 36" fill="none" xmlns="http://www.w3.org/2000/svg">
<path d="M18 33C9.71572 33 3 26.2842 3 18C3 9.71572 9.71572 3 18 3C26.2842 3 33 9.71572 33 18C33 26.2842 26.2842 33 18 33ZM15.9328 12.6219C15.8343 12.5562 15.7185 12.5211 15.6 12.5211C15.2686 12.5211 15 12.7897 15 13.1211V22.8789C15 22.9974 15.0351 23.1132 15.1008 23.2118C15.2845 23.4874 15.6571 23.562 15.9328 23.3781L23.2512 18.4992C23.3171 18.4552 23.3736 18.3987 23.4175 18.3328C23.6014 18.0571 23.5269 17.6846 23.2512 17.5008L15.9328 12.6219Z" fill="white"/>
</svg>
