<svg width="28" height="39" viewBox="0 0 28 39" fill="none" xmlns="http://www.w3.org/2000/svg">
<path d="M14 0C6.18697 9.01545 0 17.8918 0 25.2656C0 32.6395 6.26629 38.6165 14 38.6165C21.7337 38.6165 28 32.6395 28 25.2656C28 17.8918 21.813 9.02755 14 0Z" fill="#009B88"/>
<path opacity="0.2" d="M14 0C6.18697 9.01545 0 17.8918 0 25.2656C0 32.6395 6.26629 38.6165 14 38.6165C21.7337 38.6165 28 32.6395 28 25.2656C28 17.8918 21.813 9.02755 14 0Z" fill="white"/>
<path opacity="0.2" d="M13.0849 6.60884C11.6937 8.25049 11.2178 10.5119 11.1141 12.6554C10.9775 14.5103 11.2149 16.3737 11.8127 18.1367C12.7707 20.7306 15.0465 23.0162 17.9875 23.0586C18.6831 23.0714 19.3714 22.9155 19.9924 22.6047C20.6134 22.2938 21.1484 21.8373 21.5508 21.2748C22.0863 20.3941 22.3769 19.3885 22.3928 18.3604C22.6094 14.808 21.2366 11.301 19.2109 8.35933C17.9173 6.47884 15.4431 4.12672 13.3381 6.31558C13.2588 6.43349 13.1764 6.52419 13.0849 6.60884Z" fill="white"/>
<path d="M28 25.2654C27.9682 23.3607 27.624 21.4737 26.9811 19.6784C27.7254 22.2966 24.4886 31.5841 15.083 28.9569C5.67749 26.3296 3.98737 14.4209 10.2506 4.4924C4.29854 11.9327 0 19.1221 0 25.2685C0 32.6423 6.26629 38.6193 14 38.6193C21.7337 38.6193 28 32.6392 28 25.2654Z" fill="#009B88"/>
<path opacity="0.1" d="M25.7669 32.5036C23.5825 34.759 20.2266 36.4671 15.1319 35.7567C2.82502 34.0364 0.363041 21.0302 3.31619 14.5724C1.24166 18.3576 0 21.9614 0 25.2658C0 32.6396 6.26629 38.6167 14 38.6167C16.3168 38.632 18.6018 38.0824 20.6538 37.0163C22.7057 35.9503 24.4617 34.4005 25.7669 32.5036Z" fill="black"/>
<path opacity="0.3" d="M16.3769 11.4459C16.6545 12.5555 17.2646 13.5622 18.4819 13.3929C18.8753 13.3337 19.2372 13.1454 19.5099 12.8582C19.7826 12.571 19.9502 12.2015 19.9859 11.8087C20.0394 11.0837 19.8307 10.3635 19.3971 9.77708C19.008 9.16207 18.4673 8.65537 17.826 8.30474C17.6288 8.20284 17.4067 8.15787 17.185 8.17498C16.9634 8.19208 16.751 8.27057 16.5721 8.40149C16.4183 8.5472 16.2974 8.7236 16.2175 8.91903C16.1375 9.11447 16.1004 9.32449 16.1084 9.53522C16.1229 10.1803 16.213 10.8215 16.3769 11.4459Z" fill="white"/>
<path opacity="0.3" d="M25.7181 23.3548C25.9225 26.6804 25.6235 30.2902 23.3873 32.7572C22.9511 33.2379 22.3897 33.6853 21.7369 33.6884C20.8857 33.6884 20.2115 32.9084 20.0101 32.086C19.8088 31.2637 19.9644 30.4081 20.0528 29.5706C20.2666 27.5394 20.0832 25.4865 19.5128 23.5241C19.0247 21.8492 18.2498 20.2377 18.082 18.5024C17.9142 16.767 18.5305 14.7867 20.1108 14.0219C21.7765 13.2207 23.3782 14.8623 24.0524 16.1986C25.1324 18.3452 25.5747 20.9845 25.7181 23.3548Z" fill="white"/>
</svg>
