<svg width="101" height="137" viewBox="0 0 101 137" fill="none" xmlns="http://www.w3.org/2000/svg">
<path fill-rule="evenodd" clip-rule="evenodd" d="M1.74251 66.82C2.22561 66.6886 2.7485 66.6527 3.18581 66.6583C7.82296 66.7959 12.3329 66.8895 16.9241 66.937C20.8139 67.1161 24.7052 67.0672 28.6039 67.242C31.3992 67.4065 34.1508 67.912 36.8565 68.5545C46.4997 70.7215 53.7453 76.4391 59.833 84.0344C61.2114 85.7572 62.4593 87.6471 63.7539 89.4106C63.7981 89.5015 63.7053 89.5466 63.6215 89.5874C63.4004 89.3641 63.0529 89.0986 62.7072 88.8323C58.9373 85.5576 55.08 82.3166 50.6451 79.9058C48.3802 78.6142 46.0757 77.4545 43.7291 76.4211C41.6352 75.4809 39.5891 74.6212 37.5403 73.7738C36.9737 73.5024 36.4097 73.2363 35.9282 73.1396C32.267 72.0928 28.6447 71.1395 25.0261 70.1756C23.5424 69.8099 21.884 69.5292 20.2679 69.3403C21.8762 69.7491 23.5386 70.2463 25.2413 70.618C27.3728 71.209 29.6005 71.762 31.7833 72.4406C33.6541 72.94 35.4445 73.4874 37.2317 74.2459C39.4933 75.1045 41.5864 76.0428 43.8085 77.0331C46.0721 78.1091 48.2907 79.0923 50.4238 80.3442C54.5981 82.6635 58.3234 85.6378 61.9218 88.7776L62.0936 89.1307C60.7913 88.2401 59.4473 87.2682 58.145 86.3775C54.3629 83.9712 50.4945 81.8318 46.3147 79.9498C41.957 77.9338 37.6508 76.0007 32.937 74.5947C29.5374 73.6367 26.0477 72.7248 22.4662 71.8553C19.7197 71.129 17.0139 70.4864 14.2252 69.8864C11.3842 69.1972 8.50189 68.6405 5.57873 68.0001C4.31246 67.6323 3.04961 67.2716 1.69764 66.9455C1.78328 66.9038 1.74251 66.82 1.74251 66.82ZM99.5238 2.82653C99.6518 2.87672 99.7446 2.83161 99.7862 2.91722C99.6432 3.75221 99.5055 4.57572 99.2787 5.45148C98.8579 7.5023 98.4452 9.55588 97.9828 11.5211C97.6191 13.2221 97.2015 14.8348 96.7052 16.4945C95.8911 19.0653 95.0726 21.6405 94.0412 24.2045C92.9558 27.3419 91.6105 30.3895 90.349 33.3963L87.9247 39.1458C86.9837 41.238 85.9993 43.2409 85.1485 45.2826C84.2075 47.3748 83.1729 49.5059 82.2735 51.6836C80.707 55.1697 79.3138 58.781 78.1768 62.4927C75.4067 71.5579 74.3012 80.9119 75.0758 90.3264C75.4602 94.9258 75.9764 99.5648 76.4961 104.211C76.4982 104.428 76.4904 104.648 76.4015 104.91C76.2714 104.642 76.1447 104.382 76.0648 103.986C74.3591 95.3467 72.6217 86.619 70.9663 77.8514C70.1395 73.4671 70.4081 69.0993 70.9337 64.5976C71.6994 58.5674 73.3418 52.766 75.5896 47.1024C76.76 44.1398 78.1913 41.2688 79.7931 38.5309C82.646 33.6626 85.7218 29.0167 88.6993 24.1914C89.9963 22.151 91.1112 19.972 92.4012 17.9351C92.4479 17.7999 92.5386 17.5374 92.4527 17.3609L89.9143 21.538C87.8199 24.6191 85.6841 27.8329 83.6003 30.9177C81.1084 34.7414 78.7014 38.7399 76.8195 42.9198C74.9813 46.7453 73.4507 50.7543 72.4009 54.8581C71.4821 58.5695 70.6951 62.3205 70.2658 66.1224C70.1106 67.8257 70.0068 69.6165 69.8958 71.4108C69.8551 71.327 69.7712 71.3678 69.7712 71.3678C69.5588 70.269 69.3136 69.0847 69.1956 67.9488C68.4152 63.2111 68.0738 58.487 68.7394 53.5931C69.2562 49.9669 70.3447 46.3913 71.8309 42.9531C75.8223 33.5011 82.0391 25.4724 88.8577 17.8059C92.3999 13.9059 95.5955 9.74209 98.1821 5.21948C98.6731 4.44243 99.1616 3.65558 99.5238 2.82653ZM100.646 3.0607e-05C99.6671 1.56573 98.9048 3.12761 97.9754 4.56342C95.2971 9.12852 92.1491 13.1588 88.6059 17.0571C81.6062 24.8139 75.35 32.9743 71.1725 42.7242C70.002 45.6867 68.9694 48.6969 68.3212 51.84C67.4835 56.1626 67.4366 60.5373 68.0427 64.9165C68.5787 68.4672 69.1024 72.0151 69.8133 75.4809C71.3827 84.0719 73.127 92.5779 74.7794 101.131C74.8615 101.744 74.9876 102.221 75.0696 102.834L74.893 102.92C74.5904 102.529 74.4185 102.175 74.162 101.866C72.5681 99.4824 71.0617 97.0654 69.0299 94.8928C67.5606 93.2143 66.1361 91.4104 64.8433 89.646C62.9465 87.3064 61.311 84.8375 59.4089 82.5005C53.5779 75.433 46.5963 70.24 37.4735 68.0361C35.0302 67.4843 32.4534 66.8937 29.8763 66.729C26.1594 66.4745 22.4837 66.5222 18.8129 66.3491C13.6475 66.2501 8.57565 66.1078 3.45815 66.0891C2.58267 66.0805 1.61622 66.116 0.70297 66.2382C0.563891 66.2199 0.40498 66.2288 0.274777 66.2921C0.0714243 66.391 -0.0668583 66.6237 0.0334715 67.1021L1.20884 67.5141C3.30848 68.017 5.39827 68.5224 7.40517 69.0703C8.36654 69.2556 9.24141 69.4807 10.201 69.6668C12.031 70.0825 13.952 70.4539 15.7891 70.866C17.8347 71.2805 19.8425 71.8258 21.8077 72.2881C24.9077 73.061 28.0022 73.8452 31.0104 74.6605C35.7241 76.0666 40.3006 77.8704 44.7819 79.9278C48.397 81.5463 52.0035 83.3785 55.3929 85.4266C63.4768 90.4144 70.4143 96.3965 75.1355 104.76C75.4773 105.463 75.82 106.168 76.0709 106.915C76.7111 108.893 77.2152 110.822 77.9357 112.753C79.7239 117.322 81.9916 121.771 84.3077 126.084C86.1085 129.341 87.9517 132.682 89.8461 135.896C90.0613 136.338 90.4088 136.604 90.7052 137L90.9728 136.87C90.8461 136.61 90.844 136.392 90.759 136.217C88.6996 132.433 86.7331 128.603 84.7163 124.901C83.2544 122.132 81.8457 119.449 80.3856 116.678C79.2285 114.517 78.5136 112.15 78.0539 109.649C76.778 102.768 76.0197 95.8447 75.6588 88.8406C75.145 79.5177 76.2561 70.3882 79.2384 61.5417C80.368 58.2682 81.6292 55.0432 82.9337 51.9117C83.7403 49.7791 84.7247 47.7761 85.6648 45.6821L88.4913 39.4172C89.3407 37.5857 90.2403 35.6262 90.9164 33.6695C92.3102 30.4858 93.6139 27.3526 94.7832 24.1744C96.3602 19.812 97.856 15.5001 98.7341 11.0431C99.2907 8.16078 99.8925 5.3712 100.447 2.48973C100.583 1.65823 100.593 0.78455 100.646 3.0607e-05Z" fill="#8EA8CA"/>
</svg>
