<svg width="28" height="39" viewBox="0 0 28 39" fill="none" xmlns="http://www.w3.org/2000/svg">
<path d="M13.9999 0C6.18695 9.01542 0 17.8918 0 25.2655C0 32.6393 6.26627 38.6163 13.9999 38.6163C21.7336 38.6163 27.9999 32.6393 27.9999 25.2655C27.9999 17.8918 21.813 9.02751 13.9999 0Z" fill="#C53F3F"/>
<path opacity="0.2" d="M13.9999 0C6.18695 9.01542 0 17.8918 0 25.2655C0 32.6393 6.26627 38.6163 13.9999 38.6163C21.7336 38.6163 27.9999 32.6393 27.9999 25.2655C27.9999 17.8918 21.813 9.02751 13.9999 0Z" fill="white"/>
<path opacity="0.2" d="M13.0848 6.60881C11.6937 8.25045 11.2178 10.5119 11.114 12.6554C10.9774 14.5103 11.2149 16.3736 11.8127 18.1366C12.7706 20.7305 15.0465 23.0161 17.9874 23.0585C18.683 23.0712 19.3713 22.9154 19.9923 22.6046C20.6133 22.2937 21.1483 21.8372 21.5507 21.2747C22.0863 20.394 22.3768 19.3884 22.3927 18.3603C22.6093 14.8079 21.2365 11.3009 19.2108 8.35929C17.9172 6.47881 15.4431 4.1267 13.3381 6.31555C13.2587 6.43346 13.1764 6.52416 13.0848 6.60881Z" fill="white"/>
<path d="M28 25.2653C27.9682 23.3606 27.624 21.4736 26.9811 19.6783C27.7254 22.2965 24.4886 31.584 15.0831 28.9567C5.67759 26.3295 3.98747 14.4208 10.2507 4.49238C4.29865 11.9327 0.000123839 19.122 0.000123839 25.2683C0.000123839 32.6421 6.26639 38.6191 14.0001 38.6191C21.7338 38.6191 28 32.6391 28 25.2653Z" fill="#C53F3F"/>
<path opacity="0.1" d="M25.7669 32.5039C23.5825 34.7593 20.2267 36.4675 15.1319 35.757C2.82513 34.0367 0.363163 21.0306 3.3163 14.5729C1.24178 18.358 0.000123839 21.9618 0.000123839 25.2662C0.000123839 32.64 6.26639 38.617 14.0001 38.617C16.3168 38.6323 18.6019 38.0827 20.6538 37.0167C22.7058 35.9506 24.4617 34.4009 25.7669 32.5039Z" fill="black"/>
<path opacity="0.3" d="M16.3769 11.4464C16.6545 12.5559 17.2647 13.5627 18.4819 13.3934C18.8753 13.3341 19.2373 13.1458 19.5099 12.8586C19.7826 12.5714 19.9502 12.2019 19.986 11.8092C20.0395 11.0841 19.8308 10.3639 19.3972 9.77753C19.0081 9.16253 18.4674 8.65583 17.826 8.3052C17.6289 8.20329 17.4068 8.15833 17.1851 8.17544C16.9634 8.19254 16.751 8.27103 16.5722 8.40194C16.4183 8.54765 16.2975 8.72405 16.2175 8.91949C16.1376 9.11492 16.1004 9.32494 16.1084 9.53567C16.1229 10.1807 16.213 10.8219 16.3769 11.4464Z" fill="white"/>
<path opacity="0.3" d="M25.718 23.3542C25.9224 26.6798 25.6234 30.2896 23.3872 32.7565C22.951 33.2373 22.3896 33.6847 21.7368 33.6877C20.8856 33.6877 20.2114 32.9077 20.01 32.0854C19.8087 31.263 19.9643 30.4075 20.0527 29.57C20.2665 27.5388 20.0832 25.4859 19.5128 23.5235C19.0246 21.8486 18.2497 20.2372 18.0819 18.5018C17.9142 16.7664 18.5304 14.7862 20.1107 14.0213C21.7764 13.2201 23.3781 14.8618 24.0523 16.1981C25.1323 18.3446 25.5746 20.9839 25.718 23.3542Z" fill="white"/>
</svg>
