<svg width="267" height="267" viewBox="0 0 267 267" fill="none" xmlns="http://www.w3.org/2000/svg">
<path d="M223.116 124.273C223.726 115.906 223.317 107.496 221.898 99.2279C220.551 91.8052 218.217 84.5963 214.956 77.7932C198.584 43.5851 159.751 21.6591 122.04 29.2633C101.214 33.4552 75.7319 48.0334 69.1316 69.5429C64.4645 84.7459 66.4616 101.396 59.023 115.841C51.3868 130.723 43.6598 143.902 45.673 161.439C47.809 180.225 60.5556 196.635 76.4047 206.941C96.0826 219.757 122.03 226.827 145.456 225.183C191.482 221.957 220.136 169.492 223.116 124.273Z" fill="#277568"/>
<path opacity="0.8" d="M223.116 124.273C223.726 115.906 223.317 107.496 221.898 99.2279C220.551 91.8052 218.217 84.5963 214.956 77.7932C198.584 43.5851 159.751 21.6591 122.04 29.2633C101.214 33.4552 75.7319 48.0334 69.1316 69.5429C64.4645 84.7459 66.4616 101.396 59.023 115.841C51.3868 130.723 43.6598 143.902 45.673 161.439C47.809 180.225 60.5556 196.635 76.4047 206.941C96.0826 219.757 122.03 226.827 145.456 225.183C191.482 221.957 220.136 169.492 223.116 124.273Z" fill="white"/>
<path opacity="0.2" d="M222.256 102.768H202.05C200.799 102.768 199.785 103.782 199.785 105.032V115.552C199.785 116.803 200.799 117.816 202.05 117.816H222.256C223.507 117.816 224.52 116.803 224.52 115.552V105.032C224.52 103.782 223.507 102.768 222.256 102.768Z" fill="#263238"/>
<path d="M200.207 104.424L210.962 109.945C211.3 110.115 211.673 110.204 212.051 110.204C212.43 110.204 212.803 110.115 213.141 109.945L224.173 104.381" stroke="white" stroke-width="0.75" stroke-linecap="round" stroke-linejoin="round"/>
<path opacity="0.2" d="M67.4121 101.711C67.3314 101.607 67.2278 101.522 67.1094 101.464C66.9909 101.405 66.8606 101.375 66.7286 101.375H44.653L43.7879 98.8168C43.7278 98.6526 43.6188 98.5108 43.4756 98.4106C43.3323 98.3103 43.1618 98.2564 42.9869 98.2561H37.3799C37.1643 98.2731 36.963 98.3708 36.8162 98.5297C36.6694 98.6885 36.5879 98.8969 36.5879 99.1132C36.5879 99.3295 36.6694 99.5378 36.8162 99.6967C36.963 99.8555 37.1643 99.9532 37.3799 99.9702H42.3515L47.7395 116.145C47.7957 116.316 47.9045 116.465 48.0502 116.57C48.196 116.676 48.3713 116.733 48.5512 116.733H48.8663C48.5782 117.178 48.4156 117.694 48.3958 118.224C48.3759 118.755 48.4993 119.281 48.7532 119.747C49.0071 120.213 49.3819 120.603 49.8383 120.874C50.2948 121.145 50.8158 121.288 51.3467 121.288C51.8776 121.288 52.3986 121.145 52.855 120.874C53.3114 120.603 53.6863 120.213 53.9402 119.747C54.1941 119.281 54.3175 118.755 54.2976 118.224C54.2777 117.694 54.1152 117.178 53.8271 116.733H57.9443C57.6562 117.178 57.4936 117.694 57.4738 118.224C57.4539 118.755 57.5773 119.281 57.8312 119.747C58.0851 120.213 58.4599 120.603 58.9163 120.874C59.3728 121.145 59.8938 121.288 60.4247 121.288C60.9556 121.288 61.4766 121.145 61.933 120.874C62.3894 120.603 62.7643 120.213 63.0182 119.747C63.2721 119.281 63.3955 118.755 63.3756 118.224C63.3557 117.694 63.1932 117.178 62.9051 116.733H63.5673C63.7829 116.715 63.9842 116.618 64.131 116.459C64.2778 116.3 64.3593 116.092 64.3593 115.875C64.3593 115.659 64.2778 115.451 64.131 115.292C63.9842 115.133 63.7829 115.035 63.5673 115.018H49.1493L48.2094 112.194H64.2294C64.418 112.193 64.6012 112.131 64.7507 112.016C64.9003 111.901 65.008 111.74 65.0571 111.558L67.4975 102.48C67.5448 102.354 67.5617 102.219 67.5468 102.085C67.532 101.952 67.4858 101.823 67.4121 101.711ZM51.3921 119.531C51.1471 119.531 50.9075 119.458 50.7038 119.322C50.5001 119.186 50.3413 118.992 50.2475 118.766C50.1537 118.54 50.1292 118.29 50.177 118.05C50.2248 117.81 50.3428 117.589 50.5161 117.416C50.6893 117.243 50.9101 117.125 51.1504 117.077C51.3907 117.029 51.6398 117.053 51.8662 117.147C52.0926 117.241 52.286 117.4 52.4222 117.603C52.5583 117.807 52.631 118.047 52.631 118.292C52.631 118.457 52.5981 118.62 52.5342 118.772C52.4703 118.924 52.3766 119.062 52.2587 119.177C52.1408 119.293 52.0011 119.383 51.8477 119.444C51.6943 119.505 51.5303 119.534 51.3654 119.531H51.3921ZM60.4701 119.531C60.2251 119.531 59.9855 119.458 59.7818 119.322C59.5781 119.186 59.4193 118.992 59.3255 118.766C59.2317 118.54 59.2072 118.29 59.255 118.05C59.3028 117.81 59.4208 117.589 59.5941 117.416C59.7673 117.243 59.9881 117.125 60.2284 117.077C60.4687 117.029 60.7178 117.053 60.9442 117.147C61.1706 117.241 61.364 117.4 61.5002 117.603C61.6363 117.807 61.709 118.047 61.709 118.292C61.709 118.457 61.6761 118.62 61.6122 118.772C61.5483 118.924 61.4546 119.062 61.3367 119.177C61.2188 119.293 61.0791 119.383 60.9257 119.444C60.7723 119.505 60.6083 119.534 60.4434 119.531H60.4701ZM62.7556 110.453H59.5836V103.089H62.7556V110.453ZM54.6975 103.089H57.8695V110.453H54.6975V103.089ZM52.9834 110.453H49.7794V103.089H52.9834V110.453ZM45.2244 103.089H48.0599V110.453H47.6754L45.2244 103.089ZM64.4484 107.425V103.089H65.6178L64.4484 107.425Z" fill="#263238"/>
<path opacity="0.2" d="M202.92 60.8761L204.901 59.9737L204.479 57.5974L202.295 57.4265C202.018 56.6928 201.65 55.9967 201.2 55.3546L202.327 53.4535L200.624 51.7447L198.707 52.8875C197.604 52.1378 196.356 51.6284 195.043 51.3923L194.509 49.2029H192.096L191.562 51.403C190.812 51.5459 190.082 51.779 189.388 52.0972L187.663 50.602L185.688 51.985L186.499 54.121C185.97 54.6655 185.506 55.2694 185.116 55.9206L182.841 55.6856L182.014 57.9551L183.899 59.2314C183.807 59.7604 183.76 60.2964 183.76 60.8334C183.76 61.063 183.76 61.2873 183.787 61.5116L181.811 62.617L182.436 64.9505H184.673C185.004 65.6491 185.419 66.3052 185.907 66.905L184.919 68.8861L186.766 70.4347L188.561 69.1531C189.234 69.5413 189.951 69.8479 190.697 70.0663L191.054 72.2023L193.463 72.4159L194.184 70.3653C194.974 70.2969 195.752 70.13 196.501 69.8687L198.018 71.4066L200.111 70.1998L199.534 68.1225C200.139 67.6071 200.677 67.0188 201.136 66.371L203.272 66.7608L204.308 64.6141L202.642 63.2364C202.831 62.4639 202.924 61.6713 202.92 60.8761ZM199.347 60.8334C199.347 62.0258 198.994 63.1914 198.331 64.1829C197.669 65.1743 196.727 65.947 195.626 66.4033C194.524 66.8597 193.312 66.979 192.142 66.7464C190.973 66.5138 189.899 65.9396 189.055 65.0964C188.212 64.2533 187.638 63.1791 187.405 62.0096C187.173 60.8401 187.292 59.6279 187.749 58.5263C188.205 57.4246 188.978 56.483 189.969 55.8206C190.96 55.1581 192.126 54.8045 193.318 54.8045C194.116 54.801 194.906 54.9558 195.643 55.2599C196.38 55.564 197.049 56.0115 197.612 56.5762C198.175 57.141 198.62 57.8119 198.922 58.5501C199.223 59.2882 199.375 60.0788 199.369 60.8761L199.347 60.8334Z" fill="#263238"/>
<path opacity="0.2" d="M195.396 166.726C195.277 166.948 195.248 167.207 195.316 167.45C195.383 167.693 195.542 167.9 195.759 168.029C196.022 168.187 196.336 168.238 196.635 168.169C196.934 168.1 197.194 167.918 197.361 167.66L200.175 163.319L200.229 163.223L203.849 162.838L203.481 163.559C203.424 163.664 203.407 163.787 203.434 163.904C203.46 164.02 203.528 164.124 203.625 164.194C203.68 164.233 203.742 164.259 203.807 164.272C203.873 164.284 203.94 164.283 204.005 164.268C204.07 164.253 204.131 164.224 204.184 164.184C204.237 164.144 204.282 164.093 204.314 164.034L205.045 162.715L207.769 162.427L207.235 163.431C207.179 163.539 207.166 163.664 207.199 163.78C207.232 163.897 207.307 163.998 207.411 164.061C207.424 164.118 207.454 164.17 207.497 164.209C207.54 164.249 207.594 164.274 207.652 164.283C207.71 164.291 207.769 164.281 207.821 164.255C207.874 164.229 207.917 164.187 207.945 164.136L208.965 162.299L210.77 162.106C211.102 162.073 211.422 161.966 211.707 161.793C211.993 161.62 212.236 161.386 212.42 161.108L212.719 160.659L207.192 160.083C207.192 160.083 203.609 159.757 203.048 157.995L205.809 152.836L205.836 152.767L209.664 152.35L210.503 151.24L206.834 150.337L207.085 149.734C207.091 149.721 207.091 149.707 207.087 149.694C207.084 149.681 207.075 149.669 207.064 149.662C207.052 149.654 207.039 149.651 207.025 149.652C207.011 149.654 206.999 149.66 206.989 149.67L206.455 150.204L203.913 147.272L203.187 148.623L204.72 151.939L204.623 152.035L201.638 156.462C201.078 156.932 200.036 157.53 199.171 156.548C197.858 155.122 194.403 149.563 194.403 149.563L194.061 150.412C193.842 150.968 193.842 151.586 194.061 152.142L194.67 153.744L193.842 155.287C193.785 155.393 193.769 155.515 193.795 155.632C193.822 155.749 193.89 155.852 193.986 155.923C194.042 155.96 194.105 155.985 194.171 155.997C194.237 156.009 194.304 156.007 194.369 155.992C194.435 155.976 194.496 155.947 194.549 155.907C194.603 155.867 194.648 155.816 194.68 155.757L195.108 154.988L196.005 157.333L195.214 158.87C195.157 158.977 195.14 159.101 195.168 159.219C195.195 159.337 195.265 159.441 195.364 159.511C195.419 159.548 195.482 159.574 195.547 159.586C195.613 159.597 195.68 159.596 195.745 159.58C195.809 159.564 195.87 159.536 195.923 159.495C195.976 159.455 196.02 159.404 196.053 159.346L196.512 158.598L197.879 162.16L195.396 166.726Z" fill="#263238"/>
<path opacity="0.2" d="M95.6233 47.3818H70.301V62.6115H95.6233V47.3818Z" fill="#263238"/>
<path d="M82.5778 59.2474C85.064 59.2474 87.0794 57.2319 87.0794 54.7458C87.0794 52.2596 85.064 50.2441 82.5778 50.2441C80.0916 50.2441 78.0762 52.2596 78.0762 54.7458C78.0762 57.2319 80.0916 59.2474 82.5778 59.2474Z" fill="white"/>
<path opacity="0.2" d="M85.8457 54.7458L80.8955 51.8889V57.6027L85.8457 54.7458Z" fill="#263238"/>
<path opacity="0.2" d="M64.9451 149.328V161.268C64.4517 161.007 63.9012 160.873 63.3431 160.878C61.7945 160.878 60.5449 161.845 60.5449 163.014C60.5449 164.184 61.7945 165.177 63.3431 165.177C65.949 165.177 66.1412 163.394 66.1412 163.394V152.906L73.5745 151.838V159.848C73.0798 159.591 72.5299 159.459 71.9725 159.463C70.4239 159.463 69.1744 160.43 69.1744 161.626C69.1744 162.822 70.4239 163.762 71.9725 163.762C73.3449 163.762 74.4877 162.988 74.7173 161.978L74.76 151.656V147.918L64.9451 149.328Z" fill="#263238"/>
<path opacity="0.2" d="M145.809 40.5841V39.201C145.809 38.973 145.718 38.7544 145.557 38.5931C145.395 38.4319 145.177 38.3413 144.949 38.3413H143.491C143.263 38.3413 143.044 38.4319 142.883 38.5931C142.722 38.7544 142.631 38.973 142.631 39.201V44.2046H128.213V39.201C128.213 38.973 128.123 38.7544 127.961 38.5931C127.8 38.4319 127.582 38.3413 127.353 38.3413H125.8C125.574 38.3455 125.36 38.4379 125.202 38.5987C125.044 38.7595 124.956 38.9758 124.956 39.201V40.5841H122.665C122.406 40.5841 122.157 40.6871 121.974 40.8703C121.791 41.0536 121.688 41.3022 121.688 41.5613V48.0601C121.688 48.3198 121.791 48.5689 121.974 48.753C122.157 48.9371 122.405 49.0413 122.665 49.0427H124.956V50.4097C124.957 50.6331 125.045 50.8473 125.202 51.0068C125.358 51.1663 125.571 51.2586 125.794 51.2641H127.348C127.576 51.2641 127.795 51.1735 127.956 51.0123C128.117 50.8511 128.208 50.6324 128.208 50.4044V46.4581H142.626V50.3777C142.622 50.4932 142.642 50.6084 142.684 50.7161C142.726 50.8239 142.789 50.9221 142.87 51.0049C142.951 51.0876 143.047 51.1532 143.154 51.1978C143.261 51.2423 143.375 51.2649 143.491 51.2641H144.949C145.177 51.2641 145.395 51.1735 145.557 51.0123C145.718 50.8511 145.809 50.6324 145.809 50.4044V49.0213H148.009C148.265 49.02 148.51 48.9188 148.693 48.7393C148.875 48.5597 148.98 48.3161 148.986 48.0601V41.5506C148.983 41.2933 148.879 41.0475 148.696 40.8665C148.513 40.6856 148.266 40.5841 148.009 40.5841H145.809Z" fill="#263238"/>
<path opacity="0.2" d="M135.417 175.414C168.189 175.414 194.755 148.847 194.755 116.076C194.755 83.3041 168.189 56.7375 135.417 56.7375C102.646 56.7375 76.0791 83.3041 76.0791 116.076C76.0791 148.847 102.646 175.414 135.417 175.414Z" fill="#263238"/>
<path d="M135.417 170.757C165.617 170.757 190.099 146.275 190.099 116.076C190.099 85.8758 165.617 61.394 135.417 61.394C105.217 61.394 80.7356 85.8758 80.7356 116.076C80.7356 146.275 105.217 170.757 135.417 170.757Z" fill="#277568" stroke="#263238" stroke-miterlimit="10"/>
<g opacity="0.2">
<path d="M135.417 117.865C135.179 117.866 134.942 117.82 134.722 117.728C134.502 117.636 134.302 117.501 134.135 117.331L99.7405 82.0065C99.4265 81.6635 99.2583 81.2117 99.2717 80.7468C99.2852 80.2819 99.4791 79.8405 99.8124 79.5162C100.146 79.1919 100.592 79.0102 101.057 79.0095C101.522 79.0089 101.97 79.1894 102.304 79.5127L136.704 114.81C136.95 115.062 137.116 115.381 137.182 115.727C137.247 116.073 137.209 116.431 137.072 116.755C136.935 117.079 136.706 117.356 136.412 117.551C136.119 117.745 135.775 117.849 135.422 117.849L135.417 117.865Z" fill="#263238"/>
</g>
<path opacity="0.2" d="M119.99 128.187C119.605 128.189 119.23 128.066 118.92 127.838C118.61 127.61 118.382 127.287 118.27 126.919C118.158 126.551 118.168 126.156 118.298 125.794C118.428 125.432 118.671 125.121 118.991 124.908L134.424 114.586C134.818 114.336 135.295 114.25 135.752 114.347C136.208 114.444 136.609 114.715 136.869 115.104C137.128 115.492 137.225 115.966 137.14 116.425C137.054 116.884 136.792 117.292 136.41 117.56L120.983 127.882C120.689 128.08 120.344 128.186 119.99 128.187Z" fill="#263238"/>
<path d="M137.633 116.076C137.634 115.637 137.505 115.208 137.262 114.843C137.02 114.478 136.674 114.193 136.269 114.024C135.864 113.856 135.418 113.811 134.988 113.896C134.558 113.981 134.163 114.192 133.852 114.501C133.542 114.811 133.33 115.206 133.244 115.636C133.158 116.066 133.202 116.512 133.369 116.917C133.537 117.322 133.821 117.669 134.186 117.913C134.55 118.156 134.979 118.286 135.417 118.286C136.004 118.286 136.567 118.054 136.982 117.639C137.398 117.225 137.632 116.663 137.633 116.076Z" fill="#263238" stroke="#263238" stroke-miterlimit="10" stroke-linecap="round"/>
<path d="M135.46 66.2854V73.676" stroke="#263238" stroke-width="2" stroke-miterlimit="10" stroke-linecap="round"/>
<path d="M135.46 157.898V165.289" stroke="#263238" stroke-width="2" stroke-miterlimit="10" stroke-linecap="round"/>
<path d="M184.962 115.787H177.566" stroke="#263238" stroke-width="2" stroke-miterlimit="10" stroke-linecap="round"/>
<path d="M93.3486 115.787H85.958" stroke="#263238" stroke-width="2" stroke-miterlimit="10" stroke-linecap="round"/>
<path d="M161.418 73.6387L157.541 79.9345" stroke="#263238" stroke-width="2" stroke-miterlimit="10" stroke-linecap="round"/>
<path d="M113.374 151.64L109.497 157.936" stroke="#263238" stroke-width="2" stroke-miterlimit="10" stroke-linecap="round"/>
<path d="M179.008 92.2539L172.503 95.7676" stroke="#263238" stroke-width="2" stroke-miterlimit="10" stroke-linecap="round"/>
<path d="M98.4111 135.807L91.907 139.321" stroke="#263238" stroke-width="2" stroke-miterlimit="10" stroke-linecap="round"/>
<path d="M177.609 141.75L171.313 137.868" stroke="#263238" stroke-width="2" stroke-miterlimit="10" stroke-linecap="round"/>
<path d="M99.6071 93.7064L93.3113 89.8296" stroke="#263238" stroke-width="2" stroke-miterlimit="10" stroke-linecap="round"/>
<path d="M158.993 159.34L155.479 152.831" stroke="#263238" stroke-width="2" stroke-miterlimit="10" stroke-linecap="round"/>
<path d="M115.44 78.7436L111.927 72.2395" stroke="#263238" stroke-width="2" stroke-miterlimit="10" stroke-linecap="round"/>
<path d="M134.296 241.865C157.804 241.865 176.861 239.612 176.861 236.834C176.861 234.056 157.804 231.804 134.296 231.804C110.788 231.804 91.7305 234.056 91.7305 236.834C91.7305 239.612 110.788 241.865 134.296 241.865Z" fill="#277568"/>
<path opacity="0.5" d="M134.296 241.865C157.804 241.865 176.861 239.612 176.861 236.834C176.861 234.056 157.804 231.804 134.296 231.804C110.788 231.804 91.7305 234.056 91.7305 236.834C91.7305 239.612 110.788 241.865 134.296 241.865Z" fill="white"/>
<path d="M145.718 161.989C145.659 160.803 145.718 158.977 145.766 157.925C145.908 157.075 145.98 156.214 145.98 155.351C145.98 143.902 141.563 142.941 136.106 142.941C130.649 142.941 126.232 144.778 126.232 155.351C126.232 155.629 126.232 155.885 126.259 156.179C126.307 156.638 126.756 161.028 126.344 162.683C125.907 164.429 122.409 164.782 120.401 168.974C118.393 173.166 122.761 179.285 137.003 180.07C151.245 180.855 152.724 171.339 152.724 168.109C152.724 164.878 145.809 163.735 145.718 161.989Z" fill="#263238"/>
<path d="M125.885 156.222L126.238 156.184V156.136L125.885 156.222Z" fill="#263238"/>
<path d="M127.893 171.948C127.893 171.948 122.131 172.263 120.086 173.411C118.041 174.559 117.656 181.336 117.656 181.336L111.526 194.493C111.526 194.493 95.0413 182.996 93.6369 181.848C92.2325 180.7 91.848 179.803 90.4329 178.906C89.0178 178.009 88.5159 178.014 86.727 178.014C84.9381 178.014 84.6818 178.271 84.8099 178.778C84.9381 179.285 85.5789 179.419 86.0862 179.419C86.647 179.463 87.2039 179.549 87.7522 179.675L82.6365 181.72C81.3603 182.227 81.6166 180.182 80.4685 180.182C79.3204 180.182 79.4432 183.125 81.3603 184.529C83.2773 185.933 84.5643 185.549 86.0862 185.421C87.6081 185.293 91.2019 184.785 91.2019 184.785C91.2019 184.785 101.038 193.474 104.616 196.667C108.194 199.86 113.048 202.925 114.837 201.649C116.626 200.373 123.381 187.851 123.381 187.851L127.722 176.353C127.722 176.353 128.934 173.94 127.893 171.948Z" fill="white"/>
<mask id="mask0_1_11459" style="mask-type:luminance" maskUnits="userSpaceOnUse" x="79" y="171" width="50" height="31">
<path d="M127.893 171.948C127.893 171.948 122.131 172.263 120.086 173.411C118.041 174.559 117.656 181.336 117.656 181.336L111.526 194.493C111.526 194.493 95.0413 182.996 93.6369 181.848C92.2325 180.7 91.848 179.803 90.4329 178.906C89.0178 178.009 88.5159 178.014 86.727 178.014C84.9381 178.014 84.6818 178.271 84.8099 178.778C84.9381 179.285 85.5789 179.419 86.0862 179.419C86.647 179.463 87.2039 179.549 87.7522 179.675L82.6365 181.72C81.3603 182.227 81.6166 180.182 80.4685 180.182C79.3204 180.182 79.4432 183.125 81.3603 184.529C83.2773 185.933 84.5643 185.549 86.0862 185.421C87.6081 185.293 91.2019 184.785 91.2019 184.785C91.2019 184.785 101.038 193.474 104.616 196.667C108.194 199.86 113.048 202.925 114.837 201.649C116.626 200.373 123.381 187.851 123.381 187.851L127.722 176.353C127.722 176.353 128.934 173.94 127.893 171.948Z" fill="white"/>
</mask>
<g mask="url(#mask0_1_11459)">
<path opacity="0.1" d="M127.893 171.948C127.893 171.948 122.131 172.263 120.086 173.411C118.041 174.559 117.656 181.336 117.656 181.336L111.526 194.493C111.526 194.493 95.0413 182.996 93.6369 181.848C92.2325 180.7 91.848 179.803 90.4329 178.906C89.0178 178.009 88.5159 178.014 86.727 178.014C84.9381 178.014 84.6818 178.271 84.8099 178.778C84.9381 179.285 85.5789 179.419 86.0862 179.419C86.647 179.463 87.2039 179.549 87.7522 179.675L82.6365 181.72C81.3603 182.227 81.6166 180.182 80.4685 180.182C79.3204 180.182 79.4432 183.125 81.3603 184.529C83.2773 185.933 84.5643 185.549 86.0862 185.421C87.6081 185.293 91.2019 184.785 91.2019 184.785C91.2019 184.785 101.038 193.474 104.616 196.667C108.194 199.86 113.048 202.925 114.837 201.649C116.626 200.373 123.381 187.851 123.381 187.851L127.722 176.353C127.722 176.353 128.934 173.94 127.893 171.948Z" fill="black"/>
</g>
<path d="M127.893 171.948C127.893 171.948 122.131 172.263 120.086 173.411C118.041 174.559 117.656 181.336 117.656 181.336L111.526 194.493C111.526 194.493 95.0413 182.996 93.6369 181.848C92.2325 180.7 91.848 179.803 90.4329 178.906C89.0178 178.009 88.5159 178.014 86.727 178.014C84.9381 178.014 84.6818 178.271 84.8099 178.778C84.9381 179.285 85.5789 179.419 86.0862 179.419C86.647 179.463 87.2039 179.549 87.7522 179.675L82.6365 181.72C81.3603 182.227 81.6166 180.182 80.4685 180.182C79.3204 180.182 79.4432 183.125 81.3603 184.529C83.2773 185.933 84.5643 185.549 86.0862 185.421C87.6081 185.293 91.2019 184.785 91.2019 184.785C91.2019 184.785 101.038 193.474 104.616 196.667C108.194 199.86 113.048 202.925 114.837 201.649C116.626 200.373 123.381 187.851 123.381 187.851L127.722 176.353C127.722 176.353 128.934 173.94 127.893 171.948Z" stroke="#263238" stroke-miterlimit="10" stroke-linecap="round"/>
<path d="M81.7288 184.812C81.7288 184.812 79.2404 182.794 80.5807 180.818C80.9118 180.327 81.6487 181.069 81.8623 182.42C82.0759 183.771 82.7488 184.294 83.0959 184.39" fill="white"/>
<mask id="mask1_1_11459" style="mask-type:luminance" maskUnits="userSpaceOnUse" x="80" y="180" width="4" height="5">
<path d="M81.7288 184.812C81.7288 184.812 79.2404 182.794 80.5807 180.818C80.9118 180.327 81.6487 181.069 81.8623 182.42C82.0759 183.771 82.7488 184.294 83.0959 184.39" fill="white"/>
</mask>
<g mask="url(#mask1_1_11459)">
<path opacity="0.1" d="M81.7288 184.812C81.7288 184.812 79.2404 182.794 80.5807 180.818C80.9118 180.327 81.6487 181.069 81.8623 182.42C82.0759 183.771 82.7488 184.294 83.0959 184.39" fill="black"/>
</g>
<path d="M81.7288 184.812C81.7288 184.812 79.2404 182.794 80.5807 180.818C80.9118 180.327 81.6487 181.069 81.8623 182.42C82.0759 183.771 82.7488 184.294 83.0959 184.39" stroke="#263238" stroke-miterlimit="10" stroke-linecap="round"/>
<path d="M83.5871 184.369C82.9944 184.369 83.0264 182.767 81.9103 182.003C81.0239 181.378 81.136 182.607 81.3443 183.605C81.4258 184.015 81.6289 184.39 81.927 184.683C82.2252 184.975 82.6046 185.171 83.0157 185.245C83.3982 185.34 83.7962 185.357 84.1852 185.293" fill="white"/>
<mask id="mask2_1_11459" style="mask-type:luminance" maskUnits="userSpaceOnUse" x="81" y="181" width="4" height="5">
<path d="M83.5871 184.369C82.9944 184.369 83.0264 182.767 81.9103 182.003C81.0239 181.378 81.136 182.607 81.3443 183.605C81.4258 184.015 81.6289 184.39 81.927 184.683C82.2252 184.975 82.6046 185.171 83.0157 185.245C83.3982 185.34 83.7962 185.357 84.1852 185.293" fill="white"/>
</mask>
<g mask="url(#mask2_1_11459)">
<path opacity="0.1" d="M83.5871 184.369C82.9944 184.369 83.0264 182.767 81.9103 182.003C81.0239 181.378 81.136 182.607 81.3443 183.605C81.4258 184.015 81.6289 184.39 81.927 184.683C82.2252 184.975 82.6046 185.171 83.0157 185.245C83.3982 185.34 83.7962 185.357 84.1852 185.293" fill="black"/>
</g>
<path d="M83.5871 184.369C82.9944 184.369 83.0264 182.767 81.9103 182.003C81.0239 181.378 81.136 182.607 81.3443 183.605C81.4258 184.015 81.6289 184.39 81.927 184.683C82.2252 184.975 82.6046 185.171 83.0157 185.245C83.3982 185.34 83.7962 185.357 84.1852 185.293" stroke="#263238" stroke-miterlimit="10" stroke-linecap="round"/>
<path d="M91.0845 181.758C91.0845 181.758 90.2461 181.165 88.6174 181.709C86.9887 182.254 85.0663 184.62 84.6231 184.422C84.2085 184.185 83.8937 183.805 83.7366 183.354C83.4857 182.863 82.9997 182.153 82.6686 182.724C81.9317 183.974 83.9396 185.394 83.9396 185.394C83.9396 185.394 84.2172 185.629 85.7712 185.442C87.3251 185.255 90.8335 184.764 90.8335 184.764" fill="white"/>
<mask id="mask3_1_11459" style="mask-type:luminance" maskUnits="userSpaceOnUse" x="82" y="181" width="10" height="5">
<path d="M91.0845 181.758C91.0845 181.758 90.2461 181.165 88.6174 181.709C86.9887 182.254 85.0663 184.62 84.6231 184.422C84.2085 184.185 83.8937 183.805 83.7366 183.354C83.4857 182.863 82.9997 182.153 82.6686 182.724C81.9317 183.974 83.9396 185.394 83.9396 185.394C83.9396 185.394 84.2172 185.629 85.7712 185.442C87.3251 185.255 90.8335 184.764 90.8335 184.764" fill="white"/>
</mask>
<g mask="url(#mask3_1_11459)">
<path opacity="0.1" d="M91.0845 181.758C91.0845 181.758 90.2461 181.165 88.6174 181.709C86.9887 182.254 85.0663 184.62 84.6231 184.422C84.2085 184.185 83.8937 183.805 83.7366 183.354C83.4857 182.863 82.9997 182.153 82.6686 182.724C81.9317 183.974 83.9396 185.394 83.9396 185.394C83.9396 185.394 84.2172 185.629 85.7712 185.442C87.3251 185.255 90.8335 184.764 90.8335 184.764" fill="black"/>
</g>
<path d="M91.0845 181.758C91.0845 181.758 90.2461 181.165 88.6174 181.709C86.9887 182.254 85.0663 184.62 84.6231 184.422C84.2085 184.185 83.8937 183.805 83.7366 183.354C83.4857 182.863 82.9997 182.153 82.6686 182.724C81.9317 183.974 83.9396 185.394 83.9396 185.394C83.9396 185.394 84.2172 185.629 85.7712 185.442C87.3251 185.255 90.8335 184.764 90.8335 184.764" stroke="#263238" stroke-miterlimit="10" stroke-linecap="round"/>
<path d="M123.477 185.111L121.613 179.776" stroke="#263238" stroke-miterlimit="10" stroke-linecap="round"/>
<path d="M142.85 171.831C142.85 171.831 148.922 172.263 150.967 173.433C153.012 174.602 153.397 181.357 153.397 181.357L159.527 194.515C159.527 194.515 176.012 183.018 177.416 181.87C178.821 180.722 179.205 179.825 180.62 178.927C182.035 178.03 182.537 178.036 184.326 178.036C186.115 178.036 186.371 178.292 186.243 178.799C186.115 179.307 185.474 179.44 184.962 179.44C184.403 179.485 183.847 179.571 183.301 179.696L188.411 181.742C189.693 182.249 189.436 180.204 190.585 180.204C191.733 180.204 191.61 183.146 189.693 184.55C187.776 185.955 186.489 185.57 184.962 185.442C183.434 185.314 179.851 184.807 179.851 184.807C179.851 184.807 170.015 193.495 166.437 196.688C162.859 199.882 158.005 202.947 156.216 201.67C154.427 200.394 147.672 187.872 147.672 187.872L143.331 176.375C143.331 176.375 141.814 173.822 142.85 171.831Z" fill="white"/>
<mask id="mask4_1_11459" style="mask-type:luminance" maskUnits="userSpaceOnUse" x="142" y="171" width="50" height="31">
<path d="M142.85 171.831C142.85 171.831 148.922 172.263 150.967 173.433C153.012 174.602 153.397 181.357 153.397 181.357L159.527 194.515C159.527 194.515 176.012 183.018 177.416 181.87C178.821 180.722 179.205 179.825 180.62 178.927C182.035 178.03 182.537 178.036 184.326 178.036C186.115 178.036 186.371 178.292 186.243 178.799C186.115 179.307 185.474 179.44 184.962 179.44C184.403 179.485 183.847 179.571 183.301 179.696L188.411 181.742C189.693 182.249 189.436 180.204 190.585 180.204C191.733 180.204 191.61 183.146 189.693 184.55C187.776 185.955 186.489 185.57 184.962 185.442C183.434 185.314 179.851 184.807 179.851 184.807C179.851 184.807 170.015 193.495 166.437 196.688C162.859 199.882 158.005 202.947 156.216 201.67C154.427 200.394 147.672 187.872 147.672 187.872L143.331 176.375C143.331 176.375 141.814 173.822 142.85 171.831Z" fill="white"/>
</mask>
<g mask="url(#mask4_1_11459)">
<path opacity="0.1" d="M142.85 171.831C142.85 171.831 148.922 172.263 150.967 173.433C153.012 174.602 153.397 181.357 153.397 181.357L159.527 194.515C159.527 194.515 176.012 183.018 177.416 181.87C178.821 180.722 179.205 179.825 180.62 178.927C182.035 178.03 182.537 178.036 184.326 178.036C186.115 178.036 186.371 178.292 186.243 178.799C186.115 179.307 185.474 179.44 184.962 179.44C184.403 179.485 183.847 179.571 183.301 179.696L188.411 181.742C189.693 182.249 189.436 180.204 190.585 180.204C191.733 180.204 191.61 183.146 189.693 184.55C187.776 185.955 186.489 185.57 184.962 185.442C183.434 185.314 179.851 184.807 179.851 184.807C179.851 184.807 170.015 193.495 166.437 196.688C162.859 199.882 158.005 202.947 156.216 201.67C154.427 200.394 147.672 187.872 147.672 187.872L143.331 176.375C143.331 176.375 141.814 173.822 142.85 171.831Z" fill="black"/>
</g>
<path d="M142.85 171.831C142.85 171.831 148.922 172.263 150.967 173.433C153.012 174.602 153.397 181.357 153.397 181.357L159.527 194.515C159.527 194.515 176.012 183.018 177.416 181.87C178.821 180.722 179.205 179.825 180.62 178.927C182.035 178.03 182.537 178.036 184.326 178.036C186.115 178.036 186.371 178.292 186.243 178.799C186.115 179.307 185.474 179.44 184.962 179.44C184.403 179.485 183.847 179.571 183.301 179.696L188.411 181.742C189.693 182.249 189.436 180.204 190.585 180.204C191.733 180.204 191.61 183.146 189.693 184.55C187.776 185.955 186.489 185.57 184.962 185.442C183.434 185.314 179.851 184.807 179.851 184.807C179.851 184.807 170.015 193.495 166.437 196.688C162.859 199.882 158.005 202.947 156.216 201.67C154.427 200.394 147.672 187.872 147.672 187.872L143.331 176.375C143.331 176.375 141.814 173.822 142.85 171.831Z" stroke="#263238" stroke-miterlimit="10" stroke-linecap="round"/>
<path d="M147.672 183.995L149.157 179.654" stroke="#263238" stroke-miterlimit="10" stroke-linecap="round"/>
<path d="M189.938 184.086C189.938 184.086 191.006 181.069 190.472 180.818C189.938 180.567 189.404 181.069 189.191 182.42C188.977 183.771 188.304 184.294 187.957 184.39" fill="white"/>
<mask id="mask5_1_11459" style="mask-type:luminance" maskUnits="userSpaceOnUse" x="187" y="180" width="4" height="5">
<path d="M189.938 184.086C189.938 184.086 191.006 181.069 190.472 180.818C189.938 180.567 189.404 181.069 189.191 182.42C188.977 183.771 188.304 184.294 187.957 184.39" fill="white"/>
</mask>
<g mask="url(#mask5_1_11459)">
<path opacity="0.1" d="M190.67 183.434C190.67 183.434 191.017 181.069 190.472 180.818C189.928 180.567 189.404 181.069 189.191 182.42C188.977 183.771 188.304 184.294 187.957 184.39" fill="black"/>
</g>
<path d="M189.938 184.086C189.938 184.086 191.006 181.069 190.472 180.818C189.938 180.567 189.404 181.069 189.191 182.42C188.977 183.771 188.304 184.294 187.957 184.39" stroke="#263238" stroke-miterlimit="10" stroke-linecap="round"/>
<path d="M189.127 184.625C189.127 184.625 190.472 180.818 188.913 181.827C187.765 182.569 188.059 184.369 187.466 184.369" fill="white"/>
<mask id="mask6_1_11459" style="mask-type:luminance" maskUnits="userSpaceOnUse" x="187" y="181" width="3" height="4">
<path d="M189.127 184.625C189.127 184.625 190.472 180.818 188.913 181.827C187.765 182.569 188.059 184.369 187.466 184.369" fill="white"/>
</mask>
<g mask="url(#mask6_1_11459)">
<path opacity="0.1" d="M189.436 184.668C189.436 184.668 190.472 180.818 188.902 181.827C187.754 182.569 188.048 184.369 187.455 184.369" fill="black"/>
</g>
<path d="M189.127 184.625C189.127 184.625 190.472 180.818 188.913 181.827C187.765 182.569 188.059 184.369 187.466 184.369" stroke="#263238" stroke-miterlimit="10" stroke-linecap="round"/>
<path d="M179.958 181.758C179.958 181.758 180.796 181.165 182.425 181.709C184.054 182.254 185.976 184.62 186.419 184.422C186.834 184.185 187.149 183.805 187.306 183.354C187.551 182.863 188 182.569 188.294 183.157C188.587 183.744 187.701 185.48 187.701 185.48C187.701 185.48 187.167 185.859 185.859 185.554C184.382 185.199 182.881 184.951 181.368 184.812" fill="white"/>
<mask id="mask7_1_11459" style="mask-type:luminance" maskUnits="userSpaceOnUse" x="179" y="181" width="10" height="5">
<path d="M179.958 181.758C179.958 181.758 180.796 181.165 182.425 181.709C184.054 182.254 185.976 184.62 186.419 184.422C186.834 184.185 187.149 183.805 187.306 183.354C187.551 182.863 188 182.569 188.294 183.157C188.587 183.744 187.701 185.48 187.701 185.48C187.701 185.48 187.167 185.859 185.859 185.554C184.382 185.199 182.881 184.951 181.368 184.812" fill="white"/>
</mask>
<g mask="url(#mask7_1_11459)">
<path opacity="0.1" d="M179.958 181.758C179.958 181.758 180.796 181.165 182.425 181.709C184.054 182.254 185.976 184.62 186.419 184.422C186.834 184.185 187.149 183.805 187.306 183.354C187.551 182.863 188 182.569 188.294 183.157C188.587 183.744 187.701 185.48 187.701 185.48C187.701 185.48 187.167 185.859 185.859 185.554C184.55 185.25 181.015 184.31 180.209 184.31" fill="black"/>
</g>
<path d="M179.958 181.758C179.958 181.758 180.796 181.165 182.425 181.709C184.054 182.254 185.976 184.62 186.419 184.422C186.834 184.185 187.149 183.805 187.306 183.354C187.551 182.863 188 182.569 188.294 183.157C188.587 183.744 187.701 185.48 187.701 185.48C187.701 185.48 187.167 185.859 185.859 185.554C184.382 185.199 182.881 184.951 181.368 184.812" stroke="#263238" stroke-miterlimit="10" stroke-linecap="round"/>
<path d="M133.137 164.173C133.137 164.173 132.875 167.147 131.652 169.155C130.43 171.163 127.914 171.948 127.914 171.948L122.938 187.242L125.538 197.58C125.538 197.58 120.903 204.629 119.082 208.912C117.261 213.194 119.45 218.038 121.373 220.046C123.295 222.053 125.848 224.777 132.363 224.52C141.441 224.163 147.849 224.99 150.759 221.583C153.669 218.177 153.963 211.742 150.503 206.888C148.409 203.935 145.552 197.553 145.552 197.553L148.383 186.9L144.047 171.948C144.047 171.948 141.435 171.799 139.865 169.876C138.295 167.954 138.642 164.456 138.642 164.456L133.137 164.173Z" fill="white"/>
<mask id="mask8_1_11459" style="mask-type:luminance" maskUnits="userSpaceOnUse" x="118" y="164" width="36" height="61">
<path d="M133.137 164.173C133.137 164.173 132.875 167.147 131.652 169.155C130.43 171.163 127.914 171.948 127.914 171.948L122.938 187.242L125.538 197.58C125.538 197.58 120.903 204.629 119.082 208.912C117.261 213.194 119.45 218.038 121.373 220.046C123.295 222.053 125.848 224.777 132.363 224.52C141.441 224.163 147.849 224.99 150.759 221.583C153.669 218.177 153.963 211.742 150.503 206.888C148.409 203.935 145.552 197.553 145.552 197.553L148.383 186.9L144.047 171.948C144.047 171.948 141.435 171.799 139.865 169.876C138.295 167.954 138.642 164.456 138.642 164.456L133.137 164.173Z" fill="white"/>
</mask>
<g mask="url(#mask8_1_11459)">
<path opacity="0.1" d="M133.137 164.173C133.137 164.173 132.875 167.147 131.652 169.155C130.43 171.163 127.914 171.948 127.914 171.948L122.938 187.242L125.538 197.58C125.538 197.58 120.903 204.629 119.082 208.912C117.261 213.194 119.45 218.038 121.373 220.046C123.295 222.053 125.848 224.777 132.363 224.52C141.441 224.163 147.849 224.99 150.759 221.583C153.669 218.177 153.963 211.742 150.503 206.888C148.409 203.935 145.552 197.553 145.552 197.553L148.383 186.9L144.047 171.948C144.047 171.948 141.435 171.799 139.865 169.876C138.295 167.954 138.642 164.456 138.642 164.456L133.137 164.173Z" fill="black"/>
</g>
<path d="M133.137 164.173C133.137 164.173 132.875 167.147 131.652 169.155C130.43 171.163 127.914 171.948 127.914 171.948L122.938 187.242L125.538 197.58C125.538 197.58 120.903 204.629 119.082 208.912C117.261 213.194 119.45 218.038 121.373 220.046C123.295 222.053 125.848 224.777 132.363 224.52C141.441 224.163 147.849 224.99 150.759 221.583C153.669 218.177 153.963 211.742 150.503 206.888C148.409 203.935 145.552 197.553 145.552 197.553L148.383 186.9L144.047 171.948C144.047 171.948 141.435 171.799 139.865 169.876C138.295 167.954 138.642 164.456 138.642 164.456L133.137 164.173Z" stroke="#263238" stroke-miterlimit="10" stroke-linecap="round"/>
<path d="M148.383 186.9L144.047 171.948C143.612 171.917 143.181 171.846 142.76 171.734C143.262 175.211 142.664 176.952 142.664 176.952C142.578 177.714 142.31 178.445 141.884 179.084C141.457 179.722 140.884 180.249 140.213 180.62C137.858 182.019 133.399 182.281 130.601 180.011C128.465 178.297 128.865 173.603 129.18 171.398C128.768 171.619 128.337 171.803 127.893 171.948L122.916 187.242L125.538 197.58H145.542L148.383 186.9Z" fill="#263238" stroke="#263238" stroke-miterlimit="10" stroke-linecap="round"/>
<path d="M128.902 157.236C128.902 157.236 127.3 155.143 126.734 156.702C126.168 158.262 128.982 159.645 128.982 159.645L128.902 157.236Z" fill="white"/>
<mask id="mask9_1_11459" style="mask-type:luminance" maskUnits="userSpaceOnUse" x="126" y="156" width="3" height="4">
<path d="M128.902 157.236C128.902 157.236 127.3 155.143 126.734 156.702C126.168 158.262 128.982 159.645 128.982 159.645L128.902 157.236Z" fill="white"/>
</mask>
<g mask="url(#mask9_1_11459)">
<path opacity="0.1" d="M128.902 157.236C128.902 157.236 127.3 155.143 126.734 156.702C126.168 158.262 128.982 159.645 128.982 159.645L128.902 157.236Z" fill="black"/>
</g>
<path d="M128.902 157.236C128.902 157.236 127.3 155.143 126.734 156.702C126.168 158.262 128.982 159.645 128.982 159.645L128.902 157.236Z" stroke="#263238" stroke-miterlimit="10" stroke-linecap="round"/>
<path d="M143.069 157.236C143.069 157.236 144.698 155.143 145.237 156.702C145.777 158.262 142.995 159.645 142.995 159.645L143.069 157.236Z" fill="white"/>
<mask id="mask10_1_11459" style="mask-type:luminance" maskUnits="userSpaceOnUse" x="142" y="156" width="4" height="4">
<path d="M143.069 157.236C143.069 157.236 144.698 155.143 145.237 156.702C145.777 158.262 142.995 159.645 142.995 159.645L143.069 157.236Z" fill="white"/>
</mask>
<g mask="url(#mask10_1_11459)">
<path opacity="0.1" d="M143.069 157.236C143.069 157.236 144.698 155.143 145.237 156.702C145.777 158.262 142.995 159.645 142.995 159.645L143.069 157.236Z" fill="black"/>
</g>
<path d="M143.069 157.236C143.069 157.236 144.698 155.143 145.237 156.702C145.777 158.262 142.995 159.645 142.995 159.645L143.069 157.236Z" stroke="#263238" stroke-miterlimit="10" stroke-linecap="round"/>
<path d="M136.058 166.261C134.194 166.261 132.407 165.52 131.089 164.203C129.771 162.885 129.031 161.097 129.031 159.233V148.452C129.03 148.108 129.097 147.767 129.228 147.449C129.359 147.131 129.552 146.842 129.795 146.598C130.038 146.355 130.327 146.162 130.645 146.03C130.962 145.898 131.303 145.83 131.647 145.83H140.442C140.79 145.824 141.137 145.887 141.46 146.016C141.784 146.145 142.079 146.337 142.327 146.581C142.576 146.825 142.773 147.116 142.908 147.437C143.043 147.759 143.112 148.104 143.112 148.452V159.249C143.109 160.173 142.925 161.087 142.569 161.939C142.213 162.791 141.692 163.565 141.037 164.216C140.382 164.867 139.605 165.383 138.751 165.734C137.897 166.085 136.982 166.264 136.058 166.261Z" fill="white"/>
<mask id="mask11_1_11459" style="mask-type:luminance" maskUnits="userSpaceOnUse" x="129" y="145" width="15" height="22">
<path d="M136.058 166.261C134.194 166.261 132.407 165.52 131.089 164.203C129.771 162.885 129.031 161.097 129.031 159.233V148.452C129.03 148.108 129.097 147.767 129.228 147.449C129.359 147.131 129.552 146.842 129.795 146.598C130.038 146.355 130.327 146.162 130.645 146.03C130.962 145.898 131.303 145.83 131.647 145.83H140.442C140.79 145.824 141.137 145.887 141.46 146.016C141.784 146.145 142.079 146.337 142.327 146.581C142.576 146.825 142.773 147.116 142.908 147.437C143.043 147.759 143.112 148.104 143.112 148.452V159.249C143.109 160.173 142.925 161.087 142.569 161.939C142.213 162.791 141.692 163.565 141.037 164.216C140.382 164.867 139.605 165.383 138.751 165.734C137.897 166.085 136.982 166.264 136.058 166.261Z" fill="white"/>
</mask>
<g mask="url(#mask11_1_11459)">
<path opacity="0.1" d="M136.058 166.261C134.194 166.261 132.407 165.52 131.089 164.203C129.771 162.885 129.031 161.097 129.031 159.233V148.452C129.03 148.108 129.097 147.767 129.228 147.449C129.359 147.131 129.552 146.842 129.795 146.598C130.038 146.355 130.327 146.162 130.645 146.03C130.962 145.898 131.303 145.83 131.647 145.83H140.442C140.79 145.824 141.137 145.887 141.46 146.016C141.784 146.145 142.079 146.337 142.327 146.581C142.576 146.825 142.773 147.116 142.908 147.437C143.043 147.759 143.112 148.104 143.112 148.452V159.249C143.109 160.173 142.925 161.087 142.569 161.939C142.213 162.791 141.692 163.565 141.037 164.216C140.382 164.867 139.605 165.383 138.751 165.734C137.897 166.085 136.982 166.264 136.058 166.261Z" fill="black"/>
</g>
<path d="M136.058 166.261C134.194 166.261 132.407 165.52 131.089 164.203C129.771 162.885 129.031 161.097 129.031 159.233V148.452C129.03 148.108 129.097 147.767 129.228 147.449C129.359 147.131 129.552 146.842 129.795 146.598C130.038 146.355 130.327 146.162 130.645 146.03C130.962 145.898 131.303 145.83 131.647 145.83H140.442C140.79 145.824 141.137 145.887 141.46 146.016C141.784 146.145 142.079 146.337 142.327 146.581C142.576 146.825 142.773 147.116 142.908 147.437C143.043 147.759 143.112 148.104 143.112 148.452V159.249C143.109 160.173 142.925 161.087 142.569 161.939C142.213 162.791 141.692 163.565 141.037 164.216C140.382 164.867 139.605 165.383 138.751 165.734C137.897 166.085 136.982 166.264 136.058 166.261Z" stroke="#263238" stroke-miterlimit="10" stroke-linecap="round"/>
<path d="M130.83 154.449C131.312 154.769 131.878 154.939 132.456 154.939C133.035 154.939 133.6 154.769 134.082 154.449" stroke="#263238" stroke-miterlimit="10" stroke-linecap="round"/>
<path d="M138.114 154.449C138.595 154.769 139.159 154.939 139.737 154.939C140.315 154.939 140.879 154.769 141.36 154.449" stroke="#263238" stroke-miterlimit="10" stroke-linecap="round"/>
<path d="M136.72 153.29L137.185 157.776H135.326" stroke="#263238" stroke-miterlimit="10" stroke-linecap="round"/>
<path d="M135.401 160.328H137.259" stroke="#263238" stroke-miterlimit="10" stroke-linecap="round"/>
<path d="M136.127 145.814H131.647C131.303 145.814 130.962 145.882 130.645 146.014C130.327 146.145 130.038 146.339 129.795 146.582C129.552 146.826 129.359 147.115 129.228 147.433C129.097 147.751 129.03 148.092 129.031 148.436V153.776C131.898 151.282 135.236 146.994 136.127 145.814Z" fill="#263238" stroke="#263238" stroke-miterlimit="10"/>
<path d="M143.112 153.979V148.452C143.112 147.757 142.836 147.09 142.344 146.598C141.852 146.106 141.185 145.83 140.49 145.83H136.48C137.404 148.756 140.976 152.19 143.112 153.979Z" fill="#263238" stroke="#263238" stroke-miterlimit="10"/>
<path d="M130.526 152.361C130.526 152.361 131.364 150.887 134.034 151.122" stroke="#263238" stroke-width="2" stroke-miterlimit="10" stroke-linecap="round"/>
<path d="M137.569 151.122C138.279 150.826 139.071 150.788 139.806 151.014C140.542 151.24 141.175 151.717 141.595 152.361" stroke="#263238" stroke-width="2" stroke-miterlimit="10" stroke-linecap="round"/>
<path d="M119.082 208.911C117.245 213.183 119.451 218.038 121.373 220.045C123.295 222.053 125.848 224.777 132.363 224.52C141.441 224.163 147.849 224.99 150.759 221.583C153.669 218.176 153.963 211.742 150.503 206.888C149.72 205.738 149.007 204.544 148.367 203.31H121.992C120.917 205.12 119.945 206.991 119.082 208.911Z" fill="#263238" stroke="#263238" stroke-miterlimit="10" stroke-linecap="round"/>
<path d="M133.372 217.578C128.774 212.81 120.428 210.423 116.337 209.739C112.247 209.056 104.755 204.933 104.755 204.933C104.755 204.933 100.323 204.784 100.664 210.065C101.006 215.346 113.779 221.482 118.724 224.205C120.945 225.458 123.434 226.161 125.983 226.254C128.532 226.347 131.065 225.827 133.372 224.739" fill="#263238"/>
<path d="M133.372 217.578C128.774 212.81 120.428 210.423 116.337 209.739C112.247 209.056 104.755 204.933 104.755 204.933C104.755 204.933 100.323 204.784 100.664 210.065C101.006 215.346 113.779 221.482 118.724 224.205C120.945 225.458 123.434 226.161 125.983 226.254C128.532 226.347 131.065 225.827 133.372 224.739" stroke="#263238" stroke-miterlimit="10" stroke-linecap="round"/>
<path d="M136.25 217.749C140.848 212.981 149.194 210.594 153.285 209.91C157.375 209.227 163.735 205.745 163.735 205.745C163.735 205.745 169.3 204.971 168.958 210.252C168.616 215.533 155.843 221.663 150.898 224.392C148.676 225.644 146.187 226.346 143.639 226.439C141.091 226.532 138.557 226.013 136.25 224.926" fill="#263238"/>
<path d="M136.25 217.749C140.848 212.981 149.194 210.594 153.285 209.91C157.375 209.227 163.735 205.745 163.735 205.745C163.735 205.745 169.3 204.971 168.958 210.252C168.616 215.533 155.843 221.663 150.898 224.392C148.676 225.644 146.187 226.346 143.639 226.439C141.091 226.532 138.557 226.013 136.25 224.926" stroke="#263238" stroke-miterlimit="10" stroke-linecap="round"/>
<path d="M155.442 226.085C155.442 226.085 156.072 225.669 155.757 224.617C155.442 223.565 153.76 224.403 152.601 224.403C151.442 224.403 147.026 223.981 144.928 223.773C143.128 223.591 140.186 223.645 139.369 223.661C139.487 224.955 139.222 226.255 138.605 227.399L139.016 227.441C142.594 227.794 144.148 227.863 145.243 228.093C147.24 228.515 149.445 230.197 151.651 230.095C153.856 229.994 155.859 228.493 155.859 227.57C155.88 227.043 155.735 226.523 155.442 226.085Z" fill="white"/>
<mask id="mask12_1_11459" style="mask-type:luminance" maskUnits="userSpaceOnUse" x="138" y="223" width="18" height="8">
<path d="M155.442 226.085C155.442 226.085 156.072 225.669 155.757 224.617C155.442 223.565 153.76 224.403 152.601 224.403C151.442 224.403 147.026 223.981 144.928 223.773C143.128 223.591 140.186 223.645 139.369 223.661C139.487 224.955 139.222 226.255 138.605 227.399L139.016 227.441C142.594 227.794 144.148 227.863 145.243 228.093C147.24 228.515 149.445 230.197 151.651 230.095C153.856 229.994 155.859 228.493 155.859 227.57C155.88 227.043 155.735 226.523 155.442 226.085Z" fill="white"/>
</mask>
<g mask="url(#mask12_1_11459)">
<path opacity="0.1" d="M155.442 226.085C155.442 226.085 156.072 225.669 155.757 224.617C155.442 223.565 153.76 224.403 152.601 224.403C151.442 224.403 147.026 223.981 144.928 223.773C143.128 223.591 140.186 223.645 139.369 223.661C139.487 224.955 139.222 226.255 138.605 227.399L139.016 227.441C142.594 227.794 144.148 227.863 145.243 228.093C147.24 228.515 149.445 230.197 151.651 230.095C153.856 229.994 155.859 228.493 155.859 227.57C155.88 227.043 155.735 226.523 155.442 226.085Z" fill="black"/>
</g>
<path d="M155.442 226.085C155.442 226.085 156.072 225.669 155.757 224.617C155.442 223.565 153.76 224.403 152.601 224.403C151.442 224.403 147.026 223.981 144.928 223.773C143.128 223.591 140.186 223.645 139.369 223.661C139.487 224.955 139.222 226.255 138.605 227.399L139.016 227.441C142.594 227.794 144.148 227.863 145.243 228.093C147.24 228.515 149.445 230.197 151.651 230.095C153.856 229.994 155.859 228.493 155.859 227.57C155.88 227.043 155.735 226.523 155.442 226.085Z" stroke="#263238" stroke-miterlimit="10" stroke-linecap="round"/>
<path d="M155.442 226.085C154.829 226.189 154.202 226.189 153.589 226.085" stroke="#263238" stroke-miterlimit="10" stroke-linecap="round"/>
<path d="M155.864 227.559C155.048 227.621 154.229 227.621 153.413 227.559" stroke="#263238" stroke-miterlimit="10" stroke-linecap="round"/>
<path d="M153.002 228.499C153.576 228.82 154.245 228.929 154.892 228.808" stroke="#263238" stroke-miterlimit="10" stroke-linecap="round"/>
<path d="M152.19 229.188C152.734 229.449 153.344 229.544 153.941 229.46" stroke="#263238" stroke-miterlimit="10" stroke-linecap="round"/>
<path d="M138.605 227.388C139.222 226.244 139.487 224.944 139.369 223.65H139.139C139.139 223.65 131.044 221.984 124.315 217.872C117.587 213.76 109.064 207.464 104.755 204.939C100.445 202.413 96.339 206.199 96.7448 210.198C97.1507 214.198 100.424 216.297 106.314 218.742C112.204 221.188 122.932 224.948 128.609 226.101C131.551 226.683 135.342 227.084 138.605 227.388Z" fill="#263238" stroke="#263238" stroke-miterlimit="10" stroke-linecap="round"/>
<path d="M129.148 228.499C128.533 227.354 128.269 226.054 128.39 224.761H128.614C128.614 224.761 136.709 223.078 143.443 218.977C150.177 214.876 158.689 208.564 163.004 206.039C167.318 203.513 171.414 207.304 171.014 211.298C170.613 215.293 167.334 217.397 161.444 219.816C155.554 222.235 144.832 226.021 139.15 227.18C136.202 227.788 132.432 228.189 129.148 228.499Z" fill="#263238" stroke="#263238" stroke-miterlimit="10" stroke-linecap="round"/>
<path d="M128.39 224.771C128.39 224.771 120.599 225.076 118.126 224.905C115.654 224.734 113.78 223.538 113.101 224.136C112.423 224.734 113.272 225.668 113.272 225.668C113.272 225.668 113.016 227.116 113.699 227.885C114.383 228.653 115.301 229.332 118.212 230.186C121.122 231.04 124.086 229.834 125.688 229.406L129.132 228.499C129.132 228.499 128.342 227.276 128.39 224.771Z" fill="white"/>
<mask id="mask13_1_11459" style="mask-type:luminance" maskUnits="userSpaceOnUse" x="112" y="223" width="18" height="8">
<path d="M128.39 224.771C128.39 224.771 120.599 225.076 118.126 224.905C115.654 224.734 113.78 223.538 113.101 224.136C112.423 224.734 113.272 225.668 113.272 225.668C113.272 225.668 113.016 227.116 113.699 227.885C114.383 228.653 115.301 229.332 118.212 230.186C121.122 231.04 124.086 229.834 125.688 229.406L129.132 228.499C129.132 228.499 128.342 227.276 128.39 224.771Z" fill="white"/>
</mask>
<g mask="url(#mask13_1_11459)">
<path opacity="0.1" d="M128.39 224.771C128.39 224.771 120.599 225.076 118.126 224.905C115.654 224.734 113.78 223.538 113.101 224.136C112.423 224.734 113.272 225.668 113.272 225.668C113.272 225.668 113.016 227.116 113.699 227.885C114.383 228.653 115.301 229.332 118.212 230.186C121.122 231.04 124.086 229.834 125.688 229.406L129.132 228.499C129.132 228.499 128.342 227.276 128.39 224.771Z" fill="black"/>
</g>
<path d="M128.39 224.771C128.39 224.771 120.599 225.076 118.126 224.905C115.654 224.734 113.78 223.538 113.101 224.136C112.423 224.734 113.272 225.668 113.272 225.668C113.272 225.668 113.016 227.116 113.699 227.885C114.383 228.653 115.301 229.332 118.212 230.186C121.122 231.04 124.086 229.834 125.688 229.406L129.132 228.499C129.132 228.499 128.342 227.276 128.39 224.771Z" stroke="#263238" stroke-miterlimit="10" stroke-linecap="round"/>
<path d="M113.272 225.668C113.448 225.55 113.656 225.487 113.868 225.487C114.08 225.487 114.287 225.55 114.463 225.668C114.871 225.947 115.336 226.129 115.825 226.202" stroke="#263238" stroke-miterlimit="10" stroke-linecap="round"/>
<path d="M113.368 227.324C113.504 227.201 113.668 227.113 113.846 227.069C114.024 227.024 114.21 227.024 114.388 227.068C114.795 227.183 115.215 227.244 115.638 227.249" stroke="#263238" stroke-miterlimit="10" stroke-linecap="round"/>
<path d="M114.671 228.675C114.671 228.675 114.821 228.242 115.104 228.242C115.387 228.242 116.556 228.397 116.861 228.371" stroke="#263238" stroke-miterlimit="10" stroke-linecap="round"/>
<path d="M116.327 229.519C116.327 229.519 116.61 229.134 116.861 229.113C117.183 229.068 117.507 229.041 117.833 229.033" stroke="#263238" stroke-miterlimit="10" stroke-linecap="round"/>
<path d="M132.352 224.52C132.352 224.52 148.65 216.51 155.234 211.955" stroke="white" stroke-miterlimit="10" stroke-linecap="round"/>
<path d="M113.956 210.93C113.956 210.93 127.882 221.818 135.732 222.576" stroke="white" stroke-miterlimit="10" stroke-linecap="round"/>
<path d="M120.476 210.636C120.476 210.636 131.07 213.92 133.826 218.16" stroke="white" stroke-miterlimit="10" stroke-linecap="round"/>
<path d="M137.537 216.676C137.537 216.676 144.105 212.014 150.887 210.636" stroke="white" stroke-miterlimit="10" stroke-linecap="round"/>
</svg>
