<svg width="284" height="284" viewBox="0 0 284 284" fill="none" xmlns="http://www.w3.org/2000/svg">
<path d="M250.323 149.816C251.459 134.724 247.949 118.968 243.246 104.944C236.288 84.064 222.701 62.6675 199.868 57.7259C186.702 54.8859 173.303 57.9303 162.011 65.0644C151.156 71.9259 142.699 80.7923 129.345 82.5077C115.844 84.2458 101.99 83.5471 88.4206 83.5471C53.5283 83.5471 25.2135 120.2 32.2908 158.381C39.3681 196.562 72.7438 223.037 101.059 223.037C126.505 223.037 147.441 207.774 171.61 203.673C183.595 201.64 195.631 204.048 207.49 201.004C221.276 197.46 234.238 189.013 241.877 176.784C247.08 168.446 249.613 159.262 250.323 149.816Z" fill="#277568"/>
<path opacity="0.7" d="M250.323 149.816C251.459 134.724 247.949 118.968 243.246 104.944C236.288 84.064 222.701 62.6675 199.868 57.7259C186.702 54.8859 173.303 57.9303 162.011 65.0644C151.156 71.9259 142.699 80.7923 129.345 82.5077C115.844 84.2458 101.99 83.5471 88.4206 83.5471C53.5283 83.5471 25.2135 120.2 32.2908 158.381C39.3681 196.562 72.7438 223.037 101.059 223.037C126.505 223.037 147.441 207.774 171.61 203.673C183.595 201.64 195.631 204.048 207.49 201.004C221.276 197.46 234.238 189.013 241.877 176.784C247.08 168.446 249.613 159.262 250.323 149.816Z" fill="white"/>
<path d="M246.239 144.516C246.239 144.516 246.239 141.676 242.263 137.74C238.287 133.804 235.765 131.521 235.765 131.521C235.765 131.521 233.789 138.018 237.469 141.977C240.171 144.758 243.101 147.308 246.228 149.6L246.239 144.516Z" fill="#277568"/>
<path d="M240.503 162.158C240.503 162.158 240.503 159.318 236.527 155.382C232.551 151.446 230.04 149.163 230.04 149.163C230.04 149.163 228.058 155.661 231.744 159.619C234.446 162.4 237.376 164.95 240.503 167.242V162.158Z" fill="#277568"/>
<path d="M245.989 149.327C245.989 149.327 246.29 146.521 250.641 143.005C254.992 139.49 257.758 137.513 257.758 137.513C257.758 137.513 259.036 144.181 254.97 147.737C251.989 150.217 248.807 152.444 245.456 154.394L245.989 149.327Z" fill="#277568"/>
<path d="M239.06 170.162C239.06 170.162 239.628 167.401 244.348 164.362C249.068 161.324 251.999 159.648 251.999 159.648C251.999 159.648 252.567 166.419 248.154 169.514C244.929 171.668 241.53 173.549 237.992 175.137L239.06 170.162Z" fill="#277568"/>
<path d="M240.361 192.882C240.361 192.882 240.361 190.042 244.337 186.1C248.313 182.158 250.829 179.886 250.829 179.886C250.829 179.886 252.811 186.384 249.125 190.337C246.424 193.12 243.494 195.672 240.366 197.965L240.361 192.882Z" fill="#277568"/>
<path d="M240.298 198.425C240.298 198.425 240.696 195.631 237.344 191.155C233.993 186.679 231.795 184.078 231.795 184.078C231.795 184.078 228.915 190.229 231.988 194.665C234.266 197.802 236.803 200.744 239.571 203.458L240.298 198.425Z" fill="#277568"/>
<path d="M236.396 214.857C236.396 214.857 236.396 212.017 240.372 208.081C244.348 204.145 246.87 201.862 246.87 201.862C246.87 201.862 248.846 208.359 245.166 212.318C242.463 215.1 239.533 217.651 236.407 219.947L236.396 214.857Z" fill="#277568"/>
<path d="M239.037 229.756C239.037 229.756 238.321 227.024 241.144 222.196C243.967 217.368 245.859 214.539 245.859 214.539C245.859 214.539 249.414 220.322 246.864 225.081C244.956 228.456 242.769 231.665 240.326 234.675L239.037 229.756Z" fill="#277568"/>
<path d="M246.597 143.795C246.398 146.736 246.038 149.664 245.518 152.565C243.95 160.642 240.042 165.856 238.48 173.149C236.918 180.442 241.406 189.843 240.184 199.215C238.963 208.587 235.339 213.795 236.379 220.049C237.418 226.303 242.894 243.24 242.894 243.24" stroke="#263238" stroke-linecap="round" stroke-linejoin="round"/>
<path d="M245.955 151.207L250.215 147.936" stroke="#263238" stroke-linecap="round" stroke-linejoin="round"/>
<path d="M246.154 147.441L244.365 144.266" stroke="#263238" stroke-linecap="round" stroke-linejoin="round"/>
<path d="M238.719 172.814C238.719 172.814 242.286 170.139 245.955 167.464" stroke="#263238" stroke-linecap="round" stroke-linejoin="round"/>
<path d="M240.503 167.242C240.503 167.242 237.526 161.414 234.158 157.552" stroke="#263238" stroke-linecap="round" stroke-linejoin="round"/>
<path d="M240.503 196.903C242.537 193.142 245.109 189.698 248.136 186.679" stroke="#263238" stroke-linecap="round" stroke-linejoin="round"/>
<path d="M239.81 200.868C238.727 198.318 237.433 195.863 235.942 193.529C233.863 190.456 233.562 190.059 233.562 190.059" stroke="#263238" stroke-linecap="round" stroke-linejoin="round"/>
<path d="M236.396 220.049C237.302 217.81 238.376 215.644 239.611 213.568C240.846 211.639 242.239 209.815 243.774 208.115" stroke="#263238" stroke-linecap="round" stroke-linejoin="round"/>
<path d="M240.326 234.675C240.119 232.534 240.488 230.377 241.394 228.427C242.882 225.553 244.564 221.787 245.257 220.299" stroke="#263238" stroke-linecap="round" stroke-linejoin="round"/>
<path d="M213.966 182.26C213.966 182.26 213.659 180.488 215.709 177.574C217.76 174.66 219.117 172.973 219.117 172.973C219.117 172.973 221.06 176.836 219.186 179.71C217.793 181.748 216.234 183.667 214.522 185.446L213.966 182.26Z" fill="#277568"/>
<path d="M219.481 192.7C219.481 192.7 219.174 190.928 221.225 188.014C223.275 185.1 224.633 183.413 224.633 183.413C224.633 183.413 226.575 187.275 224.701 190.155C223.308 192.191 221.748 194.108 220.038 195.886L219.481 192.7Z" fill="#277568"/>
<path d="M214.642 185.248C214.642 185.248 214.153 183.544 211.04 181.789C207.928 180.033 205.985 179.113 205.985 179.113C205.985 179.113 205.906 183.436 208.825 185.219C210.963 186.45 213.199 187.5 215.511 188.36L214.642 185.248Z" fill="#277568"/>
<path d="M221.253 197.562C221.253 197.562 220.583 195.892 217.311 194.495C214.039 193.097 211.995 192.37 211.995 192.37C211.995 192.37 212.369 196.676 215.482 198.141C217.738 199.141 220.073 199.95 222.463 200.561L221.253 197.562Z" fill="#277568"/>
<path d="M222.9 211.949C222.9 211.949 222.599 210.177 219.685 208.127C216.772 206.076 214.937 204.935 214.937 204.935C214.937 204.935 214.403 209.223 217.135 211.302C219.131 212.755 221.246 214.038 223.457 215.136L222.9 211.949Z" fill="#277568"/>
<path d="M223.548 215.42C223.548 215.42 222.98 213.716 224.61 210.535C226.24 207.354 227.319 205.497 227.319 205.497C227.319 205.497 229.79 209.041 228.347 212.159C227.26 214.373 225.989 216.492 224.547 218.493L223.548 215.42Z" fill="#277568"/>
<path d="M228.512 229.705C228.512 229.705 228.717 227.921 231.505 225.729C234.294 223.536 236.049 222.27 236.049 222.27C236.049 222.27 236.828 226.524 234.22 228.756C232.311 230.319 230.274 231.719 228.132 232.942L228.512 229.705Z" fill="#277568"/>
<path d="M227.768 225.297C227.768 225.297 227.461 223.525 224.553 221.475C221.645 219.424 219.816 218.282 219.816 218.282C219.816 218.282 219.282 222.571 222.014 224.655C224.012 226.106 226.126 227.389 228.336 228.489L227.768 225.297Z" fill="#277568"/>
<path d="M227.768 234.93C227.768 234.93 227.916 233.136 225.621 230.415C223.326 227.694 221.838 226.126 221.838 226.126C221.838 226.126 220.231 230.137 222.349 232.846C223.902 234.754 225.612 236.528 227.461 238.151L227.768 234.93Z" fill="#277568"/>
<path d="M213.665 181.84C214.109 183.663 214.653 185.461 215.295 187.224C217.152 192.12 220.168 194.966 221.94 199.368C223.712 203.77 221.94 210.16 223.69 215.903C225.439 221.645 228.336 224.519 228.336 228.552C228.336 232.585 226.768 243.803 226.768 243.803" stroke="#263238" stroke-linecap="round" stroke-linejoin="round"/>
<path d="M214.874 186.418L211.847 184.833" stroke="#263238" stroke-linecap="round" stroke-linejoin="round"/>
<path d="M214.34 184.078L215.113 181.896" stroke="#263238" stroke-linecap="round" stroke-linejoin="round"/>
<path d="M221.753 199.186C221.753 199.186 219.225 197.897 216.641 196.613" stroke="#263238" stroke-linecap="round" stroke-linejoin="round"/>
<path d="M220.032 195.886C220.777 193.546 221.757 191.287 222.957 189.144" stroke="#263238" stroke-linecap="round" stroke-linejoin="round"/>
<path d="M223.252 214.482C221.567 212.35 219.581 210.473 217.357 208.91" stroke="#263238" stroke-linecap="round" stroke-linejoin="round"/>
<path d="M224.116 216.891C224.52 215.177 225.065 213.499 225.746 211.875C226.717 209.723 226.882 209.439 226.882 209.439" stroke="#263238" stroke-linecap="round" stroke-linejoin="round"/>
<path d="M228.2 231.613C229.185 230.393 230.276 229.262 231.46 228.234C232.213 227.679 232.92 227.064 233.573 226.394" stroke="#263238" stroke-linecap="round" stroke-linejoin="round"/>
<path d="M228.336 228.552C227.524 227.243 226.615 225.997 225.615 224.826C224.631 223.751 223.559 222.759 222.412 221.861" stroke="#263238" stroke-linecap="round" stroke-linejoin="round"/>
<path d="M227.461 238.151C227.36 236.785 226.895 235.472 226.115 234.346C224.871 232.704 223.406 230.523 222.809 229.665" stroke="#263238" stroke-linecap="round" stroke-linejoin="round"/>
<path d="M52.6365 157.518L50.1487 150.412L52.6365 153.428L50.6826 142.767L53.7044 150.412L54.7722 135.479L56.55 149.696L58.504 146.856V150.412L60.8157 145.612L59.5718 153.962L61.7018 152.542L58.3279 157.16L52.6365 157.518Z" fill="#277568"/>
<path d="M60.4579 155.74H51.2166L52.8808 174.399H58.7937L60.4579 155.74Z" fill="#263238" stroke="#263238" stroke-linecap="round" stroke-linejoin="round"/>
<path d="M77.7933 174.188H46.309V240.872H77.7933V174.188Z" fill="white" stroke="#263238" stroke-linecap="round" stroke-linejoin="round"/>
<path d="M79.5143 174.188H62.0483V240.872H79.5143V174.188Z" fill="white" stroke="#263238" stroke-linecap="round" stroke-linejoin="round"/>
<path d="M77.549 174.188H62.0483V240.872H77.549V174.188Z" fill="#263238" stroke="#263238" stroke-linecap="round" stroke-linejoin="round"/>
<path d="M75.8052 225.365H62.0483V239.02H75.8052V225.365Z" fill="#277568" stroke="#263238" stroke-linecap="round" stroke-linejoin="round"/>
<path d="M75.8052 226.104H62.0483V227.853H75.8052V226.104Z" fill="white" stroke="#263238" stroke-linecap="round" stroke-linejoin="round"/>
<path d="M75.8052 236.157H62.0483V237.907H75.8052V236.157Z" fill="white" stroke="#263238" stroke-linecap="round" stroke-linejoin="round"/>
<path d="M64.6554 225.649V242.916" stroke="#263238" stroke-linecap="round" stroke-linejoin="round"/>
<path d="M69.455 225.649V242.916" stroke="#263238" stroke-linecap="round" stroke-linejoin="round"/>
<path d="M73.6696 225.649V242.916" stroke="#263238" stroke-linecap="round" stroke-linejoin="round"/>
<path d="M75.8052 176.665H62.0483V196.744H75.8052V176.665Z" fill="#277568" stroke="#263238" stroke-linecap="round" stroke-linejoin="round"/>
<path d="M75.8052 177.506H62.0483V179.494H75.8052V177.506Z" fill="white" stroke="#263238" stroke-linecap="round" stroke-linejoin="round"/>
<path d="M75.8052 190.376H62.0483V192.364H75.8052V190.376Z" fill="white" stroke="#263238" stroke-linecap="round" stroke-linejoin="round"/>
<path d="M64.6554 176.983V196.607" stroke="#263238" stroke-linecap="round" stroke-linejoin="round"/>
<path d="M69.455 176.983V196.607" stroke="#263238" stroke-linecap="round" stroke-linejoin="round"/>
<path d="M73.6696 176.983V196.607" stroke="#263238" stroke-linecap="round" stroke-linejoin="round"/>
<path d="M75.8052 200.862H62.0483V220.941H75.8052V200.862Z" fill="#277568" stroke="#263238" stroke-linecap="round" stroke-linejoin="round"/>
<path d="M75.8052 201.702H62.0483V203.69H75.8052V201.702Z" fill="white" stroke="#263238" stroke-linecap="round" stroke-linejoin="round"/>
<path d="M75.8052 214.573H62.0483V216.561H75.8052V214.573Z" fill="white" stroke="#263238" stroke-linecap="round" stroke-linejoin="round"/>
<path d="M64.6554 201.186V220.804" stroke="#263238" stroke-linecap="round" stroke-linejoin="round"/>
<path d="M69.455 201.186V220.804" stroke="#263238" stroke-linecap="round" stroke-linejoin="round"/>
<path d="M73.6696 201.186V220.804" stroke="#263238" stroke-linecap="round" stroke-linejoin="round"/>
<path d="M77.7876 196.465H62.0483V198.749H77.7876V196.465Z" fill="white" stroke="#263238" stroke-linecap="round" stroke-linejoin="round"/>
<path d="M77.7876 220.816H62.0483V223.099H77.7876V220.816Z" fill="white" stroke="#263238" stroke-linecap="round" stroke-linejoin="round"/>
<path d="M77.7876 174.188V240.866" stroke="#263238" stroke-linecap="round" stroke-linejoin="round"/>
<path d="M59.8274 174.189V240.866H62.0483V176.665H77.5149V174.16L59.8274 174.189Z" fill="white" stroke="#263238" stroke-linecap="round" stroke-linejoin="round"/>
<path d="M62.0483 176.665V174.188" stroke="#263238" stroke-linecap="round" stroke-linejoin="round"/>
<path d="M77.6684 143.556C76.0155 140.37 75.3225 138.086 75.3225 137.558C75.3225 136.513 77.5945 135.888 77.5945 135.888C81.1388 134.014 97.8096 136.723 105.313 137.973C109.513 138.705 113.762 139.123 118.025 139.222C118.025 139.222 119.064 138.393 120.297 137.348C121.529 136.303 127.38 129.43 129.674 128.828C131.969 128.226 134.048 129.663 134.048 129.663C134.048 129.663 137.803 131.935 137.172 132.372C136.542 132.81 127.38 140.705 125.085 142.165C122.79 143.624 118.002 143 113.833 143.835C110.243 144.55 95.7023 145.436 92.3682 145.709C89.8642 146.303 87.2362 146.084 84.8649 145.084" fill="white"/>
<mask id="mask0_1_2609" style="mask-type:luminance" maskUnits="userSpaceOnUse" x="75" y="128" width="63" height="19">
<path d="M77.6684 143.556C76.0155 140.37 75.3225 138.086 75.3225 137.558C75.3225 136.513 77.5945 135.888 77.5945 135.888C81.1388 134.014 97.8096 136.723 105.313 137.973C109.513 138.705 113.762 139.123 118.025 139.222C118.025 139.222 119.064 138.393 120.297 137.348C121.529 136.303 127.38 129.43 129.674 128.828C131.969 128.226 134.048 129.663 134.048 129.663C134.048 129.663 137.803 131.935 137.172 132.372C136.542 132.81 127.38 140.705 125.085 142.165C122.79 143.624 118.002 143 113.833 143.835C110.243 144.55 95.7023 145.436 92.3682 145.709C89.8642 146.303 87.2362 146.084 84.8649 145.084" fill="white"/>
</mask>
<g mask="url(#mask0_1_2609)">
<path d="M134.088 129.64C134.088 129.64 132.003 128.181 129.714 128.805C127.425 129.43 121.586 136.309 120.336 137.325C119.087 138.342 118.064 139.2 118.064 139.2C113.802 139.1 109.553 138.682 105.353 137.95C97.8494 136.701 81.1786 133.974 77.6342 135.866C77.6342 135.866 75.3622 136.49 75.3622 137.536C75.4412 138.12 75.5919 138.692 75.811 139.24L76.1234 139.353C76.1234 139.353 80.2868 138.916 89.2726 139.132C98.2583 139.347 119.041 140.58 120.376 141.063C120.944 141.279 124.971 140.37 129.436 138.791C132.844 136.013 136.848 132.543 137.252 132.299C137.842 131.929 134.088 129.64 134.088 129.64Z" fill="#277568"/>
<path opacity="0.5" d="M134.088 129.64C134.088 129.64 132.003 128.181 129.714 128.805C127.425 129.43 121.586 136.309 120.336 137.325C119.087 138.342 118.064 139.2 118.064 139.2C113.802 139.1 109.553 138.682 105.353 137.95C97.8494 136.701 81.1786 133.974 77.6342 135.866C77.6342 135.866 75.3622 136.49 75.3622 137.536C75.4412 138.12 75.5919 138.692 75.811 139.24L76.1234 139.353C76.1234 139.353 80.2868 138.916 89.2726 139.132C98.2583 139.347 119.041 140.58 120.376 141.063C120.944 141.279 124.971 140.37 129.436 138.791C132.844 136.013 136.848 132.543 137.252 132.299C137.842 131.929 134.088 129.64 134.088 129.64Z" fill="white"/>
</g>
<path d="M77.6684 143.556C76.0155 140.37 75.3225 138.086 75.3225 137.558C75.3225 136.513 77.5945 135.888 77.5945 135.888C81.1388 134.014 97.8096 136.723 105.313 137.973C109.513 138.705 113.762 139.123 118.025 139.222C118.025 139.222 119.064 138.393 120.297 137.348C121.529 136.303 127.38 129.43 129.674 128.828C131.969 128.226 134.048 129.663 134.048 129.663C134.048 129.663 137.803 131.935 137.172 132.372C136.542 132.81 127.38 140.705 125.085 142.165C122.79 143.624 118.002 143 113.833 143.835C110.243 144.55 95.7023 145.436 92.3682 145.709C89.8642 146.303 87.2362 146.084 84.8649 145.084" stroke="#263238" stroke-linecap="round" stroke-linejoin="round"/>
<path d="M159.977 162.084C160.354 161.369 160.92 160.77 161.612 160.352C162.305 159.935 163.099 159.715 163.908 159.716H201.793C201.793 159.716 204.531 159.716 203.713 164.919C202.895 170.122 191.66 201.89 188.945 211.495C186.23 221.1 185.656 241.343 185.656 241.343H140.216C140.216 241.343 143.818 192.932 159.977 162.084Z" fill="white"/>
<mask id="mask1_1_2609" style="mask-type:luminance" maskUnits="userSpaceOnUse" x="140" y="159" width="64" height="83">
<path d="M159.977 162.084C160.354 161.369 160.92 160.77 161.612 160.352C162.305 159.935 163.099 159.715 163.908 159.716H201.793C201.793 159.716 204.531 159.716 203.713 164.919C202.895 170.122 191.66 201.89 188.945 211.495C186.23 221.1 185.656 241.343 185.656 241.343H140.216C140.216 241.343 143.818 192.932 159.977 162.084Z" fill="white"/>
</mask>
<g mask="url(#mask1_1_2609)">
<path opacity="0.16" d="M177.04 159.716H163.908C163.099 159.715 162.305 159.935 161.612 160.352C160.92 160.77 160.354 161.369 159.977 162.084C143.818 192.932 140.177 241.326 140.177 241.326H160.557L165.583 222.236L186.543 226.558C186.69 224.956 186.861 223.326 187.059 221.719L186.599 216.607C186.599 216.607 182.305 212.091 180.953 210.961C179.602 209.83 180.499 207.791 180.272 198.982C180.045 190.172 172.138 183.839 169.196 178.414C166.254 172.99 170.781 169.599 174.847 164.175C176.296 162.215 176.887 160.772 177.04 159.716Z" fill="black"/>
</g>
<path d="M159.977 162.084C160.354 161.369 160.92 160.77 161.612 160.352C162.305 159.935 163.099 159.715 163.908 159.716H201.793C201.793 159.716 204.531 159.716 203.713 164.919C202.895 170.122 191.66 201.89 188.945 211.495C186.23 221.1 185.656 241.343 185.656 241.343H140.216C140.216 241.343 143.818 192.932 159.977 162.084Z" stroke="#263238" stroke-linecap="round" stroke-linejoin="round"/>
<path d="M195.222 168.753C191.393 177.687 183.294 213.057 181.976 241.326H185.634C185.634 241.326 186.202 221.06 188.922 211.478C191.643 201.895 202.89 170.122 203.69 164.902C204.491 159.682 201.771 159.699 201.771 159.699C201.771 159.699 198.294 161.59 195.222 168.753Z" fill="#263238" stroke="#263238" stroke-linecap="round" stroke-linejoin="round"/>
<path d="M128.669 150.895C128.669 150.895 122.626 147.35 120.337 141.102C118.047 134.854 138.257 124.846 147.033 124.222C155.808 123.597 158.285 125.886 163.505 134.849C168.724 143.812 172.257 156.103 169.548 162.147C166.839 168.19 162.255 169.65 165.572 174.643C168.889 179.636 178.284 193.813 177.659 200.481C177.034 207.15 170.576 212.977 161.187 213.613C151.798 214.25 139.302 208.609 128.885 199.413C118.468 190.217 121.171 176.693 124.909 172.32C128.646 167.946 134.287 166.276 134.701 161.903C135.116 157.529 128.669 150.895 128.669 150.895Z" fill="#263238" stroke="#263238" stroke-linecap="round" stroke-linejoin="round"/>
<path d="M154.428 141.006C157.637 146.981 161.653 154.984 162.908 159.818C165.101 168.281 153.82 173.609 156.95 177.682" stroke="white" stroke-linecap="round" stroke-linejoin="round"/>
<path d="M150.054 133.179C150.054 133.179 151.304 135.309 153.031 138.444" stroke="white" stroke-linecap="round" stroke-linejoin="round"/>
<path d="M166.89 148.214C167.26 149.334 167.5 150.493 167.605 151.667" stroke="white" stroke-linecap="round" stroke-linejoin="round"/>
<path d="M152.224 130.072C152.224 130.072 162.096 137.365 166.038 146.095" stroke="white" stroke-linecap="round" stroke-linejoin="round"/>
<path d="M138.524 135.542C131.475 137.518 121.336 140.728 122.16 142.579" stroke="white" stroke-linecap="round" stroke-linejoin="round"/>
<path d="M145.039 133.804C145.039 133.804 143.534 134.179 141.29 134.781" stroke="white" stroke-linecap="round" stroke-linejoin="round"/>
<path d="M136.32 130.123C140.358 128.85 144.587 128.293 148.816 128.476" stroke="white" stroke-linecap="round" stroke-linejoin="round"/>
<path d="M133.446 131.299C134.084 130.966 134.745 130.678 135.423 130.436" stroke="white" stroke-linecap="round" stroke-linejoin="round"/>
<path d="M77.6683 143.556C76.7117 141.804 75.9498 139.953 75.3963 138.035C75.9471 139.954 76.7091 141.806 77.6683 143.556ZM75.3339 137.711C75.3339 137.746 75.3339 137.785 75.3339 137.836C75.3452 137.785 75.3395 137.746 75.3339 137.711ZM77.6683 143.551C79.7926 147.574 82.4356 151.302 85.5295 154.638C93.0327 162.766 114.708 184.026 116.769 185.486C118.831 186.946 118.229 191.109 116.769 195.278C115.31 199.447 109.891 205.502 110.101 212.159C110.311 218.816 112.373 229.04 112.186 231.125C111.998 233.209 106.784 240.298 106.784 240.298H160.551C160.551 240.298 153.848 231.778 153.848 228.864C153.848 225.95 163.05 188.616 163.465 185.906C163.879 183.197 162.215 181.323 158.881 181.112C155.547 180.902 142.835 178.193 142.21 176.108C141.585 174.024 145.544 166.106 145.544 166.106L133.048 166.731C133.048 166.731 132.424 172.149 131.589 173.194C130.754 174.24 129.504 172.149 126.584 170.695C123.665 169.241 118.064 167.986 115.957 166.316C113.85 164.646 93.8677 145.868 93.8677 145.868" fill="white"/>
<mask id="mask2_1_2609" style="mask-type:luminance" maskUnits="userSpaceOnUse" x="75" y="137" width="89" height="104">
<path d="M77.6683 143.556C76.7117 141.804 75.9498 139.953 75.3963 138.035C75.9471 139.954 76.7091 141.806 77.6683 143.556ZM75.3339 137.711C75.3339 137.746 75.3339 137.785 75.3339 137.836C75.3452 137.785 75.3395 137.746 75.3339 137.711ZM77.6683 143.551C79.7926 147.574 82.4356 151.302 85.5295 154.638C93.0327 162.766 114.708 184.026 116.769 185.486C118.831 186.946 118.229 191.109 116.769 195.278C115.31 199.447 109.891 205.502 110.101 212.159C110.311 218.816 112.373 229.04 112.186 231.125C111.998 233.209 106.784 240.298 106.784 240.298H160.551C160.551 240.298 153.848 231.778 153.848 228.864C153.848 225.95 163.05 188.616 163.465 185.906C163.879 183.197 162.215 181.323 158.881 181.112C155.547 180.902 142.835 178.193 142.21 176.108C141.585 174.024 145.544 166.106 145.544 166.106L133.048 166.731C133.048 166.731 132.424 172.149 131.589 173.194C130.754 174.24 129.504 172.149 126.584 170.695C123.665 169.241 118.064 167.986 115.957 166.316C113.85 164.646 93.8677 145.868 93.8677 145.868" fill="white"/>
</mask>
<g mask="url(#mask2_1_2609)">
<path d="M119.149 167.923C120.189 169.741 121.228 171.382 121.228 171.382C121.228 171.382 124.733 173.353 125.608 173.353C126.482 173.353 131.742 176.193 131.742 176.193C131.742 176.193 136.127 175.097 134.582 171.371C134.095 170.417 133.479 169.534 132.753 168.747C132.492 170.4 132.071 172.564 131.577 173.183C130.742 174.222 129.493 172.138 126.573 170.684C124.682 169.741 121.62 168.878 119.149 167.923Z" fill="#277568"/>
<path d="M108.448 159.489C102.013 153.53 93.8677 145.891 93.8677 145.891L89.1306 145.209L88.5626 145.527C88.5626 145.527 101.933 157.358 104.779 158.676C105.93 159.205 107.181 159.482 108.448 159.489Z" fill="#277568"/>
<path d="M115.19 165.657L114.679 165.203C114.94 165.634 115.088 165.907 115.088 165.907L115.19 165.657Z" fill="#277568"/>
<g opacity="0.5">
<path d="M119.149 167.923C120.189 169.741 121.228 171.382 121.228 171.382C121.228 171.382 124.733 173.353 125.608 173.353C126.482 173.353 131.742 176.193 131.742 176.193C131.742 176.193 136.127 175.097 134.582 171.371C134.095 170.417 133.479 169.534 132.753 168.747C132.492 170.4 132.071 172.564 131.577 173.183C130.742 174.222 129.493 172.138 126.573 170.684C124.682 169.741 121.62 168.878 119.149 167.923Z" fill="white"/>
<path d="M108.448 159.489C102.013 153.53 93.8677 145.891 93.8677 145.891L89.1306 145.209L88.5626 145.527C88.5626 145.527 101.933 157.358 104.779 158.676C105.93 159.205 107.181 159.482 108.448 159.489Z" fill="white"/>
<path d="M115.19 165.657L114.679 165.203C114.94 165.634 115.088 165.907 115.088 165.907L115.19 165.657Z" fill="white"/>
</g>
</g>
<path d="M75.3225 137.558C75.3199 137.598 75.3199 137.638 75.3225 137.677M75.3963 138.035C75.9498 139.953 76.7117 141.804 77.6683 143.556C76.7091 141.806 75.9471 139.954 75.3963 138.035ZM75.3963 138.035C75.3807 137.981 75.3693 137.926 75.3622 137.871M77.6683 143.551C79.7926 147.574 82.4356 151.302 85.5295 154.638C93.0327 162.766 114.708 184.026 116.769 185.486C118.831 186.946 118.229 191.109 116.769 195.278C115.31 199.447 109.891 205.502 110.101 212.159C110.311 218.816 112.373 229.04 112.186 231.125C111.998 233.209 106.784 240.298 106.784 240.298H160.551C160.551 240.298 153.848 231.778 153.848 228.864C153.848 225.95 163.05 188.616 163.465 185.906C163.879 183.197 162.215 181.323 158.881 181.112C155.547 180.902 142.835 178.193 142.21 176.108C141.585 174.024 145.544 166.106 145.544 166.106L133.048 166.731C133.048 166.731 132.424 172.149 131.589 173.194C130.754 174.24 129.504 172.149 126.584 170.695C123.665 169.241 118.064 167.986 115.957 166.316C113.85 164.646 93.8677 145.868 93.8677 145.868M75.3339 137.711C75.3339 137.746 75.3339 137.785 75.3339 137.836C75.3452 137.785 75.3395 137.746 75.3339 137.711Z" stroke="#263238" stroke-linecap="round" stroke-linejoin="round"/>
<path d="M93.8677 145.891C93.8677 145.891 87.2108 146.016 83.496 142.954" stroke="#263238" stroke-linecap="round" stroke-linejoin="round"/>
<path d="M142.216 176.108C141.591 174.03 145.55 166.106 145.55 166.106L133.054 166.731C133.054 166.731 132.429 172.149 131.594 173.195C130.759 174.24 129.51 172.149 126.59 170.695C126.369 170.582 126.124 170.474 125.874 170.366L125.119 182.243C125.119 182.243 126.215 193.745 139.359 191.558C144.681 190.672 150.361 185.923 155.263 180.584C150.219 179.658 142.693 177.705 142.216 176.108Z" fill="white"/>
<mask id="mask3_1_2609" style="mask-type:luminance" maskUnits="userSpaceOnUse" x="125" y="166" width="31" height="26">
<path d="M142.216 176.108C141.591 174.03 145.55 166.106 145.55 166.106L133.054 166.731C133.054 166.731 132.429 172.149 131.594 173.195C130.759 174.24 129.51 172.149 126.59 170.695C126.369 170.582 126.124 170.474 125.874 170.366L125.119 182.243C125.119 182.243 126.215 193.745 139.359 191.558C144.681 190.672 150.361 185.923 155.263 180.584C150.219 179.658 142.693 177.705 142.216 176.108Z" fill="white"/>
</mask>
<g mask="url(#mask3_1_2609)">
<path d="M141.864 167.679C141.864 167.679 141.108 171.917 140.5 176.603C139.893 181.289 139.444 184.776 139.444 184.776L142.216 176.108L145.34 166.924C145.34 166.924 142.318 166.924 141.864 167.679Z" fill="#277568"/>
<path opacity="0.5" d="M141.864 167.679C141.864 167.679 141.108 171.917 140.5 176.603C139.893 181.289 139.444 184.776 139.444 184.776L142.216 176.108L145.34 166.924C145.34 166.924 142.318 166.924 141.864 167.679Z" fill="white"/>
</g>
<path d="M142.216 176.108C141.591 174.03 145.55 166.106 145.55 166.106L133.054 166.731C133.054 166.731 132.429 172.149 131.594 173.195C130.759 174.24 129.51 172.149 126.59 170.695C126.369 170.582 126.124 170.474 125.874 170.366L125.119 182.243C125.119 182.243 126.215 193.745 139.359 191.558C144.681 190.672 150.361 185.923 155.263 180.584C150.219 179.658 142.693 177.705 142.216 176.108Z" stroke="#263238" stroke-linecap="round" stroke-linejoin="round"/>
<path d="M131.589 173.194C130.754 174.234 129.504 172.149 126.584 170.695C124.744 169.769 121.813 168.929 119.388 168.02C118.701 166.39 117.792 164.265 117.207 162.982C116.167 160.71 114.497 162.147 114.497 162.147C113.626 161.156 112.922 160.03 112.413 158.813C111.373 156.541 109.704 156.728 107.414 156.313C105.125 155.899 100.326 151.52 100.326 151.52C100.326 151.52 98.0823 149.816 97.1564 148.969C96.0772 151.094 93.4928 154.831 87.9037 157.165C96.8156 166.475 114.895 184.163 116.792 185.492C118.877 186.946 118.252 191.115 116.792 195.284C115.332 199.453 109.914 205.508 110.124 212.165C110.334 218.822 112.396 229.046 112.208 231.13C112.021 232.988 107.863 238.81 106.96 240.059L109.079 240.298H120.109C120.047 234.709 120.052 211.898 123.875 202.81C128.254 192.364 131.589 173.194 131.589 173.194Z" fill="#277568"/>
<mask id="mask4_1_2609" style="mask-type:luminance" maskUnits="userSpaceOnUse" x="87" y="148" width="45" height="93">
<path d="M131.589 173.194C130.754 174.234 129.504 172.149 126.584 170.695C124.744 169.769 121.813 168.929 119.388 168.02C118.701 166.39 117.792 164.265 117.207 162.982C116.167 160.71 114.497 162.147 114.497 162.147C113.626 161.156 112.922 160.03 112.413 158.813C111.373 156.541 109.704 156.728 107.414 156.313C105.125 155.899 100.326 151.52 100.326 151.52C100.326 151.52 98.0823 149.816 97.1564 148.969C96.0772 151.094 93.4928 154.831 87.9037 157.165C96.8156 166.475 114.895 184.163 116.792 185.492C118.877 186.946 118.252 191.115 116.792 195.284C115.332 199.453 109.914 205.508 110.124 212.165C110.334 218.822 112.396 229.046 112.208 231.13C112.021 232.988 107.863 238.81 106.96 240.059L109.079 240.298H120.109C120.047 234.709 120.052 211.898 123.875 202.81C128.254 192.364 131.589 173.194 131.589 173.194Z" fill="white"/>
</mask>
<g mask="url(#mask4_1_2609)">
<path opacity="0.16" d="M126.584 170.695C124.744 169.769 121.813 168.929 119.388 168.02C118.701 166.39 117.792 164.265 117.207 162.982C116.167 160.71 114.497 162.147 114.497 162.147C113.626 161.156 112.922 160.03 112.413 158.813C111.373 156.541 109.704 156.728 107.414 156.313C105.125 155.899 100.326 151.52 100.326 151.52C100.326 151.52 98.0823 149.816 97.1564 148.969C96.6944 149.871 96.1446 150.726 95.5149 151.52C99.241 154.672 103.353 158.012 104.79 158.676C107.63 159.988 108.295 158.892 110.47 160.21C112.646 161.528 115.071 165.89 115.071 165.89C115.071 165.89 116.389 162.38 117.485 164.794C118.581 167.208 121.211 171.365 121.211 171.365C121.211 171.365 124.716 173.336 125.59 173.336C126.278 173.336 129.646 175.086 131.077 175.841C131.395 174.177 131.572 173.177 131.572 173.177C130.754 174.234 129.504 172.149 126.584 170.695Z" fill="black"/>
</g>
<path d="M131.589 173.194C130.754 174.234 129.504 172.149 126.584 170.695C124.744 169.769 121.813 168.929 119.388 168.02C118.701 166.39 117.792 164.265 117.207 162.982C116.167 160.71 114.497 162.147 114.497 162.147C113.626 161.156 112.922 160.03 112.413 158.813C111.373 156.541 109.704 156.728 107.414 156.313C105.125 155.899 100.326 151.52 100.326 151.52C100.326 151.52 98.0823 149.816 97.1564 148.969C96.0772 151.094 93.4928 154.831 87.9037 157.165C96.8156 166.475 114.895 184.163 116.792 185.492C118.877 186.946 118.252 191.115 116.792 195.284C115.332 199.453 109.914 205.508 110.124 212.165C110.334 218.822 112.396 229.046 112.208 231.13C112.021 232.988 107.863 238.81 106.96 240.059L109.079 240.298H120.109C120.047 234.709 120.052 211.898 123.875 202.81C128.254 192.364 131.589 173.194 131.589 173.194Z" stroke="#263238" stroke-linecap="round" stroke-linejoin="round"/>
<path d="M131.736 172.468C131.736 172.468 129.146 171.672 127.55 173.07C125.954 174.467 123.574 181.635 122.171 189.411C121.306 193.938 121.903 198.622 123.875 202.787C123.875 202.787 127.153 194.194 128.147 190.007C129.141 185.821 131.736 172.468 131.736 172.468Z" fill="#277568"/>
<mask id="mask5_1_2609" style="mask-type:luminance" maskUnits="userSpaceOnUse" x="121" y="172" width="11" height="31">
<path d="M131.736 172.468C131.736 172.468 129.146 171.672 127.55 173.07C125.954 174.467 123.574 181.635 122.171 189.411C121.306 193.938 121.903 198.622 123.875 202.787C123.875 202.787 127.153 194.194 128.147 190.007C129.141 185.821 131.736 172.468 131.736 172.468Z" fill="white"/>
</mask>
<g mask="url(#mask5_1_2609)">
<path opacity="0.16" d="M126.766 173.734C126.766 173.734 128.641 173.28 129.413 173.541C130.064 173.82 130.672 174.189 131.219 174.637L131.736 172.467C130.961 172.071 130.081 171.926 129.22 172.053C127.931 172.314 126.766 173.734 126.766 173.734Z" fill="black"/>
</g>
<path d="M131.736 172.468C131.736 172.468 129.146 171.672 127.55 173.07C125.954 174.467 123.574 181.635 122.171 189.411C121.306 193.938 121.903 198.622 123.875 202.787C123.875 202.787 127.153 194.194 128.147 190.007C129.141 185.821 131.736 172.468 131.736 172.468Z" stroke="#263238" stroke-linecap="round" stroke-linejoin="round"/>
<path d="M114.293 173.149L117.627 186.696L110.124 169.605" stroke="#263238" stroke-linecap="round" stroke-linejoin="round"/>
<path d="M136.258 240.298H160.557C160.557 240.298 153.854 231.778 153.854 228.864C153.854 225.95 163.056 188.616 163.47 185.906C163.885 183.197 162.221 181.323 158.887 181.112C155.553 180.902 142.841 178.193 142.216 176.108C142.216 176.108 137.422 192.989 135.758 204.452C134.326 214.284 135.809 234.686 136.258 240.298Z" fill="#277568"/>
<mask id="mask6_1_2609" style="mask-type:luminance" maskUnits="userSpaceOnUse" x="135" y="176" width="29" height="65">
<path d="M136.258 240.298H160.557C160.557 240.298 153.854 231.778 153.854 228.864C153.854 225.95 163.056 188.616 163.47 185.906C163.885 183.197 162.221 181.323 158.887 181.112C155.553 180.902 142.841 178.193 142.216 176.108C142.216 176.108 137.422 192.989 135.758 204.452C134.326 214.284 135.809 234.686 136.258 240.298Z" fill="white"/>
</mask>
<g mask="url(#mask6_1_2609)">
<path opacity="0.16" d="M158.887 181.112C156.155 180.942 147.129 179.09 143.613 177.284L144.891 180.238C147.207 181.466 149.697 182.332 152.275 182.805C156.507 183.561 160.443 183.413 163.016 187.196L163.141 187.383C163.3 186.656 163.408 186.145 163.442 185.906C163.891 183.197 162.221 181.323 158.887 181.112Z" fill="black"/>
</g>
<path d="M136.258 240.298H160.557C160.557 240.298 153.854 231.778 153.854 228.864C153.854 225.95 163.056 188.616 163.47 185.906C163.885 183.197 162.221 181.323 158.887 181.112C155.553 180.902 142.841 178.193 142.216 176.108C142.216 176.108 137.422 192.989 135.758 204.452C134.326 214.284 135.809 234.686 136.258 240.298Z" stroke="#263238" stroke-linecap="round" stroke-linejoin="round"/>
<path d="M142.216 176.108C142.216 176.108 135.786 196.556 135.758 204.452C135.758 204.452 144.891 193.393 146.084 185.622C147.277 177.852 142.216 176.108 142.216 176.108Z" fill="#277568"/>
<mask id="mask7_1_2609" style="mask-type:luminance" maskUnits="userSpaceOnUse" x="135" y="176" width="12" height="29">
<path d="M142.216 176.108C142.216 176.108 135.786 196.556 135.758 204.452C135.758 204.452 144.891 193.393 146.084 185.622C147.277 177.852 142.216 176.108 142.216 176.108Z" fill="white"/>
</mask>
<g mask="url(#mask7_1_2609)">
<path opacity="0.16" d="M141.108 178.721C142.074 178.689 143.034 178.892 143.904 179.314C144.774 179.735 145.528 180.362 146.101 181.141C146.101 181.141 144.84 177.432 142.216 176.108L141.108 178.721Z" fill="black"/>
</g>
<path d="M142.216 176.108C142.216 176.108 135.786 196.556 135.758 204.452C135.758 204.452 144.891 193.393 146.084 185.622C147.277 177.852 142.216 176.108 142.216 176.108Z" stroke="#263238" stroke-linecap="round" stroke-linejoin="round"/>
<path d="M210.859 236.453C210.859 236.453 215.567 236.646 218.652 237.089C220.708 237.368 222.779 237.533 224.854 237.583C224.854 237.583 223.15 234.141 221.333 233.17C219.515 232.198 216.221 230.46 213.46 230.847C210.7 231.233 206.752 234.016 207.081 234.902C207.411 235.788 208.882 236.186 210.859 236.453Z" fill="white"/>
<mask id="mask8_1_2609" style="mask-type:luminance" maskUnits="userSpaceOnUse" x="207" y="230" width="18" height="8">
<path d="M210.859 236.453C210.859 236.453 215.567 236.646 218.652 237.089C220.708 237.368 222.779 237.533 224.854 237.583C224.854 237.583 223.15 234.141 221.333 233.17C219.515 232.198 216.221 230.46 213.46 230.847C210.7 231.233 206.752 234.016 207.081 234.902C207.411 235.788 208.882 236.186 210.859 236.453Z" fill="white"/>
</mask>
<g mask="url(#mask8_1_2609)">
<path d="M210.859 236.453C210.859 236.453 215.567 236.646 218.652 237.089C220.708 237.368 222.779 237.533 224.854 237.583C224.854 237.583 223.15 234.141 221.333 233.17C219.515 232.198 216.221 230.46 213.46 230.847C210.7 231.233 206.752 234.016 207.081 234.902C207.411 235.788 208.882 236.186 210.859 236.453Z" fill="#277568"/>
<path opacity="0.5" d="M210.859 236.453C210.859 236.453 215.567 236.646 218.652 237.089C220.708 237.368 222.779 237.533 224.854 237.583C224.854 237.583 223.15 234.141 221.333 233.17C219.515 232.198 216.221 230.46 213.46 230.847C210.7 231.233 206.752 234.016 207.081 234.902C207.411 235.788 208.882 236.186 210.859 236.453Z" fill="white"/>
</g>
<path d="M210.859 236.453C210.859 236.453 215.567 236.646 218.652 237.089C220.708 237.368 222.779 237.533 224.854 237.583C224.854 237.583 223.15 234.141 221.333 233.17C219.515 232.198 216.221 230.46 213.46 230.847C210.7 231.233 206.752 234.016 207.081 234.902C207.411 235.788 208.882 236.186 210.859 236.453Z" stroke="#263238" stroke-linecap="round" stroke-linejoin="round"/>
<path d="M218.68 235.044C218.68 235.044 222.412 233.107 223.343 233.136C224.275 233.164 230.466 237.35 230.159 238.02C229.951 238.331 229.65 238.569 229.3 238.699C228.949 238.83 228.566 238.846 228.205 238.747C227.518 238.424 223.349 236.651 223.349 236.651L220.623 237.293L218.68 235.044Z" fill="white"/>
<mask id="mask9_1_2609" style="mask-type:luminance" maskUnits="userSpaceOnUse" x="218" y="233" width="13" height="6">
<path d="M218.68 235.044C218.68 235.044 222.412 233.107 223.343 233.136C224.275 233.164 230.466 237.35 230.159 238.02C229.951 238.331 229.65 238.569 229.3 238.699C228.949 238.83 228.566 238.846 228.205 238.747C227.518 238.424 223.349 236.651 223.349 236.651L220.623 237.293L218.68 235.044Z" fill="white"/>
</mask>
<g mask="url(#mask9_1_2609)">
<path d="M218.68 235.044C218.68 235.044 222.412 233.107 223.343 233.136C224.275 233.164 230.466 237.35 230.159 238.02C229.853 238.691 228.387 239.236 228.205 238.747C228.024 238.259 223.349 236.651 223.349 236.651L220.623 237.293L218.68 235.044Z" fill="#277568"/>
<path opacity="0.5" d="M218.68 235.044C218.68 235.044 222.412 233.107 223.343 233.136C224.275 233.164 230.466 237.35 230.159 238.02C229.853 238.691 228.387 239.236 228.205 238.747C228.024 238.259 223.349 236.651 223.349 236.651L220.623 237.293L218.68 235.044Z" fill="white"/>
</g>
<path d="M218.68 235.044C218.68 235.044 222.412 233.107 223.343 233.136C224.275 233.164 230.466 237.35 230.159 238.02C229.951 238.331 229.65 238.569 229.3 238.699C228.949 238.83 228.566 238.846 228.205 238.747C227.518 238.424 223.349 236.651 223.349 236.651L220.623 237.293L218.68 235.044Z" stroke="#263238" stroke-linecap="round" stroke-linejoin="round"/>
<path d="M216.016 231.858C216.016 231.858 220.992 231.698 221.98 232.198C222.968 232.698 227.433 240.355 226.763 240.911C226.092 241.468 224.241 241.303 224.298 240.684C224.354 240.065 220.185 235.964 220.185 235.964L216.942 235.254L216.016 231.858Z" fill="white"/>
<mask id="mask10_1_2609" style="mask-type:luminance" maskUnits="userSpaceOnUse" x="216" y="231" width="11" height="11">
<path d="M216.016 231.858C216.016 231.858 220.992 231.698 221.98 232.198C222.968 232.698 227.433 240.355 226.763 240.911C226.092 241.468 224.241 241.303 224.298 240.684C224.354 240.065 220.185 235.964 220.185 235.964L216.942 235.254L216.016 231.858Z" fill="white"/>
</mask>
<g mask="url(#mask10_1_2609)">
<path d="M216.016 231.858C216.016 231.858 220.992 231.698 221.98 232.198C222.968 232.698 227.433 240.355 226.763 240.911C226.092 241.468 224.241 241.303 224.298 240.684C224.354 240.065 220.185 235.964 220.185 235.964L216.942 235.254L216.016 231.858Z" fill="#277568"/>
<path opacity="0.5" d="M216.016 231.858C216.016 231.858 220.992 231.698 221.98 232.198C222.968 232.698 227.433 240.355 226.763 240.911C226.092 241.468 224.241 241.303 224.298 240.684C224.354 240.065 220.185 235.964 220.185 235.964L216.942 235.254L216.016 231.858Z" fill="white"/>
</g>
<path d="M216.016 231.858C216.016 231.858 220.992 231.698 221.98 232.198C222.968 232.698 227.433 240.355 226.763 240.911C226.092 241.468 224.241 241.303 224.298 240.684C224.354 240.065 220.185 235.964 220.185 235.964L216.942 235.254L216.016 231.858Z" stroke="#263238" stroke-linecap="round" stroke-linejoin="round"/>
<path d="M213.068 230.829C213.068 230.829 218.106 230.665 219.106 231.176C220.106 231.687 224.627 239.429 223.945 239.997C223.264 240.565 221.401 240.389 221.458 239.764C221.514 239.139 217.294 234.987 217.294 234.987L214.011 234.266L213.068 230.829Z" fill="white"/>
<mask id="mask11_1_2609" style="mask-type:luminance" maskUnits="userSpaceOnUse" x="213" y="230" width="12" height="11">
<path d="M213.068 230.829C213.068 230.829 218.106 230.665 219.106 231.176C220.106 231.687 224.627 239.429 223.945 239.997C223.264 240.565 221.401 240.389 221.458 239.764C221.514 239.139 217.294 234.987 217.294 234.987L214.011 234.266L213.068 230.829Z" fill="white"/>
</mask>
<g mask="url(#mask11_1_2609)">
<path d="M213.068 230.829C213.068 230.829 218.106 230.665 219.106 231.176C220.106 231.687 224.627 239.429 223.945 239.997C223.264 240.565 221.401 240.389 221.458 239.764C221.514 239.139 217.294 234.987 217.294 234.987L214.011 234.266L213.068 230.829Z" fill="#277568"/>
<path opacity="0.5" d="M213.068 230.829C213.068 230.829 218.106 230.665 219.106 231.176C220.106 231.687 224.627 239.429 223.945 239.997C223.264 240.565 221.401 240.389 221.458 239.764C221.514 239.139 217.294 234.987 217.294 234.987L214.011 234.266L213.068 230.829Z" fill="white"/>
</g>
<path d="M213.068 230.829C213.068 230.829 218.106 230.665 219.106 231.176C220.106 231.687 224.627 239.429 223.945 239.997C223.264 240.565 221.401 240.389 221.458 239.764C221.514 239.139 217.294 234.987 217.294 234.987L214.011 234.266L213.068 230.829Z" stroke="#263238" stroke-linecap="round" stroke-linejoin="round"/>
<path d="M155.785 201.964C159.432 207.581 166.753 221.815 168.889 223.417C172.223 225.916 194.512 231.983 196.659 233.641C198.806 235.3 198.658 236.964 200.691 237.572C202.725 238.179 210.347 239.923 213.256 240.196C216.164 240.468 214.863 238.668 214.863 238.668L209.904 235.26L214.227 234.192C214.227 234.192 218.561 239.406 219.373 239.69C220.185 239.974 221.617 239.69 221.526 239.048C221.367 238.02 216.743 229.608 215.102 229.25C213.46 228.893 203.497 230.273 203.497 230.273C203.497 230.273 182.601 216.181 182.226 215.681C182.226 215.681 180.976 212.137 179.954 210.677C178.931 209.217 178.284 209.637 178.284 209.637C178.284 209.637 178.704 207.757 178.079 207.133L174.745 203.798L174.626 203.957C174.058 202.821 173.49 201.526 172.865 200.05C171.121 195.943 164.947 184.418 163.908 182.754C163.13 181.51 156.609 180.618 153.303 180.243" fill="#277568"/>
<mask id="mask12_1_2609" style="mask-type:luminance" maskUnits="userSpaceOnUse" x="153" y="180" width="69" height="61">
<path d="M155.785 201.964C159.432 207.581 166.753 221.815 168.889 223.417C172.223 225.916 194.512 231.983 196.659 233.641C198.806 235.3 198.658 236.964 200.691 237.572C202.725 238.179 210.347 239.923 213.256 240.196C216.164 240.468 214.863 238.668 214.863 238.668L209.904 235.26L214.227 234.192C214.227 234.192 218.561 239.406 219.373 239.69C220.185 239.974 221.617 239.69 221.526 239.048C221.367 238.02 216.743 229.608 215.102 229.25C213.46 228.893 203.497 230.273 203.497 230.273C203.497 230.273 182.601 216.181 182.226 215.681C182.226 215.681 180.976 212.137 179.954 210.677C178.931 209.217 178.284 209.637 178.284 209.637C178.284 209.637 178.704 207.757 178.079 207.133L174.745 203.798L174.626 203.957C174.058 202.821 173.49 201.526 172.865 200.05C171.121 195.943 164.947 184.418 163.908 182.754C163.13 181.51 156.609 180.618 153.303 180.243" fill="white"/>
</mask>
<g mask="url(#mask12_1_2609)">
<path opacity="0.16" d="M170.303 202.322C173.03 204.742 172.121 204.742 171.513 206.866C170.905 208.99 171.968 206.11 174.541 206.264C177.114 206.417 176.358 209.74 176.052 210.348C175.745 210.955 179.232 211.711 178.625 213.068C178.017 214.426 174.541 216.397 172.575 218.368C170.61 220.339 177.716 215.187 180.135 215.039C180.874 214.988 181.482 215.085 181.993 215.074C181.457 213.554 180.768 212.092 179.937 210.711C178.892 209.252 178.267 209.672 178.267 209.672C178.267 209.672 178.687 207.792 178.062 207.167L174.728 203.833L174.609 203.992C174.041 202.856 173.473 201.561 172.848 200.084C171.104 195.977 164.93 184.453 163.891 182.788C163.112 181.544 156.592 180.653 153.286 180.278L153.587 182.908L153.661 182.964C153.661 182.964 157.745 183.72 159.108 183.873C160.471 184.027 162.136 185.231 161.982 186.145C161.829 187.06 157.898 191.138 159.108 191.445C160.318 191.751 161.681 188.417 163.044 188.872C164.408 189.326 167.56 199.902 170.303 202.322Z" fill="black"/>
</g>
<path d="M155.785 201.964C159.432 207.581 166.753 221.815 168.889 223.417C172.223 225.916 194.512 231.983 196.659 233.641C198.806 235.3 198.658 236.964 200.691 237.572C202.725 238.179 210.347 239.923 213.256 240.196C216.164 240.468 214.863 238.668 214.863 238.668L209.904 235.26L214.227 234.192C214.227 234.192 218.561 239.406 219.373 239.69C220.185 239.974 221.617 239.69 221.526 239.048C221.367 238.02 216.743 229.608 215.102 229.25C213.46 228.893 203.497 230.273 203.497 230.273C203.497 230.273 182.601 216.181 182.226 215.681C182.226 215.681 180.976 212.137 179.954 210.677C178.931 209.217 178.284 209.637 178.284 209.637C178.284 209.637 178.704 207.757 178.079 207.133L174.745 203.798L174.626 203.957C174.058 202.821 173.49 201.526 172.865 200.05C171.121 195.943 164.947 184.418 163.908 182.754C163.13 181.51 156.609 180.618 153.303 180.243" stroke="#263238" stroke-linecap="round" stroke-linejoin="round"/>
<path d="M155.842 194.256C155.689 194.767 155.558 195.278 155.456 195.801" stroke="#263238" stroke-linecap="round" stroke-linejoin="round"/>
<path d="M161.363 184.855C159.578 186.89 158.073 189.153 156.887 191.586" stroke="#263238" stroke-linecap="round" stroke-linejoin="round"/>
<path d="M169.707 217.106C171.241 214.834 173.683 211.955 176.375 211.131" stroke="#263238" stroke-linecap="round" stroke-linejoin="round"/>
<path d="M168.009 219.901C168.009 219.901 168.281 219.367 168.77 218.561" stroke="#263238" stroke-linecap="round" stroke-linejoin="round"/>
<path d="M168.009 216.311C168.009 216.311 170.798 209.336 173.586 207.541C176.375 205.747 174.779 209.336 174.779 209.336" stroke="#263238" stroke-linecap="round" stroke-linejoin="round"/>
<path d="M196.659 233.647C198.811 235.311 198.658 236.969 200.691 237.577C202.725 238.185 210.347 239.929 213.256 240.201C216.164 240.474 214.863 238.673 214.863 238.673L209.904 235.265L214.227 234.198C214.227 234.198 218.561 239.412 219.373 239.696C220.185 239.98 221.73 240.082 221.526 239.054C221.128 237.066 216.743 229.614 215.102 229.256C213.46 228.898 203.497 230.278 203.497 230.278C203.497 230.278 184.464 217.214 182.379 215.8C174.296 216.578 170.451 220.81 168.832 223.349L168.889 223.394C172.223 225.916 194.512 231.982 196.659 233.647Z" fill="white"/>
<mask id="mask13_1_2609" style="mask-type:luminance" maskUnits="userSpaceOnUse" x="168" y="215" width="54" height="26">
<path d="M196.659 233.647C198.811 235.311 198.658 236.969 200.691 237.577C202.725 238.185 210.347 239.929 213.256 240.201C216.164 240.474 214.863 238.673 214.863 238.673L209.904 235.265L214.227 234.198C214.227 234.198 218.561 239.412 219.373 239.696C220.185 239.98 221.73 240.082 221.526 239.054C221.128 237.066 216.743 229.614 215.102 229.256C213.46 228.898 203.497 230.278 203.497 230.278C203.497 230.278 184.464 217.214 182.379 215.8C174.296 216.578 170.451 220.81 168.832 223.349L168.889 223.394C172.223 225.916 194.512 231.982 196.659 233.647Z" fill="white"/>
</mask>
<g mask="url(#mask13_1_2609)">
<path d="M221.52 239.077C220.486 236.549 216.737 229.637 215.096 229.279C213.454 228.921 203.492 230.301 203.492 230.301C203.492 230.301 184.458 217.237 182.373 215.823C180.252 216.007 178.17 216.511 176.199 217.317C179.204 219.021 199.232 230.381 201.759 230.886C204.44 231.454 213.386 229.983 214.96 231.039C215.959 231.71 218.936 236.43 220.946 239.781C221.52 239.696 221.73 239.588 221.52 239.077Z" fill="#277568"/>
<path opacity="0.5" d="M221.52 239.077C219.907 235.459 216.737 229.637 215.096 229.279C213.454 228.921 203.492 230.301 203.492 230.301C203.492 230.301 184.458 217.237 182.373 215.823C180.252 216.007 178.17 216.511 176.199 217.317C179.204 219.021 199.232 230.381 201.759 230.886C204.44 231.454 213.386 229.983 214.96 231.039C215.959 231.71 218.936 236.43 220.946 239.781C221.52 239.696 221.747 239.582 221.52 239.077Z" fill="white"/>
</g>
<path d="M196.659 233.647C198.811 235.311 198.658 236.969 200.691 237.577C202.725 238.185 210.347 239.929 213.256 240.201C216.164 240.474 214.863 238.673 214.863 238.673L209.904 235.265L214.227 234.198C214.227 234.198 218.561 239.412 219.373 239.696C220.185 239.98 221.73 240.082 221.526 239.054C221.128 237.066 216.743 229.614 215.102 229.256C213.46 228.898 203.497 230.278 203.497 230.278C203.497 230.278 184.464 217.214 182.379 215.8C174.296 216.578 170.451 220.81 168.832 223.349L168.889 223.394C172.223 225.916 194.512 231.982 196.659 233.647Z" stroke="#263238" stroke-linecap="round" stroke-linejoin="round"/>
<path d="M146.459 134.463L129.351 141.602C129.143 144.609 128.399 147.554 127.152 150.298C125.13 154.576 126.312 162.67 128.254 167.037C130.197 171.405 138.757 169.696 141.886 169.15C144.009 168.747 146.088 168.14 148.095 167.338C149.008 167.691 149.997 167.804 150.966 167.669C151.936 167.534 152.856 167.155 153.638 166.566C153.638 166.566 144.482 140.864 146.459 134.463Z" fill="white"/>
<mask id="mask14_1_2609" style="mask-type:luminance" maskUnits="userSpaceOnUse" x="126" y="134" width="28" height="36">
<path d="M146.459 134.463L129.351 141.602C129.143 144.609 128.399 147.554 127.152 150.298C125.13 154.576 126.312 162.67 128.254 167.037C130.197 171.405 138.757 169.696 141.886 169.15C144.009 168.747 146.088 168.14 148.095 167.338C149.008 167.691 149.997 167.804 150.966 167.669C151.936 167.534 152.856 167.155 153.638 166.566C153.638 166.566 144.482 140.864 146.459 134.463Z" fill="white"/>
</mask>
<g mask="url(#mask14_1_2609)">
<path d="M146.459 134.463L129.351 141.602C129.143 144.609 128.399 147.554 127.152 150.298C125.13 154.576 126.312 162.67 128.254 167.037C128.58 167.74 129.103 168.332 129.76 168.741V168.412C129.76 168.412 126.584 160.545 127.187 156.007C127.789 151.469 130.367 149.191 130.668 146.322C130.969 143.454 130.816 142.091 136.57 139.972C142.324 137.854 144.738 135.888 145.34 138.001C145.942 140.114 148.367 154.042 150.032 157.37C151.696 160.699 151.542 164.186 148.975 165.691C146.38 167.249 143.6 168.474 140.699 169.338L141.909 169.128C144.032 168.724 146.111 168.117 148.117 167.316C149.031 167.668 150.019 167.782 150.989 167.647C151.959 167.511 152.878 167.132 153.661 166.543C153.661 166.543 144.482 140.864 146.459 134.463Z" fill="#277568"/>
<path opacity="0.5" d="M146.459 134.463L129.351 141.602C129.143 144.609 128.399 147.554 127.152 150.298C125.13 154.576 126.312 162.67 128.254 167.037C128.58 167.74 129.103 168.332 129.76 168.741V168.412C129.76 168.412 126.584 160.545 127.187 156.007C127.789 151.469 130.367 149.191 130.668 146.322C130.969 143.454 130.816 142.091 136.57 139.972C142.324 137.854 144.738 135.888 145.34 138.001C145.942 140.114 148.367 154.042 150.032 157.37C151.696 160.699 151.542 164.186 148.975 165.691C146.38 167.249 143.6 168.474 140.699 169.338L141.909 169.128C144.032 168.724 146.111 168.117 148.117 167.316C149.031 167.668 150.019 167.782 150.989 167.647C151.959 167.511 152.878 167.132 153.661 166.543C153.661 166.543 144.482 140.864 146.459 134.463Z" fill="white"/>
</g>
<path d="M146.459 134.463L129.351 141.602C129.143 144.609 128.399 147.554 127.152 150.298C125.13 154.576 126.312 162.67 128.254 167.037C130.197 171.405 138.757 169.696 141.886 169.15C144.009 168.747 146.088 168.14 148.095 167.338C149.008 167.691 149.997 167.804 150.966 167.669C151.936 167.534 152.856 167.155 153.638 166.566C153.638 166.566 144.482 140.864 146.459 134.463Z" stroke="#263238" stroke-linecap="round" stroke-linejoin="round"/>
<path d="M137.814 145.658C137.86 146.664 137.735 147.67 137.445 148.634C136.99 149.77 132.702 154.235 132.833 154.717C132.963 155.2 133.349 156.751 134.111 156.898" stroke="#263238" stroke-linecap="round" stroke-linejoin="round"/>
<path d="M142.568 149.651C143.164 148.458 145.124 149.622 145.096 152.309" stroke="#263238" stroke-linecap="round" stroke-linejoin="round"/>
<path d="M132.855 146.141C132.855 146.141 134.525 145.408 136.019 148.112" stroke="#263238" stroke-linecap="round" stroke-linejoin="round"/>
<path d="M140.194 153.587C142.123 153.684 143.958 154.454 145.38 155.763" stroke="#263238" stroke-width="0.5" stroke-linecap="round" stroke-linejoin="round"/>
<path d="M130.839 150.037C131.836 150.17 132.811 150.44 133.736 150.838" stroke="#263238" stroke-width="0.5" stroke-linecap="round" stroke-linejoin="round"/>
<path d="M137.626 143.136C137.185 142.903 136.696 142.775 136.197 142.763C135.699 142.751 135.204 142.856 134.752 143.068C133.224 143.8 132.287 144.607 132.389 143.67C132.492 142.733 134.287 141.699 134.826 141.562C135.366 141.426 137.78 141.051 137.626 143.136Z" fill="#263238"/>
<path d="M141.909 141.017C143.501 142.305 144.766 143.952 145.601 145.822C146.737 148.662 147.635 145.561 146.737 143.704C145.84 141.846 143.244 139.87 141.909 141.017Z" fill="#263238"/>
<path d="M153.888 171.422C153.888 172.746 153.138 173.819 152.218 173.819C151.298 173.819 150.554 172.746 150.554 171.422C150.554 170.099 151.298 166.731 152.218 166.731C153.138 166.731 153.888 170.099 153.888 171.422Z" fill="#277568" stroke="#263238" stroke-linecap="round" stroke-linejoin="round"/>
<path d="M142.716 149.134C142.65 149.308 142.599 149.486 142.562 149.668C142.398 150.509 142.233 152.264 142.562 152.338C142.892 152.411 143.698 150.77 143.84 149.929C143.872 149.764 143.891 149.597 143.897 149.429C143.509 149.308 143.115 149.209 142.716 149.134Z" fill="#263238"/>
<path d="M133.026 145.976C132.975 146.124 132.935 146.276 132.906 146.43C132.736 147.271 132.742 149.117 133.099 149.185C133.457 149.253 134.042 147.526 134.207 146.686C134.248 146.482 134.271 146.275 134.275 146.067C133.869 145.955 133.444 145.924 133.026 145.976Z" fill="#263238"/>
<path d="M142.568 149.679L143.136 148.623C144.037 148.798 144.852 149.27 145.453 149.963" stroke="#263238" stroke-width="0.75" stroke-linecap="round" stroke-linejoin="round"/>
<path d="M133.026 145.976L133.594 145.311C133.594 145.311 133.838 145.192 135.178 145.8" stroke="#263238" stroke-width="0.75" stroke-linecap="round" stroke-linejoin="round"/>
<path d="M130.873 161.38C130.873 161.38 131.827 159.625 133.105 159.625C134.383 159.625 135.337 162.493 135.337 162.493" stroke="#263238" stroke-linecap="round" stroke-linejoin="round"/>
<path d="M89.7439 237.072C88.5089 237.011 87.2958 236.722 86.1655 236.22C86.008 236.162 85.8639 236.072 85.7421 235.956C85.6203 235.841 85.5233 235.701 85.4571 235.547C85.3908 235.392 85.3567 235.226 85.3568 235.058C85.3568 234.89 85.3911 234.724 85.4575 234.569C85.5238 234.415 85.6209 234.276 85.7428 234.16C85.8647 234.045 86.0089 233.955 86.1665 233.897C86.3242 233.839 86.492 233.813 86.6598 233.822C86.8276 233.831 86.9918 233.874 87.1425 233.948C88.2785 234.431 89.7496 234.732 90.1415 234.561C90.8629 233.755 91.9705 228.881 90.5391 226.53C90.2154 226.007 89.9143 225.911 89.7155 225.888C88.9033 225.774 87.6991 226.609 87.2731 227.024C87.1545 227.136 87.0151 227.223 86.8627 227.281C86.7103 227.339 86.548 227.367 86.385 227.362C86.222 227.357 86.0616 227.32 85.9128 227.254C85.7641 227.187 85.6299 227.092 85.518 226.973C85.4061 226.854 85.3187 226.715 85.2607 226.562C85.2027 226.41 85.1753 226.248 85.1801 226.085C85.1848 225.922 85.2216 225.761 85.2884 225.613C85.3551 225.464 85.4505 225.33 85.5691 225.218C85.7907 225.002 87.8411 223.156 90.0279 223.451C90.5703 223.531 91.0872 223.734 91.5383 224.045C91.9895 224.356 92.3628 224.767 92.6294 225.246C94.7367 228.683 93.2939 235.22 91.6751 236.515C91.1126 236.913 90.432 237.11 89.7439 237.072Z" fill="white"/>
<mask id="mask15_1_2609" style="mask-type:luminance" maskUnits="userSpaceOnUse" x="85" y="223" width="9" height="15">
<path d="M89.7439 237.072C88.5089 237.011 87.2958 236.722 86.1655 236.22C86.008 236.162 85.8639 236.072 85.7421 235.956C85.6203 235.841 85.5233 235.701 85.4571 235.547C85.3908 235.392 85.3567 235.226 85.3568 235.058C85.3568 234.89 85.3911 234.724 85.4575 234.569C85.5238 234.415 85.6209 234.276 85.7428 234.16C85.8647 234.045 86.0089 233.955 86.1665 233.897C86.3242 233.839 86.492 233.813 86.6598 233.822C86.8276 233.831 86.9918 233.874 87.1425 233.948C88.2785 234.431 89.7496 234.732 90.1415 234.561C90.8629 233.755 91.9705 228.881 90.5391 226.53C90.2154 226.007 89.9143 225.911 89.7155 225.888C88.9033 225.774 87.6991 226.609 87.2731 227.024C87.1545 227.136 87.0151 227.223 86.8627 227.281C86.7103 227.339 86.548 227.367 86.385 227.362C86.222 227.357 86.0616 227.32 85.9128 227.254C85.7641 227.187 85.6299 227.092 85.518 226.973C85.4061 226.854 85.3187 226.715 85.2607 226.562C85.2027 226.41 85.1753 226.248 85.1801 226.085C85.1848 225.922 85.2216 225.761 85.2884 225.613C85.3551 225.464 85.4505 225.33 85.5691 225.218C85.7907 225.002 87.8411 223.156 90.0279 223.451C90.5703 223.531 91.0872 223.734 91.5383 224.045C91.9895 224.356 92.3628 224.767 92.6294 225.246C94.7367 228.683 93.2939 235.22 91.6751 236.515C91.1126 236.913 90.432 237.11 89.7439 237.072Z" fill="white"/>
</mask>
<g mask="url(#mask15_1_2609)">
<path d="M91.4082 226.155C91.2593 225.802 91.026 225.491 90.7289 225.25C90.4318 225.008 90.08 224.843 89.7042 224.769C88.2842 224.542 86.9494 225.968 86.8017 226.127C86.666 226.29 86.5821 226.49 86.5608 226.702C86.5396 226.913 86.5819 227.126 86.6824 227.314C86.9059 227.269 87.1124 227.163 87.2788 227.007C87.7048 226.609 88.909 225.774 89.7213 225.871C89.9201 225.871 90.2211 225.99 90.5448 226.513C91.9762 228.842 90.8686 233.738 90.1473 234.544C89.7553 234.715 88.2899 234.414 87.1482 233.931C87.0077 233.872 86.8575 233.839 86.7052 233.834C86.7155 233.99 86.7646 234.141 86.8479 234.273C86.9312 234.405 87.0462 234.514 87.1823 234.59C87.9005 234.973 88.6928 235.198 89.5054 235.249C89.9691 235.271 90.4233 235.112 90.772 234.806C91.8399 233.823 92.7828 228.796 91.4082 226.155Z" fill="#277568"/>
<path opacity="0.5" d="M91.4082 226.155C91.2593 225.802 91.026 225.491 90.7289 225.25C90.4318 225.008 90.08 224.843 89.7042 224.769C88.2842 224.542 86.9494 225.968 86.8017 226.127C86.666 226.29 86.5821 226.49 86.5608 226.702C86.5396 226.913 86.5819 227.126 86.6824 227.314C86.9059 227.269 87.1124 227.163 87.2788 227.007C87.7048 226.609 88.909 225.774 89.7213 225.871C89.9201 225.871 90.2211 225.99 90.5448 226.513C91.9762 228.842 90.8686 233.738 90.1473 234.544C89.7553 234.715 88.2899 234.414 87.1482 233.931C87.0077 233.872 86.8575 233.839 86.7052 233.834C86.7155 233.99 86.7646 234.141 86.8479 234.273C86.9312 234.405 87.0462 234.514 87.1823 234.59C87.9005 234.973 88.6928 235.198 89.5054 235.249C89.9691 235.271 90.4233 235.112 90.772 234.806C91.8399 233.823 92.7828 228.796 91.4082 226.155Z" fill="white"/>
</g>
<path d="M89.7439 237.072C88.5089 237.011 87.2958 236.722 86.1655 236.22C86.008 236.162 85.8639 236.072 85.7421 235.956C85.6203 235.841 85.5233 235.701 85.4571 235.547C85.3908 235.392 85.3567 235.226 85.3568 235.058C85.3568 234.89 85.3911 234.724 85.4575 234.569C85.5238 234.415 85.6209 234.276 85.7428 234.16C85.8647 234.045 86.0089 233.955 86.1665 233.897C86.3242 233.839 86.492 233.813 86.6598 233.822C86.8276 233.831 86.9918 233.874 87.1425 233.948C88.2785 234.431 89.7496 234.732 90.1415 234.561C90.8629 233.755 91.9705 228.881 90.5391 226.53C90.2154 226.007 89.9143 225.911 89.7155 225.888C88.9033 225.774 87.6991 226.609 87.2731 227.024C87.1545 227.136 87.0151 227.223 86.8627 227.281C86.7103 227.339 86.548 227.367 86.385 227.362C86.222 227.357 86.0616 227.32 85.9128 227.254C85.7641 227.187 85.6299 227.092 85.518 226.973C85.4061 226.854 85.3187 226.715 85.2607 226.562C85.2027 226.41 85.1753 226.248 85.1801 226.085C85.1848 225.922 85.2216 225.761 85.2884 225.613C85.3551 225.464 85.4505 225.33 85.5691 225.218C85.7907 225.002 87.8411 223.156 90.0279 223.451C90.5703 223.531 91.0872 223.734 91.5383 224.045C91.9895 224.356 92.3628 224.767 92.6294 225.246C94.7367 228.683 93.2939 235.22 91.6751 236.515C91.1126 236.913 90.432 237.11 89.7439 237.072Z" stroke="#263238" stroke-linecap="round" stroke-linejoin="round"/>
<path d="M87.5742 222.417H73.9138V240.548H87.5742V222.417Z" fill="white"/>
<mask id="mask16_1_2609" style="mask-type:luminance" maskUnits="userSpaceOnUse" x="73" y="222" width="15" height="19">
<path d="M87.5742 222.417H73.9138V240.548H87.5742V222.417Z" fill="white"/>
</mask>
<g mask="url(#mask16_1_2609)">
<path d="M79.5086 222.417H73.9138V240.548H79.5086V222.417Z" fill="#277568"/>
<path opacity="0.5" d="M79.5086 222.417H73.9138V240.548H79.5086V222.417Z" fill="white"/>
</g>
<path d="M87.5742 222.417H73.9138V240.548H87.5742V222.417Z" stroke="#263238" stroke-linecap="round" stroke-linejoin="round"/>
<path d="M162.641 240.298H104.285L102.382 208.217C102.329 207.906 102.345 207.588 102.427 207.283C102.51 206.979 102.658 206.696 102.86 206.454C103.063 206.212 103.315 206.017 103.6 205.882C103.886 205.747 104.197 205.676 104.512 205.673H162.391C162.709 205.673 163.022 205.742 163.31 205.875C163.598 206.008 163.854 206.203 164.059 206.445C164.263 206.688 164.413 206.972 164.497 207.278C164.581 207.584 164.597 207.905 164.544 208.217L162.641 240.298Z" fill="#263238" stroke="#263238" stroke-linecap="round" stroke-linejoin="round"/>
<path d="M107.159 206.44H161.971C162.281 206.436 162.587 206.501 162.869 206.629C163.151 206.756 163.402 206.944 163.604 207.179C163.806 207.414 163.954 207.69 164.038 207.988C164.122 208.286 164.139 208.599 164.09 208.905" stroke="white" stroke-linecap="round" stroke-linejoin="round"/>
<path d="M102.808 208.399C102.854 207.862 103.1 207.363 103.498 206.999C103.896 206.636 104.416 206.436 104.955 206.44" stroke="white" stroke-linecap="round" stroke-linejoin="round"/>
<path d="M162.885 237.174H104.041V240.298H162.885V237.174Z" fill="white" stroke="#263238" stroke-linecap="round" stroke-linejoin="round"/>
<path d="M133.253 225.61C135.555 225.61 137.422 224.491 137.422 223.111C137.422 221.73 135.555 220.611 133.253 220.611C130.95 220.611 129.084 221.73 129.084 223.111C129.084 224.491 130.95 225.61 133.253 225.61Z" fill="white" stroke="#263238" stroke-linecap="round" stroke-linejoin="round"/>
<path d="M251.641 239.929H32.4725V245.251H251.641V239.929Z" fill="#263238"/>
<path d="M194.813 42.6001H89.3748C85.8206 42.6001 82.9393 45.4813 82.9393 49.0355V109.533C82.9393 113.087 85.8206 115.969 89.3748 115.969H194.813C198.367 115.969 201.248 113.087 201.248 109.533V49.0355C201.248 45.4813 198.367 42.6001 194.813 42.6001Z" fill="#277568"/>
<path d="M144.876 84.7628C154.44 83.2257 160.947 74.2263 159.41 64.662C157.873 55.0977 148.874 48.5904 139.31 50.1275C129.745 51.6646 123.238 60.664 124.775 70.2283C126.312 79.7925 135.312 86.2998 144.876 84.7628Z" fill="#263238"/>
<path d="M141.96 70.6877L136.115 78.191C135.917 78.5033 135.643 78.7613 135.32 78.9418C134.997 79.1222 134.634 79.2195 134.264 79.2247C133.756 79.2316 133.266 79.0377 132.901 78.6851C132.715 78.5147 132.568 78.3062 132.47 78.074C132.372 77.8417 132.325 77.591 132.333 77.339C132.351 76.7746 132.55 76.231 132.901 75.7883L139.563 67.5466L133.315 59.2993C133.025 58.9122 132.866 58.4426 132.861 57.9588C132.859 57.6702 132.918 57.3845 133.032 57.1196C133.146 56.8547 133.314 56.6163 133.525 56.4195C133.724 56.2126 133.962 56.048 134.225 55.9357C134.489 55.8235 134.772 55.7658 135.059 55.7663C135.426 55.7723 135.785 55.87 136.105 56.0505C136.424 56.2311 136.694 56.4888 136.888 56.8001L142.534 64.2352L148.214 56.925C148.417 56.584 148.701 56.2983 149.041 56.0932C149.381 55.8881 149.766 55.77 150.162 55.7493C150.408 55.7487 150.652 55.7988 150.877 55.8965C151.103 55.9942 151.306 56.1375 151.474 56.3173C151.653 56.4858 151.796 56.6891 151.894 56.9147C151.991 57.1403 152.042 57.3835 152.042 57.6294C152.036 58.0693 151.884 58.4948 151.611 58.8392L144.925 67.3933L151.383 75.9133C151.689 76.2941 151.858 76.7657 151.866 77.2537C151.868 77.536 151.808 77.8152 151.692 78.0721C151.575 78.3291 151.404 78.5576 151.19 78.7419C150.773 79.1427 150.218 79.3666 149.64 79.3667C149.271 79.3621 148.909 79.2651 148.588 79.0845C148.266 78.9039 147.995 78.6455 147.799 78.333L141.96 70.6877Z" fill="white"/>
<path d="M175.512 103.263H108.653C107.297 103.263 105.997 102.724 105.038 101.765C104.079 100.807 103.541 99.5064 103.541 98.1506C103.541 96.7948 104.079 95.4945 105.038 94.5358C105.997 93.5772 107.297 93.0386 108.653 93.0386H175.512C176.868 93.0386 178.168 93.5772 179.127 94.5358C180.085 95.4945 180.624 96.7948 180.624 98.1506C180.624 99.5064 180.085 100.807 179.127 101.765C178.168 102.724 176.868 103.263 175.512 103.263Z" fill="white"/>
<path d="M117.815 99.7977C117.77 99.7977 117.726 99.7887 117.685 99.7711C117.644 99.7535 117.607 99.7278 117.576 99.6955C117.542 99.6621 117.516 99.6222 117.498 99.5783C117.481 99.5343 117.472 99.4872 117.474 99.4399C117.474 99.3599 117.495 99.2814 117.536 99.2127L118.047 98.4175H117.002C116.954 98.42 116.906 98.4121 116.861 98.3945C116.816 98.3769 116.775 98.3499 116.741 98.3153C116.683 98.2473 116.651 98.1606 116.651 98.071C116.651 97.9814 116.683 97.8948 116.741 97.8268C116.775 97.7922 116.816 97.7652 116.861 97.7475C116.906 97.7299 116.954 97.7221 117.002 97.7245L118.03 97.7529L117.576 97.0145C117.53 96.9389 117.505 96.8529 117.502 96.7646C117.501 96.7173 117.509 96.6702 117.527 96.6262C117.544 96.5823 117.571 96.5424 117.604 96.509C117.636 96.4765 117.674 96.4508 117.716 96.4332C117.758 96.4156 117.803 96.4067 117.849 96.4068C117.912 96.4058 117.975 96.4237 118.028 96.458C118.082 96.4923 118.124 96.5417 118.15 96.5999L118.649 97.4917L119.127 96.6397C119.157 96.5734 119.204 96.5166 119.264 96.4755C119.325 96.4345 119.395 96.4107 119.467 96.4068C119.512 96.4068 119.556 96.4158 119.597 96.4334C119.638 96.451 119.675 96.4767 119.706 96.509C119.739 96.5402 119.766 96.5781 119.783 96.6202C119.801 96.6623 119.809 96.7076 119.808 96.7533C119.807 96.8339 119.784 96.9127 119.74 96.9805L119.24 97.7813L120.28 97.7529C120.328 97.7501 120.376 97.7577 120.421 97.7754C120.467 97.793 120.507 97.8203 120.541 97.8552C120.599 97.9232 120.631 98.0098 120.631 98.0994C120.631 98.189 120.599 98.2757 120.541 98.3437C120.507 98.3786 120.467 98.4058 120.421 98.4234C120.376 98.4411 120.328 98.4488 120.28 98.4459H119.229L119.695 99.1729C119.747 99.2607 119.776 99.3604 119.78 99.4626C119.781 99.5086 119.774 99.5545 119.757 99.5975C119.741 99.6404 119.715 99.6796 119.683 99.7125C119.653 99.7444 119.617 99.7699 119.577 99.7875C119.537 99.8051 119.494 99.8143 119.45 99.8148C119.38 99.8131 119.312 99.7913 119.253 99.7521C119.195 99.7128 119.149 99.6577 119.121 99.5933L118.649 98.7583L118.178 99.5933C118.144 99.659 118.091 99.7134 118.027 99.7497C117.962 99.7861 117.888 99.8027 117.815 99.7977Z" fill="black"/>
<path d="M123.029 99.7978C122.984 99.7978 122.94 99.7888 122.899 99.7712C122.858 99.7536 122.821 99.7279 122.79 99.6956C122.757 99.6622 122.73 99.6223 122.713 99.5784C122.695 99.5344 122.687 99.4873 122.688 99.44C122.688 99.36 122.709 99.2815 122.75 99.2128L123.262 98.4176H122.217C122.168 98.4201 122.12 98.4122 122.075 98.3946C122.03 98.377 121.989 98.3499 121.955 98.3153C121.897 98.2474 121.865 98.1607 121.865 98.0711C121.865 97.9815 121.897 97.8948 121.955 97.8269C121.989 97.7922 122.03 97.7652 122.075 97.7476C122.12 97.73 122.168 97.7221 122.217 97.7246L123.245 97.753L122.762 96.9862C122.716 96.9106 122.691 96.8245 122.688 96.7363C122.687 96.689 122.695 96.6419 122.713 96.5979C122.73 96.5539 122.757 96.5141 122.79 96.4807C122.822 96.4482 122.86 96.4224 122.902 96.4049C122.944 96.3873 122.989 96.3783 123.034 96.3785C123.098 96.3775 123.16 96.3953 123.214 96.4297C123.268 96.464 123.31 96.5134 123.335 96.5716L123.835 97.4633L124.312 96.6113C124.342 96.545 124.39 96.4883 124.45 96.4472C124.51 96.4061 124.581 96.3824 124.653 96.3785C124.698 96.3785 124.742 96.3875 124.783 96.4051C124.824 96.4227 124.861 96.4484 124.892 96.4807C124.925 96.5119 124.951 96.5498 124.969 96.5919C124.987 96.634 124.995 96.6793 124.994 96.7249C124.993 96.8056 124.97 96.8844 124.926 96.9521L124.426 97.753L125.465 97.7246C125.514 97.7218 125.562 97.7294 125.607 97.7471C125.652 97.7647 125.693 97.7919 125.727 97.8269C125.785 97.8948 125.817 97.9815 125.817 98.0711C125.817 98.1607 125.785 98.2474 125.727 98.3153C125.693 98.3502 125.652 98.3775 125.607 98.3951C125.562 98.4128 125.514 98.4204 125.465 98.4176H124.415L124.88 99.1446C124.933 99.2324 124.962 99.3321 124.966 99.4343C124.967 99.4803 124.96 99.5262 124.943 99.5691C124.926 99.6121 124.901 99.6512 124.869 99.6842C124.839 99.7161 124.803 99.7416 124.763 99.7592C124.723 99.7767 124.68 99.786 124.636 99.7865C124.566 99.7854 124.497 99.764 124.439 99.7246C124.38 99.6853 124.334 99.6298 124.307 99.5649L123.835 98.73L123.364 99.5649C123.336 99.6316 123.29 99.6889 123.23 99.7301C123.171 99.7713 123.101 99.7948 123.029 99.7978Z" fill="black"/>
<path d="M128.243 99.7978C128.198 99.7978 128.154 99.7888 128.113 99.7712C128.072 99.7536 128.035 99.7279 128.004 99.6956C127.971 99.6622 127.944 99.6223 127.927 99.5784C127.909 99.5344 127.901 99.4873 127.902 99.44C127.902 99.36 127.924 99.2815 127.965 99.2128L128.476 98.4176H127.431C127.382 98.4201 127.334 98.4122 127.289 98.3946C127.244 98.377 127.203 98.3499 127.169 98.3153C127.111 98.2474 127.079 98.1607 127.079 98.0711C127.079 97.9815 127.111 97.8948 127.169 97.8269C127.203 97.7922 127.244 97.7652 127.289 97.7476C127.334 97.73 127.382 97.7221 127.431 97.7246L128.459 97.753L127.976 96.9862C127.93 96.9106 127.905 96.8245 127.902 96.7363C127.901 96.689 127.909 96.6419 127.927 96.5979C127.944 96.5539 127.971 96.5141 128.004 96.4807C128.036 96.4482 128.074 96.4224 128.116 96.4049C128.158 96.3873 128.203 96.3783 128.249 96.3785C128.312 96.3775 128.375 96.3953 128.428 96.4297C128.482 96.464 128.524 96.5134 128.55 96.5716L129.05 97.4633L129.527 96.6113C129.557 96.545 129.604 96.4883 129.664 96.4472C129.725 96.4061 129.795 96.3824 129.867 96.3785C129.912 96.3785 129.956 96.3875 129.997 96.4051C130.038 96.4227 130.075 96.4484 130.106 96.4807C130.139 96.5119 130.166 96.5498 130.183 96.5919C130.201 96.634 130.209 96.6793 130.208 96.7249C130.208 96.8056 130.184 96.8844 130.14 96.9521L129.64 97.753L130.68 97.7246C130.728 97.7218 130.776 97.7294 130.822 97.7471C130.867 97.7647 130.907 97.7919 130.941 97.8269C130.999 97.8948 131.031 97.9815 131.031 98.0711C131.031 98.1607 130.999 98.2474 130.941 98.3153C130.907 98.3502 130.867 98.3775 130.822 98.3951C130.776 98.4128 130.728 98.4204 130.68 98.4176H129.629L130.095 99.1446C130.147 99.2324 130.177 99.3321 130.18 99.4343C130.181 99.4803 130.174 99.5262 130.157 99.5691C130.141 99.6121 130.115 99.6512 130.083 99.6842C130.053 99.7161 130.017 99.7416 129.977 99.7592C129.937 99.7767 129.894 99.786 129.85 99.7865C129.78 99.7854 129.711 99.764 129.653 99.7246C129.594 99.6853 129.549 99.6298 129.521 99.5649L129.05 98.73L128.578 99.5649C128.55 99.6316 128.504 99.6889 128.444 99.7301C128.385 99.7713 128.315 99.7948 128.243 99.7978Z" fill="black"/>
<path d="M133.48 99.7978C133.435 99.7978 133.391 99.7888 133.35 99.7712C133.309 99.7536 133.272 99.7279 133.241 99.6956C133.208 99.6622 133.181 99.6223 133.164 99.5784C133.146 99.5344 133.138 99.4873 133.139 99.44C133.139 99.36 133.161 99.2815 133.202 99.2128L133.713 98.4176H132.668C132.619 98.4201 132.571 98.4122 132.526 98.3946C132.481 98.377 132.44 98.3499 132.406 98.3153C132.348 98.2474 132.316 98.1607 132.316 98.0711C132.316 97.9815 132.348 97.8948 132.406 97.8269C132.44 97.7922 132.481 97.7652 132.526 97.7476C132.571 97.73 132.619 97.7221 132.668 97.7246L133.696 97.753L133.213 96.9862C133.167 96.9106 133.142 96.8245 133.139 96.7363C133.138 96.689 133.146 96.6419 133.164 96.5979C133.181 96.5539 133.208 96.5141 133.241 96.4807C133.273 96.4482 133.311 96.4224 133.353 96.4049C133.395 96.3873 133.44 96.3783 133.486 96.3785C133.549 96.3775 133.612 96.3953 133.665 96.4297C133.719 96.464 133.761 96.5134 133.787 96.5716L134.287 97.4633L134.764 96.6113C134.794 96.545 134.841 96.4883 134.901 96.4472C134.962 96.4061 135.032 96.3824 135.104 96.3785C135.149 96.3785 135.193 96.3875 135.234 96.4051C135.275 96.4227 135.312 96.4484 135.343 96.4807C135.376 96.5119 135.403 96.5498 135.42 96.5919C135.438 96.634 135.446 96.6793 135.445 96.7249C135.445 96.8056 135.421 96.8844 135.377 96.9521L134.877 97.753L135.917 97.7246C135.965 97.7218 136.013 97.7294 136.059 97.7471C136.104 97.7647 136.144 97.7919 136.178 97.8269C136.236 97.8948 136.268 97.9815 136.268 98.0711C136.268 98.1607 136.236 98.2474 136.178 98.3153C136.144 98.3502 136.104 98.3775 136.059 98.3951C136.013 98.4128 135.965 98.4204 135.917 98.4176H134.866L135.332 99.1446C135.384 99.2324 135.414 99.3321 135.417 99.4343C135.418 99.4803 135.411 99.5262 135.394 99.5691C135.378 99.6121 135.352 99.6512 135.32 99.6842C135.29 99.7161 135.254 99.7416 135.214 99.7592C135.174 99.7767 135.131 99.786 135.087 99.7865C135.017 99.7847 134.949 99.763 134.89 99.7237C134.832 99.6845 134.786 99.6294 134.758 99.5649L134.287 98.73L133.815 99.5649C133.787 99.6316 133.741 99.6889 133.681 99.7301C133.622 99.7713 133.552 99.7948 133.48 99.7978Z" fill="black"/>
<path d="M138.672 99.7978C138.627 99.7978 138.583 99.7888 138.542 99.7712C138.501 99.7536 138.464 99.7279 138.433 99.6956C138.399 99.6622 138.373 99.6223 138.355 99.5784C138.338 99.5344 138.329 99.4873 138.331 99.44C138.333 99.3604 138.355 99.2825 138.393 99.2128L138.904 98.4176H137.859C137.811 98.4201 137.763 98.4122 137.718 98.3946C137.673 98.377 137.632 98.3499 137.598 98.3153C137.54 98.2474 137.508 98.1607 137.508 98.0711C137.508 97.9815 137.54 97.8948 137.598 97.8269C137.632 97.7922 137.673 97.7652 137.718 97.7476C137.763 97.73 137.811 97.7221 137.859 97.7246L138.887 97.753L138.405 96.9862C138.359 96.9106 138.334 96.8245 138.331 96.7363C138.329 96.689 138.338 96.6419 138.355 96.5979C138.373 96.554 138.399 96.5141 138.433 96.4807C138.465 96.4482 138.503 96.4224 138.545 96.4049C138.587 96.3873 138.632 96.3783 138.677 96.3785C138.741 96.3775 138.803 96.3953 138.857 96.4297C138.91 96.464 138.953 96.5134 138.978 96.5716L139.478 97.4633L139.955 96.6113C139.985 96.545 140.033 96.4883 140.093 96.4472C140.153 96.4061 140.223 96.3824 140.296 96.3785C140.341 96.3778 140.385 96.3865 140.426 96.4041C140.467 96.4218 140.504 96.4478 140.535 96.4807C140.568 96.5119 140.594 96.5498 140.612 96.5919C140.629 96.634 140.638 96.6793 140.637 96.7249C140.636 96.8056 140.612 96.8844 140.569 96.9521L140.069 97.753L141.108 97.7246C141.157 97.7218 141.205 97.7294 141.25 97.7471C141.295 97.7647 141.336 97.7919 141.37 97.8269C141.428 97.8948 141.46 97.9815 141.46 98.0711C141.46 98.1607 141.428 98.2474 141.37 98.3153C141.336 98.3502 141.295 98.3775 141.25 98.3951C141.205 98.4128 141.157 98.4204 141.108 98.4176H140.057L140.523 99.1446C140.576 99.2324 140.605 99.3321 140.608 99.4343C140.61 99.4803 140.602 99.5262 140.586 99.5691C140.569 99.6121 140.544 99.6512 140.512 99.6842C140.482 99.7161 140.446 99.7416 140.406 99.7592C140.366 99.7767 140.323 99.786 140.279 99.7865C140.209 99.7847 140.14 99.763 140.082 99.7237C140.024 99.6845 139.978 99.6294 139.95 99.5649L139.478 98.73L139.007 99.5649C138.979 99.6316 138.932 99.6889 138.873 99.7301C138.814 99.7713 138.744 99.7948 138.672 99.7978Z" fill="black"/>
<path d="M143.886 99.7978C143.841 99.7978 143.797 99.7888 143.756 99.7712C143.715 99.7536 143.678 99.7279 143.647 99.6956C143.614 99.6622 143.587 99.6223 143.57 99.5784C143.552 99.5344 143.544 99.4873 143.545 99.44C143.548 99.3604 143.569 99.2825 143.607 99.2128L144.119 98.4176H143.079C143.03 98.4205 142.981 98.4129 142.935 98.3953C142.889 98.3776 142.847 98.3504 142.812 98.3153C142.754 98.2474 142.722 98.1607 142.722 98.0711C142.722 97.9815 142.754 97.8948 142.812 97.8269C142.847 97.7918 142.889 97.7646 142.935 97.7469C142.981 97.7293 143.03 97.7217 143.079 97.7246L144.102 97.753L143.619 96.9862C143.573 96.9106 143.548 96.8245 143.545 96.7363C143.544 96.689 143.552 96.6419 143.57 96.5979C143.587 96.554 143.614 96.5141 143.647 96.4807C143.679 96.4482 143.717 96.4224 143.759 96.4049C143.801 96.3873 143.846 96.3783 143.891 96.3785C143.955 96.3775 144.017 96.3953 144.071 96.4297C144.125 96.464 144.167 96.5134 144.192 96.5716L144.692 97.4633L145.169 96.6113C145.199 96.545 145.247 96.4883 145.307 96.4472C145.367 96.4061 145.438 96.3824 145.51 96.3785C145.555 96.3778 145.599 96.3865 145.64 96.4041C145.681 96.4218 145.718 96.4478 145.749 96.4807C145.782 96.5119 145.808 96.5498 145.826 96.5919C145.844 96.634 145.852 96.6793 145.851 96.7249C145.85 96.8056 145.827 96.8844 145.783 96.9521L145.283 97.753L146.322 97.7246C146.371 97.7218 146.419 97.7294 146.464 97.7471C146.509 97.7647 146.55 97.7919 146.584 97.8269C146.642 97.8948 146.674 97.9815 146.674 98.0711C146.674 98.1607 146.642 98.2474 146.584 98.3153C146.55 98.3502 146.509 98.3775 146.464 98.3951C146.419 98.4128 146.371 98.4204 146.322 98.4176H145.272L145.737 99.1446C145.79 99.2324 145.819 99.3321 145.823 99.4343C145.824 99.4803 145.817 99.5262 145.8 99.5691C145.783 99.6121 145.758 99.6512 145.726 99.6842C145.696 99.7161 145.66 99.7416 145.62 99.7592C145.58 99.7767 145.537 99.786 145.493 99.7865C145.423 99.7847 145.355 99.763 145.296 99.7237C145.238 99.6845 145.192 99.6294 145.164 99.5649L144.692 98.73L144.221 99.5649C144.193 99.6316 144.147 99.6889 144.087 99.7301C144.028 99.7713 143.958 99.7948 143.886 99.7978Z" fill="black"/>
<path d="M149.1 99.7977C149.055 99.7977 149.011 99.7887 148.97 99.7711C148.929 99.7535 148.892 99.7278 148.861 99.6955C148.828 99.6621 148.801 99.6222 148.784 99.5783C148.766 99.5343 148.758 99.4872 148.759 99.4399C148.759 99.3599 148.781 99.2814 148.822 99.2127L149.333 98.4175H148.288C148.239 98.42 148.191 98.4121 148.146 98.3945C148.101 98.3769 148.06 98.3499 148.026 98.3153C147.968 98.2473 147.936 98.1606 147.936 98.071C147.936 97.9814 147.968 97.8948 148.026 97.8268C148.06 97.7922 148.101 97.7652 148.146 97.7475C148.191 97.7299 148.239 97.7221 148.288 97.7245L149.316 97.7529L148.816 97.0145C148.77 96.9389 148.745 96.8529 148.742 96.7646C148.741 96.7173 148.749 96.6702 148.767 96.6262C148.784 96.5823 148.811 96.5424 148.844 96.509C148.876 96.4765 148.914 96.4508 148.956 96.4332C148.998 96.4157 149.043 96.4067 149.089 96.4068C149.152 96.4058 149.215 96.4237 149.268 96.458C149.322 96.4923 149.364 96.5417 149.39 96.5999L149.889 97.4917L150.367 96.6397C150.397 96.5734 150.444 96.5166 150.504 96.4755C150.565 96.4345 150.635 96.4107 150.707 96.4068C150.752 96.4061 150.796 96.4148 150.838 96.4325C150.879 96.4501 150.916 96.4762 150.946 96.509C150.979 96.5402 151.006 96.5781 151.023 96.6202C151.041 96.6623 151.049 96.7076 151.048 96.7533C151.047 96.8339 151.024 96.9127 150.98 96.9805L150.48 97.7813L151.52 97.7529C151.568 97.7501 151.616 97.7577 151.661 97.7754C151.707 97.793 151.747 97.8203 151.781 97.8552C151.839 97.9232 151.871 98.0098 151.871 98.0994C151.871 98.189 151.839 98.2757 151.781 98.3437C151.747 98.3786 151.707 98.4058 151.661 98.4234C151.616 98.4411 151.568 98.4488 151.52 98.4459H150.469L150.935 99.1729C150.987 99.2607 151.016 99.3604 151.02 99.4626C151.021 99.5086 151.014 99.5545 150.997 99.5975C150.981 99.6404 150.955 99.6796 150.923 99.7125C150.893 99.7444 150.857 99.7699 150.817 99.7875C150.777 99.8051 150.734 99.8143 150.69 99.8148C150.62 99.8131 150.552 99.7913 150.493 99.7521C150.435 99.7128 150.389 99.6577 150.361 99.5933L149.889 98.7583L149.418 99.5933C149.387 99.6521 149.342 99.7019 149.286 99.7378C149.23 99.7737 149.166 99.7943 149.1 99.7977Z" fill="black"/>
<path d="M154.314 99.7977C154.27 99.7977 154.225 99.7886 154.184 99.7711C154.143 99.7535 154.106 99.7278 154.076 99.6955C154.042 99.6621 154.016 99.6222 153.998 99.5782C153.98 99.5343 153.972 99.4872 153.973 99.4399C153.976 99.3603 153.997 99.2824 154.036 99.2127L154.547 98.4175H153.508C153.459 98.4211 153.411 98.4138 153.365 98.3961C153.32 98.3784 153.279 98.3508 153.246 98.3152C153.184 98.2489 153.15 98.1617 153.15 98.071C153.15 97.9803 153.184 97.893 153.246 97.8267C153.279 97.7912 153.32 97.7635 153.365 97.7458C153.411 97.7281 153.459 97.7208 153.508 97.7245L154.53 97.7529L154.047 96.9861C154.002 96.9105 153.976 96.8244 153.973 96.7362C153.972 96.6897 153.98 96.6434 153.996 96.6001C154.013 96.5567 154.038 96.5172 154.071 96.4838C154.103 96.4504 154.142 96.4239 154.185 96.4058C154.227 96.3876 154.273 96.3783 154.32 96.3783C154.383 96.3774 154.446 96.3952 154.499 96.4296C154.553 96.4639 154.595 96.5133 154.621 96.5715L155.121 97.4632L155.598 96.6112C155.628 96.5449 155.676 96.4882 155.736 96.4471C155.796 96.406 155.866 96.3822 155.939 96.3783C155.983 96.3769 156.028 96.3853 156.069 96.403C156.111 96.4206 156.147 96.4471 156.177 96.4806C156.211 96.5118 156.237 96.5497 156.254 96.5918C156.272 96.6339 156.281 96.6792 156.279 96.7248C156.279 96.8055 156.255 96.8843 156.211 96.952L155.711 97.7529L156.751 97.7245C156.799 97.7216 156.848 97.7293 156.893 97.747C156.938 97.7646 156.979 97.7918 157.012 97.8267C157.071 97.8947 157.103 97.9814 157.103 98.071C157.103 98.1606 157.071 98.2472 157.012 98.3152C156.979 98.3501 156.938 98.3773 156.893 98.395C156.848 98.4126 156.799 98.4203 156.751 98.4175H155.7L156.166 99.1445C156.218 99.2323 156.248 99.3319 156.251 99.4342C156.253 99.4789 156.245 99.5236 156.23 99.5655C156.214 99.6074 156.19 99.6458 156.159 99.6785C156.129 99.7112 156.092 99.7376 156.051 99.7561C156.01 99.7746 155.966 99.7849 155.922 99.7863C155.851 99.7846 155.783 99.7629 155.725 99.7236C155.666 99.6844 155.62 99.6293 155.592 99.5648L155.121 98.7299L154.649 99.5648C154.621 99.6314 154.575 99.6887 154.516 99.73C154.456 99.7712 154.386 99.7947 154.314 99.7977Z" fill="black"/>
<path d="M159.528 99.7977C159.484 99.7977 159.44 99.7886 159.399 99.7711C159.358 99.7535 159.321 99.7278 159.29 99.6955C159.256 99.6621 159.23 99.6222 159.212 99.5782C159.195 99.5343 159.186 99.4872 159.188 99.4399C159.19 99.3603 159.212 99.2824 159.25 99.2127L159.761 98.4175H158.716C158.669 98.4202 158.621 98.4125 158.577 98.3949C158.533 98.3772 158.493 98.35 158.461 98.3152C158.399 98.2489 158.364 98.1617 158.364 98.071C158.364 97.9803 158.399 97.893 158.461 97.8267C158.493 97.792 158.533 97.7648 158.577 97.7471C158.621 97.7294 158.669 97.7217 158.716 97.7245L159.744 97.7529L159.261 96.9861C159.216 96.9105 159.19 96.8244 159.188 96.7362C159.186 96.6897 159.194 96.6434 159.211 96.6001C159.227 96.5567 159.253 96.5172 159.285 96.4838C159.317 96.4504 159.356 96.4239 159.399 96.4058C159.442 96.3876 159.488 96.3783 159.534 96.3783C159.598 96.3774 159.66 96.3952 159.714 96.4296C159.767 96.4639 159.809 96.5133 159.835 96.5715L160.335 97.4632L160.812 96.6112C160.842 96.5449 160.89 96.4882 160.95 96.4471C161.01 96.406 161.08 96.3822 161.153 96.3783C161.198 96.3769 161.242 96.3853 161.284 96.403C161.325 96.4206 161.362 96.4471 161.391 96.4806C161.425 96.5118 161.451 96.5497 161.469 96.5918C161.486 96.6339 161.495 96.6792 161.494 96.7248C161.493 96.8055 161.469 96.8843 161.426 96.952L160.926 97.7529L161.965 97.7245C162.013 97.7216 162.062 97.7293 162.107 97.747C162.152 97.7646 162.193 97.7918 162.226 97.8267C162.285 97.8947 162.317 97.9814 162.317 98.071C162.317 98.1606 162.285 98.2472 162.226 98.3152C162.193 98.3501 162.152 98.3773 162.107 98.395C162.062 98.4126 162.013 98.4203 161.965 98.4175H160.914L161.38 99.1445C161.433 99.2323 161.462 99.3319 161.465 99.4342C161.467 99.4789 161.46 99.5236 161.444 99.5655C161.428 99.6074 161.404 99.6458 161.374 99.6785C161.343 99.7112 161.306 99.7376 161.265 99.7561C161.225 99.7746 161.181 99.7849 161.136 99.7863C161.066 99.7846 160.997 99.7629 160.939 99.7236C160.88 99.6844 160.835 99.6293 160.806 99.5648L160.335 98.7299L159.864 99.5648C159.836 99.6314 159.789 99.6887 159.73 99.73C159.67 99.7712 159.601 99.7947 159.528 99.7977Z" fill="black"/>
<path d="M164.72 99.7977C164.675 99.7977 164.631 99.7886 164.59 99.7711C164.549 99.7535 164.512 99.7278 164.481 99.6955C164.448 99.6621 164.421 99.6222 164.404 99.5782C164.386 99.5343 164.378 99.4872 164.379 99.4399C164.382 99.3603 164.403 99.2824 164.442 99.2127L164.953 98.4175H163.908C163.86 98.4202 163.813 98.4125 163.768 98.3949C163.724 98.3772 163.685 98.35 163.652 98.3152C163.59 98.2489 163.556 98.1617 163.556 98.071C163.556 97.9803 163.59 97.893 163.652 97.8267C163.685 97.792 163.724 97.7648 163.768 97.7471C163.813 97.7294 163.86 97.7217 163.908 97.7245L164.936 97.7529L164.453 96.9861C164.407 96.9105 164.382 96.8244 164.379 96.7362C164.378 96.6888 164.386 96.6417 164.404 96.5978C164.421 96.5538 164.448 96.5139 164.481 96.4806C164.513 96.4481 164.551 96.4223 164.593 96.4048C164.635 96.3872 164.68 96.3782 164.726 96.3783C164.789 96.3774 164.852 96.3952 164.905 96.4296C164.959 96.4639 165.001 96.5133 165.027 96.5715L165.527 97.4632L166.004 96.6112C166.034 96.5449 166.081 96.4882 166.141 96.4471C166.202 96.406 166.272 96.3822 166.344 96.3783C166.389 96.3769 166.434 96.3853 166.475 96.403C166.516 96.4206 166.553 96.4471 166.583 96.4806C166.616 96.5118 166.643 96.5497 166.66 96.5918C166.678 96.6339 166.686 96.6792 166.685 96.7248C166.684 96.8055 166.661 96.8843 166.617 96.952L166.117 97.7529L167.157 97.7245C167.205 97.7216 167.253 97.7293 167.299 97.747C167.344 97.7646 167.384 97.7918 167.418 97.8267C167.476 97.8947 167.508 97.9814 167.508 98.071C167.508 98.1606 167.476 98.2472 167.418 98.3152C167.384 98.3501 167.344 98.3773 167.299 98.395C167.253 98.4126 167.205 98.4203 167.157 98.4175H166.106L166.572 99.1445C166.624 99.2323 166.653 99.3319 166.657 99.4342C166.658 99.4802 166.651 99.5261 166.634 99.569C166.618 99.612 166.592 99.6511 166.56 99.6841C166.53 99.716 166.494 99.7415 166.454 99.759C166.414 99.7766 166.371 99.7859 166.327 99.7863C166.257 99.7846 166.189 99.7629 166.13 99.7236C166.072 99.6844 166.026 99.6293 165.998 99.5648L165.527 98.7299L165.055 99.5648C165.027 99.6314 164.981 99.6887 164.921 99.73C164.862 99.7712 164.792 99.7947 164.72 99.7977Z" fill="black"/>
<path d="M182.589 112.362H189.536" stroke="white" stroke-width="3" stroke-linecap="round" stroke-linejoin="round"/>
<path d="M86.2394 61.2134V107.352C86.2394 108.688 86.7702 109.97 87.7151 110.915C88.6599 111.859 89.9414 112.39 91.2776 112.39H175.995" stroke="white" stroke-width="3" stroke-linecap="round" stroke-linejoin="round"/>
<path d="M86.2394 48.9788V55.897" stroke="white" stroke-width="3" stroke-linecap="round" stroke-linejoin="round"/>
</svg>
