<svg width="200" height="200" viewBox="0 0 200 200" fill="none" xmlns="http://www.w3.org/2000/svg">
<path d="M173.508 45.212C172.892 44.188 172.256 43.184 171.588 42.204C162.696 29.14 147.896 20.196 133.512 16.144C127.212 14.368 120.74 13.436 114.28 13.2C71.9161 11.66 56.3521 46.592 42.7041 55.596C29.0561 64.604 8.10811 79.984 10.7361 112.3C12.7321 136.868 26.7081 160.364 52.2361 171.056C55.0481 172.236 58.0041 173.264 61.0961 174.112C66.8481 175.696 73.0881 176.688 79.8041 176.988C99.1041 177.848 114.776 173.196 130.104 161.48C133.668 158.756 137.212 155.684 141.836 155.348C145.196 155.104 148.384 156.312 144.872 159.56C140.744 163.376 145.508 170.888 155.988 165.668C173.496 156.956 180.696 138.156 184.088 119.04C188.252 95.576 186.232 66.396 173.508 45.208V45.212Z" fill="#277568"/>
<path opacity="0.7" d="M173.508 45.212C172.892 44.188 172.256 43.184 171.588 42.204C162.696 29.14 147.896 20.196 133.512 16.144C127.212 14.368 120.74 13.436 114.28 13.2C71.9161 11.66 56.3521 46.592 42.7041 55.596C29.0561 64.604 8.10811 79.984 10.7361 112.3C12.7321 136.868 26.7081 160.364 52.2361 171.056C55.0481 172.236 58.0041 173.264 61.0961 174.112C66.8481 175.696 73.0881 176.688 79.8041 176.988C99.1041 177.848 114.776 173.196 130.104 161.48C133.668 158.756 137.212 155.684 141.836 155.348C145.196 155.104 148.384 156.312 144.872 159.56C140.744 163.376 145.508 170.888 155.988 165.668C173.496 156.956 180.696 138.156 184.088 119.04C188.252 95.576 186.232 66.396 173.508 45.208V45.212Z" fill="white"/>
<path d="M188.836 184.536H9.63599" stroke="#263238" stroke-linecap="round" stroke-linejoin="round"/>
<g opacity="0.3">
<path d="M159.824 24.5239H99.624V107.392H159.824V24.5239Z" fill="#263238" stroke="black" stroke-linecap="round" stroke-linejoin="round"/>
<path d="M156.96 28.22H102.492V103.692H156.96V28.22Z" fill="white" stroke="black" stroke-linecap="round" stroke-linejoin="round"/>
<path d="M135.468 39.9041L122.036 53.336" stroke="black" stroke-linecap="round" stroke-linejoin="round"/>
<path d="M142.48 32.8879L136.812 38.5599" stroke="black" stroke-linecap="round" stroke-linejoin="round"/>
<path d="M126.364 44.2319L118.304 52.2919" stroke="black" stroke-linecap="round" stroke-linejoin="round"/>
<path d="M124.424 97.2161L122.036 99.6041" stroke="black" stroke-linecap="round" stroke-linejoin="round"/>
<path d="M142.48 79.156L125.764 95.872" stroke="black" stroke-linecap="round" stroke-linejoin="round"/>
<path d="M126.364 90.5L118.304 98.556" stroke="black" stroke-linecap="round" stroke-linejoin="round"/>
<path d="M131.72 69.0479C131.72 68.0439 130.908 67.2319 129.904 67.2319C128.9 67.2319 128.088 68.0439 128.088 69.0479C128.088 70.0519 128.9 70.8639 129.904 70.8639C130.908 70.8639 131.72 70.0519 131.72 69.0479Z" fill="black" stroke="black" stroke-linecap="round" stroke-linejoin="round"/>
<path d="M156.96 68.7881H102.492V72.1281H156.96V68.7881Z" fill="black" stroke="black" stroke-linecap="round" stroke-linejoin="round"/>
<path d="M161.596 19.564H98.208V26.648H161.596V19.564Z" fill="black" stroke="black" stroke-linecap="round" stroke-linejoin="round"/>
<path d="M161.596 104.912H98.208V111.996H161.596V104.912Z" fill="black" stroke="black" stroke-linecap="round" stroke-linejoin="round"/>
<path d="M183.908 9.64795H75.5439V11.7719H183.908V9.64795Z" fill="white" stroke="black" stroke-linecap="round" stroke-linejoin="round"/>
<path d="M83.6639 7.87988H81.2359C80.244 7.87988 79.4399 8.68398 79.4399 9.67588V117.988C79.4399 118.98 80.244 119.784 81.2359 119.784H83.6639C84.6558 119.784 85.4599 118.98 85.4599 117.988V9.67588C85.4599 8.68398 84.6558 7.87988 83.6639 7.87988Z" fill="white" stroke="black" stroke-linecap="round" stroke-linejoin="round"/>
<path d="M89.3319 7.87988H86.9039C85.912 7.87988 85.1079 8.68398 85.1079 9.67588V117.988C85.1079 118.98 85.912 119.784 86.9039 119.784H89.3319C90.3238 119.784 91.1279 118.98 91.1279 117.988V9.67588C91.1279 8.68398 90.3238 7.87988 89.3319 7.87988Z" fill="white" stroke="black" stroke-linecap="round" stroke-linejoin="round"/>
<path d="M94.996 7.87988H92.568C91.5761 7.87988 90.772 8.68398 90.772 9.67588V117.988C90.772 118.98 91.5761 119.784 92.568 119.784H94.996C95.9879 119.784 96.792 118.98 96.792 117.988V9.67588C96.792 8.68398 95.9879 7.87988 94.996 7.87988Z" fill="white" stroke="black" stroke-linecap="round" stroke-linejoin="round"/>
<path d="M100.664 7.87988H98.2359C97.244 7.87988 96.4399 8.68398 96.4399 9.67588V117.988C96.4399 118.98 97.244 119.784 98.2359 119.784H100.664C101.656 119.784 102.46 118.98 102.46 117.988V9.67588C102.46 8.68398 101.656 7.87988 100.664 7.87988Z" fill="white" stroke="black" stroke-linecap="round" stroke-linejoin="round"/>
<path d="M161.572 7.87988H159.144C158.152 7.87988 157.348 8.68398 157.348 9.67588V117.988C157.348 118.98 158.152 119.784 159.144 119.784H161.572C162.564 119.784 163.368 118.98 163.368 117.988V9.67588C163.368 8.68398 162.564 7.87988 161.572 7.87988Z" fill="white" stroke="black" stroke-linecap="round" stroke-linejoin="round"/>
<path d="M167.24 7.87988H164.812C163.82 7.87988 163.016 8.68398 163.016 9.67588V117.988C163.016 118.98 163.82 119.784 164.812 119.784H167.24C168.232 119.784 169.036 118.98 169.036 117.988V9.67588C169.036 8.68398 168.232 7.87988 167.24 7.87988Z" fill="white" stroke="black" stroke-linecap="round" stroke-linejoin="round"/>
<path d="M172.904 7.87988H170.476C169.484 7.87988 168.68 8.68398 168.68 9.67588V117.988C168.68 118.98 169.484 119.784 170.476 119.784H172.904C173.896 119.784 174.7 118.98 174.7 117.988V9.67588C174.7 8.68398 173.896 7.87988 172.904 7.87988Z" fill="white" stroke="black" stroke-linecap="round" stroke-linejoin="round"/>
<path d="M178.572 7.87988H176.144C175.152 7.87988 174.348 8.68398 174.348 9.67588V117.988C174.348 118.98 175.152 119.784 176.144 119.784H178.572C179.564 119.784 180.368 118.98 180.368 117.988V9.67588C180.368 8.68398 179.564 7.87988 178.572 7.87988Z" fill="white" stroke="black" stroke-linecap="round" stroke-linejoin="round"/>
</g>
<g opacity="0.3">
<path d="M63.512 7.5481H15.752V71.1281H63.512V7.5481Z" stroke="black" stroke-linecap="round" stroke-linejoin="round"/>
<path d="M61.956 9.62402H17.312V69.056H61.956V9.62402Z" stroke="black" stroke-linecap="round" stroke-linejoin="round"/>
<path d="M17.3079 53.268C22.3119 50.676 33.1319 43.768 36.0879 31.316C38.4239 21.48 41.8079 14.296 46.9759 9.62402" stroke="black" stroke-linecap="round" stroke-linejoin="round"/>
<path d="M39.032 69.0562C35.948 59.0482 32.076 39.6322 42.884 26.7402C49.704 18.6042 56.528 13.9162 61.96 11.2202" stroke="black" stroke-linecap="round" stroke-linejoin="round"/>
<path d="M20.2759 9.62402C22.3519 12.212 24.5999 16.692 23.8879 23.552C23.1279 30.9 19.7959 35.052 17.3079 37.184" stroke="black" stroke-linecap="round" stroke-linejoin="round"/>
<path d="M56.5559 69.0561C53.0639 63.7401 47.5879 64.5402 43.8519 59.5962C39.1399 53.3602 43.7119 44.0721 54.5239 39.7681C57.9039 38.4241 60.2839 36.4841 61.9559 34.4521" stroke="black" stroke-linecap="round" stroke-linejoin="round"/>
<path d="M17.3079 65.252C20.5839 60.252 24.6919 55.532 27.2119 58.352C29.3119 60.7 29.8159 65.008 29.7279 69.06" stroke="black" stroke-linecap="round" stroke-linejoin="round"/>
<path d="M28.616 9.62402C28.728 15.412 29.428 26.152 33.036 21.612C35.552 18.452 37.544 13.584 38.88 9.62402" stroke="black" stroke-linecap="round" stroke-linejoin="round"/>
<path d="M61.956 18.0361C56.088 23.0961 45.888 32.5041 52.724 31.1761C56.364 30.4681 59.496 28.2281 61.956 25.7601" stroke="black" stroke-linecap="round" stroke-linejoin="round"/>
</g>
<path d="M26.588 118.52C26.588 118.52 22.708 117.624 21.812 113.448C20.916 109.272 23.8 111.06 21.216 104.496C18.628 97.9319 19.228 96.44 20.12 94.548C21.016 92.66 21.512 93.256 22.308 95.74C23.104 98.228 25.988 102.108 27.084 109.368C28.18 116.628 26.588 118.52 26.588 118.52Z" fill="#277568"/>
<path d="M34.2482 111.456C34.2482 111.456 31.6602 110.56 31.5642 105.688C31.4642 100.812 33.4562 101.808 33.7522 95.7401C34.0482 89.6721 34.4482 85.3961 35.5442 85.2961C36.6402 85.1961 39.5242 88.2801 40.5162 95.0441C41.5122 101.808 39.2242 106.284 37.2322 108.276C35.2442 110.264 34.2482 111.46 34.2482 111.46V111.456Z" fill="#277568"/>
<path d="M25.1961 124.388C25.1961 124.388 24.6 120.808 23.404 119.116C22.212 117.424 19.6241 115.932 17.9321 112.652C16.2401 109.368 14.3521 107.776 14.4521 112.452C14.5521 117.128 16.64 119.516 19.228 121.108C21.8161 122.7 25.1961 124.392 25.1961 124.392V124.388Z" fill="#277568"/>
<path d="M24.1041 130.556C24.1041 130.556 21.7161 125.98 18.2361 122.596C14.7561 119.212 11.9681 117.524 12.9641 119.212C13.9601 120.904 15.1521 120.804 16.8441 123.788C18.5361 126.772 18.0361 128.96 20.4241 130.652C22.8121 132.344 24.1041 130.552 24.1041 130.552V130.556Z" fill="#277568"/>
<path d="M23.8042 136.424C23.7042 136.124 23.6042 133.936 20.2242 132.148C16.8402 130.356 13.6602 131.052 14.0562 131.948C14.4522 132.844 16.5442 134.336 18.6322 135.232C20.7202 136.128 23.8042 136.424 23.8042 136.424Z" fill="#277568"/>
<path d="M34.0521 124.588C34.0521 124.588 32.5601 122.696 33.3561 118.72C34.1521 114.74 35.9441 115.736 37.9321 113.648C39.9201 111.56 39.5241 111.26 41.5121 109.072C43.5001 106.884 45.2921 105.688 46.0881 106.584C46.8841 107.48 45.6921 110.264 44.4961 111.856C43.3041 113.448 41.4121 114.244 40.5161 116.232C39.6201 118.22 40.0201 121.404 37.7321 122.896C35.4441 124.388 34.0521 124.588 34.0521 124.588Z" fill="#277568"/>
<path d="M39.0242 125.684C39.0242 125.684 42.6042 121.604 45.1922 118.62C47.7802 115.636 48.7722 113.348 48.8722 115.336C48.9722 117.324 49.7682 118.916 47.6802 121.504C45.5922 124.092 39.0242 125.68 39.0242 125.68V125.684Z" fill="#277568"/>
<path d="M37.132 132.248C37.132 132.248 37.032 130.656 42.704 126.976C48.376 123.296 50.76 122.6 50.164 124.092C49.568 125.584 47.08 127.076 44.396 129.764C41.712 132.448 37.1359 132.252 37.1359 132.252L37.132 132.248Z" fill="#277568"/>
<path d="M34.1042 111.704C34.1522 111.68 34.1961 111.644 34.2121 111.592C34.2201 111.568 34.4401 110.86 34.7681 109.756C34.8401 109.564 34.9081 109.372 34.9841 109.184C34.9921 109.164 34.9842 109.144 34.9642 109.136C34.9602 109.136 34.9561 109.136 34.9521 109.136C35.7321 106.46 36.9241 102.16 37.4361 99.1561C38.1561 94.9161 37.5041 91.6681 37.0721 89.5161C37.0241 89.2761 36.9801 89.0521 36.9401 88.8401C36.9201 88.7321 36.8162 88.6601 36.7042 88.6801C36.5962 88.7001 36.5241 88.8041 36.5441 88.9161C36.5841 89.1281 36.6281 89.3561 36.6801 89.5961C37.1081 91.7201 37.7522 94.9281 37.0441 99.0921C36.2601 103.7 33.8601 111.4 33.8361 111.476C33.8081 111.568 33.8522 111.664 33.9322 111.708C33.3082 113.5 32.8042 115.332 32.3602 117.176C31.7282 119.916 31.2682 122.692 30.9482 125.488L30.7482 127.588C30.7162 127.94 30.6801 128.288 30.6521 128.64L30.5961 129.692C30.5641 130.396 30.5242 131.096 30.5042 131.8L30.5241 133.912L30.5482 134.968C30.5642 135.32 30.5881 135.672 30.6121 136.02C30.6641 136.72 30.7081 137.424 30.7721 138.124C30.9081 139.524 31.1162 140.916 31.3322 142.3C31.3322 142.316 31.3521 142.332 31.3681 142.332C31.3881 142.332 31.4042 142.316 31.4042 142.296C31.4042 141.592 31.3721 140.892 31.3561 140.192C31.3361 139.492 31.2761 138.796 31.2841 138.096C31.2841 137.396 31.2682 136.7 31.2602 136L31.2401 134.952L31.2602 133.904L31.2681 131.812L31.3241 129.72L31.3441 128.672C31.3561 128.324 31.3842 127.976 31.4042 127.628L31.5322 125.54C31.7762 122.76 32.1601 119.988 32.7162 117.252C33.0961 115.388 33.5362 113.528 34.1042 111.708V111.704Z" fill="#858585"/>
<path d="M41.2922 123.96C39.7762 124.92 38.4202 126.132 37.2362 127.496C36.6562 128.188 36.1122 128.912 35.6522 129.7L35.3282 130.316L35.0722 130.956C34.9802 131.168 34.9162 131.384 34.8482 131.604C34.7842 131.82 34.7082 132.04 34.6522 132.26C34.1962 134.016 33.8962 135.808 33.8122 137.608C33.7402 139.408 33.7722 141.208 34.0122 142.996C34.0122 143.012 34.0282 143.028 34.0482 143.028C34.0682 143.028 34.0882 143.016 34.0882 142.992L34.5522 137.66C34.7362 135.896 34.8482 134.124 35.2282 132.4C35.2762 132.184 35.3362 131.976 35.3922 131.764C35.4482 131.552 35.5002 131.34 35.5802 131.136L35.7962 130.52L36.0762 129.936C36.4882 129.164 36.9882 128.428 37.5282 127.732C38.6122 126.336 39.8842 125.06 41.3362 124.028C41.3362 124.028 41.3562 123.992 41.3442 123.976C41.3322 123.96 41.3122 123.952 41.2922 123.964V123.96Z" fill="#858585"/>
<path d="M38.4081 130.824C37.5801 131.356 37.0281 132.196 36.5641 133.04C36.1201 133.904 35.7721 134.816 35.5321 135.756C35.4601 135.988 35.4041 136.224 35.3521 136.46L35.1841 137.168C35.1001 137.644 35.0321 138.124 35.0041 138.608C34.9961 139.092 34.9841 139.576 35.0161 140.056C35.0561 140.54 35.1121 141.02 35.2041 141.496C35.2041 141.508 35.2201 141.524 35.2321 141.524C35.2521 141.528 35.2721 141.516 35.2761 141.496C35.3921 141.02 35.4681 140.548 35.5321 140.08C35.6081 139.612 35.6801 139.144 35.7361 138.676C35.8041 138.212 35.8681 137.748 35.9041 137.28C35.9681 136.816 36.0041 136.344 36.1041 135.888C36.2681 134.964 36.5321 134.06 36.8961 133.196C37.2561 132.34 37.7241 131.488 38.4441 130.884H38.4481C38.4481 130.884 38.4641 130.848 38.4561 130.832C38.4441 130.816 38.4241 130.812 38.4041 130.82L38.4081 130.824Z" fill="#858585"/>
<path d="M29.9042 136.164C29.7042 133.796 29.3162 131.452 28.9442 129.108C28.5722 126.764 28.1642 124.428 27.7362 122.096C27.4882 120.804 27.2362 119.512 26.9722 118.22C27.0122 118.176 27.0322 118.116 27.0202 118.052C27.0082 117.98 25.6722 110.848 24.2922 105.828C22.9162 100.812 22.0122 97.7 22.0042 97.668C21.9722 97.56 21.8642 97.5 21.7562 97.532C21.6482 97.564 21.5882 97.672 21.6202 97.78C21.6282 97.812 22.5322 100.92 23.9082 105.936C25.2842 110.944 26.6162 118.06 26.6282 118.128C26.6442 118.208 26.7002 118.264 26.7762 118.284C26.9842 119.576 27.1802 120.868 27.3722 122.16C27.7282 124.5 28.0602 126.844 28.3602 129.192C28.6482 131.54 28.8762 133.896 29.1682 136.24L30.0362 143.288C30.0362 143.288 30.0522 143.32 30.0722 143.32C30.0922 143.32 30.1082 143.304 30.1122 143.284C30.1402 142.692 30.1402 142.096 30.1562 141.5C30.1602 140.904 30.1322 140.312 30.1202 139.716C30.1002 138.528 29.9962 137.344 29.9082 136.16L29.9042 136.164Z" fill="#858585"/>
<path d="M28.4842 136.132C28.3562 135.196 28.1842 134.26 28.0082 133.332L27.6762 131.948C27.5682 131.488 27.4642 131.024 27.3282 130.572C26.8562 128.736 26.2522 126.936 25.5202 125.188L25.2362 124.536L25.0842 124.228C25.0842 124.196 25.0762 124.168 25.0602 124.14C25.0602 124.136 25.0082 124.048 24.9242 123.904C24.7242 123.468 24.4802 123.06 24.2522 122.648C23.7842 121.888 23.2962 121.128 22.6522 120.496C22.2602 119.972 21.8362 119.428 21.3802 118.888C20.8162 118.22 20.2962 117.648 19.7922 117.088C18.3802 115.524 17.2642 114.292 16.5362 112.476C16.4962 112.372 16.3762 112.324 16.2762 112.364C16.1722 112.404 16.1242 112.52 16.1642 112.624C16.9162 114.508 18.0522 115.764 19.4922 117.356C19.9922 117.912 20.5122 118.484 21.0722 119.144C23.2242 121.684 24.7002 124.308 24.7162 124.336C24.7402 124.38 24.7842 124.408 24.8282 124.42L24.9362 124.664L25.1842 125.32C25.8402 127.072 26.3642 128.876 26.7602 130.704C26.9762 131.616 27.1202 132.544 27.2962 133.46L27.5162 134.848C27.5962 135.308 27.6962 135.768 27.7602 136.232C27.9082 137.156 28.0762 138.08 28.2402 139.008C28.3842 139.936 28.5522 140.864 28.7482 141.792C28.7482 141.808 28.7682 141.824 28.7842 141.824C28.8042 141.824 28.8202 141.808 28.8202 141.788C28.8242 140.844 28.8042 139.896 28.7522 138.952C28.6962 138.008 28.5842 137.068 28.4882 136.128L28.4842 136.132Z" fill="#858585"/>
<path d="M26.5242 136.252C26.0842 135.008 25.5762 133.792 25.0242 132.6C24.4562 131.416 23.8442 130.252 23.1402 129.144C23.1282 129.128 23.1082 129.124 23.0922 129.132C23.0762 129.144 23.0682 129.164 23.0802 129.184C23.6962 130.336 24.2162 131.536 24.6882 132.748C25.1682 133.96 25.6002 135.188 25.9642 136.436C26.3362 137.684 26.6002 138.956 26.9322 140.208C27.2802 141.46 27.5642 142.724 27.9482 143.992C27.9522 144.008 27.9682 144.02 27.9842 144.02C28.0042 144.02 28.0202 144.004 28.0202 143.984C28.0402 142.66 27.9082 141.34 27.6522 140.044C27.4202 138.74 26.9602 137.496 26.5242 136.252Z" fill="#858585"/>
<path d="M26.4441 140.388C26.2201 139.612 25.8361 138.884 25.4001 138.204C24.9721 137.516 24.4761 136.868 23.8841 136.32C23.8201 136.264 23.7561 136.212 23.6921 136.16C23.6921 136.16 23.6841 136.152 23.6801 136.148H23.6721C23.4321 135.944 23.1881 135.752 22.9201 135.592C22.7041 135.456 22.4801 135.34 22.2441 135.24C21.0481 134.496 19.3201 133.46 17.9241 132.764C17.8241 132.716 17.7041 132.756 17.6561 132.852C17.6081 132.952 17.6481 133.072 17.7441 133.12C20.0921 134.296 23.4241 136.46 23.4601 136.48C23.4921 136.5 23.5241 136.508 23.5561 136.508C23.5761 136.532 23.6001 136.552 23.6161 136.572C24.1281 137.144 24.5401 137.804 24.8801 138.488C25.2401 139.168 25.4241 139.92 25.7361 140.62C25.8721 140.98 26.0121 141.34 26.1721 141.7C26.3081 142.068 26.4561 142.432 26.6481 142.792C26.6481 142.792 26.6681 142.812 26.6801 142.816C26.7001 142.816 26.7201 142.8 26.7201 142.78C26.7361 142.376 26.7121 141.972 26.6761 141.568C26.6161 141.172 26.5321 140.776 26.4401 140.384L26.4441 140.388Z" fill="#858585"/>
<path d="M44.0002 108.3C43.9042 108.244 43.7842 108.272 43.7242 108.368C42.8202 109.876 41.0722 111.892 39.3882 113.84C38.3202 115.072 37.3122 116.236 36.5762 117.204C34.6762 119.7 33.8842 124.356 33.8522 124.556C33.8442 124.612 33.8562 124.664 33.8882 124.704C33.8322 124.94 33.7722 125.176 33.7202 125.412C33.3322 127.212 33.0282 129.036 32.8402 130.872C32.6562 132.704 32.4482 134.536 32.4242 136.376C32.3962 138.216 32.4242 140.056 32.6202 141.896C32.6202 141.912 32.6362 141.928 32.6522 141.928C32.6722 141.928 32.6922 141.916 32.6922 141.896C32.9042 140.064 33.0362 138.236 33.1602 136.408C33.2882 134.58 33.3082 132.748 33.4282 130.92C33.5402 129.1 33.7682 127.284 34.0802 125.48C34.1282 125.208 34.1802 124.936 34.2282 124.664C34.2362 124.648 34.2402 124.636 34.2442 124.616C34.2522 124.568 35.0522 119.86 36.8922 117.444C37.6202 116.484 38.6242 115.328 39.6882 114.1C41.3882 112.14 43.1442 110.112 44.0682 108.572C44.1242 108.476 44.0962 108.356 44.0002 108.296V108.3Z" fill="#858585"/>
<path d="M42.7361 156.368C42.5121 150.332 35.8041 146.308 35.8041 146.308H25.5241C25.5241 146.308 18.8161 150.332 18.5921 156.368C18.3681 162.404 26.1921 184.536 26.1921 184.536H35.1281C35.1281 184.536 42.9521 162.404 42.7281 156.368H42.7361Z" fill="#858585"/>
<path d="M37.1282 140.372H24.0122L25.5282 146.308H35.6162L37.1282 140.372Z" fill="#858585"/>
<path d="M107.388 165.42C107.388 165.42 93.2881 169.424 91.2881 169.772C89.2881 170.12 88.5041 169.596 86.5001 170.38C84.5001 171.164 80.4961 172.032 80.4961 172.032C80.4961 172.032 71.2721 173.684 66.4841 173.512C61.6961 173.34 59.9561 172.728 59.9561 172.728L58.3881 172.292C58.3881 172.292 57.6041 173.86 57.5161 175.164C57.4281 176.468 57.9521 182.996 57.9521 182.996C57.9521 182.996 60.0401 182.388 65.1761 183.432C70.3121 184.476 78.1441 185.868 83.9761 184.912C89.8081 183.956 90.2441 183.172 92.3321 182.912C94.4201 182.652 101.556 184.74 103.212 184.652C104.864 184.564 143.944 184.652 143.944 184.652C143.944 184.652 147.948 183 151.344 180.476C154.74 177.952 160.832 176.3 162.744 171.772C164.66 167.248 159.872 162.46 157.348 162.112C154.824 161.764 142.292 166.288 141.768 166.376C141.244 166.464 139.664 164.996 139.664 164.996L107.388 165.42Z" fill="#263238" stroke="#263238" stroke-linecap="round" stroke-linejoin="round"/>
<path d="M115.64 168.496L118.04 171.264" stroke="#949494" stroke-linecap="round" stroke-linejoin="round"/>
<path d="M113.704 168.496C113.704 168.496 118.04 172.556 118.964 174.492" stroke="#949494" stroke-linecap="round" stroke-linejoin="round"/>
<path d="M133.728 168.588C133.728 168.588 130.776 170.896 129.484 172.924" stroke="#949494" stroke-linecap="round" stroke-linejoin="round"/>
<path d="M131.052 168.956C131.052 168.956 128.744 172 128.008 173.66" stroke="#949494" stroke-linecap="round" stroke-linejoin="round"/>
<path d="M104.708 130.708C104.708 130.708 101.068 133.484 98.3881 135.592C95.7081 137.7 92.8321 139.996 89.7681 141.34C86.7041 142.68 77.7961 142.776 71.4761 145.172C65.1561 147.568 57.5881 149.004 57.5881 149.004L58.3561 154.656C58.3561 154.656 84.4041 153.412 89.7681 152.072C95.1321 150.732 95.2281 149.772 97.8121 151.02C100.396 152.268 108.732 164.044 108.732 164.044L106.432 164.524L106.624 165.96C106.624 165.96 111.22 168.164 118.596 167.684C125.972 167.204 131.524 166.824 133.152 166.728C134.78 166.632 139.664 165.004 139.664 165.004C139.664 165.004 138.612 159.256 136.312 150.16C134.012 141.06 134.108 135.604 134.108 135.604L146.748 140.584C146.748 140.584 147.132 145.276 146.268 151.98C145.408 158.684 144.448 161.46 144.448 161.46L150.96 163.568C150.96 163.568 154.408 146.904 155.556 142.116C156.704 137.328 154.788 135.124 153.448 133.976C152.108 132.828 135.732 122.868 131.804 121.716C127.876 120.568 122.896 120.472 120.696 121.14C118.492 121.812 112.94 124.012 112.94 124.012L104.704 130.716L104.708 130.708Z" fill="#277568" stroke="#263238" stroke-linecap="round" stroke-linejoin="round"/>
<path d="M112.784 165.276C113.884 165.524 115.288 165.704 117.044 165.704C122.632 165.704 123.444 165.4 123.444 165.4" stroke="#263238" stroke-linecap="round" stroke-linejoin="round"/>
<path d="M109.428 163.876C109.428 163.876 109.964 164.36 111.248 164.828" stroke="#263238" stroke-linecap="round" stroke-linejoin="round"/>
<path d="M127.636 165.8C128.268 165.624 128.872 165.424 129.436 165.196" stroke="#263238" stroke-linecap="round" stroke-linejoin="round"/>
<path d="M113.592 166.924C113.592 166.924 120.292 167.328 125.9 166.208" stroke="#263238" stroke-linecap="round" stroke-linejoin="round"/>
<path d="M94.4321 148.908C93.0641 147.628 90.6521 145.528 88.7161 144.692" stroke="#263238" stroke-linecap="round" stroke-linejoin="round"/>
<path d="M95.5122 149.96C95.5122 149.96 95.3442 149.788 95.0562 149.508" stroke="#263238" stroke-linecap="round" stroke-linejoin="round"/>
<path d="M92.6401 144.788C92.6401 144.788 95.3201 146.704 95.9921 147.564" stroke="#263238" stroke-linecap="round" stroke-linejoin="round"/>
<path d="M132.96 135.212C132.96 135.212 130.28 134.732 129.032 132.72" stroke="#263238" stroke-linecap="round" stroke-linejoin="round"/>
<path d="M111.828 140.636C115.092 141.652 118.48 142.532 120.796 142.684" stroke="#263238" stroke-linecap="round" stroke-linejoin="round"/>
<path d="M101.932 137.128C101.932 137.128 105.776 138.668 110.236 140.128" stroke="#263238" stroke-linecap="round" stroke-linejoin="round"/>
<path d="M120.688 150.14C121.68 150.56 122.592 150.892 123.384 151.108" stroke="#263238" stroke-linecap="round" stroke-linejoin="round"/>
<path d="M102.888 140.096C102.888 140.096 112.34 146.292 119.252 149.504" stroke="#263238" stroke-linecap="round" stroke-linejoin="round"/>
<path d="M102.46 144.012C103.184 144.536 103.732 144.924 103.844 144.98" stroke="#263238" stroke-linecap="round" stroke-linejoin="round"/>
<path d="M97.908 140.672C97.908 140.672 99.648 141.964 101.248 143.132" stroke="#263238" stroke-linecap="round" stroke-linejoin="round"/>
<path d="M118.556 129.632C118.504 130.028 118.424 130.424 118.308 130.804" stroke="#263238" stroke-linecap="round" stroke-linejoin="round"/>
<path d="M118.02 124.58C118.02 124.58 118.64 126.44 118.628 128.528" stroke="#263238" stroke-linecap="round" stroke-linejoin="round"/>
<path d="M93.6039 112.796C93.6039 112.796 93.832 117.444 93.988 118.46C94.144 119.472 92.888 123.04 95.164 126.592C96.452 128.608 96.1759 131.66 97.6599 132.048C99.1399 132.436 102.88 130.88 102.88 130.88C102.88 130.88 103.972 132.908 104.516 134.232C105.06 135.556 108.256 138.988 111.688 136.804C115.116 134.62 116.364 127.608 115.976 126.204C115.588 124.8 114.884 123.944 114.496 123.632C114.108 123.32 113.172 122.384 112.936 121.76C112.704 121.136 112.392 119.656 112.548 118.332C112.704 117.008 113.248 111.784 112.08 109.916C110.912 108.044 108.572 106.488 104.208 106.488C99.8439 106.488 96.1039 108.124 96.1039 108.124C96.1039 108.124 96.9599 106.644 96.2599 106.956C95.5599 107.268 94.9359 108.124 94.9359 108.124C94.9359 108.124 94.7799 105.94 93.9999 107.188C93.2199 108.436 93.3 109.916 93.3 109.916C93.3 109.916 92.756 109.292 92.676 110.228C92.6 111.164 93.6119 112.8 93.6119 112.8L93.6039 112.796Z" fill="white" stroke="#263238" stroke-linecap="round" stroke-linejoin="round"/>
<path d="M112.544 118.328C112.7 117.004 113.244 111.78 112.076 109.912C110.908 108.04 108.568 106.484 104.204 106.484C99.8401 106.484 96.1 108.12 96.1 108.12C96.1 108.12 96.956 106.64 96.256 106.952C95.556 107.264 94.932 108.12 94.932 108.12C94.932 108.12 94.776 105.936 93.996 107.184C93.216 108.432 93.296 109.912 93.296 109.912C93.296 109.912 92.752 109.288 92.672 110.224C92.596 111.16 93.608 112.796 93.608 112.796C93.608 112.796 94.7 113.42 95.324 113.184C95.948 112.952 96.924 112.324 97.508 112.172C99.58 111.632 103.196 111.472 102.42 112.56C101.644 113.648 100.392 114.196 101.328 114.82C102.264 115.444 105.068 115.988 105.224 116.848C105.38 117.704 105.3 119.42 106.16 118.952C107.016 118.484 107.408 116.924 108.732 117.316C110.056 117.704 111.148 119.42 110.68 120.744C110.212 122.068 110.836 122.38 112.004 121.444C112.248 121.248 112.468 121.004 112.672 120.736C112.54 120.036 112.456 119.152 112.552 118.328H112.544Z" fill="#263238" stroke="#263238" stroke-linecap="round" stroke-linejoin="round"/>
<path d="M107.172 118.644C107.172 118.644 108.568 116.616 109.58 116.616C110.592 116.616 111.84 117.94 110.672 120.748C109.504 123.552 107.944 123.864 107.556 121.996" fill="white"/>
<path d="M107.172 118.644C107.172 118.644 108.568 116.616 109.58 116.616C110.592 116.616 111.84 117.94 110.672 120.748C109.504 123.552 107.944 123.864 107.556 121.996" stroke="#263238" stroke-linecap="round" stroke-linejoin="round"/>
<path d="M95.4561 118.152L95.9721 119.448C95.9721 119.448 95.4561 123.588 95.8001 124.28C96.1441 124.972 98.3881 124.54 98.3881 124.54" stroke="#263238" stroke-linecap="round" stroke-linejoin="round"/>
<path d="M96.5798 126.608C96.5798 126.608 99.1678 127.472 101.412 124.884" stroke="#263238" stroke-linecap="round" stroke-linejoin="round"/>
<path d="M97.7 117.12C97.7 117.12 100.204 116.084 101.584 116.948" stroke="#263238" stroke-width="2" stroke-linecap="round" stroke-linejoin="round"/>
<path d="M95.1999 117.548L94.3359 117.12" stroke="#263238" stroke-width="2" stroke-linecap="round" stroke-linejoin="round"/>
<path d="M100.116 119.144C100.116 119.596 99.884 119.964 99.6 119.964C99.316 119.964 99.084 119.596 99.084 119.144C99.084 118.692 99.316 118.324 99.6 118.324C99.884 118.324 100.116 118.692 100.116 119.144Z" fill="#263238"/>
<path d="M95.6079 119.44C95.6079 119.864 95.3999 120.208 95.1439 120.208C94.8879 120.208 94.6799 119.864 94.6799 119.44C94.6799 119.016 94.8879 118.672 95.1439 118.672C95.3999 118.672 95.6079 119.016 95.6079 119.44Z" fill="#263238"/>
<path d="M102.88 130.876C102.88 130.876 106.168 130.176 106.716 129.536C107.264 128.896 106.992 130.36 106.624 132.556C106.256 134.752 105.524 135.396 105.524 135.396C105.524 135.396 104.884 134.848 104.332 133.472C103.784 132.1 102.876 130.876 102.876 130.876H102.88Z" fill="#263238" stroke="#263238" stroke-linecap="round" stroke-linejoin="round"/>
<path d="M43.9161 156.316C43.9161 156.316 41.5881 159.88 41.6601 164.172C41.7321 168.464 43.8401 180.316 44.7881 182.716C45.7321 185.116 47.4801 187.296 50.0961 185.916C52.7121 184.536 54.6041 184.388 55.9121 184.316C57.2201 184.244 58.8921 183.952 59.0401 181.044C59.1841 178.136 58.3121 175.152 58.3121 175.152C58.3121 175.152 59.6921 172.46 59.3321 171.152C58.9681 169.844 55.3321 169.044 54.6761 168.244C54.0201 167.444 52.2761 161.772 51.6961 160.244C51.1161 158.716 51.0401 157.48 51.1881 156.316C51.3321 155.152 52.1321 152.316 49.6601 152.824C47.1881 153.332 45.8041 154.86 43.9161 156.316Z" fill="#277568" stroke="#263238" stroke-linecap="round" stroke-linejoin="round"/>
<path d="M53.0042 167.892C53.0042 167.892 53.7242 167.572 54.2842 167.572" stroke="#263238" stroke-width="2" stroke-linecap="round" stroke-linejoin="round"/>
<path d="M52.364 166.212C52.364 166.212 53.084 165.732 53.484 165.732" stroke="#263238" stroke-width="2" stroke-linecap="round" stroke-linejoin="round"/>
<path d="M52.124 164.212L52.764 163.972" stroke="#263238" stroke-width="2" stroke-linecap="round" stroke-linejoin="round"/>
<path d="M51.8401 177.768C50.3841 174.06 48.7121 166.932 48.7121 161.04C48.7121 155.148 49.7721 153.968 50.3121 152.772C50.1241 152.76 49.9121 152.772 49.6601 152.82C47.1881 153.328 45.8041 154.856 43.9161 156.312C43.9161 156.312 41.5881 159.876 41.6601 164.168C41.7321 168.46 43.8401 180.312 44.7881 182.712C45.7321 185.112 47.4801 187.292 50.0961 185.912C51.1281 185.368 52.0481 185.016 52.8601 184.784C52.9121 183.196 52.8321 180.296 51.8401 177.768Z" fill="white" stroke="#263238" stroke-linecap="round" stroke-linejoin="round"/>
<path d="M49.2961 179.004C48.0601 175.148 47.4041 169.476 47.1881 163.076C47.0161 158.08 48.7521 154.28 49.5241 152.856C47.1401 153.392 45.7721 154.888 43.9161 156.312C43.9161 156.312 41.5881 159.876 41.6601 164.168C41.7321 168.46 43.8401 180.312 44.7881 182.712C45.7321 185.112 47.4801 187.292 50.0961 185.912C50.1081 185.904 50.1201 185.9 50.1321 185.892C50.2921 184.62 50.2441 181.964 49.2961 179V179.004Z" fill="white" stroke="#263238" stroke-linecap="round" stroke-linejoin="round"/>
<path d="M144.452 161.452C144.452 161.452 138.78 161.628 138.404 161.88C138.028 162.132 133.484 164.404 132.852 164.784C132.22 165.164 131.084 166.928 131.4 167.308C131.716 167.688 132.408 167.56 132.852 167.436C133.292 167.308 134.428 167.12 134.428 167.12C134.428 167.12 133.544 167.876 133.924 167.94C134.304 168.004 136.008 167.5 136.448 167.244C136.888 166.992 141.308 165.92 141.812 165.92C142.316 165.92 145.852 166.424 147.996 165.668C150.14 164.912 150.968 163.56 150.968 163.56L144.456 161.452H144.452Z" fill="white" stroke="#263238" stroke-linecap="round" stroke-linejoin="round"/>
<path d="M134.428 167.116C134.428 167.116 139.484 164.588 139.884 164.424C140.288 164.264 141.332 163.94 141.332 163.94" stroke="#263238" stroke-linecap="round" stroke-linejoin="round"/>
<path d="M131.4 167.308C131.4 167.308 135.136 165.152 135.54 164.992C135.944 164.832 139.564 163.06 139.564 163.06" stroke="#263238" stroke-linecap="round" stroke-linejoin="round"/>
<path d="M131.996 165.764C131.996 165.764 133.976 164.596 134.244 164.476C134.512 164.356 138.444 162.468 138.444 162.468" stroke="#263238" stroke-linecap="round" stroke-linejoin="round"/>
<path d="M121.368 176.392C121.368 176.392 118.464 174.688 116.508 174.248C114.552 173.808 112.468 174.88 111.02 174.88C109.572 174.88 106.036 173.364 103.324 173.304C100.612 173.24 97.456 176.524 97.836 178.984C98.216 181.444 99.224 183.336 102.064 184.096C104.904 184.852 116.764 184.664 116.764 184.664L122.192 184.348C122.192 184.348 121.624 180.94 121.624 179.552C121.624 178.164 121.372 176.396 121.372 176.396L121.368 176.392Z" fill="#277568" stroke="#263238" stroke-linecap="round" stroke-linejoin="round"/>
<path d="M112.244 177.804C112.244 177.804 110.724 179.404 111.524 182.28" stroke="#263238" stroke-width="2" stroke-linecap="round" stroke-linejoin="round"/>
<path d="M114.084 178.044C114.084 178.044 112.564 179.644 113.364 182.52" stroke="#263238" stroke-width="2" stroke-linecap="round" stroke-linejoin="round"/>
<path d="M115.92 178.284C115.92 178.284 114.4 179.884 115.2 182.76" stroke="#263238" stroke-width="2" stroke-linecap="round" stroke-linejoin="round"/>
<path d="M117.76 178.524C117.76 178.524 116.24 180.124 117.04 183" stroke="#263238" stroke-width="2" stroke-linecap="round" stroke-linejoin="round"/>
<path d="M102.06 184.092C102.104 184.104 102.156 184.116 102.204 184.124C101.464 183.684 100.528 183.016 100.168 182.26C99.5359 180.936 99.3479 180.492 99.7279 179.736C100.108 178.98 100.424 178.536 100.424 177.4C100.424 176.264 100.488 175.444 100.488 175.444C100.488 175.444 102.064 173.868 103.264 173.804C104.208 173.756 107.652 174.332 109.724 174.668C107.988 174.252 105.416 173.348 103.328 173.296C100.616 173.232 97.4599 176.516 97.8399 178.976C98.2199 181.436 99.2279 183.328 102.068 184.088L102.06 184.092Z" fill="white" stroke="#263238" stroke-linecap="round" stroke-linejoin="round"/>
<path d="M154.872 163.9C154.872 163.9 146.292 166.296 141.56 168.508C136.828 170.716 128.56 175.576 128.56 175.576L121.368 176.396C121.368 176.396 121.368 181.884 121.432 182.58C121.496 183.276 122.188 184.348 122.188 184.348C122.188 184.348 134.932 183.212 140.36 182.328C145.788 181.444 156.452 177.28 159.036 175.576" fill="#263238"/>
<path d="M154.872 163.9C154.872 163.9 146.292 166.296 141.56 168.508C136.828 170.716 128.56 175.576 128.56 175.576L121.368 176.396C121.368 176.396 121.368 181.884 121.432 182.58C121.496 183.276 122.188 184.348 122.188 184.348C122.188 184.348 134.932 183.212 140.36 182.328C145.788 181.444 156.452 177.28 159.036 175.576" stroke="#263238" stroke-linecap="round" stroke-linejoin="round"/>
<path d="M122.56 176.724C122.56 176.724 128.512 176.008 137.256 170.844C141.816 168.152 144.932 167.42 147.292 166.828" stroke="#949494" stroke-linecap="round" stroke-linejoin="round"/>
<path d="M116.508 174.248C114.552 173.808 112.468 174.88 111.02 174.88C112.344 175.068 114.552 175.132 116.004 174.692C116.34 174.588 116.7 174.492 117.056 174.4C116.868 174.344 116.684 174.292 116.512 174.252L116.508 174.248Z" stroke="#263238" stroke-linecap="round" stroke-linejoin="round"/>
<path d="M58.752 149.916C58.752 149.916 57.952 149.044 56.716 148.824C55.48 148.604 50.972 147.516 50.1 147.732C49.228 147.952 45.736 151.368 45.228 152.24C44.72 153.112 43.556 157.04 43.7 157.548C43.844 158.056 43.48 158.276 44.864 157.404C46.244 156.532 46.9 155.368 47.992 154.276C49.084 153.184 49.664 152.82 49.664 152.82C49.664 152.82 51.264 152.456 51.556 152.456C51.848 152.456 53.088 151.86 52.432 153.388C51.776 154.916 50.028 156.892 50.392 157.84C50.756 158.784 50.828 158.276 51.92 157.404C53.012 156.532 53.956 156.096 53.956 156.096C53.956 156.096 55.92 155.588 56.428 155.296C56.936 155.004 58.684 155.44 59.12 152.824C59.556 150.204 58.756 149.916 58.756 149.916H58.752Z" fill="white" stroke="#263238" stroke-linecap="round" stroke-linejoin="round"/>
<path d="M44.8601 157.408C44.8601 157.408 44.5681 156.604 45.2441 155.592C45.9201 154.576 48.7081 151.196 49.1321 150.86C49.5561 150.52 50.3161 150.184 50.3161 150.184" stroke="#263238" stroke-linecap="round" stroke-linejoin="round"/>
<path d="M43.696 157.552C43.696 157.552 44.564 154.912 45.24 153.728C45.916 152.544 47.608 150.856 47.692 150.516C47.776 150.176 48.792 149.5 48.792 149.5" stroke="#263238" stroke-linecap="round" stroke-linejoin="round"/>
</svg>
