<svg width="70" height="129" viewBox="0 0 70 129" fill="none" xmlns="http://www.w3.org/2000/svg">
<path fill-rule="evenodd" clip-rule="evenodd" d="M25.0654 127.484C24.6844 127.356 24.494 127.072 24.3869 126.775C24.1042 125.998 23.7819 125.142 23.6618 124.285C23.156 116.273 23.7364 108.289 24.7206 100.305C25.0775 97.2249 26.0475 94.3469 27.4687 91.5533C28.1465 90.3541 28.6004 89.0076 29.2354 87.7221C29.2163 87.9879 29.2354 88.333 29.2126 88.5975C28.376 94.93 27.5998 101.276 26.8441 107.565C26.4864 110.242 26.3128 112.975 26.0994 115.63C26.0393 116.017 26.1163 116.387 26.3229 116.795C26.7558 114.896 26.6403 113.02 26.8724 111.118C27.1619 109.242 27.3722 107.404 27.6672 105.525C27.8971 103.629 28.1884 101.748 28.4401 99.7873C28.6504 97.9496 28.8804 96.0536 29.0907 94.2159L29.784 88.5179C29.8686 88.4801 29.9269 88.4997 30.0116 88.4578C30.0689 88.8862 30.1099 89.3796 30.2519 89.766C30.5933 90.9715 30.9798 92.0554 31.3408 93.2025C31.8292 94.7961 32.0455 96.3685 32.0195 98.0652C31.8174 103.516 31.6149 108.971 30.557 114.34C29.8923 117.932 28.9815 121.442 27.4987 124.825C27.1915 125.539 26.6994 126.192 26.2656 126.864C26.0206 127.189 25.692 127.352 25.488 127.555C25.3253 127.55 25.1858 127.525 25.0654 127.484ZM18.1326 91.5424C18.216 90.8891 18.6257 90.4813 19.0362 90.0752C19.7342 89.4273 20.5122 88.7346 21.3297 88.1215C23.7691 86.3537 25.9186 84.2161 27.5429 81.6277C27.6426 81.5245 27.7481 81.4246 27.7896 81.3018C27.5579 83.2028 27.3262 85.0996 25.7895 86.4239C25.2968 86.8687 24.828 87.2551 24.2954 87.6215C22.7777 88.68 21.3246 89.7561 19.832 90.7525C19.3011 91.1181 18.8269 91.5041 18.1326 91.5424ZM47.4035 84.7782C47.3007 84.6772 47.1778 84.6358 47.0776 84.5316C45.9792 83.5505 44.8776 82.5628 43.7604 81.6417C40.4802 78.8349 38.1621 75.3918 36.3996 71.5265C36.2976 71.4271 36.2561 71.3413 36.2375 71.1996C36.2576 71.14 36.2986 71.0184 36.2397 70.7912C36.5234 71.1591 36.6632 71.343 36.8462 71.612C38.515 74.148 40.4683 76.4427 42.5633 78.7188C44.2731 80.5224 45.7361 82.4431 47.3461 84.3498C47.3831 84.4328 47.4646 84.597 47.4035 84.7782ZM53.3767 100.655C53.2811 100.622 53.1794 100.58 53.0714 100.527C52.5393 100.277 52.0905 99.9889 51.6626 99.6429C50.8285 98.8823 49.9333 98.1065 49.1407 97.2229C44.8243 92.4305 40.9013 87.2911 37.4275 81.8235C35.7401 79.1458 34.6055 76.2384 34.23 73.1128C34.0676 71.7659 34.093 70.4768 34.0585 69.1729C34.0005 68.537 33.92 67.964 34.063 67.3308C34.2268 67.8656 34.4691 68.3563 34.6292 68.8857C36.594 74.591 39.5989 79.83 42.7882 84.9281C44.7979 88.0599 46.8914 91.1482 49.0059 94.1785C49.2313 94.5267 49.4726 94.8154 49.7205 95.1007C46.246 89.2293 42.3001 83.7395 39.1951 77.5836C39.2983 77.6833 39.42 77.7243 39.5211 77.8303C40.8029 79.6899 42.4722 81.2075 44.1419 82.7239C45.8758 84.2633 47.5825 85.8627 49.2322 87.4386C50.9834 89.1193 52.1223 91.21 53.0937 93.3755C53.7821 94.9702 54.2687 96.5687 54.5086 98.2845C54.5463 98.7713 54.5869 99.2659 54.5017 99.7112C54.3924 100.573 54.0481 100.881 53.3767 100.655ZM12.9401 90.305C12.3369 90.1016 11.9082 89.508 11.9341 88.7055C11.898 87.6029 12.1635 86.6019 12.6797 85.6855C13.3579 84.481 14.1159 83.2369 14.8574 82.0578C16.4789 79.6703 18.1394 77.3678 19.7009 74.9656C21.1775 72.8029 22.47 70.5837 23.9072 68.3413C24.5425 68.0759 25.2809 67.7139 26.099 67.3083C23.7705 72.7938 20.7106 77.8254 17.6502 82.8623C20.0915 79.6621 22.2501 76.3002 24.0778 72.69C25.1067 70.6542 26.0752 68.5925 27.0408 66.5354C27.2447 66.1231 27.4331 65.7775 27.6781 65.4524C28.1502 64.8639 28.6423 64.2116 29.2337 63.4573C29.2327 63.8661 29.235 64.0686 29.2535 64.2103C29.1607 67.3148 28.1903 70.194 26.8159 72.8652C24.2653 77.7962 21.4499 82.5081 17.926 86.702C17.2286 87.5573 16.4876 88.333 15.7733 89.0459C15.3439 89.512 14.8118 89.8772 14.3206 90.1207C13.8393 90.4007 13.3496 90.443 12.9401 90.305ZM43.1296 61.4616C41.2345 60.8229 38.6325 56.6027 38.1112 53.7003C38.4559 54.2974 38.7211 54.724 38.9844 55.1569C39.9626 56.5065 40.8989 57.7757 41.8717 59.1291C42.4617 59.8019 42.9083 60.4984 43.1296 61.4616ZM2.21945 67.7619C1.99235 67.6854 1.77249 67.538 1.56917 67.2843C1.71429 66.2428 2.20793 65.3892 2.84424 64.7151C4.03056 63.4136 5.22226 62.1085 6.49005 60.9713C10.013 57.7971 13.6392 54.7226 17.2855 51.5885C17.6734 51.2452 18.1859 50.9384 18.6602 50.5524C20.1129 49.4775 21.666 48.7033 23.5243 48.4465C24.6901 48.2231 25.8172 47.9216 27.0396 47.7228C22.4499 52.4461 17.0849 56.2267 11.7655 60.089C17.1877 56.9427 22.1427 53.1607 26.791 48.8662C26.7299 49.0474 26.6671 49.2336 26.5264 49.4584C26.2557 50.0485 25.9911 50.6406 25.7015 51.2907C24.9007 53.4739 23.5862 55.3485 21.7804 56.8557C16.9874 60.9646 11.7273 64.4379 5.92061 66.9129C5.10216 67.3197 4.22397 67.4978 3.32445 67.7391C2.96013 67.8278 2.58059 67.8836 2.21945 67.7619ZM23.6899 67.6821C23.6204 67.6587 23.5513 67.6257 23.4819 67.5816C23.0344 67.2939 22.8541 66.8241 22.9556 66.3138C23.1824 65.2349 23.39 64.213 23.7846 63.2556C24.2795 61.7875 25.0192 60.4005 25.5724 58.952C26.6684 55.9133 27.6999 52.8529 28.7314 49.7925C30.0912 45.545 32.2294 41.8377 35.222 38.6215C35.8583 37.9473 36.4514 37.1922 37.1275 36.4002C37.1297 36.6027 37.1663 36.6869 37.1253 36.8085C36.1369 39.339 35.0895 41.8481 34.0803 44.4364C32.4698 48.5994 30.5586 52.6542 28.4629 56.6536C27.9681 57.5068 27.5361 58.3866 27.0832 59.3244C31.5384 52.5767 34.464 45.1103 37.208 37.5841L37.3892 37.6451C37.3897 37.8526 37.4515 38.0752 37.3888 38.2614C37.2782 39.9959 37.1726 41.732 36.9404 43.4256C36.7529 44.9987 36.4837 46.6092 36.0255 48.1616C34.3298 54.4062 31.4337 59.9726 27.3713 64.9399C26.8578 65.6555 26.1845 66.2467 25.57 66.8564C25.3446 67.119 25.0761 67.3008 24.8321 67.4258C24.4665 67.6495 24.0734 67.8114 23.6899 67.6821ZM55.3619 74.8165C55.2564 74.7809 55.1468 74.7329 55.0344 74.6729C53.9568 74.0361 53.3481 73.0127 52.9021 71.9088C52.1736 70.027 51.5232 68.1065 50.9374 66.2036C50.3907 64.5903 49.8654 62.9137 49.3401 61.2372C49.0605 60.2543 48.796 59.2102 48.5361 58.169C48.0522 56.3696 47.6462 54.5315 47.1619 52.7333C46.3765 49.8068 45.5508 46.8031 44.7851 43.8183C43.8757 40.4478 43.0476 37.0329 43.8356 33.4813C43.84 33.2755 43.9225 33.031 43.9639 32.9082C44.202 34.0139 44.3823 35.0946 44.6472 36.1375C45.3928 39.186 46.1389 42.2292 46.9416 45.2969C47.6921 47.7322 48.437 50.164 49.2463 52.6177C49.8322 54.5164 50.5026 56.3773 51.1464 58.3011C51.4523 59.2224 51.6949 60.1223 51.9362 61.0218C52.5189 63.1268 53.0651 65.1476 53.6724 67.1959C53.7128 67.4818 53.8963 67.7454 54.078 68.014C53.5549 65.9291 53.0104 63.9033 52.4647 61.8813C52.1409 60.6112 51.8196 59.3462 51.4746 58.1395C51.0125 56.4842 50.4675 54.866 49.9204 53.254C49.4557 51.7996 49.0488 50.3703 48.5852 48.9163C47.9981 47.0171 47.4127 45.113 46.8901 43.2356C46.5045 41.7429 46.1243 40.2508 45.7207 38.6152C45.8604 38.7991 45.9237 38.8204 45.9237 38.8204C47.4258 41.4371 48.9516 43.9954 50.2865 46.698C51.2829 48.8056 52.0905 51.0513 52.9239 53.2408C53.7915 55.7141 54.6424 58.2536 55.4095 60.8284C56.2379 63.6271 57.0463 66.4895 57.1958 69.4739C57.3177 70.5349 57.2917 71.6166 57.2062 72.6782C57.1642 73.2085 56.9777 73.7621 56.6699 74.2692C56.3607 74.8504 55.9079 75.0005 55.3619 74.8165ZM1.99751 41.2392C1.72197 41.1464 1.45108 41.0399 1.18685 40.9176C0.777533 40.7092 0.471267 40.4042 0.496692 39.7301C0.929532 38.8519 1.64479 38.3453 2.46408 37.9401C3.97584 37.2887 5.49129 36.6427 7.04497 36.076C14.2019 33.4452 21.2186 30.4231 27.9484 26.8288C29.9328 25.7963 31.959 24.8444 34.1645 24.5623C35.1655 24.4256 36.1456 24.3469 37.1484 24.2053C37.926 24.1288 38.6616 23.9677 39.4154 23.9495C34.85 27.3832 29.8162 30.1851 24.599 32.7233C19.4254 35.3413 13.9629 37.1804 8.54483 39.1009C19.8894 36.179 30.2218 31.0031 39.9079 24.3172L39.7213 24.8707C38.6492 27.4365 36.7459 29.2495 34.4723 30.7345C30.0319 33.8013 25.3447 36.3827 20.2708 38.2825C16.7355 39.6808 13.1749 40.732 9.49985 41.3314C7.2698 41.6702 5.06434 41.9523 2.83744 41.474C2.55312 41.4113 2.27301 41.3321 1.99751 41.2392ZM67.6294 60.6601C67.4495 60.5995 67.2689 60.4916 67.0925 60.3341C66.4603 59.7824 65.8494 59.1674 65.4238 58.4089C63.7171 55.7883 62.0301 53.1093 60.4491 50.3251C58.9433 47.7072 57.5439 44.9829 56.3067 42.1832C55.3967 40.2416 54.7298 38.1732 54.2067 36.0883C53.5572 33.759 53.6509 31.267 53.6377 28.8786C53.6173 27.9181 53.6031 26.9597 53.5854 26.2005C57.436 35.4049 61.3224 44.6919 65.4588 53.8559C65.7024 54.3471 66.0305 54.7962 66.3525 55.2475C66.0096 54.2433 65.5871 53.2827 65.178 52.2617L60.3754 41.031C59.1796 38.1085 57.9058 35.2247 56.6254 32.34C55.3516 29.4562 54.2154 26.5497 53.5544 23.4633C53.5139 23.1774 53.4102 22.8702 53.4543 22.5465C53.5571 22.6475 53.6574 22.7517 53.7388 22.916C54.7516 24.9587 56.1578 26.6585 57.6427 28.3213C59.9212 30.861 61.4624 33.7631 63.0866 36.6282C64.8516 39.8835 66.3969 43.196 67.5491 46.6538C68.46 49.208 69.064 51.8647 69.3176 54.5401C69.4364 55.8074 69.4956 57.0546 69.4915 58.2804C69.5079 58.8305 69.3213 59.384 69.097 59.8529C68.7542 60.5665 68.1978 60.8517 67.6294 60.6601ZM39.515 12.7347C40.2325 11.8198 41.0942 11.4938 41.9718 11.1083C43.6898 10.4601 47.4682 10.1692 49.5936 10.5428C46.3797 12.1849 42.9675 12.1971 39.515 12.7347ZM24.927 128.014C25.4358 128.186 26.0064 127.969 26.5292 127.295C27.1072 126.601 27.577 125.806 27.9877 124.989C29.7166 121.074 30.6693 117.033 31.3394 112.831C32.1114 108.113 32.2868 103.337 32.4705 98.5558C32.4756 96.9212 32.4169 95.2665 31.9335 93.6746C31.6098 92.4045 31.2051 91.1777 30.8005 89.9509C30.1949 88.1105 29.9752 86.3352 30.1272 84.4778C30.387 79.4505 30.6898 74.5095 31.0113 69.5085C31.247 66.3817 31.5456 63.2816 31.8594 60.116C31.8201 59.8306 32.0073 59.4846 32.0481 59.1542C32.2512 59.3595 32.3327 59.5237 32.3549 59.6667C32.6533 61.6109 32.9549 63.5493 33.1702 65.5304C33.3893 66.902 33.4071 68.272 33.5645 69.6173C33.6242 70.8633 33.5568 72.0678 33.7589 73.2968C34.1159 76.2807 35.1468 79.0813 36.7742 81.7401C40.4496 87.6142 44.6613 93.1232 49.4006 98.2641C50.1562 99.0647 51.0699 99.7818 51.9252 100.479C52.3149 100.746 52.7838 100.974 53.274 101.14C54.067 101.407 54.7208 101.083 54.9314 100.265C55.0349 99.5523 55.0762 98.8144 55.0167 98.1835C54.6789 95.5447 53.6682 93.0937 52.3891 90.8203C49.7875 86.1968 46.5127 82.1603 42.9098 78.2897C41.0178 76.2189 39.1246 74.1517 37.6026 71.7951C36.4874 70.0565 35.4505 68.278 34.5158 66.393C33.3579 64.166 33.1216 61.6319 32.6426 59.2191C32.5408 58.7094 32.584 58.1794 32.7874 57.7685C34.164 55.3039 35.0936 52.7551 35.9817 50.1203C36.064 49.8758 36.1465 49.6314 36.3073 49.347C36.8402 50.0006 36.8567 50.7594 36.9758 51.4104C37.3364 53.5759 37.9824 55.7022 39.0781 57.7079C39.9102 59.2861 40.99 60.7405 42.4746 61.7853C42.6134 61.8902 42.7522 61.995 42.9086 62.0477C43.1195 62.1188 43.3623 62.0956 43.6804 61.849C43.5013 61.3796 43.4405 60.7482 43.1773 60.3154C42.6052 59.3763 41.9551 58.4758 41.2841 57.6333C39.4946 55.2584 38.0124 52.7839 37.0623 49.9401C36.7614 49.0205 36.5385 48.0622 36.827 46.9972C37.3873 45.142 37.5745 43.1597 37.6246 41.203C37.7161 38.0981 38.5633 35.1787 39.9589 32.4483C40.99 30.4063 42.3443 28.4097 43.4923 26.414C43.6184 26.2492 43.7378 26.0877 43.943 25.8846C43.9161 28.6009 43.8032 31.1541 43.3445 33.7249C42.869 35.9472 42.9437 38.1532 43.49 40.3828C44.0313 42.6106 44.6559 44.8002 45.2026 47.0285C45.7875 49.336 46.3075 51.6271 46.8937 53.9351C47.2159 55.4063 47.6015 56.899 48.065 58.3529C48.8329 60.9294 49.5799 63.5638 50.3478 66.1403C50.9916 68.0641 51.679 70.0676 52.389 72.0081C52.7751 73.0932 53.4051 74.0574 54.2991 74.8328C54.5668 75.0474 54.8438 75.2015 55.1193 75.2944C56.0575 75.6106 56.9687 75.2115 57.3669 74.0301C57.6315 73.4379 57.7798 72.8052 57.7798 72.1902C57.8704 69.4939 57.4525 66.9 56.8275 64.3054L56.3417 62.7084C55.8178 60.8306 55.3552 58.9679 54.7681 57.0687C54.0807 55.0653 53.3292 53.0388 52.5834 51.0157C51.3685 47.744 49.9897 44.5526 48.1009 41.6646C46.9811 39.9231 46.0301 38.1031 45.3796 36.1826C44.3503 32.7662 44.1569 29.2929 44.4565 25.784C44.5624 25.0679 44.7686 24.4561 45.1749 23.8453C47.6189 20.4442 50.0597 17.0407 52.4397 13.6166C52.5255 13.575 52.6253 13.4718 52.8092 13.3321C52.77 13.6574 52.7869 13.8 52.7459 13.9216C52.3099 16.6382 52.4642 19.4155 52.7823 22.1127C53.0797 24.4656 53.193 26.7496 53.1465 29.1221C53.1597 31.5105 53.1703 33.9023 53.7569 36.2089C54.2568 38.5596 55.1075 40.8904 56.1405 43.0822C58.6766 48.7077 61.8857 53.9438 65.2595 59.1054C65.6645 59.7159 66.1526 60.2895 66.6832 60.7406C66.9142 60.9166 67.1506 61.0433 67.3852 61.1223C68.3073 61.4331 69.1958 61.0112 69.6085 59.9548C69.8567 59.4276 69.9996 58.7944 70 58.1782C69.9463 56.5252 69.8881 54.8692 69.6281 53.2171C69.31 50.52 68.6053 47.9648 67.6329 45.3843C66.3792 42.0347 64.7773 38.6975 63.0493 35.5252C61.4448 32.6017 59.6567 29.8168 57.4215 27.358C56.5856 26.3936 55.8323 25.3934 55.1641 24.35C54.0028 22.7314 53.1734 20.9523 53.0164 18.9908C52.8174 16.9447 52.8875 14.9243 53.3401 12.9665C53.4684 12.3933 53.7329 11.8011 54.1039 11.3153C55.2956 9.39935 56.5889 7.58392 57.7805 5.66792C58.8663 3.85303 59.9138 1.95892 61.0045 0.145697C60.9412 0.12437 60.903 0.0409994 60.7813 0C60.4937 0.447564 60.2253 0.838033 59.9601 1.22272C58.3962 3.62823 56.898 6.05178 55.3615 8.39609C55.1732 8.74169 54.9277 9.06804 54.6193 9.17138C53.8422 9.45537 53.0655 9.73813 52.2284 9.79455C51.0844 9.95349 49.8585 9.94939 48.6972 9.96704C46.7771 10.0012 44.8544 9.83409 42.977 10.3567C41.4001 10.7788 39.9476 11.4515 38.8396 12.713C38.6569 12.8532 38.5158 13.0793 38.3061 13.4882C38.7362 13.4258 39.0221 13.3854 39.2279 13.3898C40.903 13.0657 42.6602 12.703 44.3554 12.5281C46.2574 12.351 48.0349 11.7229 49.7742 11.0114C51.2051 10.4032 52.6559 10.1459 54.25 9.86509L54.1065 10.2908C52.7108 12.4103 51.2555 14.5097 49.2445 16.22C46.6875 18.3571 44.0659 20.4725 41.4443 22.5879C41.2387 22.7922 40.9331 22.891 40.6062 23.0531C39.1528 23.7241 37.5777 23.7392 36.025 23.8971C34.2714 24.0524 32.4911 24.2705 30.815 25.0033C29.2586 25.7709 27.6422 26.5238 26.069 27.3576C20.975 29.9319 15.8206 32.284 10.4596 34.2279C8.04959 35.1169 5.67786 36.0892 3.30444 37.0624C2.25922 37.5269 1.27692 38.014 0.521202 38.8497C-0.1762 39.705 -0.2813 40.4228 0.87689 41.2223C1.14489 41.448 1.44896 41.5505 1.75673 41.6542C2.71361 41.8413 3.65622 42.0872 4.59495 42.1313C6.86107 42.2842 9.08614 41.9438 11.3572 41.4834C12.6014 41.22 13.8081 40.8749 15.0769 40.5549C15.9977 40.2503 16.9559 40.0273 17.8755 39.7264C20.0847 38.8347 22.337 38.0239 24.4442 37.0328C28.7161 35.0646 32.7688 32.7502 36.4539 29.9029C38.0338 28.6636 39.2037 27.2143 40.0035 25.4399C40.5589 24.1981 41.5039 23.2189 42.4667 22.388L48.9768 17.0143C49.0827 16.9131 49.2458 16.8313 49.5094 16.6479L49.4053 16.9569C49.1188 17.4049 48.7941 17.7695 48.5257 18.1599C45.5115 22.252 42.5968 26.4508 40.1305 30.9348C38.5865 33.687 36.7219 36.193 34.6275 38.5566C33.2367 40.0627 32.1291 41.7334 30.9352 43.4469C30.2401 44.5048 29.2938 45.4836 28.4334 46.4208C28.2084 46.6822 27.8228 46.8259 27.451 46.9079C25.7962 47.3686 24.1606 47.7724 22.5255 48.1748L21.1758 48.5381C19.7646 49.0879 18.516 49.9592 17.3885 50.8769C15.4851 52.4812 13.6014 54.0271 11.7592 55.6589C9.03555 58.0771 6.36812 60.5212 3.68728 63.0257C2.72451 63.8565 1.96561 64.8985 1.4299 66.082C1.08116 66.7107 1.01748 67.3057 1.52282 68.0205C1.85316 68.0614 2.34339 68.2266 2.77056 68.1688C3.77328 68.0272 4.85439 67.8457 5.79528 67.4815C8.26857 66.6138 10.5219 65.3943 12.6883 64.0141C16.049 61.9405 19.3003 59.7651 22.2296 57.1426C23.9717 55.6152 25.2636 53.8035 26.1081 51.7C26.4578 50.6625 26.9744 49.7448 27.4486 48.7438C27.8388 47.9921 28.4525 47.3808 29.1904 46.8114C29.1876 47.0122 29.1249 47.1984 29.0638 47.3796C28.6509 48.6045 28.1802 49.8085 27.7677 51.0321C26.5901 54.9319 25.1467 58.8085 23.4592 62.6014C23.0872 63.496 22.8405 64.4369 22.5902 65.3725C22.383 66.3931 22.2974 67.4546 23.339 68.2148C22.801 69.1957 22.2702 70.1722 21.6956 71.0689C19.4154 74.3898 17.1586 77.6536 15.0226 80.9526C13.9748 82.4417 13.0298 84.0318 12.1493 85.6436C11.6135 86.6183 11.3833 87.703 11.4206 88.806C11.457 89.8216 12.0004 90.5466 12.75 90.7992C13.2216 90.9582 13.7754 90.9306 14.3366 90.672C14.9908 90.3466 15.6276 89.8799 16.1166 89.4338C17.1212 88.4747 18.0025 87.4796 18.8456 86.4011C22.0029 82.4872 24.5285 78.2291 26.916 73.7821C28.436 70.8877 29.5271 67.8474 29.7656 64.5197C29.8286 63.521 30.2182 62.5619 30.5483 61.5827C30.6306 61.3382 30.8351 61.1335 30.982 60.9108C31.1206 61.0943 31.1441 61.2376 31.161 61.3802C30.8432 65.7715 30.4608 70.1412 30.2001 74.5518C30.1544 75.6918 29.7661 76.6513 29.2914 77.6536C29.1261 77.9351 28.9837 78.1607 28.838 78.3839C27.1332 82.0355 24.6683 85.0924 21.4143 87.4686C20.8821 87.8338 20.4325 88.1632 20.0232 88.5697C19.3253 89.2176 18.6689 89.9514 18.0129 90.6839C17.7859 90.9515 17.7266 91.3406 17.4973 91.8078C18.5179 92.015 19.1729 91.6912 19.8681 91.2442C21.55 90.1043 23.1883 88.8847 24.9269 87.7694C26.6684 86.6496 27.6914 85.0209 28.1074 82.9789C28.2362 81.9982 28.5029 80.9977 28.6887 80.0404C28.9194 79.1631 29.3696 78.4262 29.9027 77.6523C29.9597 78.697 29.8959 79.694 29.83 80.6973C29.6539 84.4551 28.7666 88.1086 26.958 91.453C25.5586 94.1821 24.5886 97.0601 24.2316 100.141C23.2484 107.716 22.8114 115.273 23.0344 122.911C23.1306 124.241 23.288 125.586 23.8352 126.796C24.1121 127.451 24.4976 127.869 24.927 128.014Z" fill="#30A093"/>
</svg>
